<?xml version="1.0" encoding="UTF-8" standalone="no"?><svg xmlns="http://www.w3.org/2000/svg" xmlns:xlink="http://www.w3.org/1999/xlink" contentStyleType="text/css" height="414px" preserveAspectRatio="none" style="width:913px;height:414px;background:#FFFFFF;" version="1.1" viewBox="0 0 913 414" width="913px" zoomAndPan="magnify"><defs/><g><rect fill="#091F2C" height="37.6094" rx="12.5" ry="12.5" style="stroke:#181818;stroke-width:3.0;" width="189" x="10" y="187.2891"/><text fill="#FFFFFF" font-family="sans-serif" font-size="14" lengthAdjust="spacing" textLength="169" x="20" y="211.8223">Data engineering on Azure</text><rect fill="#FFB900" height="37.6094" rx="12.5" ry="12.5" style="stroke:#FFB900;stroke-width:3.0;" width="199" x="249" y="79.4375"/><text fill="#000000" font-family="sans-serif" font-size="14" lengthAdjust="spacing" textLength="175" x="259" y="103.9707">1) What is data engineering</text><rect fill="#FFB900" height="37.6094" rx="12.5" ry="12.5" style="stroke:#FFB900;stroke-width:3.0;" width="111" x="498" y="20.6094"/><text fill="#000000" font-family="sans-serif" font-size="14" lengthAdjust="spacing" textLength="87" x="508" y="45.1426">Types of data</text><text fill="#000000" font-family="sans-serif" font-size="14" lengthAdjust="spacing" textLength="66" x="662" y="25.5332">Structured</text><path d="M609,39.4141 L619,39.4141 C634,39.4141 634,19.8047 649,19.8047 L659,19.8047 " fill="none" style="stroke:#FFB900;stroke-width:3.0;"/><text fill="#000000" font-family="sans-serif" font-size="14" lengthAdjust="spacing" textLength="81" x="662" y="45.1426">Unstructured</text><path d="M609,39.4141 L619,39.4141 C634,39.4141 634,39.4141 649,39.4141 L659,39.4141 " fill="none" style="stroke:#FFB900;stroke-width:3.0;"/><text fill="#000000" font-family="sans-serif" font-size="14" lengthAdjust="spacing" textLength="102" x="662" y="64.752">Semi-Structured</text><path d="M609,39.4141 L619,39.4141 C634,39.4141 634,59.0234 649,59.0234 L659,59.0234 " fill="none" style="stroke:#FFB900;stroke-width:3.0;"/><path d="M448,98.2422 L458,98.2422 C473,98.2422 473,39.4141 488,39.4141 L498,39.4141 " fill="none" style="stroke:#FFB900;stroke-width:3.0;"/><rect fill="#FFB900" height="37.6094" rx="12.5" ry="12.5" style="stroke:#FFB900;stroke-width:3.0;" width="125" x="498" y="79.4375"/><text fill="#000000" font-family="sans-serif" font-size="14" lengthAdjust="spacing" textLength="101" x="508" y="103.9707">Data operations</text><text fill="#000000" font-family="sans-serif" font-size="14" lengthAdjust="spacing" textLength="101" x="676" y="84.3613">Data integration</text><path d="M623,98.2422 L633,98.2422 C648,98.2422 648,78.6328 663,78.6328 L673,78.6328 " fill="none" style="stroke:#FFB900;stroke-width:3.0;"/><text fill="#000000" font-family="sans-serif" font-size="14" lengthAdjust="spacing" textLength="125" x="676" y="103.9707">Data transformation</text><path d="M623,98.2422 L633,98.2422 C648,98.2422 648,98.2422 663,98.2422 L673,98.2422 " fill="none" style="stroke:#FFB900;stroke-width:3.0;"/><text fill="#000000" font-family="sans-serif" font-size="14" lengthAdjust="spacing" textLength="117" x="676" y="123.5801">Data consolidation</text><path d="M623,98.2422 L633,98.2422 C648,98.2422 648,117.8516 663,117.8516 L673,117.8516 " fill="none" style="stroke:#FFB900;stroke-width:3.0;"/><path d="M448,98.2422 L458,98.2422 C473,98.2422 473,98.2422 488,98.2422 L498,98.2422 " fill="none" style="stroke:#FFB900;stroke-width:3.0;"/><rect fill="#FFB900" height="37.6094" rx="12.5" ry="12.5" style="stroke:#FFB900;stroke-width:3.0;" width="150" x="498" y="138.2656"/><text fill="#000000" font-family="sans-serif" font-size="14" lengthAdjust="spacing" textLength="126" x="508" y="162.7988">Common languages</text><text fill="#000000" font-family="sans-serif" font-size="14" lengthAdjust="spacing" textLength="28" x="701" y="143.1895">SQL</text><path d="M648,157.0703 L658,157.0703 C673,157.0703 673,137.4609 688,137.4609 L698,137.4609 " fill="none" style="stroke:#FFB900;stroke-width:3.0;"/><text fill="#000000" font-family="sans-serif" font-size="14" lengthAdjust="spacing" textLength="44" x="701" y="162.7988">Python</text><path d="M648,157.0703 L658,157.0703 C673,157.0703 673,157.0703 688,157.0703 L698,157.0703 " fill="none" style="stroke:#FFB900;stroke-width:3.0;"/><text fill="#000000" font-family="sans-serif" font-size="14" lengthAdjust="spacing" textLength="200" x="701" y="182.4082">Others: R, Java, Scala, .NET, ...</text><path d="M648,157.0703 L658,157.0703 C673,157.0703 673,176.6797 688,176.6797 L698,176.6797 " fill="none" style="stroke:#FFB900;stroke-width:3.0;"/><path d="M448,98.2422 L458,98.2422 C473,98.2422 473,157.0703 488,157.0703 L498,157.0703 " fill="none" style="stroke:#FFB900;stroke-width:3.0;"/><path d="M199,206.0938 L209,206.0938 C224,206.0938 224,98.2422 239,98.2422 L249,98.2422 " fill="none" style="stroke:#181818;stroke-width:3.0;"/><rect fill="#F4364C" height="37.6094" rx="12.5" ry="12.5" style="stroke:#F4364C;stroke-width:3.0;" width="272" x="249" y="226.5078"/><text fill="#FFFFFF" font-family="sans-serif" font-size="14" lengthAdjust="spacing" textLength="248" x="259" y="251.041">2) Important data engineering concepts</text><text fill="#000000" font-family="sans-serif" font-size="14" lengthAdjust="spacing" textLength="197" x="574" y="202.0176">Operational and analytical data</text><path d="M521,245.3125 L531,245.3125 C546,245.3125 546,196.2891 561,196.2891 L571,196.2891 " fill="none" style="stroke:#F4364C;stroke-width:3.0;"/><text fill="#000000" font-family="sans-serif" font-size="14" lengthAdjust="spacing" textLength="96" x="574" y="221.627">Streaming data</text><path d="M521,245.3125 L531,245.3125 C546,245.3125 546,215.8984 561,215.8984 L571,215.8984 " fill="none" style="stroke:#F4364C;stroke-width:3.0;"/><text fill="#000000" font-family="sans-serif" font-size="14" lengthAdjust="spacing" textLength="90" x="574" y="241.2363">Data pipelines</text><path d="M521,245.3125 L531,245.3125 C546,245.3125 546,235.5078 561,235.5078 L571,235.5078 " fill="none" style="stroke:#F4364C;stroke-width:3.0;"/><text fill="#000000" font-family="sans-serif" font-size="14" lengthAdjust="spacing" textLength="67" x="574" y="260.8457">Data lakes</text><path d="M521,245.3125 L531,245.3125 C546,245.3125 546,255.1172 561,255.1172 L571,255.1172 " fill="none" style="stroke:#F4364C;stroke-width:3.0;"/><text fill="#000000" font-family="sans-serif" font-size="14" lengthAdjust="spacing" textLength="110" x="574" y="280.4551">Data warehouses</text><path d="M521,245.3125 L531,245.3125 C546,245.3125 546,274.7266 561,274.7266 L571,274.7266 " fill="none" style="stroke:#F4364C;stroke-width:3.0;"/><text fill="#000000" font-family="sans-serif" font-size="14" lengthAdjust="spacing" textLength="89" x="574" y="300.0645">Apache Spark</text><path d="M521,245.3125 L531,245.3125 C546,245.3125 546,294.3359 561,294.3359 L571,294.3359 " fill="none" style="stroke:#F4364C;stroke-width:3.0;"/><path d="M199,206.0938 L209,206.0938 C224,206.0938 224,245.3125 239,245.3125 L249,245.3125 " fill="none" style="stroke:#181818;stroke-width:3.0;"/><rect fill="#C5B4E3" height="37.6094" rx="12.5" ry="12.5" style="stroke:#C5B4E3;stroke-width:3.0;" width="266" x="249" y="334.3594"/><text fill="#000000" font-family="sans-serif" font-size="14" lengthAdjust="spacing" textLength="242" x="259" y="358.8926">3) Data engineering in Microsoft Azure</text><text fill="#000000" font-family="sans-serif" font-size="14" lengthAdjust="spacing" textLength="155" x="568" y="319.6738">Azure Synapse Analytics</text><path d="M515,353.1641 L525,353.1641 C540,353.1641 540,313.9453 555,313.9453 L565,313.9453 " fill="none" style="stroke:#C5B4E3;stroke-width:3.0;"/><text fill="#000000" font-family="sans-serif" font-size="14" lengthAdjust="spacing" textLength="198" x="568" y="339.2832">Azure Data Lake Storage Gen2</text><path d="M515,353.1641 L525,353.1641 C540,353.1641 540,333.5547 555,333.5547 L565,333.5547 " fill="none" style="stroke:#C5B4E3;stroke-width:3.0;"/><text fill="#000000" font-family="sans-serif" font-size="14" lengthAdjust="spacing" textLength="145" x="568" y="358.8926">Azure Stream Analytics</text><path d="M515,353.1641 L525,353.1641 C540,353.1641 540,353.1641 555,353.1641 L565,353.1641 " fill="none" style="stroke:#C5B4E3;stroke-width:3.0;"/><text fill="#000000" font-family="sans-serif" font-size="14" lengthAdjust="spacing" textLength="122" x="568" y="378.502">Azure Data Factory</text><path d="M515,353.1641 L525,353.1641 C540,353.1641 540,372.7734 555,372.7734 L565,372.7734 " fill="none" style="stroke:#C5B4E3;stroke-width:3.0;"/><text fill="#000000" font-family="sans-serif" font-size="14" lengthAdjust="spacing" textLength="107" x="568" y="398.1113">Azure Databricks</text><path d="M515,353.1641 L525,353.1641 C540,353.1641 540,392.3828 555,392.3828 L565,392.3828 " fill="none" style="stroke:#C5B4E3;stroke-width:3.0;"/><path d="M199,206.0938 L209,206.0938 C224,206.0938 224,353.1641 239,353.1641 L249,353.1641 " fill="none" style="stroke:#181818;stroke-width:3.0;"/><!--MD5=[9e59bec4227b24c2eb67db1bdc083f66]
@startmindmap
<style>
:depth(0) {
    BackgroundColor #091f2c
    FontColor #ffffff
    LineThickness 3.0
}
.topic1 {
    BackgroundColor #ffb900
    LineColor #ffb900
    LineThickness 3.0
    FontColor #000000
}
.topic2 {
    BackgroundColor #f4364c
    LineColor #f4364c
    LineThickness 3.0
    FontColor #ffffff
}
.topic3 {
    BackgroundColor #c5b4e3
    LineColor #c5b4e3
    LineThickness 3.0
    FontColor #000000
}
.topic4 {
    BackgroundColor #e1d3c7
    LineColor #e1d3c7
    LineThickness 3.0
    FontColor #000000
}
.topic5 {
    BackgroundColor #07641d
    LineColor #07641d
    LineThickness 3.0
    FontColor #ffffff
}
</style>
+ Data engineering on Azure
++ 1) What is data engineering <<topic1>>
+++ Types of data <<topic1>>
++++_ Structured
++++_ Unstructured
++++_ Semi-Structured
+++ Data operations <<topic1>>
++++_ Data integration
++++_ Data transformation
++++_ Data consolidation
+++ Common languages <<topic1>>
++++_ SQL
++++_ Python
++++_ Others: R, Java, Scala, .NET, ...
++ 2) Important data engineering concepts <<topic2>>
+++_ Operational and analytical data
+++_ Streaming data
+++_ Data pipelines
+++_ Data lakes
+++_ Data warehouses
+++_ Apache Spark
++ 3) Data engineering in Microsoft Azure <<topic3>>
+++_ Azure Synapse Analytics
+++_ Azure Data Lake Storage Gen2
+++_ Azure Stream Analytics
+++_ Azure Data Factory
+++_ Azure Databricks
@endmindmap

PlantUML version 1.2022.7(Mon Aug 22 19:01:30 CEST 2022)
(GPL source distribution)
Java Runtime: OpenJDK Runtime Environment
JVM: OpenJDK 64-Bit Server VM
Default Encoding: Cp1252
Language: en
Country: US
--></g></svg>