<?xml version="1.0" encoding="UTF-8" standalone="no"?><svg xmlns="http://www.w3.org/2000/svg" xmlns:xlink="http://www.w3.org/1999/xlink" contentStyleType="text/css" height="296px" preserveAspectRatio="none" style="width:1451px;height:296px;background:#FFFFFF;" version="1.1" viewBox="0 0 1451 296" width="1451px" zoomAndPan="magnify"><defs/><g><rect fill="none" height="47.7344" id="_title" style="stroke:none;stroke-width:1.0;" width="723" x="362.5" y="15"/><a href="https://learn.microsoft.com/training/modules/introduction-to-data-engineering-azure/" target="_top" title="https://learn.microsoft.com/training/modules/introduction-to-data-engineering-azure/" xlink:actuate="onRequest" xlink:href="https://learn.microsoft.com/training/modules/introduction-to-data-engineering-azure/" xlink:show="new" xlink:title="https://learn.microsoft.com/training/modules/introduction-to-data-engineering-azure/" xlink:type="simple"><text fill="#0000FF" font-family="sans-serif" font-size="30" font-weight="bold" lengthAdjust="spacing" text-decoration="underline" textLength="104" x="367.5" y="51.1426">Module</text></a><text fill="#000000" font-family="sans-serif" font-size="30" font-weight="bold" lengthAdjust="spacing" textLength="609" x="471.5" y="51.1426">: Introduction to data engineering on Azure</text><rect fill="#091F2C" height="37.6094" rx="12.5" ry="12.5" style="stroke:#181818;stroke-width:3.0;" width="189" x="695" y="157.7813"/><text fill="#FFFFFF" font-family="sans-serif" font-size="14" lengthAdjust="spacing" textLength="169" x="705" y="182.3145">Data engineering on Azure</text><rect fill="#F4364C" height="37.6094" rx="12.5" ry="12.5" style="stroke:#F4364C;stroke-width:3.0;" width="255" x="934" y="108.7578"/><text fill="#FFFFFF" font-family="sans-serif" font-size="14" lengthAdjust="spacing" textLength="231" x="944" y="133.291">Important data engineering concepts</text><text fill="#000000" font-family="sans-serif" font-size="14" lengthAdjust="spacing" textLength="197" x="1242" y="84.2676">Operational and analytical data</text><path d="M1189,127.5625 L1199,127.5625 C1214,127.5625 1214,78.5391 1229,78.5391 L1239,78.5391 " fill="none" style="stroke:#F4364C;stroke-width:3.0;"/><text fill="#000000" font-family="sans-serif" font-size="14" lengthAdjust="spacing" textLength="96" x="1242" y="103.877">Streaming data</text><path d="M1189,127.5625 L1199,127.5625 C1214,127.5625 1214,98.1484 1229,98.1484 L1239,98.1484 " fill="none" style="stroke:#F4364C;stroke-width:3.0;"/><text fill="#000000" font-family="sans-serif" font-size="14" lengthAdjust="spacing" textLength="90" x="1242" y="123.4863">Data pipelines</text><path d="M1189,127.5625 L1199,127.5625 C1214,127.5625 1214,117.7578 1229,117.7578 L1239,117.7578 " fill="none" style="stroke:#F4364C;stroke-width:3.0;"/><text fill="#000000" font-family="sans-serif" font-size="14" lengthAdjust="spacing" textLength="67" x="1242" y="143.0957">Data lakes</text><path d="M1189,127.5625 L1199,127.5625 C1214,127.5625 1214,137.3672 1229,137.3672 L1239,137.3672 " fill="none" style="stroke:#F4364C;stroke-width:3.0;"/><text fill="#000000" font-family="sans-serif" font-size="14" lengthAdjust="spacing" textLength="110" x="1242" y="162.7051">Data warehouses</text><path d="M1189,127.5625 L1199,127.5625 C1214,127.5625 1214,156.9766 1229,156.9766 L1239,156.9766 " fill="none" style="stroke:#F4364C;stroke-width:3.0;"/><text fill="#000000" font-family="sans-serif" font-size="14" lengthAdjust="spacing" textLength="89" x="1242" y="182.3145">Apache Spark</text><path d="M1189,127.5625 L1199,127.5625 C1214,127.5625 1214,176.5859 1229,176.5859 L1239,176.5859 " fill="none" style="stroke:#F4364C;stroke-width:3.0;"/><path d="M884,176.5859 L894,176.5859 C909,176.5859 909,127.5625 924,127.5625 L934,127.5625 " fill="none" style="stroke:#181818;stroke-width:3.0;"/><rect fill="#C5B4E3" height="37.6094" rx="12.5" ry="12.5" style="stroke:#C5B4E3;stroke-width:3.0;" width="249" x="934" y="216.6094"/><text fill="#000000" font-family="sans-serif" font-size="14" lengthAdjust="spacing" textLength="225" x="944" y="241.1426">Data engineering in Microsoft Azure</text><text fill="#000000" font-family="sans-serif" font-size="14" lengthAdjust="spacing" textLength="155" x="1236" y="201.9238">Azure Synapse Analytics</text><path d="M1183,235.4141 L1193,235.4141 C1208,235.4141 1208,196.1953 1223,196.1953 L1233,196.1953 " fill="none" style="stroke:#C5B4E3;stroke-width:3.0;"/><text fill="#000000" font-family="sans-serif" font-size="14" lengthAdjust="spacing" textLength="198" x="1236" y="221.5332">Azure Data Lake Storage Gen2</text><path d="M1183,235.4141 L1193,235.4141 C1208,235.4141 1208,215.8047 1223,215.8047 L1233,215.8047 " fill="none" style="stroke:#C5B4E3;stroke-width:3.0;"/><text fill="#000000" font-family="sans-serif" font-size="14" lengthAdjust="spacing" textLength="145" x="1236" y="241.1426">Azure Stream Analytics</text><path d="M1183,235.4141 L1193,235.4141 C1208,235.4141 1208,235.4141 1223,235.4141 L1233,235.4141 " fill="none" style="stroke:#C5B4E3;stroke-width:3.0;"/><text fill="#000000" font-family="sans-serif" font-size="14" lengthAdjust="spacing" textLength="122" x="1236" y="260.752">Azure Data Factory</text><path d="M1183,235.4141 L1193,235.4141 C1208,235.4141 1208,255.0234 1223,255.0234 L1233,255.0234 " fill="none" style="stroke:#C5B4E3;stroke-width:3.0;"/><text fill="#000000" font-family="sans-serif" font-size="14" lengthAdjust="spacing" textLength="107" x="1236" y="280.3613">Azure Databricks</text><path d="M1183,235.4141 L1193,235.4141 C1208,235.4141 1208,274.6328 1223,274.6328 L1233,274.6328 " fill="none" style="stroke:#C5B4E3;stroke-width:3.0;"/><path d="M884,176.5859 L894,176.5859 C909,176.5859 909,235.4141 924,235.4141 L934,235.4141 " fill="none" style="stroke:#181818;stroke-width:3.0;"/><rect fill="#FFB900" height="37.6094" rx="12.5" ry="12.5" style="stroke:#FFB900;stroke-width:3.0;" width="182" x="463" y="157.7813"/><text fill="#000000" font-family="sans-serif" font-size="14" lengthAdjust="spacing" textLength="158" x="473" y="182.3145">What is data engineering</text><rect fill="#FFB900" height="37.6094" rx="12.5" ry="12.5" style="stroke:#FFB900;stroke-width:3.0;" width="111" x="302" y="98.9531"/><text fill="#000000" font-family="sans-serif" font-size="14" lengthAdjust="spacing" textLength="87" x="312" y="123.4863">Types of data</text><text fill="#000000" font-family="sans-serif" font-size="14" lengthAdjust="spacing" textLength="66" x="183" y="103.877">Structured</text><path d="M302,117.7578 L292,117.7578 C277,117.7578 277,98.1484 262,98.1484 L252,98.1484 " fill="none" style="stroke:#FFB900;stroke-width:3.0;"/><text fill="#000000" font-family="sans-serif" font-size="14" lengthAdjust="spacing" textLength="68" x="181" y="123.4863">Unstructed</text><path d="M302,117.7578 L292,117.7578 C277,117.7578 277,117.7578 262,117.7578 L252,117.7578 " fill="none" style="stroke:#FFB900;stroke-width:3.0;"/><text fill="#000000" font-family="sans-serif" font-size="14" lengthAdjust="spacing" textLength="102" x="147" y="143.0957">Semi-Structured</text><path d="M302,117.7578 L292,117.7578 C277,117.7578 277,137.3672 262,137.3672 L252,137.3672 " fill="none" style="stroke:#FFB900;stroke-width:3.0;"/><path d="M463,176.5859 L453,176.5859 C438,176.5859 438,117.7578 423,117.7578 L413,117.7578 " fill="none" style="stroke:#FFB900;stroke-width:3.0;"/><rect fill="#FFB900" height="37.6094" rx="12.5" ry="12.5" style="stroke:#FFB900;stroke-width:3.0;" width="125" x="288" y="157.7813"/><text fill="#000000" font-family="sans-serif" font-size="14" lengthAdjust="spacing" textLength="101" x="298" y="182.3145">Data operations</text><text fill="#000000" font-family="sans-serif" font-size="14" lengthAdjust="spacing" textLength="101" x="134" y="162.7051">Data integration</text><path d="M288,176.5859 L278,176.5859 C263,176.5859 263,156.9766 248,156.9766 L238,156.9766 " fill="none" style="stroke:#FFB900;stroke-width:3.0;"/><text fill="#000000" font-family="sans-serif" font-size="14" lengthAdjust="spacing" textLength="125" x="110" y="182.3145">Data transformation</text><path d="M288,176.5859 L278,176.5859 C263,176.5859 263,176.5859 248,176.5859 L238,176.5859 " fill="none" style="stroke:#FFB900;stroke-width:3.0;"/><text fill="#000000" font-family="sans-serif" font-size="14" lengthAdjust="spacing" textLength="117" x="118" y="201.9238">Data consolidation</text><path d="M288,176.5859 L278,176.5859 C263,176.5859 263,196.1953 248,196.1953 L238,196.1953 " fill="none" style="stroke:#FFB900;stroke-width:3.0;"/><path d="M463,176.5859 L453,176.5859 C438,176.5859 438,176.5859 423,176.5859 L413,176.5859 " fill="none" style="stroke:#FFB900;stroke-width:3.0;"/><rect fill="#FFB900" height="37.6094" rx="12.5" ry="12.5" style="stroke:#FFB900;stroke-width:3.0;" width="150" x="263" y="216.6094"/><text fill="#000000" font-family="sans-serif" font-size="14" lengthAdjust="spacing" textLength="126" x="273" y="241.1426">Common languages</text><text fill="#000000" font-family="sans-serif" font-size="14" lengthAdjust="spacing" textLength="28" x="182" y="221.5332">SQL</text><path d="M263,235.4141 L253,235.4141 C238,235.4141 238,215.8047 223,215.8047 L213,215.8047 " fill="none" style="stroke:#FFB900;stroke-width:3.0;"/><text fill="#000000" font-family="sans-serif" font-size="14" lengthAdjust="spacing" textLength="44" x="166" y="241.1426">Python</text><path d="M263,235.4141 L253,235.4141 C238,235.4141 238,235.4141 223,235.4141 L213,235.4141 " fill="none" style="stroke:#FFB900;stroke-width:3.0;"/><text fill="#000000" font-family="sans-serif" font-size="14" lengthAdjust="spacing" textLength="200" x="10" y="260.752">Others: R, Java, Scala, .NET, ...</text><path d="M263,235.4141 L253,235.4141 C238,235.4141 238,255.0234 223,255.0234 L213,255.0234 " fill="none" style="stroke:#FFB900;stroke-width:3.0;"/><path d="M463,176.5859 L453,176.5859 C438,176.5859 438,235.4141 423,235.4141 L413,235.4141 " fill="none" style="stroke:#FFB900;stroke-width:3.0;"/><path d="M695,176.5859 L685,176.5859 C670,176.5859 670,176.5859 655,176.5859 L645,176.5859 " fill="none" style="stroke:#181818;stroke-width:3.0;"/><!--MD5=[d55b7a00be9d5cbc9fb46e078304828b]
@startmindmap
<style>
title {
        FontSize 30
        FontColor #000000
    }
mindmapDiagram {
    :depth(0) {
        BackgroundColor #091f2c
        FontColor #ffffff
        LineThickness 3.0
    }
    .topic1 {
        BackgroundColor #ffb900
        LineColor #ffb900
        LineThickness 3.0
        FontColor #000000
    }
    .topic2 {
        BackgroundColor #f4364c
        LineColor #f4364c
        LineThickness 3.0
        FontColor #ffffff
    }
    .topic3 {
        BackgroundColor #c5b4e3
        LineColor #c5b4e3
        LineThickness 3.0
        FontColor #000000
    }
    .topic4 {
        BackgroundColor #e1d3c7
        LineColor #e1d3c7
        LineThickness 3.0
        FontColor #000000
    }
    .topic5 {
        BackgroundColor #07641d
        LineColor #07641d
        LineThickness 3.0
        FontColor #ffffff
    }
}
</style>
title [[https://learn.microsoft.com/training/modules/introduction-to-data-engineering-azure/ Module]]: Introduction to data engineering on Azure 
+ Data engineering on Azure
- - What is data engineering <<topic1>>
- - - Types of data <<topic1>>
- - - -_ Structured
- - - -_ Unstructed
- - - -_ Semi-Structured
- - - Data operations <<topic1>>
- - - -_ Data integration
- - - -_ Data transformation
- - - -_ Data consolidation
- - - Common languages <<topic1>>
- - - -_ SQL
- - - -_ Python
- - - -_ Others: R, Java, Scala, .NET, ...
++ Important data engineering concepts <<topic2>>
+++_ Operational and analytical data
+++_ Streaming data
+++_ Data pipelines
+++_ Data lakes
+++_ Data warehouses
+++_ Apache Spark
++ Data engineering in Microsoft Azure <<topic3>>
+++_ Azure Synapse Analytics
+++_ Azure Data Lake Storage Gen2
+++_ Azure Stream Analytics
+++_ Azure Data Factory
+++_ Azure Databricks
@endmindmap

PlantUML version 1.2022.7(Mon Aug 22 19:01:30 CEST 2022)
(GPL source distribution)
Java Runtime: OpenJDK Runtime Environment
JVM: OpenJDK 64-Bit Server VM
Default Encoding: Cp1252
Language: en
Country: US
--></g></svg>