<?xml version="1.0" encoding="UTF-8" standalone="no"?><svg xmlns="http://www.w3.org/2000/svg" xmlns:xlink="http://www.w3.org/1999/xlink" contentStyleType="text/css" height="541px" preserveAspectRatio="none" style="width:2210px;height:541px;background:#FFFFFF;" version="1.1" viewBox="0 0 2210 541" width="2210px" zoomAndPan="magnify"><defs/><g><rect fill="none" height="47.7344" id="_title" style="stroke:none;stroke-width:1.0;" width="786" x="710.5" y="15"/><a href="https://learn.microsoft.com/training/modules/introduction-to-azure-data-lake-storage" target="_top" title="https://learn.microsoft.com/training/modules/introduction-to-azure-data-lake-storage" xlink:actuate="onRequest" xlink:href="https://learn.microsoft.com/training/modules/introduction-to-azure-data-lake-storage" xlink:show="new" xlink:title="https://learn.microsoft.com/training/modules/introduction-to-azure-data-lake-storage" xlink:type="simple"><text fill="#0000FF" font-family="sans-serif" font-size="30" font-weight="bold" lengthAdjust="spacing" text-decoration="underline" textLength="104" x="715.5" y="51.1426">Module</text></a><text fill="#000000" font-family="sans-serif" font-size="30" font-weight="bold" lengthAdjust="spacing" textLength="672" x="819.5" y="51.1426">: Introduction to Azure Data Lake Storage Gen2</text><rect fill="#091F2C" height="37.6094" rx="12.5" ry="12.5" style="stroke:#181818;stroke-width:3.0;" width="218" x="978" y="280.3672"/><text fill="#FFFFFF" font-family="sans-serif" font-size="14" lengthAdjust="spacing" textLength="198" x="988" y="304.9004">Azure Data Lake Storage Gen2</text><rect fill="#E1D3C7" height="37.6094" rx="12.5" ry="12.5" style="stroke:#E1D3C7;stroke-width:3.0;" width="316" x="1246" y="165.1484"/><text fill="#000000" font-family="sans-serif" font-size="14" lengthAdjust="spacing" textLength="292" x="1256" y="189.6816">Understand the stages for processing big data</text><rect fill="#E1D3C7" height="37.6094" rx="12.5" ry="12.5" style="stroke:#E1D3C7;stroke-width:3.0;" width="62" x="1612" y="78.7344"/><text fill="#000000" font-family="sans-serif" font-size="14" lengthAdjust="spacing" textLength="38" x="1622" y="103.2676">Ingest</text><text fill="#000000" font-family="sans-serif" font-size="14" lengthAdjust="spacing" textLength="403" x="1727" y="103.2676">Synapse Pipelines, Azure Data Factory, Kafka, Stream Analytics</text><path d="M1674,97.5391 L1684,97.5391 C1699,97.5391 1699,97.5391 1714,97.5391 L1724,97.5391 " fill="none" style="stroke:#E1D3C7;stroke-width:3.0;"/><path d="M1562,183.9531 L1572,183.9531 C1587,183.9531 1587,97.5391 1602,97.5391 L1612,97.5391 " fill="none" style="stroke:#E1D3C7;stroke-width:3.0;"/><rect fill="#E1D3C7" height="37.6094" rx="12.5" ry="12.5" style="stroke:#E1D3C7;stroke-width:3.0;" width="58" x="1612" y="136.3438"/><text fill="#000000" font-family="sans-serif" font-size="14" lengthAdjust="spacing" textLength="34" x="1622" y="160.877">Store</text><text fill="#000000" font-family="sans-serif" font-size="14" lengthAdjust="spacing" textLength="158" x="1723" y="160.877">Data Lake Storage Gen2</text><path d="M1670,155.1484 L1680,155.1484 C1695,155.1484 1695,155.1484 1710,155.1484 L1720,155.1484 " fill="none" style="stroke:#E1D3C7;stroke-width:3.0;"/><path d="M1562,183.9531 L1572,183.9531 C1587,183.9531 1587,155.1484 1602,155.1484 L1612,155.1484 " fill="none" style="stroke:#E1D3C7;stroke-width:3.0;"/><rect fill="#E1D3C7" height="37.6094" rx="12.5" ry="12.5" style="stroke:#E1D3C7;stroke-width:3.0;" width="114" x="1612" y="193.9531"/><text fill="#000000" font-family="sans-serif" font-size="14" lengthAdjust="spacing" textLength="90" x="1622" y="218.4863">Prep and train</text><text fill="#000000" font-family="sans-serif" font-size="14" lengthAdjust="spacing" textLength="419" x="1779" y="218.4863">Synapse Analytics, Databricks, HDInsight, Azure Machine Learning</text><path d="M1726,212.7578 L1736,212.7578 C1751,212.7578 1751,212.7578 1766,212.7578 L1776,212.7578 " fill="none" style="stroke:#E1D3C7;stroke-width:3.0;"/><path d="M1562,183.9531 L1572,183.9531 C1587,183.9531 1587,212.7578 1602,212.7578 L1612,212.7578 " fill="none" style="stroke:#E1D3C7;stroke-width:3.0;"/><rect fill="#E1D3C7" height="37.6094" rx="12.5" ry="12.5" style="stroke:#E1D3C7;stroke-width:3.0;" width="129" x="1612" y="251.5625"/><text fill="#000000" font-family="sans-serif" font-size="14" lengthAdjust="spacing" textLength="105" x="1622" y="276.0957">Model and serve</text><text fill="#000000" font-family="sans-serif" font-size="14" lengthAdjust="spacing" textLength="178" x="1794" y="276.0957">Power BI, Synapse Analytics</text><path d="M1741,270.3672 L1751,270.3672 C1766,270.3672 1766,270.3672 1781,270.3672 L1791,270.3672 " fill="none" style="stroke:#E1D3C7;stroke-width:3.0;"/><path d="M1562,183.9531 L1572,183.9531 C1587,183.9531 1587,270.3672 1602,270.3672 L1612,270.3672 " fill="none" style="stroke:#E1D3C7;stroke-width:3.0;"/><path d="M1196,299.1719 L1206,299.1719 C1221,299.1719 1221,183.9531 1236,183.9531 L1246,183.9531 " fill="none" style="stroke:#181818;stroke-width:3.0;"/><rect fill="#07641D" height="37.6094" rx="12.5" ry="12.5" style="stroke:#07641D;stroke-width:3.0;" width="423" x="1246" y="395.5859"/><text fill="#FFFFFF" font-family="sans-serif" font-size="14" lengthAdjust="spacing" textLength="399" x="1256" y="420.1191">Use Azure Data Lake Storage Gen2 in data analytics workloads</text><rect fill="#07641D" height="37.6094" rx="12.5" ry="12.5" style="stroke:#07641D;stroke-width:3.0;" width="236" x="1719" y="309.1719"/><text fill="#FFFFFF" font-family="sans-serif" font-size="14" lengthAdjust="spacing" textLength="212" x="1729" y="333.7051">Big data processing and analytics</text><path d="M1669,414.3906 L1679,414.3906 C1694,414.3906 1694,327.9766 1709,327.9766 L1719,327.9766 " fill="none" style="stroke:#07641D;stroke-width:3.0;"/><rect fill="#07641D" height="37.6094" rx="12.5" ry="12.5" style="stroke:#07641D;stroke-width:3.0;" width="138" x="1719" y="366.7813"/><text fill="#FFFFFF" font-family="sans-serif" font-size="14" lengthAdjust="spacing" textLength="114" x="1729" y="391.3145">Data warehousing</text><path d="M1669,414.3906 L1679,414.3906 C1694,414.3906 1694,385.5859 1709,385.5859 L1719,385.5859 " fill="none" style="stroke:#07641D;stroke-width:3.0;"/><rect fill="#07641D" height="37.6094" rx="12.5" ry="12.5" style="stroke:#07641D;stroke-width:3.0;" width="175" x="1719" y="424.3906"/><text fill="#FFFFFF" font-family="sans-serif" font-size="14" lengthAdjust="spacing" textLength="151" x="1729" y="448.9238">Real-time data analytics</text><path d="M1669,414.3906 L1679,414.3906 C1694,414.3906 1694,443.1953 1709,443.1953 L1719,443.1953 " fill="none" style="stroke:#07641D;stroke-width:3.0;"/><rect fill="#07641D" height="37.6094" rx="12.5" ry="12.5" style="stroke:#07641D;stroke-width:3.0;" width="246" x="1719" y="482"/><text fill="#FFFFFF" font-family="sans-serif" font-size="14" lengthAdjust="spacing" textLength="222" x="1729" y="506.5332">Data science and machine learning</text><path d="M1669,414.3906 L1679,414.3906 C1694,414.3906 1694,500.8047 1709,500.8047 L1719,500.8047 " fill="none" style="stroke:#07641D;stroke-width:3.0;"/><path d="M1196,299.1719 L1206,299.1719 C1221,299.1719 1221,414.3906 1236,414.3906 L1246,414.3906 " fill="none" style="stroke:#181818;stroke-width:3.0;"/><rect fill="#FFB900" height="37.6094" rx="12.5" ry="12.5" style="stroke:#FFB900;stroke-width:3.0;" width="299" x="629" y="165.1484"/><text fill="#000000" font-family="sans-serif" font-size="14" lengthAdjust="spacing" textLength="275" x="639" y="189.6816">Understand Azure Data Lake Storage Gen2</text><rect fill="#FFB900" height="37.6094" rx="12.5" ry="12.5" style="stroke:#FFB900;stroke-width:3.0;" width="420" x="159" y="86.7109"/><text fill="#000000" font-family="sans-serif" font-size="14" lengthAdjust="spacing" textLength="396" x="169" y="111.2441">What is it (file system, storage platform for analytics workloads)</text><path d="M629,183.9531 L619,183.9531 C604,183.9531 604,105.5156 589,105.5156 L579,105.5156 " fill="none" style="stroke:#FFB900;stroke-width:3.0;"/><rect fill="#FFB900" height="37.6094" rx="12.5" ry="12.5" style="stroke:#FFB900;stroke-width:3.0;" width="75" x="504" y="154.7344"/><text fill="#000000" font-family="sans-serif" font-size="14" lengthAdjust="spacing" textLength="51" x="514" y="179.2676">Benefits</text><text fill="#000000" font-family="sans-serif" font-size="14" lengthAdjust="spacing" textLength="441" x="10" y="149.8535">Hadoop compatible access (Databricks, HDInsight, Synapse Analytics)</text><path d="M504,173.5391 L494,173.5391 C479,173.5391 479,144.125 464,144.125 L454,144.125 " fill="none" style="stroke:#FFB900;stroke-width:3.0;"/><text fill="#000000" font-family="sans-serif" font-size="14" lengthAdjust="spacing" textLength="99" x="352" y="169.4629">Security (ACLs)</text><path d="M504,173.5391 L494,173.5391 C479,173.5391 479,163.7344 464,163.7344 L454,163.7344 " fill="none" style="stroke:#FFB900;stroke-width:3.0;"/><text fill="#000000" font-family="sans-serif" font-size="14" lengthAdjust="spacing" textLength="212" x="239" y="189.0723">Performance (folders, subfolders)</text><path d="M504,173.5391 L494,173.5391 C479,173.5391 479,183.3438 464,183.3438 L454,183.3438 " fill="none" style="stroke:#FFB900;stroke-width:3.0;"/><text fill="#000000" font-family="sans-serif" font-size="14" lengthAdjust="spacing" textLength="188" x="263" y="208.6816">Data redundancy (LRS, GRS)</text><path d="M504,173.5391 L494,173.5391 C479,173.5391 479,202.9531 464,202.9531 L454,202.9531 " fill="none" style="stroke:#FFB900;stroke-width:3.0;"/><path d="M629,183.9531 L619,183.9531 C604,183.9531 604,173.5391 589,173.5391 L579,173.5391 " fill="none" style="stroke:#FFB900;stroke-width:3.0;"/><rect fill="#FFB900" height="37.6094" rx="12.5" ry="12.5" style="stroke:#FFB900;stroke-width:3.0;" width="159" x="420" y="233.1719"/><text fill="#000000" font-family="sans-serif" font-size="14" lengthAdjust="spacing" textLength="135" x="430" y="257.7051">Governance required</text><text fill="#000000" font-family="sans-serif" font-size="14" lengthAdjust="spacing" textLength="167" x="200" y="228.291">Types of data to be stored</text><path d="M420,251.9766 L410,251.9766 C395,251.9766 395,222.5625 380,222.5625 L370,222.5625 " fill="none" style="stroke:#FFB900;stroke-width:3.0;"/><text fill="#000000" font-family="sans-serif" font-size="14" lengthAdjust="spacing" textLength="204" x="163" y="247.9004">How the data will be transformed</text><path d="M420,251.9766 L410,251.9766 C395,251.9766 395,242.1719 380,242.1719 L370,242.1719 " fill="none" style="stroke:#FFB900;stroke-width:3.0;"/><text fill="#000000" font-family="sans-serif" font-size="14" lengthAdjust="spacing" textLength="179" x="188" y="267.5098">Who should access the data</text><path d="M420,251.9766 L410,251.9766 C395,251.9766 395,261.7813 380,261.7813 L370,261.7813 " fill="none" style="stroke:#FFB900;stroke-width:3.0;"/><text fill="#000000" font-family="sans-serif" font-size="14" lengthAdjust="spacing" textLength="230" x="137" y="287.1191">What are the typical access patterns</text><path d="M420,251.9766 L410,251.9766 C395,251.9766 395,281.3906 380,281.3906 L370,281.3906 " fill="none" style="stroke:#FFB900;stroke-width:3.0;"/><path d="M629,183.9531 L619,183.9531 C604,183.9531 604,251.9766 589,251.9766 L579,251.9766 " fill="none" style="stroke:#FFB900;stroke-width:3.0;"/><path d="M978,299.1719 L968,299.1719 C953,299.1719 953,183.9531 938,183.9531 L928,183.9531 " fill="none" style="stroke:#181818;stroke-width:3.0;"/><rect fill="#F4364C" height="37.6094" rx="12.5" ry="12.5" style="stroke:#F4364C;stroke-width:3.0;" width="379" x="549" y="330"/><text fill="#FFFFFF" font-family="sans-serif" font-size="14" lengthAdjust="spacing" textLength="355" x="559" y="354.5332">Enable Azure Data Lake Storage Gen2 in Azure Storage</text><rect fill="#F4364C" height="37.6094" rx="12.5" ry="12.5" style="stroke:#F4364C;stroke-width:3.0;" width="222" x="277" y="301.1953"/><text fill="#FFFFFF" font-family="sans-serif" font-size="14" lengthAdjust="spacing" textLength="198" x="287" y="325.7285">Enable hierarchical namespace</text><path d="M549,348.8047 L539,348.8047 C524,348.8047 524,320 509,320 L499,320 " fill="none" style="stroke:#F4364C;stroke-width:3.0;"/><rect fill="#F4364C" height="37.6094" rx="12.5" ry="12.5" style="stroke:#F4364C;stroke-width:3.0;" width="185" x="314" y="358.8047"/><text fill="#FFFFFF" font-family="sans-serif" font-size="14" lengthAdjust="spacing" textLength="161" x="324" y="383.3379">Data Lake Gen2 upgrade</text><path d="M549,348.8047 L539,348.8047 C524,348.8047 524,377.6094 509,377.6094 L499,377.6094 " fill="none" style="stroke:#F4364C;stroke-width:3.0;"/><path d="M978,299.1719 L968,299.1719 C953,299.1719 953,348.8047 938,348.8047 L928,348.8047 " fill="none" style="stroke:#181818;stroke-width:3.0;"/><rect fill="#C5B4E3" height="37.6094" rx="12.5" ry="12.5" style="stroke:#C5B4E3;stroke-width:3.0;" width="369" x="559" y="445.2188"/><text fill="#000000" font-family="sans-serif" font-size="14" lengthAdjust="spacing" textLength="345" x="569" y="469.752">Compare Azure Data Lake Store to Azure Blob storage</text><rect fill="#C5B4E3" height="37.6094" rx="12.5" ry="12.5" style="stroke:#C5B4E3;stroke-width:3.0;" width="326" x="183" y="416.4141"/><text fill="#000000" font-family="sans-serif" font-size="14" lengthAdjust="spacing" textLength="302" x="193" y="440.9473">Flat namespace versus Hierarchical namespace</text><path d="M559,464.0234 L549,464.0234 C534,464.0234 534,435.2188 519,435.2188 L509,435.2188 " fill="none" style="stroke:#C5B4E3;stroke-width:3.0;"/><rect fill="#C5B4E3" height="37.6094" rx="12.5" ry="12.5" style="stroke:#C5B4E3;stroke-width:3.0;" width="149" x="360" y="474.0234"/><text fill="#000000" font-family="sans-serif" font-size="14" lengthAdjust="spacing" textLength="125" x="370" y="498.5566">Pricing differences?</text><path d="M559,464.0234 L549,464.0234 C534,464.0234 534,492.8281 519,492.8281 L509,492.8281 " fill="none" style="stroke:#C5B4E3;stroke-width:3.0;"/><path d="M978,299.1719 L968,299.1719 C953,299.1719 953,464.0234 938,464.0234 L928,464.0234 " fill="none" style="stroke:#181818;stroke-width:3.0;"/><!--MD5=[edafcba215a5940842772f2c9bc7a285]
@startmindmap
<style>
title {
        FontSize 30
        FontColor #000000
    }
mindmapDiagram {
    :depth(0) {
        BackgroundColor #091f2c
        FontColor #ffffff
        LineThickness 3.0
    }
    .topic1 {
        BackgroundColor #ffb900
        LineColor #ffb900
        LineThickness 3.0
        FontColor #000000
    }
    .topic2 {
        BackgroundColor #f4364c
        LineColor #f4364c
        LineThickness 3.0
        FontColor #ffffff
    }
    .topic3 {
        BackgroundColor #c5b4e3
        LineColor #c5b4e3
        LineThickness 3.0
        FontColor #000000
    }
    .topic4 {
        BackgroundColor #e1d3c7
        LineColor #e1d3c7
        LineThickness 3.0
        FontColor #000000
    }
    .topic5 {
        BackgroundColor #07641d
        LineColor #07641d
        LineThickness 3.0
        FontColor #ffffff
    }
}
</style>
title [[https://learn.microsoft.com/training/modules/introduction-to-azure-data-lake-storage Module]]: Introduction to Azure Data Lake Storage Gen2
+ Azure Data Lake Storage Gen2
- - Understand Azure Data Lake Storage Gen2 <<topic1>>
- - - What is it (file system, storage platform for analytics workloads) <<topic1>>
- - - Benefits <<topic1>>
- - - -_ Hadoop compatible access (Databricks, HDInsight, Synapse Analytics)
- - - -_ Security (ACLs)
- - - -_ Performance (folders, subfolders)
- - - -_ Data redundancy (LRS, GRS)
- - - Governance required <<topic1>>
- - - -_ Types of data to be stored
- - - -_ How the data will be transformed
- - - -_ Who should access the data
- - - -_ What are the typical access patterns
- - Enable Azure Data Lake Storage Gen2 in Azure Storage <<topic2>>
- - - Enable hierarchical namespace <<topic2>>
- - - Data Lake Gen2 upgrade <<topic2>>
- - Compare Azure Data Lake Store to Azure Blob storage <<topic3>>
- - - Flat namespace versus Hierarchical namespace <<topic3>>
- - - Pricing differences? <<topic3>>
++ Understand the stages for processing big data <<topic4>>
+++ Ingest <<topic4>>
++++_ Synapse Pipelines, Azure Data Factory, Kafka, Stream Analytics
+++ Store <<topic4>>
++++_ Data Lake Storage Gen2
+++ Prep and train <<topic4>>
++++_ Synapse Analytics, Databricks, HDInsight, Azure Machine Learning
+++ Model and serve <<topic4>>
++++_ Power BI, Synapse Analytics
++ Use Azure Data Lake Storage Gen2 in data analytics workloads <<topic5>>
+++ Big data processing and analytics <<topic5>>
+++ Data warehousing <<topic5>>
+++ Real-time data analytics <<topic5>>
+++ Data science and machine learning <<topic5>>
@endmindmap

PlantUML version 1.2022.7(Mon Aug 22 19:01:30 CEST 2022)
(GPL source distribution)
Java Runtime: OpenJDK Runtime Environment
JVM: OpenJDK 64-Bit Server VM
Default Encoding: Cp1252
Language: en
Country: US
--></g></svg>