<?xml version="1.0" encoding="UTF-8" standalone="no"?><svg xmlns="http://www.w3.org/2000/svg" xmlns:xlink="http://www.w3.org/1999/xlink" contentStyleType="text/css" height="486px" preserveAspectRatio="none" style="width:2161px;height:486px;background:#FFFFFF;" version="1.1" viewBox="0 0 2161 486" width="2161px" zoomAndPan="magnify"><defs/><g><rect fill="#091F2C" height="37.6094" rx="12.5" ry="12.5" style="stroke:#181818;stroke-width:3.0;" width="218" x="995" y="223.4609"/><text fill="#FFFFFF" font-family="sans-serif" font-size="14" lengthAdjust="spacing" textLength="198" x="1005" y="247.9941">Azure Data Lake Storage Gen2</text><rect fill="#E1D3C7" height="37.6094" rx="12.5" ry="12.5" style="stroke:#E1D3C7;stroke-width:3.0;" width="234" x="1263" y="107.6328"/><text fill="#000000" font-family="sans-serif" font-size="14" lengthAdjust="spacing" textLength="210" x="1273" y="132.166">4) Stages for processing big data</text><rect fill="#E1D3C7" height="37.6094" rx="12.5" ry="12.5" style="stroke:#E1D3C7;stroke-width:3.0;" width="78" x="1547" y="21.2188"/><text fill="#000000" font-family="sans-serif" font-size="14" lengthAdjust="spacing" textLength="54" x="1557" y="45.752">1. Ingest</text><text fill="#000000" font-family="sans-serif" font-size="14" lengthAdjust="spacing" textLength="403" x="1678" y="45.752">Synapse Pipelines, Azure Data Factory, Kafka, Stream Analytics</text><path d="M1625,40.0234 L1635,40.0234 C1650,40.0234 1650,40.0234 1665,40.0234 L1675,40.0234 " fill="none" style="stroke:#E1D3C7;stroke-width:3.0;"/><path d="M1497,126.4375 L1507,126.4375 C1522,126.4375 1522,40.0234 1537,40.0234 L1547,40.0234 " fill="none" style="stroke:#E1D3C7;stroke-width:3.0;"/><rect fill="#E1D3C7" height="37.6094" rx="12.5" ry="12.5" style="stroke:#E1D3C7;stroke-width:3.0;" width="74" x="1547" y="78.8281"/><text fill="#000000" font-family="sans-serif" font-size="14" lengthAdjust="spacing" textLength="50" x="1557" y="103.3613">2. Store</text><text fill="#000000" font-family="sans-serif" font-size="14" lengthAdjust="spacing" textLength="158" x="1674" y="103.3613">Data Lake Storage Gen2</text><path d="M1621,97.6328 L1631,97.6328 C1646,97.6328 1646,97.6328 1661,97.6328 L1671,97.6328 " fill="none" style="stroke:#E1D3C7;stroke-width:3.0;"/><path d="M1497,126.4375 L1507,126.4375 C1522,126.4375 1522,97.6328 1537,97.6328 L1547,97.6328 " fill="none" style="stroke:#E1D3C7;stroke-width:3.0;"/><rect fill="#E1D3C7" height="37.6094" rx="12.5" ry="12.5" style="stroke:#E1D3C7;stroke-width:3.0;" width="130" x="1547" y="136.4375"/><text fill="#000000" font-family="sans-serif" font-size="14" lengthAdjust="spacing" textLength="106" x="1557" y="160.9707">3. Prep and train</text><text fill="#000000" font-family="sans-serif" font-size="14" lengthAdjust="spacing" textLength="419" x="1730" y="160.9707">Synapse Analytics, Databricks, HDInsight, Azure Machine Learning</text><path d="M1677,155.2422 L1687,155.2422 C1702,155.2422 1702,155.2422 1717,155.2422 L1727,155.2422 " fill="none" style="stroke:#E1D3C7;stroke-width:3.0;"/><path d="M1497,126.4375 L1507,126.4375 C1522,126.4375 1522,155.2422 1537,155.2422 L1547,155.2422 " fill="none" style="stroke:#E1D3C7;stroke-width:3.0;"/><rect fill="#E1D3C7" height="37.6094" rx="12.5" ry="12.5" style="stroke:#E1D3C7;stroke-width:3.0;" width="145" x="1547" y="194.0469"/><text fill="#000000" font-family="sans-serif" font-size="14" lengthAdjust="spacing" textLength="121" x="1557" y="218.5801">4. Model and serve</text><text fill="#000000" font-family="sans-serif" font-size="14" lengthAdjust="spacing" textLength="178" x="1745" y="218.5801">Power BI, Synapse Analytics</text><path d="M1692,212.8516 L1702,212.8516 C1717,212.8516 1717,212.8516 1732,212.8516 L1742,212.8516 " fill="none" style="stroke:#E1D3C7;stroke-width:3.0;"/><path d="M1497,126.4375 L1507,126.4375 C1522,126.4375 1522,212.8516 1537,212.8516 L1547,212.8516 " fill="none" style="stroke:#E1D3C7;stroke-width:3.0;"/><path d="M1213,242.2656 L1223,242.2656 C1238,242.2656 1238,126.4375 1253,126.4375 L1263,126.4375 " fill="none" style="stroke:#181818;stroke-width:3.0;"/><rect fill="#07641D" height="37.6094" rx="12.5" ry="12.5" style="stroke:#07641D;stroke-width:3.0;" width="197" x="1263" y="338.6797"/><text fill="#FFFFFF" font-family="sans-serif" font-size="14" lengthAdjust="spacing" textLength="173" x="1273" y="363.2129">5) Data analytics workloads</text><rect fill="#07641D" height="37.6094" rx="12.5" ry="12.5" style="stroke:#07641D;stroke-width:3.0;" width="236" x="1510" y="251.6563"/><text fill="#FFFFFF" font-family="sans-serif" font-size="14" lengthAdjust="spacing" textLength="212" x="1520" y="276.1895">Big data processing and analytics</text><text fill="#000000" font-family="sans-serif" font-size="14" lengthAdjust="spacing" textLength="152" x="1799" y="266.3848">Volume, variety, velocity</text><path d="M1746,270.4609 L1756,270.4609 C1771,270.4609 1771,260.6563 1786,260.6563 L1796,260.6563 " fill="none" style="stroke:#07641D;stroke-width:3.0;"/><text fill="#000000" font-family="sans-serif" font-size="14" lengthAdjust="spacing" textLength="339" x="1799" y="285.9941">Distributed storage and processing, parallel execution</text><path d="M1746,270.4609 L1756,270.4609 C1771,270.4609 1771,280.2656 1786,280.2656 L1796,280.2656 " fill="none" style="stroke:#07641D;stroke-width:3.0;"/><path d="M1460,357.4844 L1470,357.4844 C1485,357.4844 1485,270.4609 1500,270.4609 L1510,270.4609 " fill="none" style="stroke:#07641D;stroke-width:3.0;"/><rect fill="#07641D" height="37.6094" rx="12.5" ry="12.5" style="stroke:#07641D;stroke-width:3.0;" width="138" x="1510" y="309.875"/><text fill="#FFFFFF" font-family="sans-serif" font-size="14" lengthAdjust="spacing" textLength="114" x="1520" y="334.4082">Data warehousing</text><text fill="#000000" font-family="sans-serif" font-size="14" lengthAdjust="spacing" textLength="291" x="1701" y="314.7988">Data lake as staging, before loading into DWH</text><path d="M1648,328.6797 L1658,328.6797 C1673,328.6797 1673,309.0703 1688,309.0703 L1698,309.0703 " fill="none" style="stroke:#07641D;stroke-width:3.0;"/><text fill="#000000" font-family="sans-serif" font-size="14" lengthAdjust="spacing" textLength="371" x="1701" y="334.4082">DWH External tables (metadata layer over files in datalake)</text><path d="M1648,328.6797 L1658,328.6797 C1673,328.6797 1673,328.6797 1688,328.6797 L1698,328.6797 " fill="none" style="stroke:#07641D;stroke-width:3.0;"/><text fill="#000000" font-family="sans-serif" font-size="14" lengthAdjust="spacing" textLength="209" x="1701" y="354.0176">Data lakehouse or lake database</text><path d="M1648,328.6797 L1658,328.6797 C1673,328.6797 1673,348.2891 1688,348.2891 L1698,348.2891 " fill="none" style="stroke:#07641D;stroke-width:3.0;"/><path d="M1460,357.4844 L1470,357.4844 C1485,357.4844 1485,328.6797 1500,328.6797 L1510,328.6797 " fill="none" style="stroke:#07641D;stroke-width:3.0;"/><rect fill="#07641D" height="37.6094" rx="12.5" ry="12.5" style="stroke:#07641D;stroke-width:3.0;" width="175" x="1510" y="368.0938"/><text fill="#FFFFFF" font-family="sans-serif" font-size="14" lengthAdjust="spacing" textLength="151" x="1520" y="392.627">Real-time data analytics</text><text fill="#000000" font-family="sans-serif" font-size="14" lengthAdjust="spacing" textLength="242" x="1738" y="382.8223">Devices, Social media, Applications, ...</text><path d="M1685,386.8984 L1695,386.8984 C1710,386.8984 1710,377.0938 1725,377.0938 L1735,377.0938 " fill="none" style="stroke:#07641D;stroke-width:3.0;"/><text fill="#000000" font-family="sans-serif" font-size="14" lengthAdjust="spacing" textLength="245" x="1738" y="402.4316">Azure Stream Analytics output to ADLS</text><path d="M1685,386.8984 L1695,386.8984 C1710,386.8984 1710,396.7031 1725,396.7031 L1735,396.7031 " fill="none" style="stroke:#07641D;stroke-width:3.0;"/><path d="M1460,357.4844 L1470,357.4844 C1485,357.4844 1485,386.8984 1500,386.8984 L1510,386.8984 " fill="none" style="stroke:#07641D;stroke-width:3.0;"/><rect fill="#07641D" height="37.6094" rx="12.5" ry="12.5" style="stroke:#07641D;stroke-width:3.0;" width="246" x="1510" y="425.7031"/><text fill="#FFFFFF" font-family="sans-serif" font-size="14" lengthAdjust="spacing" textLength="222" x="1520" y="450.2363">Data science and machine learning</text><text fill="#000000" font-family="sans-serif" font-size="14" lengthAdjust="spacing" textLength="153" x="1809" y="450.2363">Azure Machine Learning</text><path d="M1756,444.5078 L1766,444.5078 C1781,444.5078 1781,444.5078 1796,444.5078 L1806,444.5078 " fill="none" style="stroke:#07641D;stroke-width:3.0;"/><path d="M1460,357.4844 L1470,357.4844 C1485,357.4844 1485,444.5078 1500,444.5078 L1510,444.5078 " fill="none" style="stroke:#07641D;stroke-width:3.0;"/><path d="M1213,242.2656 L1223,242.2656 C1238,242.2656 1238,357.4844 1253,357.4844 L1263,357.4844 " fill="none" style="stroke:#181818;stroke-width:3.0;"/><rect fill="#FFB900" height="37.6094" rx="12.5" ry="12.5" style="stroke:#FFB900;stroke-width:3.0;" width="316" x="629" y="108.2422"/><text fill="#000000" font-family="sans-serif" font-size="14" lengthAdjust="spacing" textLength="292" x="639" y="132.7754">1) Understand Azure Data Lake Storage Gen2</text><rect fill="#FFB900" height="37.6094" rx="12.5" ry="12.5" style="stroke:#FFB900;stroke-width:3.0;" width="82" x="497" y="20"/><text fill="#000000" font-family="sans-serif" font-size="14" lengthAdjust="spacing" textLength="58" x="507" y="44.5332">What is it</text><text fill="#000000" font-family="sans-serif" font-size="14" lengthAdjust="spacing" textLength="329" x="115" y="44.5332">File system, storage platform for analytics workloads</text><path d="M497,38.8047 L487,38.8047 C472,38.8047 472,38.8047 457,38.8047 L447,38.8047 " fill="none" style="stroke:#FFB900;stroke-width:3.0;"/><path d="M629,127.0469 L619,127.0469 C604,127.0469 604,38.8047 589,38.8047 L579,38.8047 " fill="none" style="stroke:#FFB900;stroke-width:3.0;"/><rect fill="#FFB900" height="37.6094" rx="12.5" ry="12.5" style="stroke:#FFB900;stroke-width:3.0;" width="75" x="504" y="88.0234"/><text fill="#000000" font-family="sans-serif" font-size="14" lengthAdjust="spacing" textLength="51" x="514" y="112.5566">Benefits</text><text fill="#000000" font-family="sans-serif" font-size="14" lengthAdjust="spacing" textLength="441" x="10" y="83.1426">Hadoop compatible access (Databricks, HDInsight, Synapse Analytics)</text><path d="M504,106.8281 L494,106.8281 C479,106.8281 479,77.4141 464,77.4141 L454,77.4141 " fill="none" style="stroke:#FFB900;stroke-width:3.0;"/><text fill="#000000" font-family="sans-serif" font-size="14" lengthAdjust="spacing" textLength="99" x="352" y="102.752">Security (ACLs)</text><path d="M504,106.8281 L494,106.8281 C479,106.8281 479,97.0234 464,97.0234 L454,97.0234 " fill="none" style="stroke:#FFB900;stroke-width:3.0;"/><text fill="#000000" font-family="sans-serif" font-size="14" lengthAdjust="spacing" textLength="212" x="239" y="122.3613">Performance (folders, subfolders)</text><path d="M504,106.8281 L494,106.8281 C479,106.8281 479,116.6328 464,116.6328 L454,116.6328 " fill="none" style="stroke:#FFB900;stroke-width:3.0;"/><text fill="#000000" font-family="sans-serif" font-size="14" lengthAdjust="spacing" textLength="188" x="263" y="141.9707">Data redundancy (LRS, GRS)</text><path d="M504,106.8281 L494,106.8281 C479,106.8281 479,136.2422 464,136.2422 L454,136.2422 " fill="none" style="stroke:#FFB900;stroke-width:3.0;"/><path d="M629,127.0469 L619,127.0469 C604,127.0469 604,106.8281 589,106.8281 L579,106.8281 " fill="none" style="stroke:#FFB900;stroke-width:3.0;"/><rect fill="#FFB900" height="37.6094" rx="12.5" ry="12.5" style="stroke:#FFB900;stroke-width:3.0;" width="159" x="420" y="176.2656"/><text fill="#000000" font-family="sans-serif" font-size="14" lengthAdjust="spacing" textLength="135" x="430" y="200.7988">Governance required</text><text fill="#000000" font-family="sans-serif" font-size="14" lengthAdjust="spacing" textLength="167" x="200" y="161.5801">Types of data to be stored</text><path d="M420,195.0703 L410,195.0703 C395,195.0703 395,155.8516 380,155.8516 L370,155.8516 " fill="none" style="stroke:#FFB900;stroke-width:3.0;"/><text fill="#000000" font-family="sans-serif" font-size="14" lengthAdjust="spacing" textLength="204" x="163" y="181.1895">How the data will be transformed</text><path d="M420,195.0703 L410,195.0703 C395,195.0703 395,175.4609 380,175.4609 L370,175.4609 " fill="none" style="stroke:#FFB900;stroke-width:3.0;"/><text fill="#000000" font-family="sans-serif" font-size="14" lengthAdjust="spacing" textLength="179" x="188" y="200.7988">Who should access the data</text><path d="M420,195.0703 L410,195.0703 C395,195.0703 395,195.0703 380,195.0703 L370,195.0703 " fill="none" style="stroke:#FFB900;stroke-width:3.0;"/><text fill="#000000" font-family="sans-serif" font-size="14" lengthAdjust="spacing" textLength="230" x="137" y="220.4082">What are the typical access patterns</text><path d="M420,195.0703 L410,195.0703 C395,195.0703 395,214.6797 380,214.6797 L370,214.6797 " fill="none" style="stroke:#FFB900;stroke-width:3.0;"/><text fill="#000000" font-family="sans-serif" font-size="14" lengthAdjust="spacing" textLength="95" x="272" y="240.0176">Data residency</text><path d="M420,195.0703 L410,195.0703 C395,195.0703 395,234.2891 380,234.2891 L370,234.2891 " fill="none" style="stroke:#FFB900;stroke-width:3.0;"/><path d="M629,127.0469 L619,127.0469 C604,127.0469 604,195.0703 589,195.0703 L579,195.0703 " fill="none" style="stroke:#FFB900;stroke-width:3.0;"/><path d="M995,242.2656 L985,242.2656 C970,242.2656 970,127.0469 955,127.0469 L945,127.0469 " fill="none" style="stroke:#181818;stroke-width:3.0;"/><rect fill="#F4364C" height="37.6094" rx="12.5" ry="12.5" style="stroke:#F4364C;stroke-width:3.0;" width="214" x="731" y="282.8984"/><text fill="#FFFFFF" font-family="sans-serif" font-size="14" lengthAdjust="spacing" textLength="190" x="741" y="307.4316">2) How to enable ADLS gen2?</text><rect fill="#F4364C" height="37.6094" rx="12.5" ry="12.5" style="stroke:#F4364C;stroke-width:3.0;" width="222" x="459" y="254.0938"/><text fill="#FFFFFF" font-family="sans-serif" font-size="14" lengthAdjust="spacing" textLength="198" x="469" y="278.627">Enable hierarchical namespace</text><path d="M731,301.7031 L721,301.7031 C706,301.7031 706,272.8984 691,272.8984 L681,272.8984 " fill="none" style="stroke:#F4364C;stroke-width:3.0;"/><rect fill="#F4364C" height="37.6094" rx="12.5" ry="12.5" style="stroke:#F4364C;stroke-width:3.0;" width="185" x="496" y="311.7031"/><text fill="#FFFFFF" font-family="sans-serif" font-size="14" lengthAdjust="spacing" textLength="161" x="506" y="336.2363">Data Lake Gen2 upgrade</text><path d="M731,301.7031 L721,301.7031 C706,301.7031 706,330.5078 691,330.5078 L681,330.5078 " fill="none" style="stroke:#F4364C;stroke-width:3.0;"/><path d="M995,242.2656 L985,242.2656 C970,242.2656 970,301.7031 955,301.7031 L945,301.7031 " fill="none" style="stroke:#181818;stroke-width:3.0;"/><rect fill="#C5B4E3" height="37.6094" rx="12.5" ry="12.5" style="stroke:#C5B4E3;stroke-width:3.0;" width="239" x="706" y="398.1172"/><text fill="#000000" font-family="sans-serif" font-size="14" lengthAdjust="spacing" textLength="215" x="716" y="422.6504">3) Compare ADLS to Blob storage</text><rect fill="#C5B4E3" height="37.6094" rx="12.5" ry="12.5" style="stroke:#C5B4E3;stroke-width:3.0;" width="326" x="330" y="369.3125"/><text fill="#000000" font-family="sans-serif" font-size="14" lengthAdjust="spacing" textLength="302" x="340" y="393.8457">Flat namespace versus Hierarchical namespace</text><path d="M706,416.9219 L696,416.9219 C681,416.9219 681,388.1172 666,388.1172 L656,388.1172 " fill="none" style="stroke:#C5B4E3;stroke-width:3.0;"/><rect fill="#C5B4E3" height="37.6094" rx="12.5" ry="12.5" style="stroke:#C5B4E3;stroke-width:3.0;" width="141" x="515" y="426.9219"/><text fill="#000000" font-family="sans-serif" font-size="14" lengthAdjust="spacing" textLength="117" x="525" y="451.4551">Pricing differences</text><path d="M706,416.9219 L696,416.9219 C681,416.9219 681,445.7266 666,445.7266 L656,445.7266 " fill="none" style="stroke:#C5B4E3;stroke-width:3.0;"/><path d="M995,242.2656 L985,242.2656 C970,242.2656 970,416.9219 955,416.9219 L945,416.9219 " fill="none" style="stroke:#181818;stroke-width:3.0;"/><!--MD5=[5002bb7ee4bc165399c29da1e1fbfe86]
@startmindmap
<style>

:depth(0) {
    BackgroundColor #091f2c
    FontColor #ffffff
    LineThickness 3.0
}
.topic1 {
    BackgroundColor #ffb900
    LineColor #ffb900
    LineThickness 3.0
    FontColor #000000
}
.topic2 {
    BackgroundColor #f4364c
    LineColor #f4364c
    LineThickness 3.0
    FontColor #ffffff
}
.topic3 {
    BackgroundColor #c5b4e3
    LineColor #c5b4e3
    LineThickness 3.0
    FontColor #000000
}
.topic4 {
    BackgroundColor #e1d3c7
    LineColor #e1d3c7
    LineThickness 3.0
    FontColor #000000
}
.topic5 {
    BackgroundColor #07641d
    LineColor #07641d
    LineThickness 3.0
    FontColor #ffffff
}
</style>
+ Azure Data Lake Storage Gen2
- - 1) Understand Azure Data Lake Storage Gen2 <<topic1>>
- - - What is it <<topic1>>
- - - -_ File system, storage platform for analytics workloads
- - - Benefits <<topic1>>
- - - -_ Hadoop compatible access (Databricks, HDInsight, Synapse Analytics)
- - - -_ Security (ACLs)
- - - -_ Performance (folders, subfolders)
- - - -_ Data redundancy (LRS, GRS)
- - - Governance required <<topic1>>
- - - -_ Types of data to be stored
- - - -_ How the data will be transformed
- - - -_ Who should access the data
- - - -_ What are the typical access patterns
- - - -_ Data residency
- - 2) How to enable ADLS gen2? <<topic2>>
- - - Enable hierarchical namespace <<topic2>>
- - - Data Lake Gen2 upgrade <<topic2>>
- - 3) Compare ADLS to Blob storage <<topic3>>
- - - Flat namespace versus Hierarchical namespace <<topic3>>
- - - Pricing differences <<topic3>>
++ 4) Stages for processing big data <<topic4>>
+++ 1. Ingest <<topic4>>
++++_ Synapse Pipelines, Azure Data Factory, Kafka, Stream Analytics
+++ 2. Store <<topic4>>
++++_ Data Lake Storage Gen2
+++ 3. Prep and train <<topic4>>
++++_ Synapse Analytics, Databricks, HDInsight, Azure Machine Learning
+++ 4. Model and serve <<topic4>>
++++_ Power BI, Synapse Analytics
++ 5) Data analytics workloads <<topic5>>
+++ Big data processing and analytics <<topic5>>
++++_ Volume, variety, velocity
++++_ Distributed storage and processing, parallel execution
+++ Data warehousing <<topic5>>
++++_ Data lake as staging, before loading into DWH
++++_ DWH External tables (metadata layer over files in datalake)
++++_ Data lakehouse or lake database
+++ Real-time data analytics <<topic5>>
++++_ Devices, Social media, Applications, ...
++++_ Azure Stream Analytics output to ADLS
+++ Data science and machine learning <<topic5>>
++++_ Azure Machine Learning
@endmindmap

PlantUML version 1.2022.7(Mon Aug 22 19:01:30 CEST 2022)
(GPL source distribution)
Java Runtime: OpenJDK Runtime Environment
JVM: OpenJDK 64-Bit Server VM
Default Encoding: Cp1252
Language: en
Country: US
--></g></svg>