<?xml version="1.0" encoding="UTF-8" standalone="no"?><svg xmlns="http://www.w3.org/2000/svg" xmlns:xlink="http://www.w3.org/1999/xlink" contentStyleType="text/css" height="414px" preserveAspectRatio="none" style="width:945px;height:414px;background:#FFFFFF;" version="1.1" viewBox="0 0 945 414" width="945px" zoomAndPan="magnify"><defs/><g><rect fill="#091F2C" height="37.6094" rx="12.5" ry="12.5" style="stroke:#181818;stroke-width:3.0;" width="175" x="10" y="187.2891"/><text fill="#FFFFFF" font-family="sans-serif" font-size="14" lengthAdjust="spacing" textLength="155" x="20" y="211.8223">Azure Synapse Analytics</text><rect fill="#FFB900" height="37.6094" rx="12.5" ry="12.5" style="stroke:#FFB900;stroke-width:3.0;" width="155" x="235" y="30.4141"/><text fill="#000000" font-family="sans-serif" font-size="14" lengthAdjust="spacing" textLength="131" x="245" y="54.9473">1) Types of analytics</text><text fill="#000000" font-family="sans-serif" font-size="14" lengthAdjust="spacing" textLength="129" x="443" y="25.5332">Descriptive analytics</text><path d="M390,49.2188 L400,49.2188 C415,49.2188 415,19.8047 430,19.8047 L440,19.8047 " fill="none" style="stroke:#FFB900;stroke-width:3.0;"/><text fill="#000000" font-family="sans-serif" font-size="14" lengthAdjust="spacing" textLength="125" x="443" y="45.1426">Diagnostic analytics</text><path d="M390,49.2188 L400,49.2188 C415,49.2188 415,39.4141 430,39.4141 L440,39.4141 " fill="none" style="stroke:#FFB900;stroke-width:3.0;"/><text fill="#000000" font-family="sans-serif" font-size="14" lengthAdjust="spacing" textLength="121" x="443" y="64.752">Predictive analytics</text><path d="M390,49.2188 L400,49.2188 C415,49.2188 415,59.0234 430,59.0234 L440,59.0234 " fill="none" style="stroke:#FFB900;stroke-width:3.0;"/><text fill="#000000" font-family="sans-serif" font-size="14" lengthAdjust="spacing" textLength="133" x="443" y="84.3613">Prescriptive analytics</text><path d="M390,49.2188 L400,49.2188 C415,49.2188 415,78.6328 430,78.6328 L440,78.6328 " fill="none" style="stroke:#FFB900;stroke-width:3.0;"/><path d="M185,206.0938 L195,206.0938 C210,206.0938 210,49.2188 225,49.2188 L235,49.2188 " fill="none" style="stroke:#181818;stroke-width:3.0;"/><rect fill="#C5B4E3" height="37.6094" rx="12.5" ry="12.5" style="stroke:#C5B4E3;stroke-width:3.0;" width="140" x="235" y="128.4609"/><text fill="#000000" font-family="sans-serif" font-size="14" lengthAdjust="spacing" textLength="116" x="245" y="152.9941">3) When to use it?</text><text fill="#000000" font-family="sans-serif" font-size="14" lengthAdjust="spacing" textLength="191" x="428" y="103.9707">Large-scale data warehousing</text><path d="M375,147.2656 L385,147.2656 C400,147.2656 400,98.2422 415,98.2422 L425,98.2422 " fill="none" style="stroke:#C5B4E3;stroke-width:3.0;"/><text fill="#000000" font-family="sans-serif" font-size="14" lengthAdjust="spacing" textLength="122" x="428" y="123.5801">Advanced analytics</text><path d="M375,147.2656 L385,147.2656 C400,147.2656 400,117.8516 415,117.8516 L425,117.8516 " fill="none" style="stroke:#C5B4E3;stroke-width:3.0;"/><text fill="#000000" font-family="sans-serif" font-size="14" lengthAdjust="spacing" textLength="195" x="428" y="143.1895">Data exploration and discovery</text><path d="M375,147.2656 L385,147.2656 C400,147.2656 400,137.4609 415,137.4609 L425,137.4609 " fill="none" style="stroke:#C5B4E3;stroke-width:3.0;"/><text fill="#000000" font-family="sans-serif" font-size="14" lengthAdjust="spacing" textLength="118" x="428" y="162.7988">Real time analytics</text><path d="M375,147.2656 L385,147.2656 C400,147.2656 400,157.0703 415,157.0703 L425,157.0703 " fill="none" style="stroke:#C5B4E3;stroke-width:3.0;"/><text fill="#000000" font-family="sans-serif" font-size="14" lengthAdjust="spacing" textLength="101" x="428" y="182.4082">Data integration</text><path d="M375,147.2656 L385,147.2656 C400,147.2656 400,176.6797 415,176.6797 L425,176.6797 " fill="none" style="stroke:#C5B4E3;stroke-width:3.0;"/><text fill="#000000" font-family="sans-serif" font-size="14" lengthAdjust="spacing" textLength="123" x="428" y="202.0176">Integrated analytics</text><path d="M375,147.2656 L385,147.2656 C400,147.2656 400,196.2891 415,196.2891 L425,196.2891 " fill="none" style="stroke:#C5B4E3;stroke-width:3.0;"/><path d="M185,206.0938 L195,206.0938 C210,206.0938 210,147.2656 225,147.2656 L235,147.2656 " fill="none" style="stroke:#181818;stroke-width:3.0;"/><rect fill="#F4364C" height="37.6094" rx="12.5" ry="12.5" style="stroke:#F4364C;stroke-width:3.0;" width="146" x="235" y="285.3359"/><text fill="#FFFFFF" font-family="sans-serif" font-size="14" lengthAdjust="spacing" textLength="122" x="245" y="309.8691">2) How does it work</text><text fill="#000000" font-family="sans-serif" font-size="14" lengthAdjust="spacing" textLength="370" x="434" y="221.627">Creating and using an Azure Synapse Analytics workspace</text><path d="M381,304.1406 L391,304.1406 C406,304.1406 406,215.8984 421,215.8984 L431,215.8984 " fill="none" style="stroke:#F4364C;stroke-width:3.0;"/><text fill="#000000" font-family="sans-serif" font-size="14" lengthAdjust="spacing" textLength="198" x="434" y="241.2363">Working with files in a data lake</text><path d="M381,304.1406 L391,304.1406 C406,304.1406 406,235.5078 421,235.5078 L431,235.5078 " fill="none" style="stroke:#F4364C;stroke-width:3.0;"/><text fill="#000000" font-family="sans-serif" font-size="14" lengthAdjust="spacing" textLength="288" x="434" y="260.8457">Ingesting and transforming data with pipelines</text><path d="M381,304.1406 L391,304.1406 C406,304.1406 406,255.1172 421,255.1172 L431,255.1172 " fill="none" style="stroke:#F4364C;stroke-width:3.0;"/><text fill="#000000" font-family="sans-serif" font-size="14" lengthAdjust="spacing" textLength="262" x="434" y="290.2598">Querying and manipulating data with SQL</text><text fill="#000000" font-family="sans-serif" font-size="14" lengthAdjust="spacing" textLength="155" x="749" y="280.4551">A built-in serverless pool</text><path d="M696,284.5313 L706,284.5313 C721,284.5313 721,274.7266 736,274.7266 L746,274.7266 " fill="none" style="stroke:#181818;stroke-width:1.0;"/><text fill="#000000" font-family="sans-serif" font-size="14" lengthAdjust="spacing" textLength="184" x="749" y="300.0645">Custom dedicated SQL pools</text><path d="M696,284.5313 L706,284.5313 C721,284.5313 721,294.3359 736,294.3359 L746,294.3359 " fill="none" style="stroke:#181818;stroke-width:1.0;"/><path d="M381,304.1406 L391,304.1406 C406,304.1406 406,284.5313 421,284.5313 L431,284.5313 " fill="none" style="stroke:#F4364C;stroke-width:3.0;"/><text fill="#000000" font-family="sans-serif" font-size="14" lengthAdjust="spacing" textLength="314" x="434" y="319.6738">Processing and analyzing data with Apache Spark</text><path d="M381,304.1406 L391,304.1406 C406,304.1406 406,313.9453 421,313.9453 L431,313.9453 " fill="none" style="stroke:#F4364C;stroke-width:3.0;"/><text fill="#000000" font-family="sans-serif" font-size="14" lengthAdjust="spacing" textLength="208" x="434" y="339.2832">Exploring data with Data Explorer</text><path d="M381,304.1406 L391,304.1406 C406,304.1406 406,333.5547 421,333.5547 L431,333.5547 " fill="none" style="stroke:#F4364C;stroke-width:3.0;"/><text fill="#000000" font-family="sans-serif" font-size="14" lengthAdjust="spacing" textLength="260" x="434" y="368.6973">Integrating with other Azure data services</text><text fill="#000000" font-family="sans-serif" font-size="14" lengthAdjust="spacing" textLength="125" x="747" y="339.2832">Azure Synapse Link</text><path d="M694,362.9688 L704,362.9688 C719,362.9688 719,333.5547 734,333.5547 L744,333.5547 " fill="none" style="stroke:#181818;stroke-width:1.0;"/><text fill="#000000" font-family="sans-serif" font-size="14" lengthAdjust="spacing" textLength="55" x="747" y="358.8926">Power BI</text><path d="M694,362.9688 L704,362.9688 C719,362.9688 719,353.1641 734,353.1641 L744,353.1641 " fill="none" style="stroke:#181818;stroke-width:1.0;"/><text fill="#000000" font-family="sans-serif" font-size="14" lengthAdjust="spacing" textLength="110" x="747" y="378.502">Microsoft Purview</text><path d="M694,362.9688 L704,362.9688 C719,362.9688 719,372.7734 734,372.7734 L744,372.7734 " fill="none" style="stroke:#181818;stroke-width:1.0;"/><text fill="#000000" font-family="sans-serif" font-size="14" lengthAdjust="spacing" textLength="153" x="747" y="398.1113">Azure Machine Learning</text><path d="M694,362.9688 L704,362.9688 C719,362.9688 719,392.3828 734,392.3828 L744,392.3828 " fill="none" style="stroke:#181818;stroke-width:1.0;"/><path d="M381,304.1406 L391,304.1406 C406,304.1406 406,362.9688 421,362.9688 L431,362.9688 " fill="none" style="stroke:#F4364C;stroke-width:3.0;"/><path d="M185,206.0938 L195,206.0938 C210,206.0938 210,304.1406 225,304.1406 L235,304.1406 " fill="none" style="stroke:#181818;stroke-width:3.0;"/><!--MD5=[8ae6083d618a1593586db78b95dba2d8]
@startmindmap
<style>
:depth(0) {
    BackgroundColor #091f2c
    FontColor #ffffff
    LineThickness 3.0
}
.topic1 {
    BackgroundColor #ffb900
    LineColor #ffb900
    LineThickness 3.0
    FontColor #000000
}
.topic2 {
    BackgroundColor #f4364c
    LineColor #f4364c
    LineThickness 3.0
    FontColor #ffffff
}
.topic3 {
    BackgroundColor #c5b4e3
    LineColor #c5b4e3
    LineThickness 3.0
    FontColor #000000
}
.topic4 {
    BackgroundColor #e1d3c7
    LineColor #e1d3c7
    LineThickness 3.0
    FontColor #000000
}
.topic5 {
    BackgroundColor #07641d
    LineColor #07641d
    LineThickness 3.0
    FontColor #ffffff
}
</style>
+ Azure Synapse Analytics
++ 1) Types of analytics <<topic1>>
+++_ Descriptive analytics
+++_ Diagnostic analytics
+++_ Predictive analytics
+++_ Prescriptive analytics
++ 3) When to use it? <<topic3>>
+++_ Large-scale data warehousing
+++_ Advanced analytics
+++_ Data exploration and discovery
+++_ Real time analytics
+++_ Data integration
+++_ Integrated analytics
++ 2) How does it work <<topic2>>
+++_ Creating and using an Azure Synapse Analytics workspace
+++_ Working with files in a data lake
+++_ Ingesting and transforming data with pipelines
+++_ Querying and manipulating data with SQL
++++_ A built-in serverless pool
++++_ Custom dedicated SQL pools
+++_ Processing and analyzing data with Apache Spark
+++_ Exploring data with Data Explorer
+++_ Integrating with other Azure data services
++++_ Azure Synapse Link
++++_ Power BI
++++_ Microsoft Purview
++++_ Azure Machine Learning
@endmindmap

PlantUML version 1.2022.7(Mon Aug 22 19:01:30 CEST 2022)
(GPL source distribution)
Java Runtime: OpenJDK Runtime Environment
JVM: OpenJDK 64-Bit Server VM
Default Encoding: Cp1252
Language: en
Country: US
--></g></svg>