<?xml version="1.0" encoding="UTF-8" standalone="no"?><svg xmlns="http://www.w3.org/2000/svg" xmlns:xlink="http://www.w3.org/1999/xlink" contentStyleType="text/css" height="552px" preserveAspectRatio="none" style="width:1723px;height:552px;background:#FFFFFF;" version="1.1" viewBox="0 0 1723 552" width="1723px" zoomAndPan="magnify"><defs/><g><rect fill="none" height="47.7344" id="_title" style="stroke:none;stroke-width:1.0;" width="703" x="508.5" y="15"/><a href="https://learn.microsoft.com/training/modules/introduction-azure-synapse-analytics/" target="_top" title="https://learn.microsoft.com/training/modules/introduction-azure-synapse-analytics/" xlink:actuate="onRequest" xlink:href="https://learn.microsoft.com/training/modules/introduction-azure-synapse-analytics/" xlink:show="new" xlink:title="https://learn.microsoft.com/training/modules/introduction-azure-synapse-analytics/" xlink:type="simple"><text fill="#0000FF" font-family="sans-serif" font-size="30" font-weight="bold" lengthAdjust="spacing" text-decoration="underline" textLength="104" x="513.5" y="51.1426">Module</text></a><text fill="#000000" font-family="sans-serif" font-size="30" font-weight="bold" lengthAdjust="spacing" textLength="589" x="617.5" y="51.1426">: Introduction to Azure Synapse Analytics</text><rect fill="#091F2C" height="37.6094" rx="12.5" ry="12.5" style="stroke:#181818;stroke-width:3.0;" width="175" x="882" y="285.5742"/><text fill="#FFFFFF" font-family="sans-serif" font-size="14" lengthAdjust="spacing" textLength="155" x="892" y="310.1074">Azure Synapse Analytics</text><rect fill="#FFB900" height="37.6094" rx="12.5" ry="12.5" style="stroke:#FFB900;stroke-width:3.0;" width="230" x="1107" y="112.7461"/><text fill="#000000" font-family="sans-serif" font-size="14" lengthAdjust="spacing" textLength="206" x="1117" y="137.2793">What is Azure Synapse Analytics</text><rect fill="#FFB900" height="37.6094" rx="12.5" ry="12.5" style="stroke:#FFB900;stroke-width:3.0;" width="138" x="1387" y="89.1484"/><text fill="#000000" font-family="sans-serif" font-size="14" lengthAdjust="spacing" textLength="114" x="1397" y="113.6816">Types of analytics</text><text fill="#000000" font-family="sans-serif" font-size="14" lengthAdjust="spacing" textLength="129" x="1578" y="84.2676">Descriptive analytics</text><path d="M1525,107.9531 L1535,107.9531 C1550,107.9531 1550,78.5391 1565,78.5391 L1575,78.5391 " fill="none" style="stroke:#FFB900;stroke-width:3.0;"/><text fill="#000000" font-family="sans-serif" font-size="14" lengthAdjust="spacing" textLength="125" x="1578" y="103.877">Diagnostic analytics</text><path d="M1525,107.9531 L1535,107.9531 C1550,107.9531 1550,98.1484 1565,98.1484 L1575,98.1484 " fill="none" style="stroke:#FFB900;stroke-width:3.0;"/><text fill="#000000" font-family="sans-serif" font-size="14" lengthAdjust="spacing" textLength="121" x="1578" y="123.4863">Predictive analytics</text><path d="M1525,107.9531 L1535,107.9531 C1550,107.9531 1550,117.7578 1565,117.7578 L1575,117.7578 " fill="none" style="stroke:#FFB900;stroke-width:3.0;"/><text fill="#000000" font-family="sans-serif" font-size="14" lengthAdjust="spacing" textLength="133" x="1578" y="143.0957">Prescriptive analytics</text><path d="M1525,107.9531 L1535,107.9531 C1550,107.9531 1550,137.3672 1565,137.3672 L1575,137.3672 " fill="none" style="stroke:#FFB900;stroke-width:3.0;"/><path d="M1337,131.5508 L1347,131.5508 C1362,131.5508 1362,107.9531 1377,107.9531 L1387,107.9531 " fill="none" style="stroke:#FFB900;stroke-width:3.0;"/><rect fill="#FFB900" height="37.6094" rx="12.5" ry="12.5" style="stroke:#FFB900;stroke-width:3.0;" width="65" x="1387" y="146.7578"/><text fill="#000000" font-family="sans-serif" font-size="14" lengthAdjust="spacing" textLength="41" x="1397" y="171.291">What?</text><text fill="#000000" font-family="sans-serif" font-size="14" lengthAdjust="spacing" textLength="201" x="1505" y="171.291">SQL, Apache Spark, and others</text><path d="M1452,165.5625 L1462,165.5625 C1477,165.5625 1477,165.5625 1492,165.5625 L1502,165.5625 " fill="none" style="stroke:#FFB900;stroke-width:3.0;"/><path d="M1337,131.5508 L1347,131.5508 C1362,131.5508 1362,165.5625 1377,165.5625 L1387,165.5625 " fill="none" style="stroke:#FFB900;stroke-width:3.0;"/><path d="M1057,304.3789 L1067,304.3789 C1082,304.3789 1082,131.5508 1097,131.5508 L1107,131.5508 " fill="none" style="stroke:#181818;stroke-width:3.0;"/><rect fill="#C5B4E3" height="37.6094" rx="12.5" ry="12.5" style="stroke:#C5B4E3;stroke-width:3.0;" width="263" x="1107" y="348.3906"/><text fill="#000000" font-family="sans-serif" font-size="14" lengthAdjust="spacing" textLength="239" x="1117" y="372.9238">When to use Azure Synapse Analytics</text><rect fill="#C5B4E3" height="37.6094" rx="12.5" ry="12.5" style="stroke:#C5B4E3;stroke-width:3.0;" width="215" x="1420" y="204.3672"/><text fill="#000000" font-family="sans-serif" font-size="14" lengthAdjust="spacing" textLength="191" x="1430" y="228.9004">Large-scale data warehousing</text><path d="M1370,367.1953 L1380,367.1953 C1395,367.1953 1395,223.1719 1410,223.1719 L1420,223.1719 " fill="none" style="stroke:#C5B4E3;stroke-width:3.0;"/><rect fill="#C5B4E3" height="37.6094" rx="12.5" ry="12.5" style="stroke:#C5B4E3;stroke-width:3.0;" width="146" x="1420" y="261.9766"/><text fill="#000000" font-family="sans-serif" font-size="14" lengthAdjust="spacing" textLength="122" x="1430" y="286.5098">Advanced analytics</text><path d="M1370,367.1953 L1380,367.1953 C1395,367.1953 1395,280.7813 1410,280.7813 L1420,280.7813 " fill="none" style="stroke:#C5B4E3;stroke-width:3.0;"/><rect fill="#C5B4E3" height="37.6094" rx="12.5" ry="12.5" style="stroke:#C5B4E3;stroke-width:3.0;" width="219" x="1420" y="319.5859"/><text fill="#000000" font-family="sans-serif" font-size="14" lengthAdjust="spacing" textLength="195" x="1430" y="344.1191">Data exploration and discovery</text><path d="M1370,367.1953 L1380,367.1953 C1395,367.1953 1395,338.3906 1410,338.3906 L1420,338.3906 " fill="none" style="stroke:#C5B4E3;stroke-width:3.0;"/><rect fill="#C5B4E3" height="37.6094" rx="12.5" ry="12.5" style="stroke:#C5B4E3;stroke-width:3.0;" width="142" x="1420" y="377.1953"/><text fill="#000000" font-family="sans-serif" font-size="14" lengthAdjust="spacing" textLength="118" x="1430" y="401.7285">Real time analytics</text><path d="M1370,367.1953 L1380,367.1953 C1395,367.1953 1395,396 1410,396 L1420,396 " fill="none" style="stroke:#C5B4E3;stroke-width:3.0;"/><rect fill="#C5B4E3" height="37.6094" rx="12.5" ry="12.5" style="stroke:#C5B4E3;stroke-width:3.0;" width="125" x="1420" y="434.8047"/><text fill="#000000" font-family="sans-serif" font-size="14" lengthAdjust="spacing" textLength="101" x="1430" y="459.3379">Data integration</text><path d="M1370,367.1953 L1380,367.1953 C1395,367.1953 1395,453.6094 1410,453.6094 L1420,453.6094 " fill="none" style="stroke:#C5B4E3;stroke-width:3.0;"/><rect fill="#C5B4E3" height="37.6094" rx="12.5" ry="12.5" style="stroke:#C5B4E3;stroke-width:3.0;" width="147" x="1420" y="492.4141"/><text fill="#000000" font-family="sans-serif" font-size="14" lengthAdjust="spacing" textLength="123" x="1430" y="516.9473">Integrated analytics</text><path d="M1370,367.1953 L1380,367.1953 C1395,367.1953 1395,511.2188 1410,511.2188 L1420,511.2188 " fill="none" style="stroke:#C5B4E3;stroke-width:3.0;"/><path d="M1057,304.3789 L1067,304.3789 C1082,304.3789 1082,367.1953 1097,367.1953 L1107,367.1953 " fill="none" style="stroke:#181818;stroke-width:3.0;"/><rect fill="#F4364C" height="37.6094" rx="12.5" ry="12.5" style="stroke:#F4364C;stroke-width:3.0;" width="249" x="583" y="285.5742"/><text fill="#FFFFFF" font-family="sans-serif" font-size="14" lengthAdjust="spacing" textLength="225" x="593" y="310.1074">How Azure Synapse Analytics works</text><rect fill="#F4364C" height="37.6094" rx="12.5" ry="12.5" style="stroke:#F4364C;stroke-width:3.0;" width="394" x="139" y="107.5391"/><text fill="#FFFFFF" font-family="sans-serif" font-size="14" lengthAdjust="spacing" textLength="370" x="149" y="132.0723">Creating and using an Azure Synapse Analytics workspace</text><path d="M583,304.3789 L573,304.3789 C558,304.3789 558,126.3438 543,126.3438 L533,126.3438 " fill="none" style="stroke:#F4364C;stroke-width:3.0;"/><rect fill="#F4364C" height="37.6094" rx="12.5" ry="12.5" style="stroke:#F4364C;stroke-width:3.0;" width="222" x="311" y="165.1484"/><text fill="#FFFFFF" font-family="sans-serif" font-size="14" lengthAdjust="spacing" textLength="198" x="321" y="189.6816">Working with files in a data lake</text><path d="M583,304.3789 L573,304.3789 C558,304.3789 558,183.9531 543,183.9531 L533,183.9531 " fill="none" style="stroke:#F4364C;stroke-width:3.0;"/><rect fill="#F4364C" height="37.6094" rx="12.5" ry="12.5" style="stroke:#F4364C;stroke-width:3.0;" width="312" x="221" y="222.7578"/><text fill="#FFFFFF" font-family="sans-serif" font-size="14" lengthAdjust="spacing" textLength="288" x="231" y="247.291">Ingesting and transforming data with pipelines</text><path d="M583,304.3789 L573,304.3789 C558,304.3789 558,241.5625 543,241.5625 L533,241.5625 " fill="none" style="stroke:#F4364C;stroke-width:3.0;"/><rect fill="#F4364C" height="37.6094" rx="12.5" ry="12.5" style="stroke:#F4364C;stroke-width:3.0;" width="286" x="247" y="280.3672"/><text fill="#FFFFFF" font-family="sans-serif" font-size="14" lengthAdjust="spacing" textLength="262" x="257" y="304.9004">Querying and manipulating data with SQL</text><text fill="#000000" font-family="sans-serif" font-size="14" lengthAdjust="spacing" textLength="155" x="39" y="295.0957">A built-in serverless pool</text><path d="M247,299.1719 L237,299.1719 C222,299.1719 222,289.3672 207,289.3672 L197,289.3672 " fill="none" style="stroke:#F4364C;stroke-width:3.0;"/><text fill="#000000" font-family="sans-serif" font-size="14" lengthAdjust="spacing" textLength="184" x="10" y="314.7051">Custom dedicated SQL pools</text><path d="M247,299.1719 L237,299.1719 C222,299.1719 222,308.9766 207,308.9766 L197,308.9766 " fill="none" style="stroke:#F4364C;stroke-width:3.0;"/><path d="M583,304.3789 L573,304.3789 C558,304.3789 558,299.1719 543,299.1719 L533,299.1719 " fill="none" style="stroke:#F4364C;stroke-width:3.0;"/><rect fill="#F4364C" height="37.6094" rx="12.5" ry="12.5" style="stroke:#F4364C;stroke-width:3.0;" width="338" x="195" y="337.9766"/><text fill="#FFFFFF" font-family="sans-serif" font-size="14" lengthAdjust="spacing" textLength="314" x="205" y="362.5098">Processing and analyzing data with Apache Spark</text><path d="M583,304.3789 L573,304.3789 C558,304.3789 558,356.7813 543,356.7813 L533,356.7813 " fill="none" style="stroke:#F4364C;stroke-width:3.0;"/><rect fill="#F4364C" height="37.6094" rx="12.5" ry="12.5" style="stroke:#F4364C;stroke-width:3.0;" width="232" x="301" y="395.5859"/><text fill="#FFFFFF" font-family="sans-serif" font-size="14" lengthAdjust="spacing" textLength="208" x="311" y="420.1191">Exploring data with Data Explorer</text><path d="M583,304.3789 L573,304.3789 C558,304.3789 558,414.3906 543,414.3906 L533,414.3906 " fill="none" style="stroke:#F4364C;stroke-width:3.0;"/><rect fill="#F4364C" height="37.6094" rx="12.5" ry="12.5" style="stroke:#F4364C;stroke-width:3.0;" width="284" x="249" y="453.1953"/><text fill="#FFFFFF" font-family="sans-serif" font-size="14" lengthAdjust="spacing" textLength="260" x="259" y="477.7285">Integrating with other Azure data services</text><text fill="#000000" font-family="sans-serif" font-size="14" lengthAdjust="spacing" textLength="125" x="71" y="448.3145">Azure Synapse Link</text><path d="M249,472 L239,472 C224,472 224,442.5859 209,442.5859 L199,442.5859 " fill="none" style="stroke:#F4364C;stroke-width:3.0;"/><text fill="#000000" font-family="sans-serif" font-size="14" lengthAdjust="spacing" textLength="55" x="141" y="467.9238">Power BI</text><path d="M249,472 L239,472 C224,472 224,462.1953 209,462.1953 L199,462.1953 " fill="none" style="stroke:#F4364C;stroke-width:3.0;"/><text fill="#000000" font-family="sans-serif" font-size="14" lengthAdjust="spacing" textLength="110" x="86" y="487.5332">Microsoft Purview</text><path d="M249,472 L239,472 C224,472 224,481.8047 209,481.8047 L199,481.8047 " fill="none" style="stroke:#F4364C;stroke-width:3.0;"/><text fill="#000000" font-family="sans-serif" font-size="14" lengthAdjust="spacing" textLength="153" x="43" y="507.1426">Azure Machine Learning</text><path d="M249,472 L239,472 C224,472 224,501.4141 209,501.4141 L199,501.4141 " fill="none" style="stroke:#F4364C;stroke-width:3.0;"/><path d="M583,304.3789 L573,304.3789 C558,304.3789 558,472 543,472 L533,472 " fill="none" style="stroke:#F4364C;stroke-width:3.0;"/><path d="M882,304.3789 L872,304.3789 C857,304.3789 857,304.3789 842,304.3789 L832,304.3789 " fill="none" style="stroke:#181818;stroke-width:3.0;"/><!--MD5=[f080b6c13375ab3151f0283385acc2f6]
@startmindmap
<style>
title {
        FontSize 30
        FontColor #000000
    }
mindmapDiagram {
    :depth(0) {
        BackgroundColor #091f2c
        FontColor #ffffff
        LineThickness 3.0
    }
    .topic1 {
        BackgroundColor #ffb900
        LineColor #ffb900
        LineThickness 3.0
        FontColor #000000
    }
    .topic2 {
        BackgroundColor #f4364c
        LineColor #f4364c
        LineThickness 3.0
        FontColor #ffffff
    }
    .topic3 {
        BackgroundColor #c5b4e3
        LineColor #c5b4e3
        LineThickness 3.0
        FontColor #000000
    }
    .topic4 {
        BackgroundColor #e1d3c7
        LineColor #e1d3c7
        LineThickness 3.0
        FontColor #000000
    }
    .topic5 {
        BackgroundColor #07641d
        LineColor #07641d
        LineThickness 3.0
        FontColor #ffffff
    }
}
</style>
title [[https://learn.microsoft.com/training/modules/introduction-azure-synapse-analytics/ Module]]: Introduction to Azure Synapse Analytics
+ Azure Synapse Analytics
++ What is Azure Synapse Analytics <<topic1>>
+++ Types of analytics <<topic1>>
++++_ Descriptive analytics
++++_ Diagnostic analytics
++++_ Predictive analytics
++++_ Prescriptive analytics
+++ What? <<topic1>>
++++_ SQL, Apache Spark, and others
- - How Azure Synapse Analytics works <<topic2>>
- - - Creating and using an Azure Synapse Analytics workspace <<topic2>>
- - - Working with files in a data lake <<topic2>>
- - - Ingesting and transforming data with pipelines <<topic2>>
- - - Querying and manipulating data with SQL <<topic2>>
- - - -_ A built-in serverless pool
- - - -_ Custom dedicated SQL pools
- - - Processing and analyzing data with Apache Spark <<topic2>>
- - - Exploring data with Data Explorer <<topic2>>
- - - Integrating with other Azure data services <<topic2>>
- - - -_ Azure Synapse Link
- - - -_ Power BI
- - - -_ Microsoft Purview
- - - -_ Azure Machine Learning
++ When to use Azure Synapse Analytics <<topic3>>
+++ Large-scale data warehousing <<topic3>>
+++ Advanced analytics <<topic3>>
+++ Data exploration and discovery <<topic3>>
+++ Real time analytics <<topic3>>
+++ Data integration <<topic3>>
+++ Integrated analytics <<topic3>>
@endmindmap

PlantUML version 1.2022.7(Mon Aug 22 19:01:30 CEST 2022)
(GPL source distribution)
Java Runtime: OpenJDK Runtime Environment
JVM: OpenJDK 64-Bit Server VM
Default Encoding: Cp1252
Language: en
Country: US
--></g></svg>