<?xml version="1.0" encoding="UTF-8" standalone="no"?><svg xmlns="http://www.w3.org/2000/svg" xmlns:xlink="http://www.w3.org/1999/xlink" contentStyleType="text/css" height="460px" preserveAspectRatio="none" style="width:2690px;height:460px;background:#FFFFFF;" version="1.1" viewBox="0 0 2690 460" width="2690px" zoomAndPan="magnify"><defs/><g><rect fill="none" height="47.7344" id="_title" style="stroke:none;stroke-width:1.0;" width="1097" x="795" y="15"/><a href="https://learn.microsoft.com/training/modules/query-data-lake-using-azure-synapse-serverless-sql-pools/" target="_top" title="https://learn.microsoft.com/training/modules/query-data-lake-using-azure-synapse-serverless-sql-pools/" xlink:actuate="onRequest" xlink:href="https://learn.microsoft.com/training/modules/query-data-lake-using-azure-synapse-serverless-sql-pools/" xlink:show="new" xlink:title="https://learn.microsoft.com/training/modules/query-data-lake-using-azure-synapse-serverless-sql-pools/" xlink:type="simple"><text fill="#0000FF" font-family="sans-serif" font-size="30" font-weight="bold" lengthAdjust="spacing" text-decoration="underline" textLength="104" x="800" y="51.1426">Module</text></a><text fill="#000000" font-family="sans-serif" font-size="30" font-weight="bold" lengthAdjust="spacing" textLength="983" x="904" y="51.1426">: Use Azure Synapse serverless SQL pool to query files in a data lake</text><rect fill="#091F2C" height="37.6094" rx="12.5" ry="12.5" style="stroke:#181818;stroke-width:3.0;" width="157" x="1225" y="239.5977"/><text fill="#FFFFFF" font-family="sans-serif" font-size="14" lengthAdjust="spacing" textLength="137" x="1235" y="264.1309">Serverless SQL pools</text><rect fill="#F4364C" height="37.6094" rx="12.5" ry="12.5" style="stroke:#F4364C;stroke-width:3.0;" width="274" x="1432" y="190.5742"/><text fill="#FFFFFF" font-family="sans-serif" font-size="14" lengthAdjust="spacing" textLength="250" x="1442" y="215.1074">Query files using a serverless SQL pool</text><rect fill="#F4364C" height="37.6094" rx="12.5" ry="12.5" style="stroke:#F4364C;stroke-width:3.0;" width="281" x="1756" y="190.5742"/><text fill="#FFFFFF" font-family="sans-serif" font-size="14" lengthAdjust="spacing" textLength="257" x="1766" y="215.1074">File types supported in OPENROWSET()</text><rect fill="#F4364C" height="37.6094" rx="12.5" ry="12.5" style="stroke:#F4364C;stroke-width:3.0;" width="179" x="2087" y="108.7578"/><text fill="#FFFFFF" font-family="sans-serif" font-size="14" lengthAdjust="spacing" textLength="155" x="2097" y="133.291">Delimited text (CSV) files</text><text fill="#000000" font-family="sans-serif" font-size="14" lengthAdjust="spacing" textLength="191" x="2319" y="84.2676">With and without a header row</text><path d="M2266,127.5625 L2276,127.5625 C2291,127.5625 2291,78.5391 2306,78.5391 L2316,78.5391 " fill="none" style="stroke:#F4364C;stroke-width:3.0;"/><text fill="#000000" font-family="sans-serif" font-size="14" lengthAdjust="spacing" textLength="206" x="2319" y="103.877">Comma and tab-delimited values</text><path d="M2266,127.5625 L2276,127.5625 C2291,127.5625 2291,98.1484 2306,98.1484 L2316,98.1484 " fill="none" style="stroke:#F4364C;stroke-width:3.0;"/><text fill="#000000" font-family="sans-serif" font-size="14" lengthAdjust="spacing" textLength="227" x="2319" y="123.4863">Windows and Unix style line endings</text><path d="M2266,127.5625 L2276,127.5625 C2291,127.5625 2291,117.7578 2306,117.7578 L2316,117.7578 " fill="none" style="stroke:#F4364C;stroke-width:3.0;"/><text fill="#000000" font-family="sans-serif" font-size="14" lengthAdjust="spacing" textLength="359" x="2319" y="143.0957">Non-quoted and quoted values, and escaping characters</text><path d="M2266,127.5625 L2276,127.5625 C2291,127.5625 2291,137.3672 2306,137.3672 L2316,137.3672 " fill="none" style="stroke:#F4364C;stroke-width:3.0;"/><text fill="#000000" font-family="sans-serif" font-size="14" lengthAdjust="spacing" textLength="357" x="2319" y="162.7051">FIELDTERMINATOR, ROWTERMINATOR, FIELDQUOTE</text><path d="M2266,127.5625 L2276,127.5625 C2291,127.5625 2291,156.9766 2306,156.9766 L2316,156.9766 " fill="none" style="stroke:#F4364C;stroke-width:3.0;"/><text fill="#000000" font-family="sans-serif" font-size="14" lengthAdjust="spacing" textLength="187" x="2319" y="182.3145">Specifying the rowset schema</text><path d="M2266,127.5625 L2276,127.5625 C2291,127.5625 2291,176.5859 2306,176.5859 L2316,176.5859 " fill="none" style="stroke:#F4364C;stroke-width:3.0;"/><path d="M2037,209.3789 L2047,209.3789 C2062,209.3789 2062,127.5625 2077,127.5625 L2087,127.5625 " fill="none" style="stroke:#F4364C;stroke-width:3.0;"/><rect fill="#F4364C" height="37.6094" rx="12.5" ry="12.5" style="stroke:#F4364C;stroke-width:3.0;" width="88" x="2087" y="187.1953"/><text fill="#FFFFFF" font-family="sans-serif" font-size="14" lengthAdjust="spacing" textLength="64" x="2097" y="211.7285">JSON files</text><text fill="#000000" font-family="sans-serif" font-size="14" lengthAdjust="spacing" textLength="87" x="2228" y="201.9238">JSON_VALUE</text><path d="M2175,206 L2185,206 C2200,206 2200,196.1953 2215,196.1953 L2225,196.1953 " fill="none" style="stroke:#F4364C;stroke-width:3.0;"/><text fill="#000000" font-family="sans-serif" font-size="14" lengthAdjust="spacing" textLength="63" x="2228" y="221.5332">Flattening</text><path d="M2175,206 L2185,206 C2200,206 2200,215.8047 2215,215.8047 L2225,215.8047 " fill="none" style="stroke:#F4364C;stroke-width:3.0;"/><path d="M2037,209.3789 L2047,209.3789 C2062,209.3789 2062,206 2077,206 L2087,206 " fill="none" style="stroke:#F4364C;stroke-width:3.0;"/><rect fill="#F4364C" height="37.6094" rx="12.5" ry="12.5" style="stroke:#F4364C;stroke-width:3.0;" width="103" x="2087" y="244.8047"/><text fill="#FFFFFF" font-family="sans-serif" font-size="14" lengthAdjust="spacing" textLength="79" x="2097" y="269.3379">Parquet files</text><path d="M2037,209.3789 L2047,209.3789 C2062,209.3789 2062,263.6094 2077,263.6094 L2087,263.6094 " fill="none" style="stroke:#F4364C;stroke-width:3.0;"/><rect fill="#F4364C" height="37.6094" rx="12.5" ry="12.5" style="stroke:#F4364C;stroke-width:3.0;" width="166" x="2087" y="302.4141"/><text fill="#FFFFFF" font-family="sans-serif" font-size="14" lengthAdjust="spacing" textLength="142" x="2097" y="326.9473">Query partitioned data</text><text fill="#000000" font-family="sans-serif" font-size="14" lengthAdjust="spacing" textLength="55" x="2306" y="317.1426">Wildcard</text><path d="M2253,321.2188 L2263,321.2188 C2278,321.2188 2278,311.4141 2293,311.4141 L2303,311.4141 " fill="none" style="stroke:#F4364C;stroke-width:3.0;"/><text fill="#000000" font-family="sans-serif" font-size="14" lengthAdjust="spacing" textLength="110" x="2306" y="336.752">filepath() function</text><path d="M2253,321.2188 L2263,321.2188 C2278,321.2188 2278,331.0234 2293,331.0234 L2303,331.0234 " fill="none" style="stroke:#F4364C;stroke-width:3.0;"/><path d="M2037,209.3789 L2047,209.3789 C2062,209.3789 2062,321.2188 2077,321.2188 L2087,321.2188 " fill="none" style="stroke:#F4364C;stroke-width:3.0;"/><path d="M1706,209.3789 L1716,209.3789 C1731,209.3789 1731,209.3789 1746,209.3789 L1756,209.3789 " fill="none" style="stroke:#F4364C;stroke-width:3.0;"/><path d="M1382,258.4023 L1392,258.4023 C1407,258.4023 1407,209.3789 1422,209.3789 L1432,209.3789 " fill="none" style="stroke:#181818;stroke-width:3.0;"/><rect fill="#C5B4E3" height="37.6094" rx="12.5" ry="12.5" style="stroke:#C5B4E3;stroke-width:3.0;" width="233" x="1432" y="380.2422"/><text fill="#000000" font-family="sans-serif" font-size="14" lengthAdjust="spacing" textLength="209" x="1442" y="404.7754">Create external database objects</text><text fill="#000000" font-family="sans-serif" font-size="14" lengthAdjust="spacing" textLength="133" x="1718" y="365.5566">CREATE DATABASE</text><path d="M1665,399.0469 L1675,399.0469 C1690,399.0469 1690,359.8281 1705,359.8281 L1715,359.8281 " fill="none" style="stroke:#C5B4E3;stroke-width:3.0;"/><text fill="#000000" font-family="sans-serif" font-size="14" lengthAdjust="spacing" textLength="234" x="1718" y="385.166">CREATE EXTERNAL DATA SOURCE</text><path d="M1665,399.0469 L1675,399.0469 C1690,399.0469 1690,379.4375 1705,379.4375 L1715,379.4375 " fill="none" style="stroke:#C5B4E3;stroke-width:3.0;"/><text fill="#000000" font-family="sans-serif" font-size="14" lengthAdjust="spacing" textLength="285" x="1718" y="404.7754">CREATE DATABASE SCOPED CREDENTIAL</text><path d="M1665,399.0469 L1675,399.0469 C1690,399.0469 1690,399.0469 1705,399.0469 L1715,399.0469 " fill="none" style="stroke:#C5B4E3;stroke-width:3.0;"/><text fill="#000000" font-family="sans-serif" font-size="14" lengthAdjust="spacing" textLength="227" x="1718" y="424.3848">CREATE EXTERNAL FILE FORMAT</text><path d="M1665,399.0469 L1675,399.0469 C1690,399.0469 1690,418.6563 1705,418.6563 L1715,418.6563 " fill="none" style="stroke:#C5B4E3;stroke-width:3.0;"/><text fill="#000000" font-family="sans-serif" font-size="14" lengthAdjust="spacing" textLength="179" x="1718" y="443.9941">CREATE EXTERNAL TABLE</text><path d="M1665,399.0469 L1675,399.0469 C1690,399.0469 1690,438.2656 1705,438.2656 L1715,438.2656 " fill="none" style="stroke:#C5B4E3;stroke-width:3.0;"/><path d="M1382,258.4023 L1392,258.4023 C1407,258.4023 1407,399.0469 1422,399.0469 L1432,399.0469 " fill="none" style="stroke:#181818;stroke-width:3.0;"/><rect fill="#FFB900" height="37.6094" rx="12.5" ry="12.5" style="stroke:#FFB900;stroke-width:3.0;" width="498" x="677" y="239.5977"/><text fill="#000000" font-family="sans-serif" font-size="14" lengthAdjust="spacing" textLength="474" x="687" y="264.1309">Understand Azure Synapse serverless SQL pool capabilities and use cases</text><rect fill="#FFB900" height="37.6094" rx="12.5" ry="12.5" style="stroke:#FFB900;stroke-width:3.0;" width="75" x="552" y="210.1836"/><text fill="#000000" font-family="sans-serif" font-size="14" lengthAdjust="spacing" textLength="51" x="562" y="234.7168">Benefits</text><text fill="#000000" font-family="sans-serif" font-size="14" lengthAdjust="spacing" textLength="138" x="361" y="185.6934">familiar Transact-SQL</text><path d="M552,228.9883 L542,228.9883 C527,228.9883 527,179.9648 512,179.9648 L502,179.9648 " fill="none" style="stroke:#FFB900;stroke-width:3.0;"/><text fill="#000000" font-family="sans-serif" font-size="14" lengthAdjust="spacing" textLength="192" x="307" y="205.3027">Integrated connectivity (driver)</text><path d="M552,228.9883 L542,228.9883 C527,228.9883 527,199.5742 512,199.5742 L502,199.5742 " fill="none" style="stroke:#FFB900;stroke-width:3.0;"/><text fill="#000000" font-family="sans-serif" font-size="14" lengthAdjust="spacing" textLength="181" x="318" y="224.9121">Distributed query processing</text><path d="M552,228.9883 L542,228.9883 C527,228.9883 527,219.1836 512,219.1836 L502,219.1836 " fill="none" style="stroke:#FFB900;stroke-width:3.0;"/><text fill="#000000" font-family="sans-serif" font-size="14" lengthAdjust="spacing" textLength="96" x="403" y="244.5215">Fault-tolerance</text><path d="M552,228.9883 L542,228.9883 C527,228.9883 527,238.793 512,238.793 L502,238.793 " fill="none" style="stroke:#FFB900;stroke-width:3.0;"/><text fill="#000000" font-family="sans-serif" font-size="14" lengthAdjust="spacing" textLength="176" x="323" y="264.1309">No infrastructure to manage</text><path d="M552,228.9883 L542,228.9883 C527,228.9883 527,258.4023 512,258.4023 L502,258.4023 " fill="none" style="stroke:#FFB900;stroke-width:3.0;"/><text fill="#000000" font-family="sans-serif" font-size="14" lengthAdjust="spacing" textLength="489" x="10" y="283.7402">No charge for resources reserved, pay for data processed by queries you run</text><path d="M552,228.9883 L542,228.9883 C527,228.9883 527,278.0117 512,278.0117 L502,278.0117 " fill="none" style="stroke:#FFB900;stroke-width:3.0;"/><path d="M677,258.4023 L667,258.4023 C652,258.4023 652,228.9883 637,228.9883 L627,228.9883 " fill="none" style="stroke:#FFB900;stroke-width:3.0;"/><rect fill="#FFB900" height="37.6094" rx="12.5" ry="12.5" style="stroke:#FFB900;stroke-width:3.0;" width="181" x="446" y="298.4258"/><text fill="#000000" font-family="sans-serif" font-size="14" lengthAdjust="spacing" textLength="157" x="456" y="322.959">When to use serverless?</text><text fill="#000000" font-family="sans-serif" font-size="14" lengthAdjust="spacing" textLength="103" x="290" y="303.3496">Data exploration</text><path d="M446,317.2305 L436,317.2305 C421,317.2305 421,297.6211 406,297.6211 L396,297.6211 " fill="none" style="stroke:#FFB900;stroke-width:3.0;"/><text fill="#000000" font-family="sans-serif" font-size="14" lengthAdjust="spacing" textLength="125" x="268" y="322.959">Data transformation</text><path d="M446,317.2305 L436,317.2305 C421,317.2305 421,317.2305 406,317.2305 L396,317.2305 " fill="none" style="stroke:#FFB900;stroke-width:3.0;"/><text fill="#000000" font-family="sans-serif" font-size="14" lengthAdjust="spacing" textLength="146" x="247" y="342.5684">Logical datawarehouse</text><path d="M446,317.2305 L436,317.2305 C421,317.2305 421,336.8398 406,336.8398 L396,336.8398 " fill="none" style="stroke:#FFB900;stroke-width:3.0;"/><path d="M677,258.4023 L667,258.4023 C652,258.4023 652,317.2305 637,317.2305 L627,317.2305 " fill="none" style="stroke:#FFB900;stroke-width:3.0;"/><path d="M1225,258.4023 L1215,258.4023 C1200,258.4023 1200,258.4023 1185,258.4023 L1175,258.4023 " fill="none" style="stroke:#181818;stroke-width:3.0;"/><!--MD5=[1c86397d8d081dc737f5a49a04770109]
@startmindmap
<style>
title {
        FontSize 30
        FontColor #000000
    }
mindmapDiagram {
    :depth(0) {
        BackgroundColor #091f2c
        FontColor #ffffff
        LineThickness 3.0
    }
    .topic1 {
        BackgroundColor #ffb900
        LineColor #ffb900
        LineThickness 3.0
        FontColor #000000
    }
    .topic2 {
        BackgroundColor #f4364c
        LineColor #f4364c
        LineThickness 3.0
        FontColor #ffffff
    }
    .topic3 {
        BackgroundColor #c5b4e3
        LineColor #c5b4e3
        LineThickness 3.0
        FontColor #000000
    }
    .topic4 {
        BackgroundColor #e1d3c7
        LineColor #e1d3c7
        LineThickness 3.0
        FontColor #000000
    }
    .topic5 {
        BackgroundColor #07641d
        LineColor #07641d
        LineThickness 3.0
        FontColor #ffffff
    }
}
</style>
title [[https://learn.microsoft.com/training/modules/query-data-lake-using-azure-synapse-serverless-sql-pools/ Module]]: Use Azure Synapse serverless SQL pool to query files in a data lake
+ Serverless SQL pools
- - Understand Azure Synapse serverless SQL pool capabilities and use cases <<topic1>>
- - - Benefits <<topic1>>
- - - -_ familiar Transact-SQL
- - - -_ Integrated connectivity (driver)
- - - -_ Distributed query processing
- - - -_ Fault-tolerance
- - - -_ No infrastructure to manage
- - - -_ No charge for resources reserved, pay for data processed by queries you run
- - - When to use serverless? <<topic1>>
- - - -_ Data exploration
- - - -_ Data transformation
- - - -_ Logical datawarehouse
++ Query files using a serverless SQL pool <<topic2>>
+++ File types supported in OPENROWSET() <<topic2>>
++++ Delimited text (CSV) files <<topic2>>
+++++_ With and without a header row
+++++_ Comma and tab-delimited values
+++++_ Windows and Unix style line endings
+++++_ Non-quoted and quoted values, and escaping characters
+++++_ FIELDTERMINATOR, ROWTERMINATOR, FIELDQUOTE
+++++_ Specifying the rowset schema
++++ JSON files <<topic2>>
+++++_ JSON_VALUE
+++++_ Flattening
++++ Parquet files <<topic2>>
++++ Query partitioned data <<topic2>>
+++++_ Wildcard
+++++_ filepath() function
++ Create external database objects <<topic3>>
+++_ CREATE DATABASE
+++_ CREATE EXTERNAL DATA SOURCE
+++_ CREATE DATABASE SCOPED CREDENTIAL
+++_ CREATE EXTERNAL FILE FORMAT
+++_ CREATE EXTERNAL TABLE
@endmindmap

PlantUML version 1.2022.7(Mon Aug 22 19:01:30 CEST 2022)
(GPL source distribution)
Java Runtime: OpenJDK Runtime Environment
JVM: OpenJDK 64-Bit Server VM
Default Encoding: Cp1252
Language: en
Country: US
--></g></svg>