<?xml version="1.0" encoding="UTF-8" standalone="no"?><svg xmlns="http://www.w3.org/2000/svg" xmlns:xlink="http://www.w3.org/1999/xlink" contentStyleType="text/css" height="577px" preserveAspectRatio="none" style="width:1168px;height:577px;background:#FFFFFF;" version="1.1" viewBox="0 0 1168 577" width="1168px" zoomAndPan="magnify"><defs/><g><rect fill="#091F2C" height="37.6094" rx="12.5" ry="12.5" style="stroke:#181818;stroke-width:3.0;" width="157" x="10" y="269.1055"/><text fill="#FFFFFF" font-family="sans-serif" font-size="14" lengthAdjust="spacing" textLength="137" x="20" y="293.6387">Serverless SQL pools</text><rect fill="#FFB900" height="37.6094" rx="12.5" ry="12.5" style="stroke:#FFB900;stroke-width:3.0;" width="210" x="217" y="79.4375"/><text fill="#000000" font-family="sans-serif" font-size="14" lengthAdjust="spacing" textLength="186" x="227" y="103.9707">1) Capabilities and use cases</text><rect fill="#FFB900" height="37.6094" rx="12.5" ry="12.5" style="stroke:#FFB900;stroke-width:3.0;" width="75" x="477" y="50.0234"/><text fill="#000000" font-family="sans-serif" font-size="14" lengthAdjust="spacing" textLength="51" x="487" y="74.5566">Benefits</text><text fill="#000000" font-family="sans-serif" font-size="14" lengthAdjust="spacing" textLength="143" x="605" y="25.5332">Familiar Transact-SQL</text><path d="M552,68.8281 L562,68.8281 C577,68.8281 577,19.8047 592,19.8047 L602,19.8047 " fill="none" style="stroke:#FFB900;stroke-width:3.0;"/><text fill="#000000" font-family="sans-serif" font-size="14" lengthAdjust="spacing" textLength="192" x="605" y="45.1426">Integrated connectivity (driver)</text><path d="M552,68.8281 L562,68.8281 C577,68.8281 577,39.4141 592,39.4141 L602,39.4141 " fill="none" style="stroke:#FFB900;stroke-width:3.0;"/><text fill="#000000" font-family="sans-serif" font-size="14" lengthAdjust="spacing" textLength="181" x="605" y="64.752">Distributed query processing</text><path d="M552,68.8281 L562,68.8281 C577,68.8281 577,59.0234 592,59.0234 L602,59.0234 " fill="none" style="stroke:#FFB900;stroke-width:3.0;"/><text fill="#000000" font-family="sans-serif" font-size="14" lengthAdjust="spacing" textLength="96" x="605" y="84.3613">Fault-tolerance</text><path d="M552,68.8281 L562,68.8281 C577,68.8281 577,78.6328 592,78.6328 L602,78.6328 " fill="none" style="stroke:#FFB900;stroke-width:3.0;"/><text fill="#000000" font-family="sans-serif" font-size="14" lengthAdjust="spacing" textLength="176" x="605" y="103.9707">No infrastructure to manage</text><path d="M552,68.8281 L562,68.8281 C577,68.8281 577,98.2422 592,98.2422 L602,98.2422 " fill="none" style="stroke:#FFB900;stroke-width:3.0;"/><text fill="#000000" font-family="sans-serif" font-size="14" lengthAdjust="spacing" textLength="489" x="605" y="123.5801">No charge for resources reserved, pay for data processed by queries you run</text><path d="M552,68.8281 L562,68.8281 C577,68.8281 577,117.8516 592,117.8516 L602,117.8516 " fill="none" style="stroke:#FFB900;stroke-width:3.0;"/><path d="M427,98.2422 L437,98.2422 C452,98.2422 452,68.8281 467,68.8281 L477,68.8281 " fill="none" style="stroke:#FFB900;stroke-width:3.0;"/><rect fill="#FFB900" height="37.6094" rx="12.5" ry="12.5" style="stroke:#FFB900;stroke-width:3.0;" width="181" x="477" y="138.2656"/><text fill="#000000" font-family="sans-serif" font-size="14" lengthAdjust="spacing" textLength="157" x="487" y="162.7988">When to use serverless?</text><text fill="#000000" font-family="sans-serif" font-size="14" lengthAdjust="spacing" textLength="103" x="711" y="143.1895">Data exploration</text><path d="M658,157.0703 L668,157.0703 C683,157.0703 683,137.4609 698,137.4609 L708,137.4609 " fill="none" style="stroke:#FFB900;stroke-width:3.0;"/><text fill="#000000" font-family="sans-serif" font-size="14" lengthAdjust="spacing" textLength="125" x="711" y="162.7988">Data transformation</text><path d="M658,157.0703 L668,157.0703 C683,157.0703 683,157.0703 698,157.0703 L708,157.0703 " fill="none" style="stroke:#FFB900;stroke-width:3.0;"/><text fill="#000000" font-family="sans-serif" font-size="14" lengthAdjust="spacing" textLength="146" x="711" y="182.4082">Logical datawarehouse</text><path d="M658,157.0703 L668,157.0703 C683,157.0703 683,176.6797 698,176.6797 L708,176.6797 " fill="none" style="stroke:#FFB900;stroke-width:3.0;"/><path d="M427,98.2422 L437,98.2422 C452,98.2422 452,157.0703 467,157.0703 L477,157.0703 " fill="none" style="stroke:#FFB900;stroke-width:3.0;"/><path d="M167,287.9102 L177,287.9102 C192,287.9102 192,98.2422 207,98.2422 L217,98.2422 " fill="none" style="stroke:#181818;stroke-width:3.0;"/><rect fill="#F4364C" height="37.6094" rx="12.5" ry="12.5" style="stroke:#F4364C;stroke-width:3.0;" width="298" x="217" y="308.3242"/><text fill="#FFFFFF" font-family="sans-serif" font-size="14" lengthAdjust="spacing" textLength="274" x="227" y="332.8574">2) File types supported in OPENROWSET()</text><rect fill="#F4364C" height="37.6094" rx="12.5" ry="12.5" style="stroke:#F4364C;stroke-width:3.0;" width="179" x="565" y="226.5078"/><text fill="#FFFFFF" font-family="sans-serif" font-size="14" lengthAdjust="spacing" textLength="155" x="575" y="251.041">Delimited text (CSV) files</text><text fill="#000000" font-family="sans-serif" font-size="14" lengthAdjust="spacing" textLength="191" x="797" y="202.0176">With and without a header row</text><path d="M744,245.3125 L754,245.3125 C769,245.3125 769,196.2891 784,196.2891 L794,196.2891 " fill="none" style="stroke:#F4364C;stroke-width:3.0;"/><text fill="#000000" font-family="sans-serif" font-size="14" lengthAdjust="spacing" textLength="206" x="797" y="221.627">Comma and tab-delimited values</text><path d="M744,245.3125 L754,245.3125 C769,245.3125 769,215.8984 784,215.8984 L794,215.8984 " fill="none" style="stroke:#F4364C;stroke-width:3.0;"/><text fill="#000000" font-family="sans-serif" font-size="14" lengthAdjust="spacing" textLength="227" x="797" y="241.2363">Windows and Unix style line endings</text><path d="M744,245.3125 L754,245.3125 C769,245.3125 769,235.5078 784,235.5078 L794,235.5078 " fill="none" style="stroke:#F4364C;stroke-width:3.0;"/><text fill="#000000" font-family="sans-serif" font-size="14" lengthAdjust="spacing" textLength="359" x="797" y="260.8457">Non-quoted and quoted values, and escaping characters</text><path d="M744,245.3125 L754,245.3125 C769,245.3125 769,255.1172 784,255.1172 L794,255.1172 " fill="none" style="stroke:#F4364C;stroke-width:3.0;"/><text fill="#000000" font-family="sans-serif" font-size="14" lengthAdjust="spacing" textLength="357" x="797" y="280.4551">FIELDTERMINATOR, ROWTERMINATOR, FIELDQUOTE</text><path d="M744,245.3125 L754,245.3125 C769,245.3125 769,274.7266 784,274.7266 L794,274.7266 " fill="none" style="stroke:#F4364C;stroke-width:3.0;"/><text fill="#000000" font-family="sans-serif" font-size="14" lengthAdjust="spacing" textLength="187" x="797" y="300.0645">Specifying the rowset schema</text><path d="M744,245.3125 L754,245.3125 C769,245.3125 769,294.3359 784,294.3359 L794,294.3359 " fill="none" style="stroke:#F4364C;stroke-width:3.0;"/><path d="M515,327.1289 L525,327.1289 C540,327.1289 540,245.3125 555,245.3125 L565,245.3125 " fill="none" style="stroke:#F4364C;stroke-width:3.0;"/><rect fill="#F4364C" height="37.6094" rx="12.5" ry="12.5" style="stroke:#F4364C;stroke-width:3.0;" width="88" x="565" y="304.9453"/><text fill="#FFFFFF" font-family="sans-serif" font-size="14" lengthAdjust="spacing" textLength="64" x="575" y="329.4785">JSON files</text><text fill="#000000" font-family="sans-serif" font-size="14" lengthAdjust="spacing" textLength="87" x="706" y="319.6738">JSON_VALUE</text><path d="M653,323.75 L663,323.75 C678,323.75 678,313.9453 693,313.9453 L703,313.9453 " fill="none" style="stroke:#F4364C;stroke-width:3.0;"/><text fill="#000000" font-family="sans-serif" font-size="14" lengthAdjust="spacing" textLength="63" x="706" y="339.2832">Flattening</text><path d="M653,323.75 L663,323.75 C678,323.75 678,333.5547 693,333.5547 L703,333.5547 " fill="none" style="stroke:#F4364C;stroke-width:3.0;"/><path d="M515,327.1289 L525,327.1289 C540,327.1289 540,323.75 555,323.75 L565,323.75 " fill="none" style="stroke:#F4364C;stroke-width:3.0;"/><rect fill="#F4364C" height="37.6094" rx="12.5" ry="12.5" style="stroke:#F4364C;stroke-width:3.0;" width="103" x="565" y="362.5547"/><text fill="#FFFFFF" font-family="sans-serif" font-size="14" lengthAdjust="spacing" textLength="79" x="575" y="387.0879">Parquet files</text><text fill="#000000" font-family="sans-serif" font-size="14" lengthAdjust="spacing" textLength="185" x="721" y="377.2832">Highly compressed, columnar</text><path d="M668,381.3594 L678,381.3594 C693,381.3594 693,371.5547 708,371.5547 L718,371.5547 " fill="none" style="stroke:#F4364C;stroke-width:3.0;"/><text fill="#000000" font-family="sans-serif" font-size="14" lengthAdjust="spacing" textLength="150" x="721" y="396.8926">Optimized for fast reads</text><path d="M668,381.3594 L678,381.3594 C693,381.3594 693,391.1641 708,391.1641 L718,391.1641 " fill="none" style="stroke:#F4364C;stroke-width:3.0;"/><path d="M515,327.1289 L525,327.1289 C540,327.1289 540,381.3594 555,381.3594 L565,381.3594 " fill="none" style="stroke:#F4364C;stroke-width:3.0;"/><rect fill="#F4364C" height="37.6094" rx="12.5" ry="12.5" style="stroke:#F4364C;stroke-width:3.0;" width="166" x="565" y="420.1641"/><text fill="#FFFFFF" font-family="sans-serif" font-size="14" lengthAdjust="spacing" textLength="142" x="575" y="444.6973">Query partitioned data</text><text fill="#000000" font-family="sans-serif" font-size="14" lengthAdjust="spacing" textLength="55" x="784" y="434.8926">Wildcard</text><path d="M731,438.9688 L741,438.9688 C756,438.9688 756,429.1641 771,429.1641 L781,429.1641 " fill="none" style="stroke:#F4364C;stroke-width:3.0;"/><text fill="#000000" font-family="sans-serif" font-size="14" lengthAdjust="spacing" textLength="110" x="784" y="454.502">filepath() function</text><path d="M731,438.9688 L741,438.9688 C756,438.9688 756,448.7734 771,448.7734 L781,448.7734 " fill="none" style="stroke:#F4364C;stroke-width:3.0;"/><path d="M515,327.1289 L525,327.1289 C540,327.1289 540,438.9688 555,438.9688 L565,438.9688 " fill="none" style="stroke:#F4364C;stroke-width:3.0;"/><path d="M167,287.9102 L177,287.9102 C192,287.9102 192,327.1289 207,327.1289 L217,327.1289 " fill="none" style="stroke:#181818;stroke-width:3.0;"/><rect fill="#C5B4E3" height="37.6094" rx="12.5" ry="12.5" style="stroke:#C5B4E3;stroke-width:3.0;" width="250" x="217" y="497.9922"/><text fill="#000000" font-family="sans-serif" font-size="14" lengthAdjust="spacing" textLength="226" x="227" y="522.5254">3) Create external database objects</text><text fill="#000000" font-family="sans-serif" font-size="14" lengthAdjust="spacing" textLength="133" x="520" y="483.3066">CREATE DATABASE</text><path d="M467,516.7969 L477,516.7969 C492,516.7969 492,477.5781 507,477.5781 L517,477.5781 " fill="none" style="stroke:#C5B4E3;stroke-width:3.0;"/><text fill="#000000" font-family="sans-serif" font-size="14" lengthAdjust="spacing" textLength="234" x="520" y="502.916">CREATE EXTERNAL DATA SOURCE</text><path d="M467,516.7969 L477,516.7969 C492,516.7969 492,497.1875 507,497.1875 L517,497.1875 " fill="none" style="stroke:#C5B4E3;stroke-width:3.0;"/><text fill="#000000" font-family="sans-serif" font-size="14" lengthAdjust="spacing" textLength="285" x="520" y="522.5254">CREATE DATABASE SCOPED CREDENTIAL</text><path d="M467,516.7969 L477,516.7969 C492,516.7969 492,516.7969 507,516.7969 L517,516.7969 " fill="none" style="stroke:#C5B4E3;stroke-width:3.0;"/><text fill="#000000" font-family="sans-serif" font-size="14" lengthAdjust="spacing" textLength="227" x="520" y="542.1348">CREATE EXTERNAL FILE FORMAT</text><path d="M467,516.7969 L477,516.7969 C492,516.7969 492,536.4063 507,536.4063 L517,536.4063 " fill="none" style="stroke:#C5B4E3;stroke-width:3.0;"/><text fill="#000000" font-family="sans-serif" font-size="14" lengthAdjust="spacing" textLength="179" x="520" y="561.7441">CREATE EXTERNAL TABLE</text><path d="M467,516.7969 L477,516.7969 C492,516.7969 492,556.0156 507,556.0156 L517,556.0156 " fill="none" style="stroke:#C5B4E3;stroke-width:3.0;"/><path d="M167,287.9102 L177,287.9102 C192,287.9102 192,516.7969 207,516.7969 L217,516.7969 " fill="none" style="stroke:#181818;stroke-width:3.0;"/><!--MD5=[f86e4d186608085a4f571e639d33d218]
@startmindmap
<style>
:depth(0) {
    BackgroundColor #091f2c
    FontColor #ffffff
    LineThickness 3.0
}
.topic1 {
    BackgroundColor #ffb900
    LineColor #ffb900
    LineThickness 3.0
    FontColor #000000
}
.topic2 {
    BackgroundColor #f4364c
    LineColor #f4364c
    LineThickness 3.0
    FontColor #ffffff
}
.topic3 {
    BackgroundColor #c5b4e3
    LineColor #c5b4e3
    LineThickness 3.0
    FontColor #000000
}
.topic4 {
    BackgroundColor #e1d3c7
    LineColor #e1d3c7
    LineThickness 3.0
    FontColor #000000
}
.topic5 {
    BackgroundColor #07641d
    LineColor #07641d
    LineThickness 3.0
    FontColor #ffffff
}
</style>
+ Serverless SQL pools
++ 1) Capabilities and use cases <<topic1>>
+++ Benefits <<topic1>>
++++_ Familiar Transact-SQL
++++_ Integrated connectivity (driver)
++++_ Distributed query processing
++++_ Fault-tolerance
++++_ No infrastructure to manage
++++_ No charge for resources reserved, pay for data processed by queries you run
+++ When to use serverless? <<topic1>>
++++_ Data exploration
++++_ Data transformation
++++_ Logical datawarehouse
++ 2) File types supported in OPENROWSET() <<topic2>>
+++ Delimited text (CSV) files <<topic2>>
++++_ With and without a header row
++++_ Comma and tab-delimited values
++++_ Windows and Unix style line endings
++++_ Non-quoted and quoted values, and escaping characters
++++_ FIELDTERMINATOR, ROWTERMINATOR, FIELDQUOTE
++++_ Specifying the rowset schema
+++ JSON files <<topic2>>
++++_ JSON_VALUE
++++_ Flattening
+++ Parquet files <<topic2>>
++++_ Highly compressed, columnar
++++_ Optimized for fast reads
+++ Query partitioned data <<topic2>>
++++_ Wildcard
++++_ filepath() function
++ 3) Create external database objects <<topic3>>
+++_ CREATE DATABASE
+++_ CREATE EXTERNAL DATA SOURCE
+++_ CREATE DATABASE SCOPED CREDENTIAL
+++_ CREATE EXTERNAL FILE FORMAT
+++_ CREATE EXTERNAL TABLE
@endmindmap

PlantUML version 1.2022.7(Mon Aug 22 19:01:30 CEST 2022)
(GPL source distribution)
Java Runtime: OpenJDK Runtime Environment
JVM: OpenJDK 64-Bit Server VM
Default Encoding: Cp1252
Language: en
Country: US
--></g></svg>