<?xml version="1.0" encoding="UTF-8" standalone="no"?><svg xmlns="http://www.w3.org/2000/svg" xmlns:xlink="http://www.w3.org/1999/xlink" contentStyleType="text/css" height="554px" preserveAspectRatio="none" style="width:1667px;height:554px;background:#FFFFFF;" version="1.1" viewBox="0 0 1667 554" width="1667px" zoomAndPan="magnify"><defs/><g><rect fill="#091F2C" height="42.6406" rx="12.5" ry="12.5" style="stroke:#181818;stroke-width:3.0;" width="194" x="10" y="255.125"/><text fill="#FFFFFF" font-family="sans-serif" font-size="18" lengthAdjust="spacing" textLength="174" x="20" y="283.8105">Serverless SQL pools</text><rect fill="#FFB900" height="42.6406" rx="12.5" ry="12.5" style="stroke:#FFB900;stroke-width:3.0;" width="168" x="254" y="143.2031"/><text fill="#000000" font-family="sans-serif" font-size="18" lengthAdjust="spacing" textLength="143" x="264" y="171.8887">1) Transform data</text><rect fill="#FFB900" height="42.6406" rx="12.5" ry="12.5" style="stroke:#FFB900;stroke-width:3.0;" width="77" x="472" y="50.2813"/><text fill="#000000" font-family="sans-serif" font-size="18" lengthAdjust="spacing" textLength="52" x="482" y="78.9668">What?</text><text fill="#000000" font-family="sans-serif" font-size="18" lengthAdjust="spacing" textLength="287" x="602" y="29.6855">Filter rows and columns in a dataset</text><path d="M549,71.6016 L559,71.6016 C574,71.6016 574,22.3203 589,22.3203 L599,22.3203 " fill="none" style="stroke:#FFB900;stroke-width:3.0;"/><text fill="#000000" font-family="sans-serif" font-size="18" lengthAdjust="spacing" textLength="414" x="602" y="54.3262">Rename data fields and convert between data types</text><path d="M549,71.6016 L559,71.6016 C574,71.6016 574,46.9609 589,46.9609 L599,46.9609 " fill="none" style="stroke:#FFB900;stroke-width:3.0;"/><text fill="#000000" font-family="sans-serif" font-size="18" lengthAdjust="spacing" textLength="226" x="602" y="78.9668">Calculate derived data fields</text><path d="M549,71.6016 L559,71.6016 C574,71.6016 574,71.6016 589,71.6016 L599,71.6016 " fill="none" style="stroke:#FFB900;stroke-width:3.0;"/><text fill="#000000" font-family="sans-serif" font-size="18" lengthAdjust="spacing" textLength="194" x="602" y="103.6074">Manipulate string values</text><path d="M549,71.6016 L559,71.6016 C574,71.6016 574,96.2422 589,96.2422 L599,96.2422 " fill="none" style="stroke:#FFB900;stroke-width:3.0;"/><text fill="#000000" font-family="sans-serif" font-size="18" lengthAdjust="spacing" textLength="211" x="602" y="128.248">Group and aggregate data</text><path d="M549,71.6016 L559,71.6016 C574,71.6016 574,120.8828 589,120.8828 L599,120.8828 " fill="none" style="stroke:#FFB900;stroke-width:3.0;"/><path d="M422,164.5234 L432,164.5234 C447,164.5234 447,71.6016 462,71.6016 L472,71.6016 " fill="none" style="stroke:#FFB900;stroke-width:3.0;"/><rect fill="#FFB900" height="42.6406" rx="12.5" ry="12.5" style="stroke:#FFB900;stroke-width:3.0;" width="136" x="472" y="173.4844"/><text fill="#000000" font-family="sans-serif" font-size="18" lengthAdjust="spacing" textLength="111" x="482" y="202.1699">How? CETAS</text><text fill="#000000" font-family="sans-serif" font-size="18" lengthAdjust="spacing" textLength="751" x="661" y="152.8887">Persist the results of a query in an external table, which stores its data in a file in the data lake.</text><path d="M608,194.8047 L618,194.8047 C633,194.8047 633,145.5234 648,145.5234 L658,145.5234 " fill="none" style="stroke:#FFB900;stroke-width:3.0;"/><text fill="#000000" font-family="sans-serif" font-size="18" lengthAdjust="spacing" textLength="306" x="661" y="177.5293">CREATE EXTERNAL DATA SOURCE</text><path d="M608,194.8047 L618,194.8047 C633,194.8047 633,170.1641 648,170.1641 L658,170.1641 " fill="none" style="stroke:#FFB900;stroke-width:3.0;"/><text fill="#000000" font-family="sans-serif" font-size="18" lengthAdjust="spacing" textLength="371" x="661" y="202.1699">CREATE DATABASE SCOPED CREDENTIAL</text><path d="M608,194.8047 L618,194.8047 C633,194.8047 633,194.8047 648,194.8047 L658,194.8047 " fill="none" style="stroke:#FFB900;stroke-width:3.0;"/><text fill="#000000" font-family="sans-serif" font-size="18" lengthAdjust="spacing" textLength="295" x="661" y="226.8105">CREATE EXTERNAL FILE FORMAT</text><path d="M608,194.8047 L618,194.8047 C633,194.8047 633,219.4453 648,219.4453 L658,219.4453 " fill="none" style="stroke:#FFB900;stroke-width:3.0;"/><text fill="#000000" font-family="sans-serif" font-size="18" lengthAdjust="spacing" textLength="358" x="661" y="251.4512">CREATE EXTERNAL TABLE ... AS SELECT</text><path d="M608,194.8047 L618,194.8047 C633,194.8047 633,244.0859 648,244.0859 L658,244.0859 " fill="none" style="stroke:#FFB900;stroke-width:3.0;"/><path d="M422,164.5234 L432,164.5234 C447,164.5234 447,194.8047 462,194.8047 L472,194.8047 " fill="none" style="stroke:#FFB900;stroke-width:3.0;"/><rect fill="#FFB900" height="42.6406" rx="12.5" ry="12.5" style="stroke:#FFB900;stroke-width:3.0;" width="219" x="472" y="266.4063"/><text fill="#000000" font-family="sans-serif" font-size="18" lengthAdjust="spacing" textLength="194" x="482" y="295.0918">Dropping external tables</text><text fill="#000000" font-family="sans-serif" font-size="18" lengthAdjust="spacing" textLength="278" x="744" y="295.0918">does not delete the underlying files</text><path d="M691,287.7266 L701,287.7266 C716,287.7266 716,287.7266 731,287.7266 L741,287.7266 " fill="none" style="stroke:#FFB900;stroke-width:3.0;"/><path d="M422,164.5234 L432,164.5234 C447,164.5234 447,287.7266 462,287.7266 L472,287.7266 " fill="none" style="stroke:#FFB900;stroke-width:3.0;"/><path d="M204,276.4453 L214,276.4453 C229,276.4453 229,164.5234 244,164.5234 L254,164.5234 " fill="none" style="stroke:#181818;stroke-width:3.0;"/><rect fill="#F4364C" height="42.6406" rx="12.5" ry="12.5" style="stroke:#F4364C;stroke-width:3.0;" width="488" x="254" y="409.6484"/><text fill="#FFFFFF" font-family="sans-serif" font-size="18" lengthAdjust="spacing" textLength="463" x="264" y="438.334">2) Encapsulate data transformations in a stored procedure</text><rect fill="#F4364C" height="42.6406" rx="12.5" ry="12.5" style="stroke:#F4364C;stroke-width:3.0;" width="218" x="792" y="329.0469"/><text fill="#FFFFFF" font-family="sans-serif" font-size="18" lengthAdjust="spacing" textLength="193" x="802" y="357.7324">CREATE PROCEDURE</text><text fill="#000000" font-family="sans-serif" font-size="18" lengthAdjust="spacing" textLength="553" x="1063" y="357.7324">Delete the target folder if it exists before running the stored procedure</text><path d="M1010,350.3672 L1020,350.3672 C1035,350.3672 1035,350.3672 1050,350.3672 L1060,350.3672 " fill="none" style="stroke:#F4364C;stroke-width:3.0;"/><path d="M742,430.9688 L752,430.9688 C767,430.9688 767,350.3672 782,350.3672 L792,350.3672 " fill="none" style="stroke:#F4364C;stroke-width:3.0;"/><rect fill="#F4364C" height="42.6406" rx="12.5" ry="12.5" style="stroke:#F4364C;stroke-width:3.0;" width="90" x="792" y="409.6484"/><text fill="#FFFFFF" font-family="sans-serif" font-size="18" lengthAdjust="spacing" textLength="65" x="802" y="438.334">Benefits</text><text fill="#000000" font-family="sans-serif" font-size="18" lengthAdjust="spacing" textLength="310" x="935" y="401.373">Reduces client to server network traffic</text><path d="M882,430.9688 L892,430.9688 C907,430.9688 907,394.0078 922,394.0078 L932,394.0078 " fill="none" style="stroke:#F4364C;stroke-width:3.0;"/><text fill="#000000" font-family="sans-serif" font-size="18" lengthAdjust="spacing" textLength="232" x="935" y="426.0137">Provides a security boundary</text><path d="M882,430.9688 L892,430.9688 C907,430.9688 907,418.6484 922,418.6484 L932,418.6484 " fill="none" style="stroke:#F4364C;stroke-width:3.0;"/><text fill="#000000" font-family="sans-serif" font-size="18" lengthAdjust="spacing" textLength="157" x="935" y="450.6543">Eases maintenance</text><path d="M882,430.9688 L892,430.9688 C907,430.9688 907,443.2891 922,443.2891 L932,443.2891 " fill="none" style="stroke:#F4364C;stroke-width:3.0;"/><text fill="#000000" font-family="sans-serif" font-size="18" lengthAdjust="spacing" textLength="178" x="935" y="475.2949">Improved performance</text><path d="M882,430.9688 L892,430.9688 C907,430.9688 907,467.9297 922,467.9297 L932,467.9297 " fill="none" style="stroke:#F4364C;stroke-width:3.0;"/><path d="M742,430.9688 L752,430.9688 C767,430.9688 767,430.9688 782,430.9688 L792,430.9688 " fill="none" style="stroke:#F4364C;stroke-width:3.0;"/><rect fill="#F4364C" height="42.6406" rx="12.5" ry="12.5" style="stroke:#F4364C;stroke-width:3.0;" width="207" x="792" y="490.25"/><text fill="#FFFFFF" font-family="sans-serif" font-size="18" lengthAdjust="spacing" textLength="182" x="802" y="518.9355">Call SP from a pipeline</text><text fill="#000000" font-family="sans-serif" font-size="18" lengthAdjust="spacing" textLength="317" x="1052" y="506.6152">Delete activity to delete the target folder</text><path d="M999,511.5703 L1009,511.5703 C1024,511.5703 1024,499.25 1039,499.25 L1049,499.25 " fill="none" style="stroke:#F4364C;stroke-width:3.0;"/><text fill="#000000" font-family="sans-serif" font-size="18" lengthAdjust="spacing" textLength="603" x="1052" y="531.2559">Stored procedure activity to run the stored procedure containing the CETAS</text><path d="M999,511.5703 L1009,511.5703 C1024,511.5703 1024,523.8906 1039,523.8906 L1049,523.8906 " fill="none" style="stroke:#F4364C;stroke-width:3.0;"/><path d="M742,430.9688 L752,430.9688 C767,430.9688 767,511.5703 782,511.5703 L792,511.5703 " fill="none" style="stroke:#F4364C;stroke-width:3.0;"/><path d="M204,276.4453 L214,276.4453 C229,276.4453 229,430.9688 244,430.9688 L254,430.9688 " fill="none" style="stroke:#181818;stroke-width:3.0;"/><!--MD5=[d95895e66d1400a46026fb092660908e]
@startmindmap
<style>
title {
    FontSize 30
    FontColor #000000
}
node {
    FontSize 18
    MarginTop 50
}
:depth(0) {
    BackgroundColor #091f2c
    FontColor #ffffff
    LineThickness 3.0
}
.topic1 {
    BackgroundColor #ffb900
    LineColor #ffb900
    LineThickness 3.0
    FontColor #000000
}
.topic2 {
    BackgroundColor #f4364c
    LineColor #f4364c
    LineThickness 3.0
    FontColor #ffffff
}
.topic3 {
    BackgroundColor #c5b4e3
    LineColor #c5b4e3
    LineThickness 3.0
    FontColor #000000
}
.topic4 {
    BackgroundColor #e1d3c7
    LineColor #e1d3c7
    LineThickness 3.0
    FontColor #000000
}
.topic5 {
    BackgroundColor #07641d
    LineColor #07641d
    LineThickness 3.0
    FontColor #ffffff
}
</style>
+ Serverless SQL pools
++ 1) Transform data <<topic1>>
+++ What? <<topic1>>
++++_ Filter rows and columns in a dataset
++++_ Rename data fields and convert between data types
++++_ Calculate derived data fields
++++_ Manipulate string values
++++_ Group and aggregate data
+++ How? CETAS <<topic1>>
++++_ Persist the results of a query in an external table, which stores its data in a file in the data lake.
++++_ CREATE EXTERNAL DATA SOURCE
++++_ CREATE DATABASE SCOPED CREDENTIAL
++++_ CREATE EXTERNAL FILE FORMAT
++++_ CREATE EXTERNAL TABLE ... AS SELECT
+++ Dropping external tables <<topic1>>
++++_ does not delete the underlying files
++ 2) Encapsulate data transformations in a stored procedure <<topic2>>
+++ CREATE PROCEDURE <<topic2>>
++++_ Delete the target folder if it exists before running the stored procedure
+++ Benefits <<topic2>>
++++_ Reduces client to server network traffic
++++_ Provides a security boundary
++++_ Eases maintenance
++++_ Improved performance
+++ Call SP from a pipeline <<topic2>>
++++_ Delete activity to delete the target folder
++++_ Stored procedure activity to run the stored procedure containing the CETAS
@endmindmap

PlantUML version 1.2022.7(Mon Aug 22 19:01:30 CEST 2022)
(GPL source distribution)
Java Runtime: OpenJDK Runtime Environment
JVM: OpenJDK 64-Bit Server VM
Default Encoding: Cp1252
Language: en
Country: US
--></g></svg>