<?xml version="1.0" encoding="UTF-8" standalone="no"?><svg xmlns="http://www.w3.org/2000/svg" xmlns:xlink="http://www.w3.org/1999/xlink" contentStyleType="text/css" height="207px" preserveAspectRatio="none" style="width:1761px;height:207px;background:#FFFFFF;" version="1.1" viewBox="0 0 1761 207" width="1761px" zoomAndPan="magnify"><defs/><g><rect fill="none" height="47.7344" id="_title" style="stroke:none;stroke-width:1.0;" width="854" x="452" y="15"/><a href="https://learn.microsoft.com/training/modules/create-metadata-objects-azure-synapse-serverless-sql-pools/" target="_top" title="https://learn.microsoft.com/training/modules/create-metadata-objects-azure-synapse-serverless-sql-pools/" xlink:actuate="onRequest" xlink:href="https://learn.microsoft.com/training/modules/create-metadata-objects-azure-synapse-serverless-sql-pools/" xlink:show="new" xlink:title="https://learn.microsoft.com/training/modules/create-metadata-objects-azure-synapse-serverless-sql-pools/" xlink:type="simple"><text fill="#0000FF" font-family="sans-serif" font-size="30" font-weight="bold" lengthAdjust="spacing" text-decoration="underline" textLength="104" x="457" y="51.1426">Module</text></a><text fill="#000000" font-family="sans-serif" font-size="30" font-weight="bold" lengthAdjust="spacing" textLength="740" x="561" y="51.1426">: Create a lake database in Azure Synapse Analytics</text><rect fill="#091F2C" height="37.6094" rx="12.5" ry="12.5" style="stroke:#181818;stroke-width:3.0;" width="121" x="868" y="113.3555"/><text fill="#FFFFFF" font-family="sans-serif" font-size="14" lengthAdjust="spacing" textLength="101" x="878" y="137.8887">Lake databases</text><rect fill="#C5B4E3" height="37.6094" rx="12.5" ry="12.5" style="stroke:#C5B4E3;stroke-width:3.0;" width="172" x="1039" y="89.1484"/><text fill="#000000" font-family="sans-serif" font-size="14" lengthAdjust="spacing" textLength="148" x="1049" y="113.6816">Create a lake database</text><text fill="#000000" font-family="sans-serif" font-size="14" lengthAdjust="spacing" textLength="278" x="1264" y="84.2676">Database designer in Azure Synapse Studio</text><path d="M1211,107.9531 L1221,107.9531 C1236,107.9531 1236,78.5391 1251,78.5391 L1261,78.5391 " fill="none" style="stroke:#C5B4E3;stroke-width:3.0;"/><text fill="#000000" font-family="sans-serif" font-size="14" lengthAdjust="spacing" textLength="337" x="1264" y="103.877">Specify the name and storage settings for each table.</text><path d="M1211,107.9531 L1221,107.9531 C1236,107.9531 1236,98.1484 1251,98.1484 L1261,98.1484 " fill="none" style="stroke:#C5B4E3;stroke-width:3.0;"/><text fill="#000000" font-family="sans-serif" font-size="14" lengthAdjust="spacing" textLength="485" x="1264" y="123.4863">Specifying the names, key usage, nullability, and data types for each column.</text><path d="M1211,107.9531 L1221,107.9531 C1236,107.9531 1236,117.7578 1251,117.7578 L1261,117.7578 " fill="none" style="stroke:#C5B4E3;stroke-width:3.0;"/><text fill="#000000" font-family="sans-serif" font-size="14" lengthAdjust="spacing" textLength="336" x="1264" y="143.0957">Defining relationships between key columns in tables.</text><path d="M1211,107.9531 L1221,107.9531 C1236,107.9531 1236,137.3672 1251,137.3672 L1261,137.3672 " fill="none" style="stroke:#C5B4E3;stroke-width:3.0;"/><path d="M989,132.1602 L999,132.1602 C1014,132.1602 1014,107.9531 1029,107.9531 L1039,107.9531 " fill="none" style="stroke:#181818;stroke-width:3.0;"/><rect fill="#E1D3C7" height="37.6094" rx="12.5" ry="12.5" style="stroke:#E1D3C7;stroke-width:3.0;" width="153" x="1039" y="147.9766"/><text fill="#000000" font-family="sans-serif" font-size="14" lengthAdjust="spacing" textLength="129" x="1049" y="172.5098">Use a lake database</text><text fill="#000000" font-family="sans-serif" font-size="14" lengthAdjust="spacing" textLength="179" x="1245" y="162.7051">Using a serverless SQL pool</text><path d="M1192,166.7813 L1202,166.7813 C1217,166.7813 1217,156.9766 1232,156.9766 L1242,156.9766 " fill="none" style="stroke:#E1D3C7;stroke-width:3.0;"/><text fill="#000000" font-family="sans-serif" font-size="14" lengthAdjust="spacing" textLength="179" x="1245" y="182.3145">Using an Apache Spark pool</text><path d="M1192,166.7813 L1202,166.7813 C1217,166.7813 1217,176.5859 1232,176.5859 L1242,176.5859 " fill="none" style="stroke:#E1D3C7;stroke-width:3.0;"/><path d="M989,132.1602 L999,132.1602 C1014,132.1602 1014,166.7813 1029,166.7813 L1039,166.7813 " fill="none" style="stroke:#181818;stroke-width:3.0;"/><rect fill="#FFB900" height="37.6094" rx="12.5" ry="12.5" style="stroke:#FFB900;stroke-width:3.0;" width="251" x="567" y="84.8555"/><text fill="#000000" font-family="sans-serif" font-size="14" lengthAdjust="spacing" textLength="227" x="577" y="109.3887">Understand lake database concepts</text><text fill="#000000" font-family="sans-serif" font-size="14" lengthAdjust="spacing" textLength="458" x="56" y="89.7793">Provides a relational metadata layer over one or more files in a data lake</text><path d="M567,103.6602 L557,103.6602 C542,103.6602 542,84.0508 527,84.0508 L517,84.0508 " fill="none" style="stroke:#FFB900;stroke-width:3.0;"/><text fill="#000000" font-family="sans-serif" font-size="14" lengthAdjust="spacing" textLength="504" x="10" y="109.3887">Data is stored in files (which may be strucctured, unstructed, or semi-structured)</text><path d="M567,103.6602 L557,103.6602 C542,103.6602 542,103.6602 527,103.6602 L517,103.6602 " fill="none" style="stroke:#FFB900;stroke-width:3.0;"/><text fill="#000000" font-family="sans-serif" font-size="14" lengthAdjust="spacing" textLength="416" x="98" y="128.998">Query it using SQL (T-SQL in Serverless Pools or Spark SQL API)</text><path d="M567,103.6602 L557,103.6602 C542,103.6602 542,123.2695 527,123.2695 L517,123.2695 " fill="none" style="stroke:#FFB900;stroke-width:3.0;"/><path d="M868,132.1602 L858,132.1602 C843,132.1602 843,103.6602 828,103.6602 L818,103.6602 " fill="none" style="stroke:#181818;stroke-width:3.0;"/><rect fill="#F4364C" height="37.6094" rx="12.5" ry="12.5" style="stroke:#F4364C;stroke-width:3.0;" width="199" x="619" y="142.4648"/><text fill="#FFFFFF" font-family="sans-serif" font-size="14" lengthAdjust="spacing" textLength="175" x="629" y="166.998">Explore database templates</text><text fill="#000000" font-family="sans-serif" font-size="14" lengthAdjust="spacing" textLength="348" x="218" y="157.1934">Common schemas found in multiple business scenarios</text><path d="M619,161.2695 L609,161.2695 C594,161.2695 594,151.4648 579,151.4648 L569,151.4648 " fill="none" style="stroke:#F4364C;stroke-width:3.0;"/><text fill="#000000" font-family="sans-serif" font-size="14" lengthAdjust="spacing" textLength="265" x="301" y="176.8027">Starting point for creating a lake database</text><path d="M619,161.2695 L609,161.2695 C594,161.2695 594,171.0742 579,171.0742 L569,171.0742 " fill="none" style="stroke:#F4364C;stroke-width:3.0;"/><path d="M868,132.1602 L858,132.1602 C843,132.1602 843,161.2695 828,161.2695 L818,161.2695 " fill="none" style="stroke:#181818;stroke-width:3.0;"/><!--MD5=[17ac60fc37b00e966769472731e74101]
@startmindmap
<style>
title {
        FontSize 30
        FontColor #000000
    }
mindmapDiagram {
    :depth(0) {
        BackgroundColor #091f2c
        FontColor #ffffff
        LineThickness 3.0
    }
    .topic1 {
        BackgroundColor #ffb900
        LineColor #ffb900
        LineThickness 3.0
        FontColor #000000
    }
    .topic2 {
        BackgroundColor #f4364c
        LineColor #f4364c
        LineThickness 3.0
        FontColor #ffffff
    }
    .topic3 {
        BackgroundColor #c5b4e3
        LineColor #c5b4e3
        LineThickness 3.0
        FontColor #000000
    }
    .topic4 {
        BackgroundColor #e1d3c7
        LineColor #e1d3c7
        LineThickness 3.0
        FontColor #000000
    }
    .topic5 {
        BackgroundColor #07641d
        LineColor #07641d
        LineThickness 3.0
        FontColor #ffffff
    }
}
</style>
title [[https://learn.microsoft.com/training/modules/create-metadata-objects-azure-synapse-serverless-sql-pools/ Module]]: Create a lake database in Azure Synapse Analytics
+ Lake databases
- - Understand lake database concepts <<topic1>>
- - -_ Provides a relational metadata layer over one or more files in a data lake
- - -_ Data is stored in files (which may be strucctured, unstructed, or semi-structured)
- - -_ Query it using SQL (T-SQL in Serverless Pools or Spark SQL API)
- - Explore database templates <<topic2>>
- - -_ Common schemas found in multiple business scenarios
- - -_ Starting point for creating a lake database
++ Create a lake database <<topic3>>
+++_ Database designer in Azure Synapse Studio
+++_ Specify the name and storage settings for each table.
+++_ Specifying the names, key usage, nullability, and data types for each column.
+++_ Defining relationships between key columns in tables.
++ Use a lake database <<topic4>>
+++_ Using a serverless SQL pool
+++_ Using an Apache Spark pool
@endmindmap

PlantUML version 1.2022.7(Mon Aug 22 19:01:30 CEST 2022)
(GPL source distribution)
Java Runtime: OpenJDK Runtime Environment
JVM: OpenJDK 64-Bit Server VM
Default Encoding: Cp1252
Language: en
Country: US
--></g></svg>