<?xml version="1.0" encoding="UTF-8" standalone="no"?><svg xmlns="http://www.w3.org/2000/svg" xmlns:xlink="http://www.w3.org/1999/xlink" contentStyleType="text/css" height="148px" preserveAspectRatio="none" style="width:1319px;height:148px;background:#FFFFFF;" version="1.1" viewBox="0 0 1319 148" width="1319px" zoomAndPan="magnify"><defs/><g><rect fill="#091F2C" height="37.6094" rx="12.5" ry="12.5" style="stroke:#181818;stroke-width:3.0;" width="121" x="630" y="54.6211"/><text fill="#FFFFFF" font-family="sans-serif" font-size="14" lengthAdjust="spacing" textLength="101" x="640" y="79.1543">Lake databases</text><rect fill="#C5B4E3" height="37.6094" rx="12.5" ry="12.5" style="stroke:#C5B4E3;stroke-width:3.0;" width="135" x="801" y="30.4141"/><text fill="#000000" font-family="sans-serif" font-size="14" lengthAdjust="spacing" textLength="111" x="811" y="54.9473">3) How to create?</text><text fill="#000000" font-family="sans-serif" font-size="14" lengthAdjust="spacing" textLength="120" x="989" y="25.5332">Database designer</text><path d="M936,49.2188 L946,49.2188 C961,49.2188 961,19.8047 976,19.8047 L986,19.8047 " fill="none" style="stroke:#C5B4E3;stroke-width:3.0;"/><text fill="#000000" font-family="sans-serif" font-size="14" lengthAdjust="spacing" textLength="141" x="989" y="45.1426">Table storage settings</text><path d="M936,49.2188 L946,49.2188 C961,49.2188 961,39.4141 976,39.4141 L986,39.4141 " fill="none" style="stroke:#C5B4E3;stroke-width:3.0;"/><text fill="#000000" font-family="sans-serif" font-size="14" lengthAdjust="spacing" textLength="318" x="989" y="64.752">Field names, key usage, nullability, and data types</text><path d="M936,49.2188 L946,49.2188 C961,49.2188 961,59.0234 976,59.0234 L986,59.0234 " fill="none" style="stroke:#C5B4E3;stroke-width:3.0;"/><text fill="#000000" font-family="sans-serif" font-size="14" lengthAdjust="spacing" textLength="281" x="989" y="84.3613">Relationships between key columns in tables</text><path d="M936,49.2188 L946,49.2188 C961,49.2188 961,78.6328 976,78.6328 L986,78.6328 " fill="none" style="stroke:#C5B4E3;stroke-width:3.0;"/><path d="M751,73.4258 L761,73.4258 C776,73.4258 776,49.2188 791,49.2188 L801,49.2188 " fill="none" style="stroke:#181818;stroke-width:3.0;"/><rect fill="#E1D3C7" height="37.6094" rx="12.5" ry="12.5" style="stroke:#E1D3C7;stroke-width:3.0;" width="118" x="801" y="89.2422"/><text fill="#000000" font-family="sans-serif" font-size="14" lengthAdjust="spacing" textLength="94" x="811" y="113.7754">4) How to use?</text><text fill="#000000" font-family="sans-serif" font-size="14" lengthAdjust="spacing" textLength="156" x="972" y="103.9707">Use serverless SQL pool</text><path d="M919,108.0469 L929,108.0469 C944,108.0469 944,98.2422 959,98.2422 L969,98.2422 " fill="none" style="stroke:#E1D3C7;stroke-width:3.0;"/><text fill="#000000" font-family="sans-serif" font-size="14" lengthAdjust="spacing" textLength="148" x="972" y="123.5801">Use Apache Spark pool</text><path d="M919,108.0469 L929,108.0469 C944,108.0469 944,117.8516 959,117.8516 L969,117.8516 " fill="none" style="stroke:#E1D3C7;stroke-width:3.0;"/><path d="M751,73.4258 L761,73.4258 C776,73.4258 776,108.0469 791,108.0469 L801,108.0469 " fill="none" style="stroke:#181818;stroke-width:3.0;"/><rect fill="#FFB900" height="37.6094" rx="12.5" ry="12.5" style="stroke:#FFB900;stroke-width:3.0;" width="101" x="479" y="25.8164"/><text fill="#000000" font-family="sans-serif" font-size="14" lengthAdjust="spacing" textLength="77" x="489" y="50.3496">1) Concepts</text><text fill="#000000" font-family="sans-serif" font-size="14" lengthAdjust="spacing" textLength="311" x="115" y="30.7402">Relational metadata layer over files in a data lake</text><path d="M479,44.6211 L469,44.6211 C454,44.6211 454,25.0117 439,25.0117 L429,25.0117 " fill="none" style="stroke:#FFB900;stroke-width:3.0;"/><text fill="#000000" font-family="sans-serif" font-size="14" lengthAdjust="spacing" textLength="278" x="148" y="50.3496">Data is stored in files (csv, json, parquet, ...)</text><path d="M479,44.6211 L469,44.6211 C454,44.6211 454,44.6211 439,44.6211 L429,44.6211 " fill="none" style="stroke:#FFB900;stroke-width:3.0;"/><text fill="#000000" font-family="sans-serif" font-size="14" lengthAdjust="spacing" textLength="416" x="10" y="69.959">Query it using SQL (T-SQL in Serverless Pools or Spark SQL API)</text><path d="M479,44.6211 L469,44.6211 C454,44.6211 454,64.2305 439,64.2305 L429,64.2305 " fill="none" style="stroke:#FFB900;stroke-width:3.0;"/><path d="M630,73.4258 L620,73.4258 C605,73.4258 605,44.6211 590,44.6211 L580,44.6211 " fill="none" style="stroke:#181818;stroke-width:3.0;"/><rect fill="#F4364C" height="37.6094" rx="12.5" ry="12.5" style="stroke:#F4364C;stroke-width:3.0;" width="167" x="413" y="84.0352"/><text fill="#FFFFFF" font-family="sans-serif" font-size="14" lengthAdjust="spacing" textLength="143" x="423" y="108.5684">2) Database templates</text><text fill="#000000" font-family="sans-serif" font-size="14" lengthAdjust="spacing" textLength="348" x="12" y="98.7637">Common schemas found in multiple business scenarios</text><path d="M413,102.8398 L403,102.8398 C388,102.8398 388,93.0352 373,93.0352 L363,93.0352 " fill="none" style="stroke:#F4364C;stroke-width:3.0;"/><text fill="#000000" font-family="sans-serif" font-size="14" lengthAdjust="spacing" textLength="265" x="95" y="118.373">Starting point for creating a lake database</text><path d="M413,102.8398 L403,102.8398 C388,102.8398 388,112.6445 373,112.6445 L363,112.6445 " fill="none" style="stroke:#F4364C;stroke-width:3.0;"/><path d="M630,73.4258 L620,73.4258 C605,73.4258 605,102.8398 590,102.8398 L580,102.8398 " fill="none" style="stroke:#181818;stroke-width:3.0;"/><!--MD5=[398a86cecbb61d570b06b4d571b7b311]
@startmindmap
<style>
:depth(0) {
    BackgroundColor #091f2c
    FontColor #ffffff
    LineThickness 3.0
}
.topic1 {
    BackgroundColor #ffb900
    LineColor #ffb900
    LineThickness 3.0
    FontColor #000000
}
.topic2 {
    BackgroundColor #f4364c
    LineColor #f4364c
    LineThickness 3.0
    FontColor #ffffff
}
.topic3 {
    BackgroundColor #c5b4e3
    LineColor #c5b4e3
    LineThickness 3.0
    FontColor #000000
}
.topic4 {
    BackgroundColor #e1d3c7
    LineColor #e1d3c7
    LineThickness 3.0
    FontColor #000000
}
.topic5 {
    BackgroundColor #07641d
    LineColor #07641d
    LineThickness 3.0
    FontColor #ffffff
}
</style>
+ Lake databases
- - 1) Concepts <<topic1>>
- - -_ Relational metadata layer over files in a data lake
- - -_ Data is stored in files (csv, json, parquet, ...)
- - -_ Query it using SQL (T-SQL in Serverless Pools or Spark SQL API)
- - 2) Database templates <<topic2>>
- - -_ Common schemas found in multiple business scenarios
- - -_ Starting point for creating a lake database
++ 3) How to create? <<topic3>>
+++_ Database designer
+++_ Table storage settings
+++_ Field names, key usage, nullability, and data types
+++_ Relationships between key columns in tables
++ 4) How to use? <<topic4>>
+++_ Use serverless SQL pool
+++_ Use Apache Spark pool
@endmindmap

PlantUML version 1.2022.7(Mon Aug 22 19:01:30 CEST 2022)
(GPL source distribution)
Java Runtime: OpenJDK Runtime Environment
JVM: OpenJDK 64-Bit Server VM
Default Encoding: Cp1252
Language: en
Country: US
--></g></svg>