<?xml version="1.0" encoding="UTF-8" standalone="no"?><svg xmlns="http://www.w3.org/2000/svg" xmlns:xlink="http://www.w3.org/1999/xlink" contentStyleType="text/css" height="622px" preserveAspectRatio="none" style="width:1444px;height:622px;background:#FFFFFF;" version="1.1" viewBox="0 0 1444 622" width="1444px" zoomAndPan="magnify"><defs/><g><rect fill="#091F2C" height="37.6094" rx="12.5" ry="12.5" style="stroke:#181818;stroke-width:3.0;" width="222" x="10" y="291.3125"/><text fill="#FFFFFF" font-family="sans-serif" font-size="14" lengthAdjust="spacing" textLength="202" x="20" y="315.8457">Analyze data with Apache Spark</text><rect fill="#F4364C" height="37.6094" rx="12.5" ry="12.5" style="stroke:#F4364C;stroke-width:3.0;" width="252" x="282" y="166.6797"/><text fill="#FFFFFF" font-family="sans-serif" font-size="14" lengthAdjust="spacing" textLength="228" x="292" y="191.2129">1) Spark in Azure Synapse Analytics</text><rect fill="#F4364C" height="37.6094" rx="12.5" ry="12.5" style="stroke:#F4364C;stroke-width:3.0;" width="91" x="584" y="50.0234"/><text fill="#FFFFFF" font-family="sans-serif" font-size="14" lengthAdjust="spacing" textLength="67" x="594" y="74.5566">Workloads</text><rect fill="#F4364C" height="37.6094" rx="12.5" ry="12.5" style="stroke:#F4364C;stroke-width:3.0;" width="197" x="725" y="20.6094"/><text fill="#FFFFFF" font-family="sans-serif" font-size="14" lengthAdjust="spacing" textLength="173" x="735" y="45.1426">Batch or stream processing</text><text fill="#000000" font-family="sans-serif" font-size="14" lengthAdjust="spacing" textLength="38" x="975" y="25.5332">ingest</text><path d="M922,39.4141 L932,39.4141 C947,39.4141 947,19.8047 962,19.8047 L972,19.8047 " fill="none" style="stroke:#F4364C;stroke-width:3.0;"/><text fill="#000000" font-family="sans-serif" font-size="14" lengthAdjust="spacing" textLength="34" x="975" y="45.1426">clean</text><path d="M922,39.4141 L932,39.4141 C947,39.4141 947,39.4141 962,39.4141 L972,39.4141 " fill="none" style="stroke:#F4364C;stroke-width:3.0;"/><text fill="#000000" font-family="sans-serif" font-size="14" lengthAdjust="spacing" textLength="60" x="975" y="64.752">transform</text><path d="M922,39.4141 L932,39.4141 C947,39.4141 947,59.0234 962,59.0234 L972,59.0234 " fill="none" style="stroke:#F4364C;stroke-width:3.0;"/><path d="M675,68.8281 L685,68.8281 C700,68.8281 700,39.4141 715,39.4141 L725,39.4141 " fill="none" style="stroke:#F4364C;stroke-width:3.0;"/><rect fill="#F4364C" height="37.6094" rx="12.5" ry="12.5" style="stroke:#F4364C;stroke-width:3.0;" width="144" x="725" y="79.4375"/><text fill="#FFFFFF" font-family="sans-serif" font-size="14" lengthAdjust="spacing" textLength="120" x="735" y="103.9707">Interactive analysis</text><text fill="#000000" font-family="sans-serif" font-size="14" lengthAdjust="spacing" textLength="46" x="922" y="84.3613">explore</text><path d="M869,98.2422 L879,98.2422 C894,98.2422 894,78.6328 909,78.6328 L919,78.6328 " fill="none" style="stroke:#F4364C;stroke-width:3.0;"/><text fill="#000000" font-family="sans-serif" font-size="14" lengthAdjust="spacing" textLength="48" x="922" y="103.9707">analyze</text><path d="M869,98.2422 L879,98.2422 C894,98.2422 894,98.2422 909,98.2422 L919,98.2422 " fill="none" style="stroke:#F4364C;stroke-width:3.0;"/><text fill="#000000" font-family="sans-serif" font-size="14" lengthAdjust="spacing" textLength="53" x="922" y="123.5801">visualize</text><path d="M869,98.2422 L879,98.2422 C894,98.2422 894,117.8516 909,117.8516 L919,117.8516 " fill="none" style="stroke:#F4364C;stroke-width:3.0;"/><path d="M675,68.8281 L685,68.8281 C700,68.8281 700,98.2422 715,98.2422 L725,98.2422 " fill="none" style="stroke:#F4364C;stroke-width:3.0;"/><path d="M534,185.4844 L544,185.4844 C559,185.4844 559,68.8281 574,68.8281 L584,68.8281 " fill="none" style="stroke:#F4364C;stroke-width:3.0;"/><rect fill="#F4364C" height="37.6094" rx="12.5" ry="12.5" style="stroke:#F4364C;stroke-width:3.0;" width="91" x="584" y="148.0703"/><text fill="#FFFFFF" font-family="sans-serif" font-size="14" lengthAdjust="spacing" textLength="67" x="594" y="172.6035">Notebooks</text><text fill="#000000" font-family="sans-serif" font-size="14" lengthAdjust="spacing" textLength="233" x="728" y="143.1895">Syntax highlighting and error support</text><path d="M675,166.875 L685,166.875 C700,166.875 700,137.4609 715,137.4609 L725,137.4609 " fill="none" style="stroke:#F4364C;stroke-width:3.0;"/><text fill="#000000" font-family="sans-serif" font-size="14" lengthAdjust="spacing" textLength="139" x="728" y="162.7988">Code auto-completion</text><path d="M675,166.875 L685,166.875 C700,166.875 700,157.0703 715,157.0703 L725,157.0703 " fill="none" style="stroke:#F4364C;stroke-width:3.0;"/><text fill="#000000" font-family="sans-serif" font-size="14" lengthAdjust="spacing" textLength="184" x="728" y="182.4082">Interactive data visualizations</text><path d="M675,166.875 L685,166.875 C700,166.875 700,176.6797 715,176.6797 L725,176.6797 " fill="none" style="stroke:#F4364C;stroke-width:3.0;"/><text fill="#000000" font-family="sans-serif" font-size="14" lengthAdjust="spacing" textLength="174" x="728" y="202.0176">The ability to export results.</text><path d="M675,166.875 L685,166.875 C700,166.875 700,196.2891 715,196.2891 L725,196.2891 " fill="none" style="stroke:#F4364C;stroke-width:3.0;"/><path d="M534,185.4844 L544,185.4844 C559,185.4844 559,166.875 574,166.875 L584,166.875 " fill="none" style="stroke:#F4364C;stroke-width:3.0;"/><rect fill="#F4364C" height="37.6094" rx="12.5" ry="12.5" style="stroke:#F4364C;stroke-width:3.0;" width="201" x="584" y="264.7266"/><text fill="#FFFFFF" font-family="sans-serif" font-size="14" lengthAdjust="spacing" textLength="181" x="594" y="289.2598">Accessing data from a Spark</text><text fill="#000000" font-family="sans-serif" font-size="14" lengthAdjust="spacing" textLength="594" x="838" y="221.627">A data lake based on the primary storage account for the Azure Synapse Analytics workspace.</text><path d="M785,283.5313 L795,283.5313 C810,283.5313 810,215.8984 825,215.8984 L835,215.8984 " fill="none" style="stroke:#F4364C;stroke-width:3.0;"/><text fill="#000000" font-family="sans-serif" font-size="14" lengthAdjust="spacing" textLength="472" x="838" y="241.2363">A data lake based on storage defined as a linked service in the workspace.</text><path d="M785,283.5313 L795,283.5313 C810,283.5313 810,235.5078 825,235.5078 L835,235.5078 " fill="none" style="stroke:#F4364C;stroke-width:3.0;"/><text fill="#000000" font-family="sans-serif" font-size="14" lengthAdjust="spacing" textLength="338" x="838" y="260.8457">A dedicated or serverless SQL pool in the workspace.</text><path d="M785,283.5313 L795,283.5313 C810,283.5313 810,255.1172 825,255.1172 L835,255.1172 " fill="none" style="stroke:#F4364C;stroke-width:3.0;"/><text fill="#000000" font-family="sans-serif" font-size="14" lengthAdjust="spacing" textLength="526" x="838" y="280.4551">An Azure SQL or SQL Server database (using the Spark connector for SQL Server)</text><path d="M785,283.5313 L795,283.5313 C810,283.5313 810,274.7266 825,274.7266 L835,274.7266 " fill="none" style="stroke:#F4364C;stroke-width:3.0;"/><text fill="#000000" font-family="sans-serif" font-size="14" lengthAdjust="spacing" textLength="331" x="838" y="300.0645">An Azure Cosmos DB analytical database defined as</text><text fill="#000000" font-family="sans-serif" font-size="14" lengthAdjust="spacing" textLength="479" x="838" y="317.6738">...a linked service and configured using Azure Synapse Link for Cosmos DB.</text><path d="M785,283.5313 L795,283.5313 C810,283.5313 810,303.1406 825,303.1406 L835,303.1406 " fill="none" style="stroke:#F4364C;stroke-width:3.0;"/><text fill="#000000" font-family="sans-serif" font-size="14" lengthAdjust="spacing" textLength="536" x="838" y="337.2832">An Azure Data Explorer Kusto database defined as a linked service in the workspace.</text><path d="M785,283.5313 L795,283.5313 C810,283.5313 810,331.5547 825,331.5547 L835,331.5547 " fill="none" style="stroke:#F4364C;stroke-width:3.0;"/><text fill="#000000" font-family="sans-serif" font-size="14" lengthAdjust="spacing" textLength="455" x="838" y="356.8926">An external Hive metastore defined as a linked service in the workspace.</text><path d="M785,283.5313 L795,283.5313 C810,283.5313 810,351.1641 825,351.1641 L835,351.1641 " fill="none" style="stroke:#F4364C;stroke-width:3.0;"/><path d="M534,185.4844 L544,185.4844 C559,185.4844 559,283.5313 574,283.5313 L584,283.5313 " fill="none" style="stroke:#F4364C;stroke-width:3.0;"/><path d="M232,310.1172 L242,310.1172 C257,310.1172 257,185.4844 272,185.4844 L282,185.4844 " fill="none" style="stroke:#181818;stroke-width:3.0;"/><rect fill="#C5B4E3" height="37.6094" rx="12.5" ry="12.5" style="stroke:#C5B4E3;stroke-width:3.0;" width="191" x="282" y="437.9922"/><text fill="#000000" font-family="sans-serif" font-size="14" lengthAdjust="spacing" textLength="167" x="292" y="462.5254">2) Analyze data with Spark</text><rect fill="#C5B4E3" height="37.6094" rx="12.5" ry="12.5" style="stroke:#C5B4E3;stroke-width:3.0;" width="217" x="523" y="370.9688"/><text fill="#000000" font-family="sans-serif" font-size="14" lengthAdjust="spacing" textLength="193" x="533" y="395.502">Exploring data with dataframes</text><text fill="#000000" font-family="sans-serif" font-size="14" lengthAdjust="spacing" textLength="190" x="793" y="385.6973">Loading data into a dataframe</text><path d="M740,389.7734 L750,389.7734 C765,389.7734 765,379.9688 780,379.9688 L790,379.9688 " fill="none" style="stroke:#C5B4E3;stroke-width:3.0;"/><text fill="#000000" font-family="sans-serif" font-size="14" lengthAdjust="spacing" textLength="198" x="793" y="405.3066">Specifying a dataframe schema</text><path d="M740,389.7734 L750,389.7734 C765,389.7734 765,399.5781 780,399.5781 L790,399.5781 " fill="none" style="stroke:#C5B4E3;stroke-width:3.0;"/><path d="M473,456.7969 L483,456.7969 C498,456.7969 498,389.7734 513,389.7734 L523,389.7734 " fill="none" style="stroke:#C5B4E3;stroke-width:3.0;"/><rect fill="#C5B4E3" height="37.6094" rx="12.5" ry="12.5" style="stroke:#C5B4E3;stroke-width:3.0;" width="238" x="523" y="428.5781"/><text fill="#000000" font-family="sans-serif" font-size="14" lengthAdjust="spacing" textLength="214" x="533" y="453.1113">Filtering and grouping dataframes</text><path d="M473,456.7969 L483,456.7969 C498,456.7969 498,447.3828 513,447.3828 L523,447.3828 " fill="none" style="stroke:#C5B4E3;stroke-width:3.0;"/><rect fill="#C5B4E3" height="37.6094" rx="12.5" ry="12.5" style="stroke:#C5B4E3;stroke-width:3.0;" width="226" x="523" y="495.6016"/><text fill="#000000" font-family="sans-serif" font-size="14" lengthAdjust="spacing" textLength="202" x="533" y="520.1348">Using SQL expressions in Spark</text><text fill="#000000" font-family="sans-serif" font-size="14" lengthAdjust="spacing" textLength="296" x="802" y="491.7207">Creating database objects in the Spark catalog</text><text fill="#000000" font-family="sans-serif" font-size="14" lengthAdjust="spacing" textLength="183" x="802" y="509.3301">(createOrReplaceTempView)</text><path d="M749,514.4063 L759,514.4063 C774,514.4063 774,494.7969 789,494.7969 L799,494.7969 " fill="none" style="stroke:#C5B4E3;stroke-width:3.0;"/><text fill="#000000" font-family="sans-serif" font-size="14" lengthAdjust="spacing" textLength="245" x="802" y="528.9395">Using the Spark SQL API to query data</text><path d="M749,514.4063 L759,514.4063 C774,514.4063 774,523.2109 789,523.2109 L799,523.2109 " fill="none" style="stroke:#C5B4E3;stroke-width:3.0;"/><text fill="#000000" font-family="sans-serif" font-size="14" lengthAdjust="spacing" textLength="102" x="802" y="548.5488">Using SQL code</text><path d="M749,514.4063 L759,514.4063 C774,514.4063 774,542.8203 789,542.8203 L799,542.8203 " fill="none" style="stroke:#C5B4E3;stroke-width:3.0;"/><path d="M473,456.7969 L483,456.7969 C498,456.7969 498,514.4063 513,514.4063 L523,514.4063 " fill="none" style="stroke:#C5B4E3;stroke-width:3.0;"/><path d="M232,310.1172 L242,310.1172 C257,310.1172 257,456.7969 272,456.7969 L282,456.7969 " fill="none" style="stroke:#181818;stroke-width:3.0;"/><rect fill="#E1D3C7" height="37.6094" rx="12.5" ry="12.5" style="stroke:#E1D3C7;stroke-width:3.0;" width="197" x="282" y="562.625"/><text fill="#000000" font-family="sans-serif" font-size="14" lengthAdjust="spacing" textLength="173" x="292" y="587.1582">3) Visualize data with Spark</text><text fill="#000000" font-family="sans-serif" font-size="14" lengthAdjust="spacing" textLength="187" x="532" y="577.3535">Using built-in notebook charts</text><path d="M479,581.4297 L489,581.4297 C504,581.4297 504,571.625 519,571.625 L529,571.625 " fill="none" style="stroke:#E1D3C7;stroke-width:3.0;"/><text fill="#000000" font-family="sans-serif" font-size="14" lengthAdjust="spacing" textLength="282" x="532" y="596.9629">Using graphics packages in code (matplotlib)</text><path d="M479,581.4297 L489,581.4297 C504,581.4297 504,591.2344 519,591.2344 L529,591.2344 " fill="none" style="stroke:#E1D3C7;stroke-width:3.0;"/><path d="M232,310.1172 L242,310.1172 C257,310.1172 257,581.4297 272,581.4297 L282,581.4297 " fill="none" style="stroke:#181818;stroke-width:3.0;"/><!--MD5=[70fc99e4275d80496a951b593045c976]
@startmindmap
<style>
:depth(0) {
    BackgroundColor #091f2c
    FontColor #ffffff
    LineThickness 3.0
}
.topic1 {
    BackgroundColor #ffb900
    LineColor #ffb900
    LineThickness 3.0
    FontColor #000000
}
.topic2 {
    BackgroundColor #f4364c
    LineColor #f4364c
    LineThickness 3.0
    FontColor #ffffff
}
.topic3 {
    BackgroundColor #c5b4e3
    LineColor #c5b4e3
    LineThickness 3.0
    FontColor #000000
}
.topic4 {
    BackgroundColor #e1d3c7
    LineColor #e1d3c7
    LineThickness 3.0
    FontColor #000000
}
.topic5 {
    BackgroundColor #07641d
    LineColor #07641d
    LineThickness 3.0
    FontColor #ffffff
}
</style>
+ Analyze data with Apache Spark
++ 1) Spark in Azure Synapse Analytics <<topic2>>
+++ Workloads <<topic2>>
++++ Batch or stream processing <<topic2>>
+++++_ ingest
+++++_ clean
+++++_ transform
++++ Interactive analysis <<topic2>>
+++++_ explore
+++++_ analyze
+++++_ visualize
+++ Notebooks <<topic2>>
++++_ Syntax highlighting and error support
++++_ Code auto-completion
++++_ Interactive data visualizations
++++_ The ability to export results.
+++ Accessing data from a Spark<<topic2>>
++++_ A data lake based on the primary storage account for the Azure Synapse Analytics workspace.
++++_ A data lake based on storage defined as a linked service in the workspace.
++++_ A dedicated or serverless SQL pool in the workspace.
++++_ An Azure SQL or SQL Server database (using the Spark connector for SQL Server)
++++_ An Azure Cosmos DB analytical database defined as \n...a linked service and configured using Azure Synapse Link for Cosmos DB.
++++_ An Azure Data Explorer Kusto database defined as a linked service in the workspace.
++++_ An external Hive metastore defined as a linked service in the workspace.
++ 2) Analyze data with Spark <<topic3>>
+++ Exploring data with dataframes <<topic3>>
++++_ Loading data into a dataframe
++++_ Specifying a dataframe schema
+++ Filtering and grouping dataframes <<topic3>>
+++ Using SQL expressions in Spark <<topic3>>
++++_ Creating database objects in the Spark catalog\n(createOrReplaceTempView)
++++_ Using the Spark SQL API to query data
++++_ Using SQL code
++ 3) Visualize data with Spark <<topic4>>
+++_ Using built-in notebook charts
+++_ Using graphics packages in code (matplotlib)
@endmindmap

PlantUML version 1.2022.7(Mon Aug 22 19:01:30 CEST 2022)
(GPL source distribution)
Java Runtime: OpenJDK Runtime Environment
JVM: OpenJDK 64-Bit Server VM
Default Encoding: Cp1252
Language: en
Country: US
--></g></svg>