<?xml version="1.0" encoding="UTF-8" standalone="no"?><svg xmlns="http://www.w3.org/2000/svg" xmlns:xlink="http://www.w3.org/1999/xlink" contentStyleType="text/css" height="462px" preserveAspectRatio="none" style="width:2793px;height:462px;background:#FFFFFF;" version="1.1" viewBox="0 0 2793 462" width="2793px" zoomAndPan="magnify"><defs/><g><rect fill="none" height="47.7344" id="_title" style="stroke:none;stroke-width:1.0;" width="987" x="901.5" y="15"/><a href="https://learn.microsoft.com/training/modules/understand-big-data-engineering-with-apache-spark-azure-synapse-analytics/" target="_top" title="https://learn.microsoft.com/training/modules/understand-big-data-engineering-with-apache-spark-azure-synapse-analytics/" xlink:actuate="onRequest" xlink:href="https://learn.microsoft.com/training/modules/understand-big-data-engineering-with-apache-spark-azure-synapse-analytics/" xlink:show="new" xlink:title="https://learn.microsoft.com/training/modules/understand-big-data-engineering-with-apache-spark-azure-synapse-analytics/" xlink:type="simple"><text fill="#0000FF" font-family="sans-serif" font-size="30" font-weight="bold" lengthAdjust="spacing" text-decoration="underline" textLength="104" x="906.5" y="51.1426">Module</text></a><text fill="#000000" font-family="sans-serif" font-size="30" font-weight="bold" lengthAdjust="spacing" textLength="873" x="1010.5" y="51.1426">: Analyze data with Apache Spark in Azure Synapse Analytics</text><rect fill="#091F2C" height="37.6094" rx="12.5" ry="12.5" style="stroke:#181818;stroke-width:3.0;" width="222" x="1046" y="240.8164"/><text fill="#FFFFFF" font-family="sans-serif" font-size="14" lengthAdjust="spacing" textLength="202" x="1056" y="265.3496">Analyze data with Apache Spark</text><rect fill="#F4364C" height="37.6094" rx="12.5" ry="12.5" style="stroke:#F4364C;stroke-width:3.0;" width="263" x="1318" y="216.6094"/><text fill="#FFFFFF" font-family="sans-serif" font-size="14" lengthAdjust="spacing" textLength="239" x="1328" y="241.1426">Use Spark in Azure Synapse Analytics</text><rect fill="#F4364C" height="37.6094" rx="12.5" ry="12.5" style="stroke:#F4364C;stroke-width:3.0;" width="91" x="1631" y="108.7578"/><text fill="#FFFFFF" font-family="sans-serif" font-size="14" lengthAdjust="spacing" textLength="67" x="1641" y="133.291">Workloads</text><rect fill="#F4364C" height="37.6094" rx="12.5" ry="12.5" style="stroke:#F4364C;stroke-width:3.0;" width="197" x="1772" y="79.3438"/><text fill="#FFFFFF" font-family="sans-serif" font-size="14" lengthAdjust="spacing" textLength="173" x="1782" y="103.877">Batch or stream processing</text><text fill="#000000" font-family="sans-serif" font-size="14" lengthAdjust="spacing" textLength="38" x="2022" y="84.2676">ingest</text><path d="M1969,98.1484 L1979,98.1484 C1994,98.1484 1994,78.5391 2009,78.5391 L2019,78.5391 " fill="none" style="stroke:#F4364C;stroke-width:3.0;"/><text fill="#000000" font-family="sans-serif" font-size="14" lengthAdjust="spacing" textLength="34" x="2022" y="103.877">clean</text><path d="M1969,98.1484 L1979,98.1484 C1994,98.1484 1994,98.1484 2009,98.1484 L2019,98.1484 " fill="none" style="stroke:#F4364C;stroke-width:3.0;"/><text fill="#000000" font-family="sans-serif" font-size="14" lengthAdjust="spacing" textLength="60" x="2022" y="123.4863">transform</text><path d="M1969,98.1484 L1979,98.1484 C1994,98.1484 1994,117.7578 2009,117.7578 L2019,117.7578 " fill="none" style="stroke:#F4364C;stroke-width:3.0;"/><path d="M1722,127.5625 L1732,127.5625 C1747,127.5625 1747,98.1484 1762,98.1484 L1772,98.1484 " fill="none" style="stroke:#F4364C;stroke-width:3.0;"/><rect fill="#F4364C" height="37.6094" rx="12.5" ry="12.5" style="stroke:#F4364C;stroke-width:3.0;" width="144" x="1772" y="138.1719"/><text fill="#FFFFFF" font-family="sans-serif" font-size="14" lengthAdjust="spacing" textLength="120" x="1782" y="162.7051">Interactive analysis</text><text fill="#000000" font-family="sans-serif" font-size="14" lengthAdjust="spacing" textLength="46" x="1969" y="143.0957">explore</text><path d="M1916,156.9766 L1926,156.9766 C1941,156.9766 1941,137.3672 1956,137.3672 L1966,137.3672 " fill="none" style="stroke:#F4364C;stroke-width:3.0;"/><text fill="#000000" font-family="sans-serif" font-size="14" lengthAdjust="spacing" textLength="48" x="1969" y="162.7051">analyze</text><path d="M1916,156.9766 L1926,156.9766 C1941,156.9766 1941,156.9766 1956,156.9766 L1966,156.9766 " fill="none" style="stroke:#F4364C;stroke-width:3.0;"/><text fill="#000000" font-family="sans-serif" font-size="14" lengthAdjust="spacing" textLength="53" x="1969" y="182.3145">visualize</text><path d="M1916,156.9766 L1926,156.9766 C1941,156.9766 1941,176.5859 1956,176.5859 L1966,176.5859 " fill="none" style="stroke:#F4364C;stroke-width:3.0;"/><path d="M1722,127.5625 L1732,127.5625 C1747,127.5625 1747,156.9766 1762,156.9766 L1772,156.9766 " fill="none" style="stroke:#F4364C;stroke-width:3.0;"/><path d="M1581,235.4141 L1591,235.4141 C1606,235.4141 1606,127.5625 1621,127.5625 L1631,127.5625 " fill="none" style="stroke:#F4364C;stroke-width:3.0;"/><rect fill="#F4364C" height="37.6094" rx="12.5" ry="12.5" style="stroke:#F4364C;stroke-width:3.0;" width="238" x="1631" y="206.8047"/><text fill="#FFFFFF" font-family="sans-serif" font-size="14" lengthAdjust="spacing" textLength="214" x="1641" y="231.3379">Running Spark code in notebooks</text><text fill="#000000" font-family="sans-serif" font-size="14" lengthAdjust="spacing" textLength="233" x="1922" y="201.9238">Syntax highlighting and error support</text><path d="M1869,225.6094 L1879,225.6094 C1894,225.6094 1894,196.1953 1909,196.1953 L1919,196.1953 " fill="none" style="stroke:#F4364C;stroke-width:3.0;"/><text fill="#000000" font-family="sans-serif" font-size="14" lengthAdjust="spacing" textLength="139" x="1922" y="221.5332">Code auto-completion</text><path d="M1869,225.6094 L1879,225.6094 C1894,225.6094 1894,215.8047 1909,215.8047 L1919,215.8047 " fill="none" style="stroke:#F4364C;stroke-width:3.0;"/><text fill="#000000" font-family="sans-serif" font-size="14" lengthAdjust="spacing" textLength="184" x="1922" y="241.1426">Interactive data visualizations</text><path d="M1869,225.6094 L1879,225.6094 C1894,225.6094 1894,235.4141 1909,235.4141 L1919,235.4141 " fill="none" style="stroke:#F4364C;stroke-width:3.0;"/><text fill="#000000" font-family="sans-serif" font-size="14" lengthAdjust="spacing" textLength="174" x="1922" y="260.752">The ability to export results.</text><path d="M1869,225.6094 L1879,225.6094 C1894,225.6094 1894,255.0234 1909,255.0234 L1919,255.0234 " fill="none" style="stroke:#F4364C;stroke-width:3.0;"/><path d="M1581,235.4141 L1591,235.4141 C1606,235.4141 1606,225.6094 1621,225.6094 L1631,225.6094 " fill="none" style="stroke:#F4364C;stroke-width:3.0;"/><rect fill="#F4364C" height="37.6094" rx="12.5" ry="12.5" style="stroke:#F4364C;stroke-width:3.0;" width="295" x="1631" y="314.6563"/><text fill="#FFFFFF" font-family="sans-serif" font-size="14" lengthAdjust="spacing" textLength="271" x="1641" y="339.1895">Accessing data from a Synapse Spark pool</text><text fill="#000000" font-family="sans-serif" font-size="14" lengthAdjust="spacing" textLength="594" x="1979" y="280.3613">A data lake based on the primary storage account for the Azure Synapse Analytics workspace.</text><path d="M1926,333.4609 L1936,333.4609 C1951,333.4609 1951,274.6328 1966,274.6328 L1976,274.6328 " fill="none" style="stroke:#F4364C;stroke-width:3.0;"/><text fill="#000000" font-family="sans-serif" font-size="14" lengthAdjust="spacing" textLength="472" x="1979" y="299.9707">A data lake based on storage defined as a linked service in the workspace.</text><path d="M1926,333.4609 L1936,333.4609 C1951,333.4609 1951,294.2422 1966,294.2422 L1976,294.2422 " fill="none" style="stroke:#F4364C;stroke-width:3.0;"/><text fill="#000000" font-family="sans-serif" font-size="14" lengthAdjust="spacing" textLength="338" x="1979" y="319.5801">A dedicated or serverless SQL pool in the workspace.</text><path d="M1926,333.4609 L1936,333.4609 C1951,333.4609 1951,313.8516 1966,313.8516 L1976,313.8516 " fill="none" style="stroke:#F4364C;stroke-width:3.0;"/><text fill="#000000" font-family="sans-serif" font-size="14" lengthAdjust="spacing" textLength="526" x="1979" y="339.1895">An Azure SQL or SQL Server database (using the Spark connector for SQL Server)</text><path d="M1926,333.4609 L1936,333.4609 C1951,333.4609 1951,333.4609 1966,333.4609 L1976,333.4609 " fill="none" style="stroke:#F4364C;stroke-width:3.0;"/><text fill="#000000" font-family="sans-serif" font-size="14" lengthAdjust="spacing" textLength="802" x="1979" y="358.7988">An Azure Cosmos DB analytical database defined as a linked service and configured using Azure Synapse Link for Cosmos DB.</text><path d="M1926,333.4609 L1936,333.4609 C1951,333.4609 1951,353.0703 1966,353.0703 L1976,353.0703 " fill="none" style="stroke:#F4364C;stroke-width:3.0;"/><text fill="#000000" font-family="sans-serif" font-size="14" lengthAdjust="spacing" textLength="536" x="1979" y="378.4082">An Azure Data Explorer Kusto database defined as a linked service in the workspace.</text><path d="M1926,333.4609 L1936,333.4609 C1951,333.4609 1951,372.6797 1966,372.6797 L1976,372.6797 " fill="none" style="stroke:#F4364C;stroke-width:3.0;"/><text fill="#000000" font-family="sans-serif" font-size="14" lengthAdjust="spacing" textLength="455" x="1979" y="398.0176">An external Hive metastore defined as a linked service in the workspace.</text><path d="M1926,333.4609 L1936,333.4609 C1951,333.4609 1951,392.2891 1966,392.2891 L1976,392.2891 " fill="none" style="stroke:#F4364C;stroke-width:3.0;"/><path d="M1581,235.4141 L1591,235.4141 C1606,235.4141 1606,333.4609 1621,333.4609 L1631,333.4609 " fill="none" style="stroke:#F4364C;stroke-width:3.0;"/><path d="M1268,259.6211 L1278,259.6211 C1293,259.6211 1293,235.4141 1308,235.4141 L1318,235.4141 " fill="none" style="stroke:#181818;stroke-width:3.0;"/><rect fill="#E1D3C7" height="37.6094" rx="12.5" ry="12.5" style="stroke:#E1D3C7;stroke-width:3.0;" width="180" x="1318" y="402.8984"/><text fill="#000000" font-family="sans-serif" font-size="14" lengthAdjust="spacing" textLength="156" x="1328" y="427.4316">Visualize data with Spark</text><text fill="#000000" font-family="sans-serif" font-size="14" lengthAdjust="spacing" textLength="187" x="1551" y="417.627">Using built-in notebook charts</text><path d="M1498,421.7031 L1508,421.7031 C1523,421.7031 1523,411.8984 1538,411.8984 L1548,411.8984 " fill="none" style="stroke:#E1D3C7;stroke-width:3.0;"/><text fill="#000000" font-family="sans-serif" font-size="14" lengthAdjust="spacing" textLength="282" x="1551" y="437.2363">Using graphics packages in code (matplotlib)</text><path d="M1498,421.7031 L1508,421.7031 C1523,421.7031 1523,431.5078 1538,431.5078 L1548,431.5078 " fill="none" style="stroke:#E1D3C7;stroke-width:3.0;"/><path d="M1268,259.6211 L1278,259.6211 C1293,259.6211 1293,421.7031 1308,421.7031 L1318,421.7031 " fill="none" style="stroke:#181818;stroke-width:3.0;"/><rect fill="#FFB900" height="37.6094" rx="12.5" ry="12.5" style="stroke:#FFB900;stroke-width:3.0;" width="192" x="804" y="153.793"/><text fill="#000000" font-family="sans-serif" font-size="14" lengthAdjust="spacing" textLength="168" x="814" y="178.3262">Get to know Apache Spark</text><rect fill="#FFB900" height="37.6094" rx="12.5" ry="12.5" style="stroke:#FFB900;stroke-width:3.0;" width="131" x="623" y="124.9883"/><text fill="#000000" font-family="sans-serif" font-size="14" lengthAdjust="spacing" textLength="107" x="633" y="149.5215">How Spark works</text><path d="M804,172.5977 L794,172.5977 C779,172.5977 779,143.793 764,143.793 L754,143.793 " fill="none" style="stroke:#FFB900;stroke-width:3.0;"/><rect fill="#FFB900" height="37.6094" rx="12.5" ry="12.5" style="stroke:#FFB900;stroke-width:3.0;" width="273" x="481" y="182.5977"/><text fill="#000000" font-family="sans-serif" font-size="14" lengthAdjust="spacing" textLength="249" x="491" y="207.1309">Spark pools in Azure Synapse Analytics</text><path d="M804,172.5977 L794,172.5977 C779,172.5977 779,201.4023 764,201.4023 L754,201.4023 " fill="none" style="stroke:#FFB900;stroke-width:3.0;"/><path d="M1046,259.6211 L1036,259.6211 C1021,259.6211 1021,172.5977 1006,172.5977 L996,172.5977 " fill="none" style="stroke:#181818;stroke-width:3.0;"/><rect fill="#C5B4E3" height="37.6094" rx="12.5" ry="12.5" style="stroke:#C5B4E3;stroke-width:3.0;" width="174" x="822" y="298.4258"/><text fill="#000000" font-family="sans-serif" font-size="14" lengthAdjust="spacing" textLength="150" x="832" y="322.959">Analyze data with Spark</text><rect fill="#C5B4E3" height="37.6094" rx="12.5" ry="12.5" style="stroke:#C5B4E3;stroke-width:3.0;" width="217" x="555" y="240.207"/><text fill="#000000" font-family="sans-serif" font-size="14" lengthAdjust="spacing" textLength="193" x="565" y="264.7402">Exploring data with dataframes</text><text fill="#000000" font-family="sans-serif" font-size="14" lengthAdjust="spacing" textLength="190" x="312" y="254.9355">Loading data into a dataframe</text><path d="M555,259.0117 L545,259.0117 C530,259.0117 530,249.207 515,249.207 L505,249.207 " fill="none" style="stroke:#C5B4E3;stroke-width:3.0;"/><text fill="#000000" font-family="sans-serif" font-size="14" lengthAdjust="spacing" textLength="198" x="304" y="274.5449">Specifying a dataframe schema</text><path d="M555,259.0117 L545,259.0117 C530,259.0117 530,268.8164 515,268.8164 L505,268.8164 " fill="none" style="stroke:#C5B4E3;stroke-width:3.0;"/><path d="M822,317.2305 L812,317.2305 C797,317.2305 797,259.0117 782,259.0117 L772,259.0117 " fill="none" style="stroke:#C5B4E3;stroke-width:3.0;"/><rect fill="#C5B4E3" height="37.6094" rx="12.5" ry="12.5" style="stroke:#C5B4E3;stroke-width:3.0;" width="238" x="534" y="297.8164"/><text fill="#000000" font-family="sans-serif" font-size="14" lengthAdjust="spacing" textLength="214" x="544" y="322.3496">Filtering and grouping dataframes</text><path d="M822,317.2305 L812,317.2305 C797,317.2305 797,316.6211 782,316.6211 L772,316.6211 " fill="none" style="stroke:#C5B4E3;stroke-width:3.0;"/><rect fill="#C5B4E3" height="37.6094" rx="12.5" ry="12.5" style="stroke:#C5B4E3;stroke-width:3.0;" width="226" x="546" y="356.0352"/><text fill="#000000" font-family="sans-serif" font-size="14" lengthAdjust="spacing" textLength="202" x="556" y="380.5684">Using SQL expressions in Spark</text><text fill="#000000" font-family="sans-serif" font-size="14" lengthAdjust="spacing" textLength="483" x="10" y="360.959">Creating database objects in the Spark catalog (createOrReplaceTempView)</text><path d="M546,374.8398 L536,374.8398 C521,374.8398 521,355.2305 506,355.2305 L496,355.2305 " fill="none" style="stroke:#C5B4E3;stroke-width:3.0;"/><text fill="#000000" font-family="sans-serif" font-size="14" lengthAdjust="spacing" textLength="245" x="248" y="380.5684">Using the Spark SQL API to query data</text><path d="M546,374.8398 L536,374.8398 C521,374.8398 521,374.8398 506,374.8398 L496,374.8398 " fill="none" style="stroke:#C5B4E3;stroke-width:3.0;"/><text fill="#000000" font-family="sans-serif" font-size="14" lengthAdjust="spacing" textLength="102" x="391" y="400.1777">Using SQL code</text><path d="M546,374.8398 L536,374.8398 C521,374.8398 521,394.4492 506,394.4492 L496,394.4492 " fill="none" style="stroke:#C5B4E3;stroke-width:3.0;"/><path d="M822,317.2305 L812,317.2305 C797,317.2305 797,374.8398 782,374.8398 L772,374.8398 " fill="none" style="stroke:#C5B4E3;stroke-width:3.0;"/><path d="M1046,259.6211 L1036,259.6211 C1021,259.6211 1021,317.2305 1006,317.2305 L996,317.2305 " fill="none" style="stroke:#181818;stroke-width:3.0;"/><!--MD5=[bbf93cde71e60bc16cba07fe8cec748a]
@startmindmap
<style>
title {
        FontSize 30
        FontColor #000000
    }
mindmapDiagram {
    :depth(0) {
        BackgroundColor #091f2c
        FontColor #ffffff
        LineThickness 3.0
    }
    .topic1 {
        BackgroundColor #ffb900
        LineColor #ffb900
        LineThickness 3.0
        FontColor #000000
    }
    .topic2 {
        BackgroundColor #f4364c
        LineColor #f4364c
        LineThickness 3.0
        FontColor #ffffff
    }
    .topic3 {
        BackgroundColor #c5b4e3
        LineColor #c5b4e3
        LineThickness 3.0
        FontColor #000000
    }
    .topic4 {
        BackgroundColor #e1d3c7
        LineColor #e1d3c7
        LineThickness 3.0
        FontColor #000000
    }
    .topic5 {
        BackgroundColor #07641d
        LineColor #07641d
        LineThickness 3.0
        FontColor #ffffff
    }
}
</style>
title [[https://learn.microsoft.com/training/modules/understand-big-data-engineering-with-apache-spark-azure-synapse-analytics/ Module]]: Analyze data with Apache Spark in Azure Synapse Analytics
+ Analyze data with Apache Spark
- - Get to know Apache Spark <<topic1>>
- - - How Spark works <<topic1>>
- - - Spark pools in Azure Synapse Analytics <<topic1>>
++ Use Spark in Azure Synapse Analytics <<topic2>>
+++ Workloads <<topic2>>
++++ Batch or stream processing <<topic2>>
+++++_ ingest
+++++_ clean
+++++_ transform
++++ Interactive analysis <<topic2>>
+++++_ explore
+++++_ analyze
+++++_ visualize
+++ Running Spark code in notebooks <<topic2>>
++++_ Syntax highlighting and error support
++++_ Code auto-completion
++++_ Interactive data visualizations
++++_ The ability to export results.
+++ Accessing data from a Synapse Spark pool <<topic2>>
++++_ A data lake based on the primary storage account for the Azure Synapse Analytics workspace.
++++_ A data lake based on storage defined as a linked service in the workspace.
++++_ A dedicated or serverless SQL pool in the workspace.
++++_ An Azure SQL or SQL Server database (using the Spark connector for SQL Server)
++++_ An Azure Cosmos DB analytical database defined as a linked service and configured using Azure Synapse Link for Cosmos DB.
++++_ An Azure Data Explorer Kusto database defined as a linked service in the workspace.
++++_ An external Hive metastore defined as a linked service in the workspace.
- - Analyze data with Spark <<topic3>>
- - - Exploring data with dataframes <<topic3>>
- - - -_ Loading data into a dataframe
- - - -_ Specifying a dataframe schema
- - - Filtering and grouping dataframes <<topic3>>
- - - Using SQL expressions in Spark <<topic3>>
- - - -_ Creating database objects in the Spark catalog (createOrReplaceTempView)
- - - -_ Using the Spark SQL API to query data
- - - -_ Using SQL code
++ Visualize data with Spark <<topic4>>
+++_ Using built-in notebook charts
+++_ Using graphics packages in code (matplotlib)
@endmindmap

PlantUML version 1.2022.7(Mon Aug 22 19:01:30 CEST 2022)
(GPL source distribution)
Java Runtime: OpenJDK Runtime Environment
JVM: OpenJDK 64-Bit Server VM
Default Encoding: Cp1252
Language: en
Country: US
--></g></svg>