<?xml version="1.0" encoding="UTF-8" standalone="no"?><svg xmlns="http://www.w3.org/2000/svg" xmlns:xlink="http://www.w3.org/1999/xlink" contentStyleType="text/css" height="178px" preserveAspectRatio="none" style="width:1152px;height:178px;background:#FFFFFF;" version="1.1" viewBox="0 0 1152 178" width="1152px" zoomAndPan="magnify"><defs/><g><rect fill="#091F2C" height="37.6094" rx="12.5" ry="12.5" style="stroke:#181818;stroke-width:3.0;" width="77" x="601" y="69.6328"/><text fill="#FFFFFF" font-family="sans-serif" font-size="14" lengthAdjust="spacing" textLength="57" x="611" y="94.166">Pipelines</text><rect fill="#F4364C" height="37.6094" rx="12.5" ry="12.5" style="stroke:#F4364C;stroke-width:3.0;" width="135" x="748" y="30.8281"/><text fill="#FFFFFF" font-family="sans-serif" font-size="14" lengthAdjust="spacing" textLength="111" x="758" y="55.3613">2) How to create?</text><text fill="#000000" font-family="sans-serif" font-size="14" lengthAdjust="spacing" textLength="166" x="956" y="45.5566">Graphical design interface</text><path d="M883,49.6328 L893,49.6328 C908,49.6328 928,39.8281 943,39.8281 L953,39.8281 " fill="none" style="stroke:#F4364C;stroke-width:3.0;"/><text fill="#000000" font-family="sans-serif" font-size="14" lengthAdjust="spacing" textLength="184" x="956" y="65.166">Defining a pipeline with JSON</text><path d="M883,49.6328 L893,49.6328 C908,49.6328 928,59.4375 943,59.4375 L953,59.4375 " fill="none" style="stroke:#F4364C;stroke-width:3.0;"/><path d="M678,88.4375 L688,88.4375 C703,88.4375 723,49.6328 738,49.6328 L748,49.6328 " fill="none" style="stroke:#181818;stroke-width:3.0;"/><rect fill="#C5B4E3" height="37.6094" rx="12.5" ry="12.5" style="stroke:#C5B4E3;stroke-width:3.0;" width="149" x="748" y="108.4375"/><text fill="#000000" font-family="sans-serif" font-size="14" lengthAdjust="spacing" textLength="125" x="758" y="132.9707">3) Define data flows</text><text fill="#000000" font-family="sans-serif" font-size="14" lengthAdjust="spacing" textLength="52" x="970" y="113.3613">Sources</text><path d="M897,127.2422 L907,127.2422 C922,127.2422 942,107.6328 957,107.6328 L967,107.6328 " fill="none" style="stroke:#C5B4E3;stroke-width:3.0;"/><text fill="#000000" font-family="sans-serif" font-size="14" lengthAdjust="spacing" textLength="103" x="970" y="132.9707">Transformations</text><path d="M897,127.2422 L907,127.2422 C922,127.2422 942,127.2422 957,127.2422 L967,127.2422 " fill="none" style="stroke:#C5B4E3;stroke-width:3.0;"/><text fill="#000000" font-family="sans-serif" font-size="14" lengthAdjust="spacing" textLength="34" x="970" y="152.5801">Sinks</text><path d="M897,127.2422 L907,127.2422 C922,127.2422 942,146.8516 957,146.8516 L967,146.8516 " fill="none" style="stroke:#C5B4E3;stroke-width:3.0;"/><path d="M678,88.4375 L688,88.4375 C703,88.4375 723,127.2422 738,127.2422 L748,127.2422 " fill="none" style="stroke:#181818;stroke-width:3.0;"/><rect fill="#FFB900" height="37.6094" rx="12.5" ry="12.5" style="stroke:#FFB900;stroke-width:3.0;" width="82" x="449" y="30.4141"/><text fill="#000000" font-family="sans-serif" font-size="14" lengthAdjust="spacing" textLength="58" x="459" y="54.9473">1) What?</text><text fill="#000000" font-family="sans-serif" font-size="14" lengthAdjust="spacing" textLength="55" x="321" y="25.5332">Activities</text><path d="M449,49.2188 L439,49.2188 C424,49.2188 404,19.8047 389,19.8047 L379,19.8047 " fill="none" style="stroke:#FFB900;stroke-width:3.0;"/><text fill="#000000" font-family="sans-serif" font-size="14" lengthAdjust="spacing" textLength="118" x="258" y="45.1426">Integration runtime</text><path d="M449,49.2188 L439,49.2188 C424,49.2188 404,39.4141 389,39.4141 L379,39.4141 " fill="none" style="stroke:#FFB900;stroke-width:3.0;"/><text fill="#000000" font-family="sans-serif" font-size="14" lengthAdjust="spacing" textLength="98" x="278" y="64.752">Linked services</text><path d="M449,49.2188 L439,49.2188 C424,49.2188 404,59.0234 389,59.0234 L379,59.0234 " fill="none" style="stroke:#FFB900;stroke-width:3.0;"/><text fill="#000000" font-family="sans-serif" font-size="14" lengthAdjust="spacing" textLength="56" x="320" y="84.3613">Datasets</text><path d="M449,49.2188 L439,49.2188 C424,49.2188 404,78.6328 389,78.6328 L379,78.6328 " fill="none" style="stroke:#FFB900;stroke-width:3.0;"/><path d="M601,88.4375 L591,88.4375 C576,88.4375 556,49.2188 541,49.2188 L531,49.2188 " fill="none" style="stroke:#181818;stroke-width:3.0;"/><rect fill="#E1D3C7" height="37.6094" rx="12.5" ry="12.5" style="stroke:#E1D3C7;stroke-width:3.0;" width="132" x="399" y="108.8516"/><text fill="#000000" font-family="sans-serif" font-size="14" lengthAdjust="spacing" textLength="108" x="409" y="133.3848">4) Run a pipeline</text><text fill="#000000" font-family="sans-serif" font-size="14" lengthAdjust="spacing" textLength="74" x="252" y="103.9707">Immediately</text><path d="M399,127.6563 L389,127.6563 C374,127.6563 354,98.2422 339,98.2422 L329,98.2422 " fill="none" style="stroke:#E1D3C7;stroke-width:3.0;"/><text fill="#000000" font-family="sans-serif" font-size="14" lengthAdjust="spacing" textLength="117" x="209" y="123.5801">Scheduled interval</text><path d="M399,127.6563 L389,127.6563 C374,127.6563 354,117.8516 339,117.8516 L329,117.8516 " fill="none" style="stroke:#E1D3C7;stroke-width:3.0;"/><text fill="#000000" font-family="sans-serif" font-size="14" lengthAdjust="spacing" textLength="149" x="177" y="143.1895">In response to an event</text><path d="M399,127.6563 L389,127.6563 C374,127.6563 354,137.4609 339,137.4609 L329,137.4609 " fill="none" style="stroke:#E1D3C7;stroke-width:3.0;"/><text fill="#000000" font-family="sans-serif" font-size="14" lengthAdjust="spacing" textLength="316" x="10" y="162.7988">Lineage: integrate Synapse and Microsoft Purview</text><path d="M399,127.6563 L389,127.6563 C374,127.6563 354,157.0703 339,157.0703 L329,157.0703 " fill="none" style="stroke:#E1D3C7;stroke-width:3.0;"/><path d="M601,88.4375 L591,88.4375 C576,88.4375 556,127.6563 541,127.6563 L531,127.6563 " fill="none" style="stroke:#181818;stroke-width:3.0;"/><!--MD5=[d8bcf16f5fdc85a43e285f9d2a001e91]
@startmindmap
<style>
node {
    Margin 20
}
:depth(0) {
    BackgroundColor #091f2c
    FontColor #ffffff
    LineThickness 3.0
}
.topic1 {
    BackgroundColor #ffb900
    LineColor #ffb900
    LineThickness 3.0
    FontColor #000000
}
.topic2 {
    BackgroundColor #f4364c
    LineColor #f4364c
    LineThickness 3.0
    FontColor #ffffff
}
.topic3 {
    BackgroundColor #c5b4e3
    LineColor #c5b4e3
    LineThickness 3.0
    FontColor #000000
}
.topic4 {
    BackgroundColor #e1d3c7
    LineColor #e1d3c7
    LineThickness 3.0
    FontColor #000000
}
.topic5 {
    BackgroundColor #07641d
    LineColor #07641d
    LineThickness 3.0
    FontColor #ffffff
}
</style>
+ Pipelines
- - 1) What? <<topic1>>
- - -_ Activities
- - -_ Integration runtime
- - -_ Linked services
- - -_ Datasets
++ 2) How to create? <<topic2>>
+++_ Graphical design interface
+++_ Defining a pipeline with JSON
++ 3) Define data flows <<topic3>>
+++_ Sources
+++_ Transformations
+++_ Sinks
- - 4) Run a pipeline <<topic4>>
- - -_ Immediately
- - -_ Scheduled interval
- - -_ In response to an event
- - -_ Lineage: integrate Synapse and Microsoft Purview
@endmindmap

PlantUML version 1.2022.7(Mon Aug 22 19:01:30 CEST 2022)
(GPL source distribution)
Java Runtime: OpenJDK Runtime Environment
JVM: OpenJDK 64-Bit Server VM
Default Encoding: Cp1252
Language: en
Country: US
--></g></svg>