<?xml version="1.0" encoding="UTF-8" standalone="no"?><svg xmlns="http://www.w3.org/2000/svg" xmlns:xlink="http://www.w3.org/1999/xlink" contentStyleType="text/css" height="414px" preserveAspectRatio="none" style="width:1290px;height:414px;background:#FFFFFF;" version="1.1" viewBox="0 0 1290 414" width="1290px" zoomAndPan="magnify"><defs/><g><rect fill="#091F2C" height="37.6094" rx="12.5" ry="12.5" style="stroke:#181818;stroke-width:3.0;" width="128" x="10" y="187.2539"/><text fill="#FFFFFF" font-family="sans-serif" font-size="14" lengthAdjust="spacing" textLength="108" x="20" y="211.7871">Spark Notebooks</text><rect fill="#FFB900" height="37.6094" rx="12.5" ry="12.5" style="stroke:#FFB900;stroke-width:3.0;" width="333" x="248" y="69.6328"/><text fill="#000000" font-family="sans-serif" font-size="14" lengthAdjust="spacing" textLength="309" x="258" y="94.166">1) Understand Synapse Notebooks and Pipelines</text><text fill="#000000" font-family="sans-serif" font-size="14" lengthAdjust="spacing" textLength="286" x="694" y="25.5332">Apache Spark pool to run code in a notebook</text><path d="M581,88.4375 L591,88.4375 C606,88.4375 666,19.8047 681,19.8047 L691,19.8047 " fill="none" style="stroke:#FFB900;stroke-width:3.0;"/><text fill="#000000" font-family="sans-serif" font-size="14" lengthAdjust="spacing" textLength="250" x="694" y="45.1426">On schedule or in response to an event</text><path d="M581,88.4375 L591,88.4375 C606,88.4375 666,39.4141 681,39.4141 L691,39.4141 " fill="none" style="stroke:#FFB900;stroke-width:3.0;"/><rect fill="#FFB900" height="37.6094" rx="12.5" ry="12.5" style="stroke:#FFB900;stroke-width:3.0;" width="113" x="691" y="89.2422"/><text fill="#000000" font-family="sans-serif" font-size="14" lengthAdjust="spacing" textLength="89" x="701" y="113.7754">Best practices</text><text fill="#000000" font-family="sans-serif" font-size="14" lengthAdjust="spacing" textLength="166" x="917" y="64.752">Keep your code organized</text><path d="M804,108.0469 L814,108.0469 C829,108.0469 889,59.0234 904,59.0234 L914,59.0234 " fill="none" style="stroke:#FFB900;stroke-width:3.0;"/><text fill="#000000" font-family="sans-serif" font-size="14" lengthAdjust="spacing" textLength="169" x="917" y="84.3613">Cache intermediate results</text><path d="M804,108.0469 L814,108.0469 C829,108.0469 889,78.6328 904,78.6328 L914,78.6328 " fill="none" style="stroke:#FFB900;stroke-width:3.0;"/><text fill="#000000" font-family="sans-serif" font-size="14" lengthAdjust="spacing" textLength="208" x="917" y="103.9707">Avoid unnecessary computations</text><path d="M804,108.0469 L814,108.0469 C829,108.0469 889,98.2422 904,98.2422 L914,98.2422 " fill="none" style="stroke:#FFB900;stroke-width:3.0;"/><text fill="#000000" font-family="sans-serif" font-size="14" lengthAdjust="spacing" textLength="241" x="917" y="123.5801">Avoid using collect() unless necessary</text><path d="M804,108.0469 L814,108.0469 C829,108.0469 889,117.8516 904,117.8516 L914,117.8516 " fill="none" style="stroke:#FFB900;stroke-width:3.0;"/><text fill="#000000" font-family="sans-serif" font-size="14" lengthAdjust="spacing" textLength="271" x="917" y="143.1895">Use Spark UI for monitoring and debugging</text><path d="M804,108.0469 L814,108.0469 C829,108.0469 889,137.4609 904,137.4609 L914,137.4609 " fill="none" style="stroke:#FFB900;stroke-width:3.0;"/><text fill="#000000" font-family="sans-serif" font-size="14" lengthAdjust="spacing" textLength="361" x="917" y="162.7988">Keep your dependencies version-consistent and updated</text><path d="M804,108.0469 L814,108.0469 C829,108.0469 889,157.0703 904,157.0703 L914,157.0703 " fill="none" style="stroke:#FFB900;stroke-width:3.0;"/><path d="M581,88.4375 L591,88.4375 C606,88.4375 666,108.0469 681,108.0469 L691,108.0469 " fill="none" style="stroke:#FFB900;stroke-width:3.0;"/><path d="M138,206.0586 L148,206.0586 C163,206.0586 223,88.4375 238,88.4375 L248,88.4375 " fill="none" style="stroke:#181818;stroke-width:3.0;"/><rect fill="#F4364C" height="37.6094" rx="12.5" ry="12.5" style="stroke:#F4364C;stroke-width:3.0;" width="326" x="248" y="206.8984"/><text fill="#FFFFFF" font-family="sans-serif" font-size="14" lengthAdjust="spacing" textLength="302" x="258" y="231.4316">2) Use a Synapse notebook activity in a pipeline</text><text fill="#000000" font-family="sans-serif" font-size="14" lengthAdjust="spacing" textLength="336" x="687" y="182.4082">Add a notebook activity and configure it appropriately</text><path d="M574,225.7031 L584,225.7031 C599,225.7031 659,176.6797 674,176.6797 L684,176.6797 " fill="none" style="stroke:#F4364C;stroke-width:3.0;"/><text fill="#000000" font-family="sans-serif" font-size="14" lengthAdjust="spacing" textLength="68" x="687" y="202.0176">Spark pool</text><path d="M574,225.7031 L584,225.7031 C599,225.7031 659,196.2891 674,196.2891 L684,196.2891 " fill="none" style="stroke:#F4364C;stroke-width:3.0;"/><text fill="#000000" font-family="sans-serif" font-size="14" lengthAdjust="spacing" textLength="83" x="687" y="221.627">Executor size</text><path d="M574,225.7031 L584,225.7031 C599,225.7031 659,215.8984 674,215.8984 L684,215.8984 " fill="none" style="stroke:#F4364C;stroke-width:3.0;"/><text fill="#000000" font-family="sans-serif" font-size="14" lengthAdjust="spacing" textLength="193" x="687" y="241.2363">Dynamically allocate executors</text><path d="M574,225.7031 L584,225.7031 C599,225.7031 659,235.5078 674,235.5078 L684,235.5078 " fill="none" style="stroke:#F4364C;stroke-width:3.0;"/><text fill="#000000" font-family="sans-serif" font-size="14" lengthAdjust="spacing" textLength="116" x="687" y="260.8457">Min/Max executors</text><path d="M574,225.7031 L584,225.7031 C599,225.7031 659,255.1172 674,255.1172 L684,255.1172 " fill="none" style="stroke:#F4364C;stroke-width:3.0;"/><text fill="#000000" font-family="sans-serif" font-size="14" lengthAdjust="spacing" textLength="66" x="687" y="280.4551">Driver size</text><path d="M574,225.7031 L584,225.7031 C599,225.7031 659,274.7266 674,274.7266 L684,274.7266 " fill="none" style="stroke:#F4364C;stroke-width:3.0;"/><path d="M138,206.0586 L148,206.0586 C163,206.0586 223,225.7031 238,225.7031 L248,225.7031 " fill="none" style="stroke:#181818;stroke-width:3.0;"/><rect fill="#C5B4E3" height="37.6094" rx="12.5" ry="12.5" style="stroke:#C5B4E3;stroke-width:3.0;" width="231" x="248" y="324.5078"/><text fill="#000000" font-family="sans-serif" font-size="14" lengthAdjust="spacing" textLength="207" x="258" y="349.041">3) Use parameters in a notebook</text><text fill="#000000" font-family="sans-serif" font-size="14" lengthAdjust="spacing" textLength="258" x="592" y="339.2363">Create a parameters cell in the notebook</text><path d="M479,343.3125 L489,343.3125 C504,343.3125 564,333.5078 579,333.5078 L589,333.5078 " fill="none" style="stroke:#C5B4E3;stroke-width:3.0;"/><text fill="#000000" font-family="sans-serif" font-size="14" lengthAdjust="spacing" textLength="287" x="592" y="358.8457">Set base parameters for the notebook activity</text><path d="M479,343.3125 L489,343.3125 C504,343.3125 564,353.1172 579,353.1172 L589,353.1172 " fill="none" style="stroke:#C5B4E3;stroke-width:3.0;"/><path d="M138,206.0586 L148,206.0586 C163,206.0586 223,343.3125 238,343.3125 L248,343.3125 " fill="none" style="stroke:#181818;stroke-width:3.0;"/><!--MD5=[5ee8ac6ac63facdc61f26b7fdf1f0dfb]
@startmindmap
<style>
node {
    Margin 40
}
:depth(0) {
    BackgroundColor #091f2c
    FontColor #ffffff
    LineThickness 3.0
}
.topic1 {
    BackgroundColor #ffb900
    LineColor #ffb900
    LineThickness 3.0
    FontColor #000000
}
.topic2 {
    BackgroundColor #f4364c
    LineColor #f4364c
    LineThickness 3.0
    FontColor #ffffff
}
.topic3 {
    BackgroundColor #c5b4e3
    LineColor #c5b4e3
    LineThickness 3.0
    FontColor #000000
}
.topic4 {
    BackgroundColor #e1d3c7
    LineColor #e1d3c7
    LineThickness 3.0
    FontColor #000000
}
.topic5 {
    BackgroundColor #07641d
    LineColor #07641d
    LineThickness 3.0
    FontColor #ffffff
}
</style>
+ Spark Notebooks
++ 1) Understand Synapse Notebooks and Pipelines <<topic1>>
+++_ Apache Spark pool to run code in a notebook
+++_ On schedule or in response to an event
+++ Best practices <<topic1>>
++++_ Keep your code organized
++++_ Cache intermediate results
++++_ Avoid unnecessary computations
++++_ Avoid using collect() unless necessary
++++_ Use Spark UI for monitoring and debugging
++++_ Keep your dependencies version-consistent and updated
++ 2) Use a Synapse notebook activity in a pipeline <<topic2>>
+++_ Add a notebook activity and configure it appropriately
+++_ Spark pool
+++_ Executor size
+++_ Dynamically allocate executors
+++_ Min/Max executors
+++_ Driver size
++ 3) Use parameters in a notebook <<topic3>>
+++_ Create a parameters cell in the notebook
+++_ Set base parameters for the notebook activity
@endmindmap

PlantUML version 1.2022.7(Mon Aug 22 19:01:30 CEST 2022)
(GPL source distribution)
Java Runtime: OpenJDK Runtime Environment
JVM: OpenJDK 64-Bit Server VM
Default Encoding: Cp1252
Language: en
Country: US
--></g></svg>