<?xml version="1.0" encoding="UTF-8" standalone="no"?><svg xmlns="http://www.w3.org/2000/svg" xmlns:xlink="http://www.w3.org/1999/xlink" contentStyleType="text/css" height="311px" preserveAspectRatio="none" style="width:1343px;height:311px;background:#FFFFFF;" version="1.1" viewBox="0 0 1343 311" width="1343px" zoomAndPan="magnify"><defs/><g><rect fill="none" height="47.7344" id="_title" style="stroke:none;stroke-width:1.0;" width="1310" x="15" y="15"/><a href="https://learn.microsoft.com/training/modules/design-hybrid-transactional-analytical-processing-using-azure-synapse-analytics/" target="_top" title="https://learn.microsoft.com/training/modules/design-hybrid-transactional-analytical-processing-using-azure-synapse-analytics/" xlink:actuate="onRequest" xlink:href="https://learn.microsoft.com/training/modules/design-hybrid-transactional-analytical-processing-using-azure-synapse-analytics/" xlink:show="new" xlink:title="https://learn.microsoft.com/training/modules/design-hybrid-transactional-analytical-processing-using-azure-synapse-analytics/" xlink:type="simple"><text fill="#0000FF" font-family="sans-serif" font-size="30" font-weight="bold" lengthAdjust="spacing" text-decoration="underline" textLength="104" x="20" y="51.1426">Module</text></a><text fill="#000000" font-family="sans-serif" font-size="30" font-weight="bold" lengthAdjust="spacing" textLength="1196" x="124" y="51.1426">: Plan hybrid transactional and analytical processing using Azure Synapse Analytics</text><rect fill="#091F2C" height="37.6094" rx="12.5" ry="12.5" style="stroke:#181818;stroke-width:3.0;" width="88" x="124" y="165.1484"/><text fill="#FFFFFF" font-family="sans-serif" font-size="14" lengthAdjust="spacing" textLength="68" x="134" y="189.6816">Plan HTAP</text><rect fill="#FFB900" height="37.6094" rx="12.5" ry="12.5" style="stroke:#FFB900;stroke-width:3.0;" width="445" x="262" y="78.7344"/><text fill="#000000" font-family="sans-serif" font-size="14" lengthAdjust="spacing" textLength="421" x="272" y="103.2676">Understand hybrid transactional and analytical processing patterns</text><text fill="#000000" font-family="sans-serif" font-size="14" lengthAdjust="spacing" textLength="124" x="760" y="93.4629">OLTP versus OLAP</text><path d="M707,97.5391 L717,97.5391 C732,97.5391 732,87.7344 747,87.7344 L757,87.7344 " fill="none" style="stroke:#FFB900;stroke-width:3.0;"/><text fill="#000000" font-family="sans-serif" font-size="14" lengthAdjust="spacing" textLength="326" x="760" y="113.0723">Hybrid Transactional / Analytical Processing (HTAP)</text><path d="M707,97.5391 L717,97.5391 C732,97.5391 732,107.3438 747,107.3438 L757,107.3438 " fill="none" style="stroke:#FFB900;stroke-width:3.0;"/><path d="M212,183.9531 L222,183.9531 C237,183.9531 237,97.5391 252,97.5391 L262,97.5391 " fill="none" style="stroke:#181818;stroke-width:3.0;"/><rect fill="#F4364C" height="37.6094" rx="12.5" ry="12.5" style="stroke:#F4364C;stroke-width:3.0;" width="209" x="262" y="193.9531"/><text fill="#FFFFFF" font-family="sans-serif" font-size="14" lengthAdjust="spacing" textLength="185" x="272" y="218.4863">Describe Azure Synapse Link</text><rect fill="#F4364C" height="37.6094" rx="12.5" ry="12.5" style="stroke:#F4364C;stroke-width:3.0;" width="248" x="521" y="136.3438"/><text fill="#FFFFFF" font-family="sans-serif" font-size="14" lengthAdjust="spacing" textLength="224" x="531" y="160.877">Azure Synapse Link for Cosmos DB</text><text fill="#000000" font-family="sans-serif" font-size="14" lengthAdjust="spacing" textLength="201" x="822" y="151.0723">Cosmos DB Container autosync</text><path d="M769,155.1484 L779,155.1484 C794,155.1484 794,145.3438 809,145.3438 L819,145.3438 " fill="none" style="stroke:#F4364C;stroke-width:3.0;"/><text fill="#000000" font-family="sans-serif" font-size="14" lengthAdjust="spacing" textLength="266" x="822" y="170.6816">Synapse SQL and Apache Spark runtimes</text><path d="M769,155.1484 L779,155.1484 C794,155.1484 794,164.9531 809,164.9531 L819,164.9531 " fill="none" style="stroke:#F4364C;stroke-width:3.0;"/><path d="M471,212.7578 L481,212.7578 C496,212.7578 496,155.1484 511,155.1484 L521,155.1484 " fill="none" style="stroke:#F4364C;stroke-width:3.0;"/><rect fill="#F4364C" height="37.6094" rx="12.5" ry="12.5" style="stroke:#F4364C;stroke-width:3.0;" width="202" x="521" y="193.9531"/><text fill="#FFFFFF" font-family="sans-serif" font-size="14" lengthAdjust="spacing" textLength="178" x="531" y="218.4863">Azure Synapse Link for SQL</text><text fill="#000000" font-family="sans-serif" font-size="14" lengthAdjust="spacing" textLength="314" x="776" y="218.4863">Replicates the table data to a dedicated SQL pool</text><path d="M723,212.7578 L733,212.7578 C748,212.7578 748,212.7578 763,212.7578 L773,212.7578 " fill="none" style="stroke:#F4364C;stroke-width:3.0;"/><path d="M471,212.7578 L481,212.7578 C496,212.7578 496,212.7578 511,212.7578 L521,212.7578 " fill="none" style="stroke:#F4364C;stroke-width:3.0;"/><rect fill="#F4364C" height="37.6094" rx="12.5" ry="12.5" style="stroke:#F4364C;stroke-width:3.0;" width="239" x="521" y="251.5625"/><text fill="#FFFFFF" font-family="sans-serif" font-size="14" lengthAdjust="spacing" textLength="215" x="531" y="276.0957">Azure Synapse Link for Dataverse</text><text fill="#000000" font-family="sans-serif" font-size="14" lengthAdjust="spacing" textLength="404" x="813" y="276.0957">Replicates the data to a Azure Data Lake storage Gen2 account</text><path d="M760,270.3672 L770,270.3672 C785,270.3672 785,270.3672 800,270.3672 L810,270.3672 " fill="none" style="stroke:#F4364C;stroke-width:3.0;"/><path d="M471,212.7578 L481,212.7578 C496,212.7578 496,270.3672 511,270.3672 L521,270.3672 " fill="none" style="stroke:#F4364C;stroke-width:3.0;"/><path d="M212,183.9531 L222,183.9531 C237,183.9531 237,212.7578 252,212.7578 L262,212.7578 " fill="none" style="stroke:#181818;stroke-width:3.0;"/><!--MD5=[799e40df09d965e4b11da57a3a286829]
@startmindmap
<style>
title {
        FontSize 30
        FontColor #000000
    }
mindmapDiagram {
    :depth(0) {
        BackgroundColor #091f2c
        FontColor #ffffff
        LineThickness 3.0
    }
    .topic1 {
        BackgroundColor #ffb900
        LineColor #ffb900
        LineThickness 3.0
        FontColor #000000
    }
    .topic2 {
        BackgroundColor #f4364c
        LineColor #f4364c
        LineThickness 3.0
        FontColor #ffffff
    }
    .topic3 {
        BackgroundColor #c5b4e3
        LineColor #c5b4e3
        LineThickness 3.0
        FontColor #000000
    }
    .topic4 {
        BackgroundColor #e1d3c7
        LineColor #e1d3c7
        LineThickness 3.0
        FontColor #000000
    }
    .topic5 {
        BackgroundColor #07641d
        LineColor #07641d
        LineThickness 3.0
        FontColor #ffffff
    }
}
</style>
title [[https://learn.microsoft.com/training/modules/design-hybrid-transactional-analytical-processing-using-azure-synapse-analytics/ Module]]: Plan hybrid transactional and analytical processing using Azure Synapse Analytics
+ Plan HTAP
++ Understand hybrid transactional and analytical processing patterns <<topic1>>
+++_ OLTP versus OLAP
+++_ Hybrid Transactional / Analytical Processing (HTAP)
++ Describe Azure Synapse Link <<topic2>>
+++ Azure Synapse Link for Cosmos DB <<topic2>>
++++_ Cosmos DB Container autosync
++++_ Synapse SQL and Apache Spark runtimes
+++ Azure Synapse Link for SQL <<topic2>>
++++_ Replicates the table data to a dedicated SQL pool
+++ Azure Synapse Link for Dataverse <<topic2>>
++++_ Replicates the data to a Azure Data Lake storage Gen2 account
@endmindmap

PlantUML version 1.2022.7(Mon Aug 22 19:01:30 CEST 2022)
(GPL source distribution)
Java Runtime: OpenJDK Runtime Environment
JVM: OpenJDK 64-Bit Server VM
Default Encoding: Cp1252
Language: en
Country: US
--></g></svg>