<?xml version="1.0" encoding="UTF-8" standalone="no"?><svg xmlns="http://www.w3.org/2000/svg" xmlns:xlink="http://www.w3.org/1999/xlink" contentStyleType="text/css" height="252px" preserveAspectRatio="none" style="width:1001px;height:252px;background:#FFFFFF;" version="1.1" viewBox="0 0 1001 252" width="1001px" zoomAndPan="magnify"><defs/><g><rect fill="#091F2C" height="37.6094" rx="12.5" ry="12.5" style="stroke:#181818;stroke-width:3.0;" width="88" x="10" y="106.4141"/><text fill="#FFFFFF" font-family="sans-serif" font-size="14" lengthAdjust="spacing" textLength="68" x="20" y="130.9473">Plan HTAP</text><rect fill="#FFB900" height="37.6094" rx="12.5" ry="12.5" style="stroke:#FFB900;stroke-width:3.0;" width="462" x="148" y="20"/><text fill="#000000" font-family="sans-serif" font-size="14" lengthAdjust="spacing" textLength="438" x="158" y="44.5332">1) Understand hybrid transactional and analytical processing patterns</text><text fill="#000000" font-family="sans-serif" font-size="14" lengthAdjust="spacing" textLength="124" x="663" y="34.7285">OLTP versus OLAP</text><path d="M610,38.8047 L620,38.8047 C635,38.8047 635,29 650,29 L660,29 " fill="none" style="stroke:#FFB900;stroke-width:3.0;"/><text fill="#000000" font-family="sans-serif" font-size="14" lengthAdjust="spacing" textLength="326" x="663" y="54.3379">Hybrid Transactional / Analytical Processing (HTAP)</text><path d="M610,38.8047 L620,38.8047 C635,38.8047 635,48.6094 650,48.6094 L660,48.6094 " fill="none" style="stroke:#FFB900;stroke-width:3.0;"/><path d="M98,125.2188 L108,125.2188 C123,125.2188 123,38.8047 138,38.8047 L148,38.8047 " fill="none" style="stroke:#181818;stroke-width:3.0;"/><rect fill="#F4364C" height="37.6094" rx="12.5" ry="12.5" style="stroke:#F4364C;stroke-width:3.0;" width="107" x="148" y="135.2188"/><text fill="#FFFFFF" font-family="sans-serif" font-size="14" lengthAdjust="spacing" textLength="83" x="158" y="159.752">2) What is it?</text><rect fill="#F4364C" height="37.6094" rx="12.5" ry="12.5" style="stroke:#F4364C;stroke-width:3.0;" width="248" x="305" y="77.6094"/><text fill="#FFFFFF" font-family="sans-serif" font-size="14" lengthAdjust="spacing" textLength="224" x="315" y="102.1426">Azure Synapse Link for Cosmos DB</text><text fill="#000000" font-family="sans-serif" font-size="14" lengthAdjust="spacing" textLength="201" x="606" y="92.3379">Cosmos DB Container autosync</text><path d="M553,96.4141 L563,96.4141 C578,96.4141 578,86.6094 593,86.6094 L603,86.6094 " fill="none" style="stroke:#F4364C;stroke-width:3.0;"/><text fill="#000000" font-family="sans-serif" font-size="14" lengthAdjust="spacing" textLength="266" x="606" y="111.9473">Synapse SQL and Apache Spark runtimes</text><path d="M553,96.4141 L563,96.4141 C578,96.4141 578,106.2188 593,106.2188 L603,106.2188 " fill="none" style="stroke:#F4364C;stroke-width:3.0;"/><path d="M255,154.0234 L265,154.0234 C280,154.0234 280,96.4141 295,96.4141 L305,96.4141 " fill="none" style="stroke:#F4364C;stroke-width:3.0;"/><rect fill="#F4364C" height="37.6094" rx="12.5" ry="12.5" style="stroke:#F4364C;stroke-width:3.0;" width="202" x="305" y="135.2188"/><text fill="#FFFFFF" font-family="sans-serif" font-size="14" lengthAdjust="spacing" textLength="178" x="315" y="159.752">Azure Synapse Link for SQL</text><text fill="#000000" font-family="sans-serif" font-size="14" lengthAdjust="spacing" textLength="314" x="560" y="159.752">Replicates the table data to a dedicated SQL pool</text><path d="M507,154.0234 L517,154.0234 C532,154.0234 532,154.0234 547,154.0234 L557,154.0234 " fill="none" style="stroke:#F4364C;stroke-width:3.0;"/><path d="M255,154.0234 L265,154.0234 C280,154.0234 280,154.0234 295,154.0234 L305,154.0234 " fill="none" style="stroke:#F4364C;stroke-width:3.0;"/><rect fill="#F4364C" height="37.6094" rx="12.5" ry="12.5" style="stroke:#F4364C;stroke-width:3.0;" width="239" x="305" y="192.8281"/><text fill="#FFFFFF" font-family="sans-serif" font-size="14" lengthAdjust="spacing" textLength="215" x="315" y="217.3613">Azure Synapse Link for Dataverse</text><text fill="#000000" font-family="sans-serif" font-size="14" lengthAdjust="spacing" textLength="350" x="597" y="217.3613">Replicates the data to a Azure Data Lake storage Gen2</text><path d="M544,211.6328 L554,211.6328 C569,211.6328 569,211.6328 584,211.6328 L594,211.6328 " fill="none" style="stroke:#F4364C;stroke-width:3.0;"/><path d="M255,154.0234 L265,154.0234 C280,154.0234 280,211.6328 295,211.6328 L305,211.6328 " fill="none" style="stroke:#F4364C;stroke-width:3.0;"/><path d="M98,125.2188 L108,125.2188 C123,125.2188 123,154.0234 138,154.0234 L148,154.0234 " fill="none" style="stroke:#181818;stroke-width:3.0;"/><!--MD5=[ea662a8db6980acf54611ac72b8f00f4]
@startmindmap
<style>
:depth(0) {
    BackgroundColor #091f2c
    FontColor #ffffff
    LineThickness 3.0
}
.topic1 {
    BackgroundColor #ffb900
    LineColor #ffb900
    LineThickness 3.0
    FontColor #000000
}
.topic2 {
    BackgroundColor #f4364c
    LineColor #f4364c
    LineThickness 3.0
    FontColor #ffffff
}
.topic3 {
    BackgroundColor #c5b4e3
    LineColor #c5b4e3
    LineThickness 3.0
    FontColor #000000
}
.topic4 {
    BackgroundColor #e1d3c7
    LineColor #e1d3c7
    LineThickness 3.0
    FontColor #000000
}
.topic5 {
    BackgroundColor #07641d
    LineColor #07641d
    LineThickness 3.0
    FontColor #ffffff
}
</style>
+ Plan HTAP
++ 1) Understand hybrid transactional and analytical processing patterns <<topic1>>
+++_ OLTP versus OLAP
+++_ Hybrid Transactional / Analytical Processing (HTAP)
++ 2) What is it? <<topic2>>
+++ Azure Synapse Link for Cosmos DB <<topic2>>
++++_ Cosmos DB Container autosync
++++_ Synapse SQL and Apache Spark runtimes
+++ Azure Synapse Link for SQL <<topic2>>
++++_ Replicates the table data to a dedicated SQL pool
+++ Azure Synapse Link for Dataverse <<topic2>>
++++_ Replicates the data to a Azure Data Lake storage Gen2
@endmindmap

PlantUML version 1.2022.7(Mon Aug 22 19:01:30 CEST 2022)
(GPL source distribution)
Java Runtime: OpenJDK Runtime Environment
JVM: OpenJDK 64-Bit Server VM
Default Encoding: Cp1252
Language: en
Country: US
--></g></svg>