<?xml version="1.0" encoding="UTF-8" standalone="no"?><svg xmlns="http://www.w3.org/2000/svg" xmlns:xlink="http://www.w3.org/1999/xlink" contentStyleType="text/css" height="470px" preserveAspectRatio="none" style="width:2713px;height:470px;background:#FFFFFF;" version="1.1" viewBox="0 0 2713 470" width="2713px" zoomAndPan="magnify"><defs/><g><rect fill="none" height="47.7344" id="_title" style="stroke:none;stroke-width:1.0;" width="688" x="1011" y="15"/><a href="https://learn.microsoft.com/training/modules/implement-synapse-link-for-sql/" target="_top" title="https://learn.microsoft.com/training/modules/implement-synapse-link-for-sql/" xlink:actuate="onRequest" xlink:href="https://learn.microsoft.com/training/modules/implement-synapse-link-for-sql/" xlink:show="new" xlink:title="https://learn.microsoft.com/training/modules/implement-synapse-link-for-sql/" xlink:type="simple"><text fill="#0000FF" font-family="sans-serif" font-size="30" font-weight="bold" lengthAdjust="spacing" text-decoration="underline" textLength="104" x="1016" y="51.1426">Module</text></a><text fill="#000000" font-family="sans-serif" font-size="30" font-weight="bold" lengthAdjust="spacing" textLength="574" x="1120" y="51.1426">: Implement Azure Synapse Link for SQL</text><rect fill="#091F2C" height="37.6094" rx="12.5" ry="12.5" style="stroke:#181818;stroke-width:3.0;" width="158" x="1251" y="244.8047"/><text fill="#FFFFFF" font-family="sans-serif" font-size="14" lengthAdjust="spacing" textLength="138" x="1261" y="269.3379">Synapse Link for SQL</text><rect fill="#F4364C" height="37.6094" rx="12.5" ry="12.5" style="stroke:#F4364C;stroke-width:3.0;" width="373" x="1459" y="156.5625"/><text fill="#FFFFFF" font-family="sans-serif" font-size="14" lengthAdjust="spacing" textLength="349" x="1469" y="181.0957">Configure Azure Synapse Link for Azure SQL Database</text><rect fill="#F4364C" height="37.6094" rx="12.5" ry="12.5" style="stroke:#F4364C;stroke-width:3.0;" width="223" x="1882" y="78.7344"/><text fill="#FFFFFF" font-family="sans-serif" font-size="14" lengthAdjust="spacing" textLength="199" x="1892" y="103.2676">Configure Azure SQL Database</text><text fill="#000000" font-family="sans-serif" font-size="14" lengthAdjust="spacing" textLength="219" x="2158" y="93.4629">System assigned managed identity</text><path d="M2105,97.5391 L2115,97.5391 C2130,97.5391 2130,87.7344 2145,87.7344 L2155,87.7344 " fill="none" style="stroke:#F4364C;stroke-width:3.0;"/><text fill="#000000" font-family="sans-serif" font-size="14" lengthAdjust="spacing" textLength="83" x="2158" y="113.0723">Firewall rules</text><path d="M2105,97.5391 L2115,97.5391 C2130,97.5391 2130,107.3438 2145,107.3438 L2155,107.3438 " fill="none" style="stroke:#F4364C;stroke-width:3.0;"/><path d="M1832,175.3672 L1842,175.3672 C1857,175.3672 1857,97.5391 1872,97.5391 L1882,97.5391 " fill="none" style="stroke:#F4364C;stroke-width:3.0;"/><rect fill="#F4364C" height="37.6094" rx="12.5" ry="12.5" style="stroke:#F4364C;stroke-width:3.0;" width="203" x="1882" y="136.3438"/><text fill="#FFFFFF" font-family="sans-serif" font-size="14" lengthAdjust="spacing" textLength="179" x="1892" y="160.877">Prepare the target SQL pool</text><text fill="#000000" font-family="sans-serif" font-size="14" lengthAdjust="spacing" textLength="117" x="2138" y="160.877">CREATE SCHEMA</text><path d="M2085,155.1484 L2095,155.1484 C2110,155.1484 2110,155.1484 2125,155.1484 L2135,155.1484 " fill="none" style="stroke:#F4364C;stroke-width:3.0;"/><path d="M1832,175.3672 L1842,175.3672 C1857,175.3672 1857,155.1484 1872,155.1484 L1882,155.1484 " fill="none" style="stroke:#F4364C;stroke-width:3.0;"/><rect fill="#F4364C" height="37.6094" rx="12.5" ry="12.5" style="stroke:#F4364C;stroke-width:3.0;" width="177" x="1882" y="214.1719"/><text fill="#FFFFFF" font-family="sans-serif" font-size="14" lengthAdjust="spacing" textLength="153" x="1892" y="238.7051">Create a link connection</text><text fill="#000000" font-family="sans-serif" font-size="14" lengthAdjust="spacing" textLength="202" x="2112" y="199.4863">Select or create a linked service</text><path d="M2059,232.9766 L2069,232.9766 C2084,232.9766 2084,193.7578 2099,193.7578 L2109,193.7578 " fill="none" style="stroke:#F4364C;stroke-width:3.0;"/><text fill="#000000" font-family="sans-serif" font-size="14" lengthAdjust="spacing" textLength="105" x="2112" y="219.0957">Select the tables</text><path d="M2059,232.9766 L2069,232.9766 C2084,232.9766 2084,213.3672 2099,213.3672 L2109,213.3672 " fill="none" style="stroke:#F4364C;stroke-width:3.0;"/><text fill="#000000" font-family="sans-serif" font-size="14" lengthAdjust="spacing" textLength="233" x="2112" y="238.7051">Select the target dedicated SQL pool</text><path d="M2059,232.9766 L2069,232.9766 C2084,232.9766 2084,232.9766 2099,232.9766 L2109,232.9766 " fill="none" style="stroke:#F4364C;stroke-width:3.0;"/><text fill="#000000" font-family="sans-serif" font-size="14" lengthAdjust="spacing" textLength="209" x="2112" y="258.3145">Specify the number of CPU cores</text><path d="M2059,232.9766 L2069,232.9766 C2084,232.9766 2084,252.5859 2099,252.5859 L2109,252.5859 " fill="none" style="stroke:#F4364C;stroke-width:3.0;"/><text fill="#000000" font-family="sans-serif" font-size="14" lengthAdjust="spacing" textLength="355" x="2112" y="277.9238">VARBINARY(MAX) need to use HEAP (unindexed tables)</text><path d="M2059,232.9766 L2069,232.9766 C2084,232.9766 2084,272.1953 2099,272.1953 L2109,272.1953 " fill="none" style="stroke:#F4364C;stroke-width:3.0;"/><path d="M1832,175.3672 L1842,175.3672 C1857,175.3672 1857,232.9766 1872,232.9766 L1882,232.9766 " fill="none" style="stroke:#F4364C;stroke-width:3.0;"/><path d="M1409,263.6094 L1419,263.6094 C1434,263.6094 1434,175.3672 1449,175.3672 L1459,175.3672 " fill="none" style="stroke:#181818;stroke-width:3.0;"/><rect fill="#C5B4E3" height="37.6094" rx="12.5" ry="12.5" style="stroke:#C5B4E3;stroke-width:3.0;" width="350" x="1459" y="351.4375"/><text fill="#000000" font-family="sans-serif" font-size="14" lengthAdjust="spacing" textLength="326" x="1469" y="375.9707">Configure Azure Synapse Link for SQL Server 2022</text><text fill="#000000" font-family="sans-serif" font-size="14" lengthAdjust="spacing" textLength="349" x="1862" y="297.5332">Create an Azure Data Lake Storage Gen2 landing zone</text><path d="M1809,370.2422 L1819,370.2422 C1834,370.2422 1834,291.8047 1849,291.8047 L1859,291.8047 " fill="none" style="stroke:#C5B4E3;stroke-width:3.0;"/><text fill="#000000" font-family="sans-serif" font-size="14" lengthAdjust="spacing" textLength="308" x="1862" y="317.1426">Create a master key in the SQL Server database</text><path d="M1809,370.2422 L1819,370.2422 C1834,370.2422 1834,311.4141 1849,311.4141 L1859,311.4141 " fill="none" style="stroke:#C5B4E3;stroke-width:3.0;"/><text fill="#000000" font-family="sans-serif" font-size="14" lengthAdjust="spacing" textLength="358" x="1862" y="336.752">Create a dedicated SQL pool in Azure Synapse Analytics</text><path d="M1809,370.2422 L1819,370.2422 C1834,370.2422 1834,331.0234 1849,331.0234 L1859,331.0234 " fill="none" style="stroke:#C5B4E3;stroke-width:3.0;"/><text fill="#000000" font-family="sans-serif" font-size="14" lengthAdjust="spacing" textLength="378" x="1862" y="356.3613">Create a linked service for the SQL Server source database</text><path d="M1809,370.2422 L1819,370.2422 C1834,370.2422 1834,350.6328 1849,350.6328 L1859,350.6328 " fill="none" style="stroke:#C5B4E3;stroke-width:3.0;"/><text fill="#000000" font-family="sans-serif" font-size="14" lengthAdjust="spacing" textLength="414" x="1862" y="375.9707">Create a linked service for your Data Lake Storage Gen2 account</text><path d="M1809,370.2422 L1819,370.2422 C1834,370.2422 1834,370.2422 1849,370.2422 L1859,370.2422 " fill="none" style="stroke:#C5B4E3;stroke-width:3.0;"/><text fill="#000000" font-family="sans-serif" font-size="14" lengthAdjust="spacing" textLength="303" x="1862" y="395.5801">Create a link connection for Azure Synapse Link</text><path d="M1809,370.2422 L1819,370.2422 C1834,370.2422 1834,389.8516 1849,389.8516 L1859,389.8516 " fill="none" style="stroke:#C5B4E3;stroke-width:3.0;"/><text fill="#000000" font-family="sans-serif" font-size="14" lengthAdjust="spacing" textLength="557" x="1862" y="415.1895">Tables are initialized by copying a .parquet file for each source table to a landing zone in</text><path d="M1809,370.2422 L1819,370.2422 C1834,370.2422 1834,409.4609 1849,409.4609 L1859,409.4609 " fill="none" style="stroke:#C5B4E3;stroke-width:3.0;"/><text fill="#000000" font-family="sans-serif" font-size="14" lengthAdjust="spacing" textLength="441" x="1862" y="434.7988">From where the data is imported into tables in the dedicated SQL pool</text><path d="M1809,370.2422 L1819,370.2422 C1834,370.2422 1834,429.0703 1849,429.0703 L1859,429.0703 " fill="none" style="stroke:#C5B4E3;stroke-width:3.0;"/><text fill="#000000" font-family="sans-serif" font-size="14" lengthAdjust="spacing" textLength="839" x="1862" y="454.4082">Subsequently, the change feed process copies all changes as .csv files to the landing zone where they're applied to the target tables.</text><path d="M1809,370.2422 L1819,370.2422 C1834,370.2422 1834,448.6797 1849,448.6797 L1859,448.6797 " fill="none" style="stroke:#C5B4E3;stroke-width:3.0;"/><path d="M1409,263.6094 L1419,263.6094 C1434,263.6094 1434,370.2422 1449,370.2422 L1459,370.2422 " fill="none" style="stroke:#181818;stroke-width:3.0;"/><rect fill="#FFB900" height="37.6094" rx="12.5" ry="12.5" style="stroke:#FFB900;stroke-width:3.0;" width="261" x="940" y="244.8047"/><text fill="#000000" font-family="sans-serif" font-size="14" lengthAdjust="spacing" textLength="237" x="950" y="269.3379">What is Azure Synapse Link for SQL?</text><rect fill="#FFB900" height="37.6094" rx="12.5" ry="12.5" style="stroke:#FFB900;stroke-width:3.0;" width="60" x="830" y="200.3789"/><text fill="#000000" font-family="sans-serif" font-size="14" lengthAdjust="spacing" textLength="36" x="840" y="224.9121">Why?</text><text fill="#000000" font-family="sans-serif" font-size="14" lengthAdjust="spacing" textLength="442" x="335" y="215.1074">The traditional ETL process can be complex to implement and operate</text><path d="M830,219.1836 L820,219.1836 C805,219.1836 805,209.3789 790,209.3789 L780,209.3789 " fill="none" style="stroke:#FFB900;stroke-width:3.0;"/><text fill="#000000" font-family="sans-serif" font-size="14" lengthAdjust="spacing" textLength="767" x="10" y="234.7168">The analytical store is only updated at periodic intervals, so reporting doesn't reflect the most up-to-date operational data.</text><path d="M830,219.1836 L820,219.1836 C805,219.1836 805,228.9883 790,228.9883 L780,228.9883 " fill="none" style="stroke:#FFB900;stroke-width:3.0;"/><path d="M940,263.6094 L930,263.6094 C915,263.6094 915,219.1836 900,219.1836 L890,219.1836 " fill="none" style="stroke:#FFB900;stroke-width:3.0;"/><rect fill="#FFB900" height="37.6094" rx="12.5" ry="12.5" style="stroke:#FFB900;stroke-width:3.0;" width="65" x="825" y="269.0117"/><text fill="#000000" font-family="sans-serif" font-size="14" lengthAdjust="spacing" textLength="41" x="835" y="293.5449">What?</text><text fill="#000000" font-family="sans-serif" font-size="14" lengthAdjust="spacing" textLength="264" x="508" y="254.3262">Azure SQL Database or SQL Server 2022</text><path d="M825,287.8164 L815,287.8164 C800,287.8164 800,248.5977 785,248.5977 L775,248.5977 " fill="none" style="stroke:#FFB900;stroke-width:3.0;"/><text fill="#000000" font-family="sans-serif" font-size="14" lengthAdjust="spacing" textLength="306" x="466" y="273.9355">Not supported for Azure SQL Managed Instance.</text><path d="M825,287.8164 L815,287.8164 C800,287.8164 800,268.207 785,268.207 L775,268.207 " fill="none" style="stroke:#FFB900;stroke-width:3.0;"/><text fill="#000000" font-family="sans-serif" font-size="14" lengthAdjust="spacing" textLength="491" x="281" y="293.5449">Azure Synapse Link for SQL replicates the table data to a dedicated SQL pool</text><path d="M825,287.8164 L815,287.8164 C800,287.8164 800,287.8164 785,287.8164 L775,287.8164 " fill="none" style="stroke:#FFB900;stroke-width:3.0;"/><text fill="#000000" font-family="sans-serif" font-size="14" lengthAdjust="spacing" textLength="581" x="191" y="313.1543">Queries in the dedicated SQL pool, or connected to as an external source from a Spark pool</text><path d="M825,287.8164 L815,287.8164 C800,287.8164 800,307.4258 785,307.4258 L775,307.4258 " fill="none" style="stroke:#FFB900;stroke-width:3.0;"/><text fill="#000000" font-family="sans-serif" font-size="14" lengthAdjust="spacing" textLength="114" x="658" y="332.7637">Uses change feed</text><path d="M825,287.8164 L815,287.8164 C800,287.8164 800,327.0352 785,327.0352 L775,327.0352 " fill="none" style="stroke:#FFB900;stroke-width:3.0;"/><path d="M940,263.6094 L930,263.6094 C915,263.6094 915,287.8164 900,287.8164 L890,287.8164 " fill="none" style="stroke:#FFB900;stroke-width:3.0;"/><path d="M1251,263.6094 L1241,263.6094 C1226,263.6094 1226,263.6094 1211,263.6094 L1201,263.6094 " fill="none" style="stroke:#181818;stroke-width:3.0;"/><!--MD5=[f74f2f6ddebe4c63aa4bb5f8f8d76c76]
@startmindmap
<style>
title {
        FontSize 30
        FontColor #000000
    }
mindmapDiagram {
    :depth(0) {
        BackgroundColor #091f2c
        FontColor #ffffff
        LineThickness 3.0
    }
    .topic1 {
        BackgroundColor #ffb900
        LineColor #ffb900
        LineThickness 3.0
        FontColor #000000
    }
    .topic2 {
        BackgroundColor #f4364c
        LineColor #f4364c
        LineThickness 3.0
        FontColor #ffffff
    }
    .topic3 {
        BackgroundColor #c5b4e3
        LineColor #c5b4e3
        LineThickness 3.0
        FontColor #000000
    }
    .topic4 {
        BackgroundColor #e1d3c7
        LineColor #e1d3c7
        LineThickness 3.0
        FontColor #000000
    }
    .topic5 {
        BackgroundColor #07641d
        LineColor #07641d
        LineThickness 3.0
        FontColor #ffffff
    }
}
</style>
title [[https://learn.microsoft.com/training/modules/implement-synapse-link-for-sql/ Module]]: Implement Azure Synapse Link for SQL
+ Synapse Link for SQL
- - What is Azure Synapse Link for SQL? <<topic1>>
- - - Why? <<topic1>>
- - - -_ The traditional ETL process can be complex to implement and operate
- - - -_ The analytical store is only updated at periodic intervals, so reporting doesn't reflect the most up-to-date operational data.
- - - What? <<topic1>>
- - - -_ Azure SQL Database or SQL Server 2022
- - - -_ Not supported for Azure SQL Managed Instance.
- - - -_ Azure Synapse Link for SQL replicates the table data to a dedicated SQL pool
- - - -_ Queries in the dedicated SQL pool, or connected to as an external source from a Spark pool
- - - -_ Uses change feed
++ Configure Azure Synapse Link for Azure SQL Database <<topic2>>
+++ Configure Azure SQL Database <<topic2>>
++++_ System assigned managed identity
++++_ Firewall rules
+++ Prepare the target SQL pool <<topic2>>
++++_ CREATE SCHEMA
+++ Create a link connection <<topic2>>
++++_ Select or create a linked service
++++_ Select the tables
++++_ Select the target dedicated SQL pool
++++_ Specify the number of CPU cores
++++_ VARBINARY(MAX) need to use HEAP (unindexed tables)
++ Configure Azure Synapse Link for SQL Server 2022 <<topic3>>
+++_ Create an Azure Data Lake Storage Gen2 landing zone
+++_ Create a master key in the SQL Server database
+++_ Create a dedicated SQL pool in Azure Synapse Analytics
+++_ Create a linked service for the SQL Server source database
+++_ Create a linked service for your Data Lake Storage Gen2 account
+++_ Create a link connection for Azure Synapse Link
+++_ Tables are initialized by copying a .parquet file for each source table to a landing zone in
+++_ From where the data is imported into tables in the dedicated SQL pool
+++_ Subsequently, the change feed process copies all changes as .csv files to the landing zone where they're applied to the target tables.
@endmindmap

PlantUML version 1.2022.7(Mon Aug 22 19:01:30 CEST 2022)
(GPL source distribution)
Java Runtime: OpenJDK Runtime Environment
JVM: OpenJDK 64-Bit Server VM
Default Encoding: Cp1252
Language: en
Country: US
--></g></svg>