<?xml version="1.0" encoding="UTF-8" standalone="no"?><svg xmlns="http://www.w3.org/2000/svg" xmlns:xlink="http://www.w3.org/1999/xlink" contentStyleType="text/css" height="470px" preserveAspectRatio="none" style="width:1654px;height:470px;background:#FFFFFF;" version="1.1" viewBox="0 0 1654 470" width="1654px" zoomAndPan="magnify"><defs/><g><rect fill="none" height="47.7344" id="_title" style="stroke:none;stroke-width:1.0;" width="701" x="475" y="15"/><a href="https://learn.microsoft.com/training/modules/introduction-to-data-streaming/" target="_top" title="https://learn.microsoft.com/training/modules/introduction-to-data-streaming/" xlink:actuate="onRequest" xlink:href="https://learn.microsoft.com/training/modules/introduction-to-data-streaming/" xlink:show="new" xlink:title="https://learn.microsoft.com/training/modules/introduction-to-data-streaming/" xlink:type="simple"><text fill="#0000FF" font-family="sans-serif" font-size="30" font-weight="bold" lengthAdjust="spacing" text-decoration="underline" textLength="104" x="480" y="51.1426">Module</text></a><text fill="#000000" font-family="sans-serif" font-size="30" font-weight="bold" lengthAdjust="spacing" textLength="587" x="584" y="51.1426">: Get started with Azure Stream Analytics</text><rect fill="#091F2C" height="37.6094" rx="12.5" ry="12.5" style="stroke:#181818;stroke-width:3.0;" width="165" x="401" y="244.8047"/><text fill="#FFFFFF" font-family="sans-serif" font-size="14" lengthAdjust="spacing" textLength="145" x="411" y="269.3379">Azure Stream Analytics</text><rect fill="#FFB900" height="37.6094" rx="12.5" ry="12.5" style="stroke:#FFB900;stroke-width:3.0;" width="183" x="616" y="118.5625"/><text fill="#000000" font-family="sans-serif" font-size="14" lengthAdjust="spacing" textLength="159" x="626" y="143.0957">Understand data streams</text><rect fill="#FFB900" height="37.6094" rx="12.5" ry="12.5" style="stroke:#FFB900;stroke-width:3.0;" width="84" x="849" y="79.3438"/><text fill="#000000" font-family="sans-serif" font-size="14" lengthAdjust="spacing" textLength="60" x="859" y="103.877">Examples</text><text fill="#000000" font-family="sans-serif" font-size="14" lengthAdjust="spacing" textLength="349" x="986" y="84.2676">Real-time clickstream data to provide recommendations</text><path d="M933,98.1484 L943,98.1484 C958,98.1484 958,78.5391 973,78.5391 L983,78.5391 " fill="none" style="stroke:#FFB900;stroke-width:3.0;"/><text fill="#000000" font-family="sans-serif" font-size="14" lengthAdjust="spacing" textLength="384" x="986" y="103.877">Telemetry data to remotely monitor manufacturing equipment</text><path d="M933,98.1484 L943,98.1484 C958,98.1484 958,98.1484 973,98.1484 L983,98.1484 " fill="none" style="stroke:#FFB900;stroke-width:3.0;"/><text fill="#000000" font-family="sans-serif" font-size="14" lengthAdjust="spacing" textLength="247" x="986" y="123.4863">Credit card transactions to detect fraud</text><path d="M933,98.1484 L943,98.1484 C958,98.1484 958,117.7578 973,117.7578 L983,117.7578 " fill="none" style="stroke:#FFB900;stroke-width:3.0;"/><path d="M799,137.3672 L809,137.3672 C824,137.3672 824,98.1484 839,98.1484 L849,98.1484 " fill="none" style="stroke:#FFB900;stroke-width:3.0;"/><rect fill="#FFB900" height="37.6094" rx="12.5" ry="12.5" style="stroke:#FFB900;stroke-width:3.0;" width="314" x="849" y="147.9766"/><text fill="#000000" font-family="sans-serif" font-size="14" lengthAdjust="spacing" textLength="290" x="859" y="172.5098">Characteristics of stream processing solutions</text><text fill="#000000" font-family="sans-serif" font-size="14" lengthAdjust="spacing" textLength="241" x="1216" y="143.0957">The source data stream is unbounded</text><path d="M1163,166.7813 L1173,166.7813 C1188,166.7813 1188,137.3672 1203,137.3672 L1213,137.3672 " fill="none" style="stroke:#FFB900;stroke-width:3.0;"/><text fill="#000000" font-family="sans-serif" font-size="14" lengthAdjust="spacing" textLength="426" x="1216" y="162.7051">Each data record in the stream includes temporal (time-based) data</text><path d="M1163,166.7813 L1173,166.7813 C1188,166.7813 1188,156.9766 1203,156.9766 L1213,156.9766 " fill="none" style="stroke:#FFB900;stroke-width:3.0;"/><text fill="#000000" font-family="sans-serif" font-size="14" lengthAdjust="spacing" textLength="421" x="1216" y="182.3145">Aggregation of streaming data is performed over temporal windows</text><path d="M1163,166.7813 L1173,166.7813 C1188,166.7813 1188,176.5859 1203,176.5859 L1213,176.5859 " fill="none" style="stroke:#FFB900;stroke-width:3.0;"/><text fill="#000000" font-family="sans-serif" font-size="14" lengthAdjust="spacing" textLength="287" x="1216" y="201.9238">Supports real-time automation or visualization</text><path d="M1163,166.7813 L1173,166.7813 C1188,166.7813 1188,196.1953 1203,196.1953 L1213,196.1953 " fill="none" style="stroke:#FFB900;stroke-width:3.0;"/><path d="M799,137.3672 L809,137.3672 C824,137.3672 824,166.7813 839,166.7813 L849,166.7813 " fill="none" style="stroke:#FFB900;stroke-width:3.0;"/><path d="M566,263.6094 L576,263.6094 C591,263.6094 591,137.3672 606,137.3672 L616,137.3672 " fill="none" style="stroke:#181818;stroke-width:3.0;"/><rect fill="#F4364C" height="37.6094" rx="12.5" ry="12.5" style="stroke:#F4364C;stroke-width:3.0;" width="209" x="616" y="313.4375"/><text fill="#FFFFFF" font-family="sans-serif" font-size="14" lengthAdjust="spacing" textLength="185" x="626" y="337.9707">Understand event processing</text><rect fill="#F4364C" height="37.6094" rx="12.5" ry="12.5" style="stroke:#F4364C;stroke-width:3.0;" width="400" x="875" y="216"/><text fill="#FFFFFF" font-family="sans-serif" font-size="14" lengthAdjust="spacing" textLength="376" x="885" y="240.5332">Azure Stream Analytics jobs and clusters (dedicated tenant)</text><path d="M825,332.2422 L835,332.2422 C850,332.2422 850,234.8047 865,234.8047 L875,234.8047 " fill="none" style="stroke:#F4364C;stroke-width:3.0;"/><rect fill="#F4364C" height="37.6094" rx="12.5" ry="12.5" style="stroke:#F4364C;stroke-width:3.0;" width="62" x="875" y="284.0234"/><text fill="#FFFFFF" font-family="sans-serif" font-size="14" lengthAdjust="spacing" textLength="38" x="885" y="308.5566">Inputs</text><text fill="#000000" font-family="sans-serif" font-size="14" lengthAdjust="spacing" textLength="112" x="990" y="279.1426">Azure Event Hubs</text><path d="M937,302.8281 L947,302.8281 C962,302.8281 962,273.4141 977,273.4141 L987,273.4141 " fill="none" style="stroke:#F4364C;stroke-width:3.0;"/><text fill="#000000" font-family="sans-serif" font-size="14" lengthAdjust="spacing" textLength="89" x="990" y="298.752">Azure IoT Hub</text><path d="M937,302.8281 L947,302.8281 C962,302.8281 962,293.0234 977,293.0234 L987,293.0234 " fill="none" style="stroke:#F4364C;stroke-width:3.0;"/><text fill="#000000" font-family="sans-serif" font-size="14" lengthAdjust="spacing" textLength="120" x="990" y="318.3613">Azure Blob storage</text><path d="M937,302.8281 L947,302.8281 C962,302.8281 962,312.6328 977,312.6328 L987,312.6328 " fill="none" style="stroke:#F4364C;stroke-width:3.0;"/><text fill="#000000" font-family="sans-serif" font-size="14" lengthAdjust="spacing" textLength="198" x="990" y="337.9707">Azure Data Lake Storage Gen2</text><path d="M937,302.8281 L947,302.8281 C962,302.8281 962,332.2422 977,332.2422 L987,332.2422 " fill="none" style="stroke:#F4364C;stroke-width:3.0;"/><path d="M825,332.2422 L835,332.2422 C850,332.2422 850,302.8281 865,302.8281 L875,302.8281 " fill="none" style="stroke:#F4364C;stroke-width:3.0;"/><rect fill="#F4364C" height="37.6094" rx="12.5" ry="12.5" style="stroke:#F4364C;stroke-width:3.0;" width="71" x="875" y="352.6563"/><text fill="#FFFFFF" font-family="sans-serif" font-size="14" lengthAdjust="spacing" textLength="43" x="885" y="377.1895">Output</text><text fill="#000000" font-family="sans-serif" font-size="14" lengthAdjust="spacing" textLength="180" x="999" y="357.5801">Data Lake, Data Warehouse</text><path d="M946,371.4609 L956,371.4609 C971,371.4609 971,351.8516 986,351.8516 L996,351.8516 " fill="none" style="stroke:#F4364C;stroke-width:3.0;"/><text fill="#000000" font-family="sans-serif" font-size="14" lengthAdjust="spacing" textLength="116" x="999" y="377.1895">Microsoft Power BI</text><path d="M946,371.4609 L956,371.4609 C971,371.4609 971,371.4609 986,371.4609 L996,371.4609 " fill="none" style="stroke:#F4364C;stroke-width:3.0;"/><text fill="#000000" font-family="sans-serif" font-size="14" lengthAdjust="spacing" textLength="328" x="999" y="396.7988">Generate filtered or summarized events (Event Hub)</text><path d="M946,371.4609 L956,371.4609 C971,371.4609 971,391.0703 986,391.0703 L996,391.0703 " fill="none" style="stroke:#F4364C;stroke-width:3.0;"/><path d="M825,332.2422 L835,332.2422 C850,332.2422 850,371.4609 865,371.4609 L875,371.4609 " fill="none" style="stroke:#F4364C;stroke-width:3.0;"/><rect fill="#F4364C" height="37.6094" rx="12.5" ry="12.5" style="stroke:#F4364C;stroke-width:3.0;" width="78" x="875" y="410.875"/><text fill="#FFFFFF" font-family="sans-serif" font-size="14" lengthAdjust="spacing" textLength="50" x="885" y="435.4082">Queries</text><text fill="#000000" font-family="sans-serif" font-size="14" lengthAdjust="spacing" textLength="272" x="1006" y="435.4082">SELECT INTO FROM TIMESTAMP WHERE</text><path d="M953,429.6797 L963,429.6797 C978,429.6797 978,429.6797 993,429.6797 L1003,429.6797 " fill="none" style="stroke:#F4364C;stroke-width:3.0;"/><path d="M825,332.2422 L835,332.2422 C850,332.2422 850,429.6797 865,429.6797 L875,429.6797 " fill="none" style="stroke:#F4364C;stroke-width:3.0;"/><path d="M566,263.6094 L576,263.6094 C591,263.6094 591,332.2422 606,332.2422 L616,332.2422 " fill="none" style="stroke:#181818;stroke-width:3.0;"/><rect fill="#C5B4E3" height="37.6094" rx="12.5" ry="12.5" style="stroke:#C5B4E3;stroke-width:3.0;" width="207" x="144" y="244.8047"/><text fill="#000000" font-family="sans-serif" font-size="14" lengthAdjust="spacing" textLength="183" x="154" y="269.3379">Understand window functions</text><rect fill="#C5B4E3" height="37.6094" rx="12.5" ry="12.5" style="stroke:#C5B4E3;stroke-width:3.0;" width="82" x="12" y="129.5859"/><text fill="#000000" font-family="sans-serif" font-size="14" lengthAdjust="spacing" textLength="58" x="22" y="154.1191">Tumbling</text><path d="M144,263.6094 L134,263.6094 C119,263.6094 119,148.3906 104,148.3906 L94,148.3906 " fill="none" style="stroke:#C5B4E3;stroke-width:3.0;"/><rect fill="#C5B4E3" height="37.6094" rx="12.5" ry="12.5" style="stroke:#C5B4E3;stroke-width:3.0;" width="76" x="18" y="187.1953"/><text fill="#000000" font-family="sans-serif" font-size="14" lengthAdjust="spacing" textLength="52" x="28" y="211.7285">Hopping</text><path d="M144,263.6094 L134,263.6094 C119,263.6094 119,206 104,206 L94,206 " fill="none" style="stroke:#C5B4E3;stroke-width:3.0;"/><rect fill="#C5B4E3" height="37.6094" rx="12.5" ry="12.5" style="stroke:#C5B4E3;stroke-width:3.0;" width="66" x="28" y="244.8047"/><text fill="#000000" font-family="sans-serif" font-size="14" lengthAdjust="spacing" textLength="42" x="38" y="269.3379">Sliding</text><path d="M144,263.6094 L134,263.6094 C119,263.6094 119,263.6094 104,263.6094 L94,263.6094 " fill="none" style="stroke:#C5B4E3;stroke-width:3.0;"/><rect fill="#C5B4E3" height="37.6094" rx="12.5" ry="12.5" style="stroke:#C5B4E3;stroke-width:3.0;" width="74" x="20" y="302.4141"/><text fill="#000000" font-family="sans-serif" font-size="14" lengthAdjust="spacing" textLength="50" x="30" y="326.9473">Session</text><path d="M144,263.6094 L134,263.6094 C119,263.6094 119,321.2188 104,321.2188 L94,321.2188 " fill="none" style="stroke:#C5B4E3;stroke-width:3.0;"/><rect fill="#C5B4E3" height="37.6094" rx="12.5" ry="12.5" style="stroke:#C5B4E3;stroke-width:3.0;" width="84" x="10" y="360.0234"/><text fill="#000000" font-family="sans-serif" font-size="14" lengthAdjust="spacing" textLength="60" x="20" y="384.5566">Snapshot</text><path d="M144,263.6094 L134,263.6094 C119,263.6094 119,378.8281 104,378.8281 L94,378.8281 " fill="none" style="stroke:#C5B4E3;stroke-width:3.0;"/><path d="M401,263.6094 L391,263.6094 C376,263.6094 376,263.6094 361,263.6094 L351,263.6094 " fill="none" style="stroke:#181818;stroke-width:3.0;"/><!--MD5=[be34158ee31e79b297a20ee16af9cca1]
@startmindmap
<style>
title {
        FontSize 30
        FontColor #000000
    }
mindmapDiagram {
    :depth(0) {
        BackgroundColor #091f2c
        FontColor #ffffff
        LineThickness 3.0
    }
    .topic1 {
        BackgroundColor #ffb900
        LineColor #ffb900
        LineThickness 3.0
        FontColor #000000
    }
    .topic2 {
        BackgroundColor #f4364c
        LineColor #f4364c
        LineThickness 3.0
        FontColor #ffffff
    }
    .topic3 {
        BackgroundColor #c5b4e3
        LineColor #c5b4e3
        LineThickness 3.0
        FontColor #000000
    }
    .topic4 {
        BackgroundColor #e1d3c7
        LineColor #e1d3c7
        LineThickness 3.0
        FontColor #000000
    }
    .topic5 {
        BackgroundColor #07641d
        LineColor #07641d
        LineThickness 3.0
        FontColor #ffffff
    }
}
</style>
title [[https://learn.microsoft.com/training/modules/introduction-to-data-streaming/ Module]]: Get started with Azure Stream Analytics
+ Azure Stream Analytics
++ Understand data streams <<topic1>>
+++ Examples <<topic1>>
++++_ Real-time clickstream data to provide recommendations
++++_ Telemetry data to remotely monitor manufacturing equipment
++++_ Credit card transactions to detect fraud
+++ Characteristics of stream processing solutions <<topic1>>
++++_ The source data stream is unbounded
++++_ Each data record in the stream includes temporal (time-based) data
++++_ Aggregation of streaming data is performed over temporal windows
++++_ Supports real-time automation or visualization
++ Understand event processing <<topic2>>
+++ Azure Stream Analytics jobs and clusters (dedicated tenant) <<topic2>>
+++ Inputs <<topic2>>
++++_ Azure Event Hubs
++++_ Azure IoT Hub
++++_ Azure Blob storage
++++_ Azure Data Lake Storage Gen2
+++ Output  <<topic2>>
++++_ Data Lake, Data Warehouse
++++_ Microsoft Power BI
++++_ Generate filtered or summarized events (Event Hub)
+++ Queries  <<topic2>> 
++++_ SELECT INTO FROM TIMESTAMP WHERE
- - Understand window functions <<topic3>>
- - - Tumbling <<topic3>>
- - - Hopping <<topic3>>
- - - Sliding <<topic3>>
- - - Session <<topic3>>
- - - Snapshot <<topic3>>
@endmindmap

PlantUML version 1.2022.7(Mon Aug 22 19:01:30 CEST 2022)
(GPL source distribution)
Java Runtime: OpenJDK Runtime Environment
JVM: OpenJDK 64-Bit Server VM
Default Encoding: Cp1252
Language: en
Country: US
--></g></svg>