<?xml version="1.0" encoding="UTF-8" standalone="no"?><svg xmlns="http://www.w3.org/2000/svg" xmlns:xlink="http://www.w3.org/1999/xlink" contentStyleType="text/css" height="699px" preserveAspectRatio="none" style="width:1280px;height:699px;background:#FFFFFF;" version="1.1" viewBox="0 0 1280 699" width="1280px" zoomAndPan="magnify"><defs/><g><rect fill="#091F2C" height="37.6094" rx="12.5" ry="12.5" style="stroke:#181818;stroke-width:3.0;" width="165" x="10" y="330.0938"/><text fill="#FFFFFF" font-family="sans-serif" font-size="14" lengthAdjust="spacing" textLength="145" x="20" y="354.627">Azure Stream Analytics</text><rect fill="#FFB900" height="37.6094" rx="12.5" ry="12.5" style="stroke:#FFB900;stroke-width:3.0;" width="200" x="225" y="59.8281"/><text fill="#000000" font-family="sans-serif" font-size="14" lengthAdjust="spacing" textLength="176" x="235" y="84.3613">1) Understand data streams</text><rect fill="#FFB900" height="37.6094" rx="12.5" ry="12.5" style="stroke:#FFB900;stroke-width:3.0;" width="84" x="475" y="20.6094"/><text fill="#000000" font-family="sans-serif" font-size="14" lengthAdjust="spacing" textLength="60" x="485" y="45.1426">Examples</text><text fill="#000000" font-family="sans-serif" font-size="14" lengthAdjust="spacing" textLength="349" x="612" y="25.5332">Real-time clickstream data to provide recommendations</text><path d="M559,39.4141 L569,39.4141 C584,39.4141 584,19.8047 599,19.8047 L609,19.8047 " fill="none" style="stroke:#FFB900;stroke-width:3.0;"/><text fill="#000000" font-family="sans-serif" font-size="14" lengthAdjust="spacing" textLength="384" x="612" y="45.1426">Telemetry data to remotely monitor manufacturing equipment</text><path d="M559,39.4141 L569,39.4141 C584,39.4141 584,39.4141 599,39.4141 L609,39.4141 " fill="none" style="stroke:#FFB900;stroke-width:3.0;"/><text fill="#000000" font-family="sans-serif" font-size="14" lengthAdjust="spacing" textLength="247" x="612" y="64.752">Credit card transactions to detect fraud</text><path d="M559,39.4141 L569,39.4141 C584,39.4141 584,59.0234 599,59.0234 L609,59.0234 " fill="none" style="stroke:#FFB900;stroke-width:3.0;"/><path d="M425,78.6328 L435,78.6328 C450,78.6328 450,39.4141 465,39.4141 L475,39.4141 " fill="none" style="stroke:#FFB900;stroke-width:3.0;"/><rect fill="#FFB900" height="37.6094" rx="12.5" ry="12.5" style="stroke:#FFB900;stroke-width:3.0;" width="314" x="475" y="89.2422"/><text fill="#000000" font-family="sans-serif" font-size="14" lengthAdjust="spacing" textLength="290" x="485" y="113.7754">Characteristics of stream processing solutions</text><text fill="#000000" font-family="sans-serif" font-size="14" lengthAdjust="spacing" textLength="241" x="842" y="84.3613">The source data stream is unbounded</text><path d="M789,108.0469 L799,108.0469 C814,108.0469 814,78.6328 829,78.6328 L839,78.6328 " fill="none" style="stroke:#FFB900;stroke-width:3.0;"/><text fill="#000000" font-family="sans-serif" font-size="14" lengthAdjust="spacing" textLength="426" x="842" y="103.9707">Each data record in the stream includes temporal (time-based) data</text><path d="M789,108.0469 L799,108.0469 C814,108.0469 814,98.2422 829,98.2422 L839,98.2422 " fill="none" style="stroke:#FFB900;stroke-width:3.0;"/><text fill="#000000" font-family="sans-serif" font-size="14" lengthAdjust="spacing" textLength="421" x="842" y="123.5801">Aggregation of streaming data is performed over temporal windows</text><path d="M789,108.0469 L799,108.0469 C814,108.0469 814,117.8516 829,117.8516 L839,117.8516 " fill="none" style="stroke:#FFB900;stroke-width:3.0;"/><text fill="#000000" font-family="sans-serif" font-size="14" lengthAdjust="spacing" textLength="287" x="842" y="143.1895">Supports real-time automation or visualization</text><path d="M789,108.0469 L799,108.0469 C814,108.0469 814,137.4609 829,137.4609 L839,137.4609 " fill="none" style="stroke:#FFB900;stroke-width:3.0;"/><path d="M425,78.6328 L435,78.6328 C450,78.6328 450,108.0469 465,108.0469 L475,108.0469 " fill="none" style="stroke:#FFB900;stroke-width:3.0;"/><path d="M175,348.8984 L185,348.8984 C200,348.8984 200,78.6328 215,78.6328 L225,78.6328 " fill="none" style="stroke:#181818;stroke-width:3.0;"/><rect fill="#F4364C" height="37.6094" rx="12.5" ry="12.5" style="stroke:#F4364C;stroke-width:3.0;" width="226" x="225" y="254.7031"/><text fill="#FFFFFF" font-family="sans-serif" font-size="14" lengthAdjust="spacing" textLength="202" x="235" y="279.2363">2) Understand event processing</text><rect fill="#F4364C" height="37.6094" rx="12.5" ry="12.5" style="stroke:#F4364C;stroke-width:3.0;" width="400" x="501" y="157.2656"/><text fill="#FFFFFF" font-family="sans-serif" font-size="14" lengthAdjust="spacing" textLength="376" x="511" y="181.7988">Azure Stream Analytics jobs and clusters (dedicated tenant)</text><path d="M451,273.5078 L461,273.5078 C476,273.5078 476,176.0703 491,176.0703 L501,176.0703 " fill="none" style="stroke:#F4364C;stroke-width:3.0;"/><rect fill="#F4364C" height="37.6094" rx="12.5" ry="12.5" style="stroke:#F4364C;stroke-width:3.0;" width="62" x="501" y="225.2891"/><text fill="#FFFFFF" font-family="sans-serif" font-size="14" lengthAdjust="spacing" textLength="38" x="511" y="249.8223">Inputs</text><text fill="#000000" font-family="sans-serif" font-size="14" lengthAdjust="spacing" textLength="112" x="616" y="220.4082">Azure Event Hubs</text><path d="M563,244.0938 L573,244.0938 C588,244.0938 588,214.6797 603,214.6797 L613,214.6797 " fill="none" style="stroke:#F4364C;stroke-width:3.0;"/><text fill="#000000" font-family="sans-serif" font-size="14" lengthAdjust="spacing" textLength="89" x="616" y="240.0176">Azure IoT Hub</text><path d="M563,244.0938 L573,244.0938 C588,244.0938 588,234.2891 603,234.2891 L613,234.2891 " fill="none" style="stroke:#F4364C;stroke-width:3.0;"/><text fill="#000000" font-family="sans-serif" font-size="14" lengthAdjust="spacing" textLength="120" x="616" y="259.627">Azure Blob storage</text><path d="M563,244.0938 L573,244.0938 C588,244.0938 588,253.8984 603,253.8984 L613,253.8984 " fill="none" style="stroke:#F4364C;stroke-width:3.0;"/><text fill="#000000" font-family="sans-serif" font-size="14" lengthAdjust="spacing" textLength="198" x="616" y="279.2363">Azure Data Lake Storage Gen2</text><path d="M563,244.0938 L573,244.0938 C588,244.0938 588,273.5078 603,273.5078 L613,273.5078 " fill="none" style="stroke:#F4364C;stroke-width:3.0;"/><path d="M451,273.5078 L461,273.5078 C476,273.5078 476,244.0938 491,244.0938 L501,244.0938 " fill="none" style="stroke:#F4364C;stroke-width:3.0;"/><rect fill="#F4364C" height="37.6094" rx="12.5" ry="12.5" style="stroke:#F4364C;stroke-width:3.0;" width="71" x="501" y="293.9219"/><text fill="#FFFFFF" font-family="sans-serif" font-size="14" lengthAdjust="spacing" textLength="43" x="511" y="318.4551">Output</text><text fill="#000000" font-family="sans-serif" font-size="14" lengthAdjust="spacing" textLength="180" x="625" y="298.8457">Data Lake, Data Warehouse</text><path d="M572,312.7266 L582,312.7266 C597,312.7266 597,293.1172 612,293.1172 L622,293.1172 " fill="none" style="stroke:#F4364C;stroke-width:3.0;"/><text fill="#000000" font-family="sans-serif" font-size="14" lengthAdjust="spacing" textLength="116" x="625" y="318.4551">Microsoft Power BI</text><path d="M572,312.7266 L582,312.7266 C597,312.7266 597,312.7266 612,312.7266 L622,312.7266 " fill="none" style="stroke:#F4364C;stroke-width:3.0;"/><text fill="#000000" font-family="sans-serif" font-size="14" lengthAdjust="spacing" textLength="328" x="625" y="338.0645">Generate filtered or summarized events (Event Hub)</text><path d="M572,312.7266 L582,312.7266 C597,312.7266 597,332.3359 612,332.3359 L622,332.3359 " fill="none" style="stroke:#F4364C;stroke-width:3.0;"/><path d="M451,273.5078 L461,273.5078 C476,273.5078 476,312.7266 491,312.7266 L501,312.7266 " fill="none" style="stroke:#F4364C;stroke-width:3.0;"/><rect fill="#F4364C" height="37.6094" rx="12.5" ry="12.5" style="stroke:#F4364C;stroke-width:3.0;" width="78" x="501" y="352.1406"/><text fill="#FFFFFF" font-family="sans-serif" font-size="14" lengthAdjust="spacing" textLength="50" x="511" y="376.6738">Queries</text><text fill="#000000" font-family="sans-serif" font-size="14" lengthAdjust="spacing" textLength="272" x="632" y="376.6738">SELECT INTO FROM TIMESTAMP WHERE</text><path d="M579,370.9453 L589,370.9453 C604,370.9453 604,370.9453 619,370.9453 L629,370.9453 " fill="none" style="stroke:#F4364C;stroke-width:3.0;"/><path d="M451,273.5078 L461,273.5078 C476,273.5078 476,370.9453 491,370.9453 L501,370.9453 " fill="none" style="stroke:#F4364C;stroke-width:3.0;"/><path d="M175,348.8984 L185,348.8984 C200,348.8984 200,273.5078 215,273.5078 L225,273.5078 " fill="none" style="stroke:#181818;stroke-width:3.0;"/><rect fill="#C5B4E3" height="37.6094" rx="12.5" ry="12.5" style="stroke:#C5B4E3;stroke-width:3.0;" width="224" x="225" y="524.9688"/><text fill="#000000" font-family="sans-serif" font-size="14" lengthAdjust="spacing" textLength="200" x="235" y="549.502">3) Understand window functions</text><rect fill="#C5B4E3" height="37.6094" rx="12.5" ry="12.5" style="stroke:#C5B4E3;stroke-width:3.0;" width="82" x="499" y="409.75"/><text fill="#000000" font-family="sans-serif" font-size="14" lengthAdjust="spacing" textLength="58" x="509" y="434.2832">Tumbling</text><path d="M449,543.7734 L459,543.7734 C474,543.7734 474,428.5547 489,428.5547 L499,428.5547 " fill="none" style="stroke:#C5B4E3;stroke-width:3.0;"/><rect fill="#C5B4E3" height="37.6094" rx="12.5" ry="12.5" style="stroke:#C5B4E3;stroke-width:3.0;" width="76" x="499" y="467.3594"/><text fill="#000000" font-family="sans-serif" font-size="14" lengthAdjust="spacing" textLength="52" x="509" y="491.8926">Hopping</text><path d="M449,543.7734 L459,543.7734 C474,543.7734 474,486.1641 489,486.1641 L499,486.1641 " fill="none" style="stroke:#C5B4E3;stroke-width:3.0;"/><rect fill="#C5B4E3" height="37.6094" rx="12.5" ry="12.5" style="stroke:#C5B4E3;stroke-width:3.0;" width="66" x="499" y="524.9688"/><text fill="#000000" font-family="sans-serif" font-size="14" lengthAdjust="spacing" textLength="42" x="509" y="549.502">Sliding</text><path d="M449,543.7734 L459,543.7734 C474,543.7734 474,543.7734 489,543.7734 L499,543.7734 " fill="none" style="stroke:#C5B4E3;stroke-width:3.0;"/><rect fill="#C5B4E3" height="37.6094" rx="12.5" ry="12.5" style="stroke:#C5B4E3;stroke-width:3.0;" width="74" x="499" y="582.5781"/><text fill="#000000" font-family="sans-serif" font-size="14" lengthAdjust="spacing" textLength="50" x="509" y="607.1113">Session</text><path d="M449,543.7734 L459,543.7734 C474,543.7734 474,601.3828 489,601.3828 L499,601.3828 " fill="none" style="stroke:#C5B4E3;stroke-width:3.0;"/><rect fill="#C5B4E3" height="37.6094" rx="12.5" ry="12.5" style="stroke:#C5B4E3;stroke-width:3.0;" width="84" x="499" y="640.1875"/><text fill="#000000" font-family="sans-serif" font-size="14" lengthAdjust="spacing" textLength="60" x="509" y="664.7207">Snapshot</text><path d="M449,543.7734 L459,543.7734 C474,543.7734 474,658.9922 489,658.9922 L499,658.9922 " fill="none" style="stroke:#C5B4E3;stroke-width:3.0;"/><path d="M175,348.8984 L185,348.8984 C200,348.8984 200,543.7734 215,543.7734 L225,543.7734 " fill="none" style="stroke:#181818;stroke-width:3.0;"/><!--MD5=[c9c294afbc1a76d4aa63f0354e371970]
@startmindmap
<style>
:depth(0) {
    BackgroundColor #091f2c
    FontColor #ffffff
    LineThickness 3.0
}
.topic1 {
    BackgroundColor #ffb900
    LineColor #ffb900
    LineThickness 3.0
    FontColor #000000
}
.topic2 {
    BackgroundColor #f4364c
    LineColor #f4364c
    LineThickness 3.0
    FontColor #ffffff
}
.topic3 {
    BackgroundColor #c5b4e3
    LineColor #c5b4e3
    LineThickness 3.0
    FontColor #000000
}
.topic4 {
    BackgroundColor #e1d3c7
    LineColor #e1d3c7
    LineThickness 3.0
    FontColor #000000
}
.topic5 {
    BackgroundColor #07641d
    LineColor #07641d
    LineThickness 3.0
    FontColor #ffffff
}
</style>
+ Azure Stream Analytics
++ 1) Understand data streams <<topic1>>
+++ Examples <<topic1>>
++++_ Real-time clickstream data to provide recommendations
++++_ Telemetry data to remotely monitor manufacturing equipment
++++_ Credit card transactions to detect fraud
+++ Characteristics of stream processing solutions <<topic1>>
++++_ The source data stream is unbounded
++++_ Each data record in the stream includes temporal (time-based) data
++++_ Aggregation of streaming data is performed over temporal windows
++++_ Supports real-time automation or visualization
++ 2) Understand event processing <<topic2>>
+++ Azure Stream Analytics jobs and clusters (dedicated tenant) <<topic2>>
+++ Inputs <<topic2>>
++++_ Azure Event Hubs
++++_ Azure IoT Hub
++++_ Azure Blob storage
++++_ Azure Data Lake Storage Gen2
+++ Output  <<topic2>>
++++_ Data Lake, Data Warehouse
++++_ Microsoft Power BI
++++_ Generate filtered or summarized events (Event Hub)
+++ Queries  <<topic2>> 
++++_ SELECT INTO FROM TIMESTAMP WHERE
++ 3) Understand window functions <<topic3>>
+++ Tumbling <<topic3>>
+++ Hopping <<topic3>>
+++ Sliding <<topic3>>
+++ Session <<topic3>>
+++ Snapshot <<topic3>>
@endmindmap

PlantUML version 1.2022.7(Mon Aug 22 19:01:30 CEST 2022)
(GPL source distribution)
Java Runtime: OpenJDK Runtime Environment
JVM: OpenJDK 64-Bit Server VM
Default Encoding: Cp1252
Language: en
Country: US
--></g></svg>