<?xml version="1.0" encoding="UTF-8" standalone="no"?><svg xmlns="http://www.w3.org/2000/svg" xmlns:xlink="http://www.w3.org/1999/xlink" contentStyleType="text/css" height="273px" preserveAspectRatio="none" style="width:1104px;height:273px;background:#FFFFFF;" version="1.1" viewBox="0 0 1104 273" width="1104px" zoomAndPan="magnify"><defs/><g><rect fill="none" height="47.7344" id="_title" style="stroke:none;stroke-width:1.0;" width="1071" x="15" y="15"/><a href="https://learn.microsoft.com/training/modules/visualize-real-time-data-azure-stream-analytics-power-bi/" target="_top" title="https://learn.microsoft.com/training/modules/visualize-real-time-data-azure-stream-analytics-power-bi/" xlink:actuate="onRequest" xlink:href="https://learn.microsoft.com/training/modules/visualize-real-time-data-azure-stream-analytics-power-bi/" xlink:show="new" xlink:title="https://learn.microsoft.com/training/modules/visualize-real-time-data-azure-stream-analytics-power-bi/" xlink:type="simple"><text fill="#0000FF" font-family="sans-serif" font-size="30" font-weight="bold" lengthAdjust="spacing" text-decoration="underline" textLength="104" x="20" y="51.1426">Module</text></a><text fill="#000000" font-family="sans-serif" font-size="30" font-weight="bold" lengthAdjust="spacing" textLength="957" x="124" y="51.1426">: Visualize real-time data with Azure Stream Analytics and Power BI</text><rect fill="#091F2C" height="37.6094" rx="12.5" ry="12.5" style="stroke:#181818;stroke-width:3.0;" width="166" x="97" y="146.4531"/><text fill="#FFFFFF" font-family="sans-serif" font-size="14" lengthAdjust="spacing" textLength="146" x="107" y="170.9863">Visualize real-time data</text><rect fill="#FFB900" height="37.6094" rx="12.5" ry="12.5" style="stroke:#FFB900;stroke-width:3.0;" width="327" x="313" y="98.9531"/><text fill="#000000" font-family="sans-serif" font-size="14" lengthAdjust="spacing" textLength="303" x="323" y="123.4863">Use a Power BI output in Azure Stream Analytics</text><rect fill="#FFB900" height="37.6094" rx="12.5" ry="12.5" style="stroke:#FFB900;stroke-width:3.0;" width="130" x="690" y="98.9531"/><text fill="#000000" font-family="sans-serif" font-size="14" lengthAdjust="spacing" textLength="106" x="700" y="123.4863">Power BI outputs</text><text fill="#000000" font-family="sans-serif" font-size="14" lengthAdjust="spacing" textLength="76" x="873" y="84.2676">Output alias</text><path d="M820,117.7578 L830,117.7578 C845,117.7578 845,78.5391 860,78.5391 L870,78.5391 " fill="none" style="stroke:#FFB900;stroke-width:3.0;"/><text fill="#000000" font-family="sans-serif" font-size="14" lengthAdjust="spacing" textLength="111" x="873" y="103.877">Group workspace</text><path d="M820,117.7578 L830,117.7578 C845,117.7578 845,98.1484 860,98.1484 L870,98.1484 " fill="none" style="stroke:#FFB900;stroke-width:3.0;"/><text fill="#000000" font-family="sans-serif" font-size="14" lengthAdjust="spacing" textLength="88" x="873" y="123.4863">Dataset name</text><path d="M820,117.7578 L830,117.7578 C845,117.7578 845,117.7578 860,117.7578 L870,117.7578 " fill="none" style="stroke:#FFB900;stroke-width:3.0;"/><text fill="#000000" font-family="sans-serif" font-size="14" lengthAdjust="spacing" textLength="75" x="873" y="143.0957">Table name</text><path d="M820,117.7578 L830,117.7578 C845,117.7578 845,137.3672 860,137.3672 L870,137.3672 " fill="none" style="stroke:#FFB900;stroke-width:3.0;"/><text fill="#000000" font-family="sans-serif" font-size="14" lengthAdjust="spacing" textLength="132" x="873" y="162.7051">Authorize connection</text><path d="M820,117.7578 L830,117.7578 C845,117.7578 845,156.9766 860,156.9766 L870,156.9766 " fill="none" style="stroke:#FFB900;stroke-width:3.0;"/><path d="M640,117.7578 L650,117.7578 C665,117.7578 665,117.7578 680,117.7578 L690,117.7578 " fill="none" style="stroke:#FFB900;stroke-width:3.0;"/><path d="M263,165.2578 L273,165.2578 C288,165.2578 288,117.7578 303,117.7578 L313,117.7578 " fill="none" style="stroke:#181818;stroke-width:3.0;"/><rect fill="#F4364C" height="37.6094" rx="12.5" ry="12.5" style="stroke:#F4364C;stroke-width:3.0;" width="279" x="313" y="156.5625"/><text fill="#FFFFFF" font-family="sans-serif" font-size="14" lengthAdjust="spacing" textLength="255" x="323" y="181.0957">Create a query for real-time visualization</text><path d="M263,165.2578 L273,165.2578 C288,165.2578 288,175.3672 303,175.3672 L313,175.3672 " fill="none" style="stroke:#181818;stroke-width:3.0;"/><rect fill="#C5B4E3" height="37.6094" rx="12.5" ry="12.5" style="stroke:#C5B4E3;stroke-width:3.0;" width="319" x="313" y="214.1719"/><text fill="#000000" font-family="sans-serif" font-size="14" lengthAdjust="spacing" textLength="295" x="323" y="238.7051">Create real-time data visualizations in Power BI</text><text fill="#000000" font-family="sans-serif" font-size="14" lengthAdjust="spacing" textLength="70" x="685" y="238.7051">Dashboard</text><path d="M632,232.9766 L642,232.9766 C657,232.9766 657,232.9766 672,232.9766 L682,232.9766 " fill="none" style="stroke:#C5B4E3;stroke-width:3.0;"/><path d="M263,165.2578 L273,165.2578 C288,165.2578 288,232.9766 303,232.9766 L313,232.9766 " fill="none" style="stroke:#181818;stroke-width:3.0;"/><!--MD5=[02c8c280913cf79fad751f5cc359aba8]
@startmindmap
<style>
title {
        FontSize 30
        FontColor #000000
    }
mindmapDiagram {
    :depth(0) {
        BackgroundColor #091f2c
        FontColor #ffffff
        LineThickness 3.0
    }
    .topic1 {
        BackgroundColor #ffb900
        LineColor #ffb900
        LineThickness 3.0
        FontColor #000000
    }
    .topic2 {
        BackgroundColor #f4364c
        LineColor #f4364c
        LineThickness 3.0
        FontColor #ffffff
    }
    .topic3 {
        BackgroundColor #c5b4e3
        LineColor #c5b4e3
        LineThickness 3.0
        FontColor #000000
    }
    .topic4 {
        BackgroundColor #e1d3c7
        LineColor #e1d3c7
        LineThickness 3.0
        FontColor #000000
    }
    .topic5 {
        BackgroundColor #07641d
        LineColor #07641d
        LineThickness 3.0
        FontColor #ffffff
    }
}
</style>
title [[https://learn.microsoft.com/training/modules/visualize-real-time-data-azure-stream-analytics-power-bi/ Module]]: Visualize real-time data with Azure Stream Analytics and Power BI
+ Visualize real-time data
++ Use a Power BI output in Azure Stream Analytics <<topic1>>
+++ Power BI outputs <<topic1>>
++++_ Output alias
++++_ Group workspace
++++_ Dataset name
++++_ Table name
++++_ Authorize connection
++ Create a query for real-time visualization <<topic2>>
++ Create real-time data visualizations in Power BI <<topic3>>
+++_ Dashboard
@endmindmap

PlantUML version 1.2022.7(Mon Aug 22 19:01:30 CEST 2022)
(GPL source distribution)
Java Runtime: OpenJDK Runtime Environment
JVM: OpenJDK 64-Bit Server VM
Default Encoding: Cp1252
Language: en
Country: US
--></g></svg>