<?xml version="1.0" encoding="UTF-8" standalone="no"?><svg xmlns="http://www.w3.org/2000/svg" xmlns:xlink="http://www.w3.org/1999/xlink" contentStyleType="text/css" height="215px" preserveAspectRatio="none" style="width:947px;height:215px;background:#FFFFFF;" version="1.1" viewBox="0 0 947 215" width="947px" zoomAndPan="magnify"><defs/><g><rect fill="#091F2C" height="37.6094" rx="12.5" ry="12.5" style="stroke:#181818;stroke-width:3.0;" width="166" x="10" y="87.7188"/><text fill="#FFFFFF" font-family="sans-serif" font-size="14" lengthAdjust="spacing" textLength="146" x="20" y="112.252">Visualize real-time data</text><rect fill="#FFB900" height="37.6094" rx="12.5" ry="12.5" style="stroke:#FFB900;stroke-width:3.0;" width="344" x="226" y="40.2188"/><text fill="#000000" font-family="sans-serif" font-size="14" lengthAdjust="spacing" textLength="320" x="236" y="64.752">1) Use a Power BI output in Azure Stream Analytics</text><rect fill="#FFB900" height="37.6094" rx="12.5" ry="12.5" style="stroke:#FFB900;stroke-width:3.0;" width="130" x="620" y="40.2188"/><text fill="#000000" font-family="sans-serif" font-size="14" lengthAdjust="spacing" textLength="106" x="630" y="64.752">Power BI outputs</text><text fill="#000000" font-family="sans-serif" font-size="14" lengthAdjust="spacing" textLength="76" x="803" y="25.5332">Output alias</text><path d="M750,59.0234 L760,59.0234 C775,59.0234 775,19.8047 790,19.8047 L800,19.8047 " fill="none" style="stroke:#FFB900;stroke-width:3.0;"/><text fill="#000000" font-family="sans-serif" font-size="14" lengthAdjust="spacing" textLength="111" x="803" y="45.1426">Group workspace</text><path d="M750,59.0234 L760,59.0234 C775,59.0234 775,39.4141 790,39.4141 L800,39.4141 " fill="none" style="stroke:#FFB900;stroke-width:3.0;"/><text fill="#000000" font-family="sans-serif" font-size="14" lengthAdjust="spacing" textLength="88" x="803" y="64.752">Dataset name</text><path d="M750,59.0234 L760,59.0234 C775,59.0234 775,59.0234 790,59.0234 L800,59.0234 " fill="none" style="stroke:#FFB900;stroke-width:3.0;"/><text fill="#000000" font-family="sans-serif" font-size="14" lengthAdjust="spacing" textLength="75" x="803" y="84.3613">Table name</text><path d="M750,59.0234 L760,59.0234 C775,59.0234 775,78.6328 790,78.6328 L800,78.6328 " fill="none" style="stroke:#FFB900;stroke-width:3.0;"/><text fill="#000000" font-family="sans-serif" font-size="14" lengthAdjust="spacing" textLength="132" x="803" y="103.9707">Authorize connection</text><path d="M750,59.0234 L760,59.0234 C775,59.0234 775,98.2422 790,98.2422 L800,98.2422 " fill="none" style="stroke:#FFB900;stroke-width:3.0;"/><path d="M570,59.0234 L580,59.0234 C595,59.0234 595,59.0234 610,59.0234 L620,59.0234 " fill="none" style="stroke:#FFB900;stroke-width:3.0;"/><path d="M176,106.5234 L186,106.5234 C201,106.5234 201,59.0234 216,59.0234 L226,59.0234 " fill="none" style="stroke:#181818;stroke-width:3.0;"/><rect fill="#F4364C" height="37.6094" rx="12.5" ry="12.5" style="stroke:#F4364C;stroke-width:3.0;" width="296" x="226" y="97.8281"/><text fill="#FFFFFF" font-family="sans-serif" font-size="14" lengthAdjust="spacing" textLength="272" x="236" y="122.3613">2) Create a query for real-time visualization</text><path d="M176,106.5234 L186,106.5234 C201,106.5234 201,116.6328 216,116.6328 L226,116.6328 " fill="none" style="stroke:#181818;stroke-width:3.0;"/><rect fill="#C5B4E3" height="37.6094" rx="12.5" ry="12.5" style="stroke:#C5B4E3;stroke-width:3.0;" width="336" x="226" y="155.4375"/><text fill="#000000" font-family="sans-serif" font-size="14" lengthAdjust="spacing" textLength="312" x="236" y="179.9707">3) Create real-time data visualizations in Power BI</text><text fill="#000000" font-family="sans-serif" font-size="14" lengthAdjust="spacing" textLength="70" x="615" y="179.9707">Dashboard</text><path d="M562,174.2422 L572,174.2422 C587,174.2422 587,174.2422 602,174.2422 L612,174.2422 " fill="none" style="stroke:#C5B4E3;stroke-width:3.0;"/><path d="M176,106.5234 L186,106.5234 C201,106.5234 201,174.2422 216,174.2422 L226,174.2422 " fill="none" style="stroke:#181818;stroke-width:3.0;"/><!--MD5=[41f01108d6e1436d071dfb1db73fc9d1]
@startmindmap
<style>
:depth(0) {
    BackgroundColor #091f2c
    FontColor #ffffff
    LineThickness 3.0
}
.topic1 {
    BackgroundColor #ffb900
    LineColor #ffb900
    LineThickness 3.0
    FontColor #000000
}
.topic2 {
    BackgroundColor #f4364c
    LineColor #f4364c
    LineThickness 3.0
    FontColor #ffffff
}
.topic3 {
    BackgroundColor #c5b4e3
    LineColor #c5b4e3
    LineThickness 3.0
    FontColor #000000
}
.topic4 {
    BackgroundColor #e1d3c7
    LineColor #e1d3c7
    LineThickness 3.0
    FontColor #000000
}
.topic5 {
    BackgroundColor #07641d
    LineColor #07641d
    LineThickness 3.0
    FontColor #ffffff
}
</style>
+ Visualize real-time data
++ 1) Use a Power BI output in Azure Stream Analytics <<topic1>>
+++ Power BI outputs <<topic1>>
++++_ Output alias
++++_ Group workspace
++++_ Dataset name
++++_ Table name
++++_ Authorize connection
++ 2) Create a query for real-time visualization <<topic2>>
++ 3) Create real-time data visualizations in Power BI <<topic3>>
+++_ Dashboard
@endmindmap

PlantUML version 1.2022.7(Mon Aug 22 19:01:30 CEST 2022)
(GPL source distribution)
Java Runtime: OpenJDK Runtime Environment
JVM: OpenJDK 64-Bit Server VM
Default Encoding: Cp1252
Language: en
Country: US
--></g></svg>