<?xml version="1.0" encoding="UTF-8" standalone="no"?><svg xmlns="http://www.w3.org/2000/svg" xmlns:xlink="http://www.w3.org/1999/xlink" contentStyleType="text/css" height="770px" preserveAspectRatio="none" style="width:1169px;height:770px;background:#FFFFFF;" version="1.1" viewBox="0 0 1169 770" width="1169px" zoomAndPan="magnify"><defs/><g><rect fill="none" height="47.7344" id="_title" style="stroke:none;stroke-width:1.0;" width="609" x="278.5" y="15"/><a href="https://learn.microsoft.com/training/modules/intro-to-microsoft-purview/" target="_top" title="https://learn.microsoft.com/training/modules/intro-to-microsoft-purview/" xlink:actuate="onRequest" xlink:href="https://learn.microsoft.com/training/modules/intro-to-microsoft-purview/" xlink:show="new" xlink:title="https://learn.microsoft.com/training/modules/intro-to-microsoft-purview/" xlink:type="simple"><text fill="#0000FF" font-family="sans-serif" font-size="30" font-weight="bold" lengthAdjust="spacing" text-decoration="underline" textLength="104" x="283.5" y="51.1426">Module</text></a><text fill="#000000" font-family="sans-serif" font-size="30" font-weight="bold" lengthAdjust="spacing" textLength="495" x="387.5" y="51.1426">: Introduction to Microsoft Purview</text><rect fill="#091F2C" height="37.6094" rx="12.5" ry="12.5" style="stroke:#181818;stroke-width:3.0;" width="130" x="10" y="394.9492"/><text fill="#FFFFFF" font-family="sans-serif" font-size="14" lengthAdjust="spacing" textLength="110" x="20" y="419.4824">Microsoft Purview</text><rect fill="#FFB900" height="37.6094" rx="12.5" ry="12.5" style="stroke:#FFB900;stroke-width:3.0;" width="193" x="190" y="180.1602"/><text fill="#000000" font-family="sans-serif" font-size="14" lengthAdjust="spacing" textLength="169" x="200" y="204.6934">What is Microsoft Purview?</text><rect fill="#FFB900" height="37.6094" rx="12.5" ry="12.5" style="stroke:#FFB900;stroke-width:3.0;" width="228" x="433" y="78.7344"/><text fill="#000000" font-family="sans-serif" font-size="14" lengthAdjust="spacing" textLength="204" x="443" y="103.2676">Unified data-governance service</text><path d="M383,198.9648 L393,198.9648 C408,198.9648 408,97.5391 423,97.5391 L433,97.5391 " fill="none" style="stroke:#FFB900;stroke-width:3.0;"/><rect fill="#FFB900" height="37.6094" rx="12.5" ry="12.5" style="stroke:#FFB900;stroke-width:3.0;" width="85" x="433" y="136.3438"/><text fill="#000000" font-family="sans-serif" font-size="14" lengthAdjust="spacing" textLength="61" x="443" y="160.877">Data Map</text><path d="M383,198.9648 L393,198.9648 C408,198.9648 408,155.1484 423,155.1484 L433,155.1484 " fill="none" style="stroke:#FFB900;stroke-width:3.0;"/><rect fill="#FFB900" height="37.6094" rx="12.5" ry="12.5" style="stroke:#FFB900;stroke-width:3.0;" width="107" x="433" y="193.9531"/><text fill="#000000" font-family="sans-serif" font-size="14" lengthAdjust="spacing" textLength="83" x="443" y="218.4863">Data Catalog</text><path d="M383,198.9648 L393,198.9648 C408,198.9648 408,212.7578 423,212.7578 L433,212.7578 " fill="none" style="stroke:#FFB900;stroke-width:3.0;"/><rect fill="#FFB900" height="37.6094" rx="12.5" ry="12.5" style="stroke:#FFB900;stroke-width:3.0;" width="150" x="433" y="251.5625"/><text fill="#000000" font-family="sans-serif" font-size="14" lengthAdjust="spacing" textLength="126" x="443" y="276.0957">Data Estate Insights</text><text fill="#000000" font-family="sans-serif" font-size="14" lengthAdjust="spacing" textLength="87" x="636" y="227.0723">Asset insights</text><path d="M583,270.3672 L593,270.3672 C608,270.3672 608,221.3438 623,221.3438 L633,221.3438 " fill="none" style="stroke:#FFB900;stroke-width:3.0;"/><text fill="#000000" font-family="sans-serif" font-size="14" lengthAdjust="spacing" textLength="84" x="636" y="246.6816">Scan insights</text><path d="M583,270.3672 L593,270.3672 C608,270.3672 608,240.9531 623,240.9531 L633,240.9531 " fill="none" style="stroke:#FFB900;stroke-width:3.0;"/><text fill="#000000" font-family="sans-serif" font-size="14" lengthAdjust="spacing" textLength="108" x="636" y="266.291">Glossary insights</text><path d="M583,270.3672 L593,270.3672 C608,270.3672 608,260.5625 623,260.5625 L633,260.5625 " fill="none" style="stroke:#FFB900;stroke-width:3.0;"/><text fill="#000000" font-family="sans-serif" font-size="14" lengthAdjust="spacing" textLength="135" x="636" y="285.9004">Classification insights</text><path d="M583,270.3672 L593,270.3672 C608,270.3672 608,280.1719 623,280.1719 L633,280.1719 " fill="none" style="stroke:#FFB900;stroke-width:3.0;"/><text fill="#000000" font-family="sans-serif" font-size="14" lengthAdjust="spacing" textLength="115" x="636" y="305.5098">Sensitivity insights</text><path d="M583,270.3672 L593,270.3672 C608,270.3672 608,299.7813 623,299.7813 L633,299.7813 " fill="none" style="stroke:#FFB900;stroke-width:3.0;"/><text fill="#000000" font-family="sans-serif" font-size="14" lengthAdjust="spacing" textLength="146" x="636" y="325.1191">File extensions insights</text><path d="M583,270.3672 L593,270.3672 C608,270.3672 608,319.3906 623,319.3906 L633,319.3906 " fill="none" style="stroke:#FFB900;stroke-width:3.0;"/><path d="M383,198.9648 L393,198.9648 C408,198.9648 408,270.3672 423,270.3672 L433,270.3672 " fill="none" style="stroke:#FFB900;stroke-width:3.0;"/><path d="M140,413.7539 L150,413.7539 C165,413.7539 165,198.9648 180,198.9648 L190,198.9648 " fill="none" style="stroke:#181818;stroke-width:3.0;"/><rect fill="#F4364C" height="37.6094" rx="12.5" ry="12.5" style="stroke:#F4364C;stroke-width:3.0;" width="204" x="190" y="397.7188"/><text fill="#FFFFFF" font-family="sans-serif" font-size="14" lengthAdjust="spacing" textLength="180" x="200" y="422.252">How Microsoft Purview works</text><rect fill="#F4364C" height="37.6094" rx="12.5" ry="12.5" style="stroke:#F4364C;stroke-width:3.0;" width="211" x="444" y="339.8047"/><text fill="#FFFFFF" font-family="sans-serif" font-size="14" lengthAdjust="spacing" textLength="187" x="454" y="364.3379">Loading data in the Data Map</text><text fill="#000000" font-family="sans-serif" font-size="14" lengthAdjust="spacing" textLength="86" x="708" y="344.7285">Mapping data</text><path d="M655,358.6094 L665,358.6094 C680,358.6094 680,339 695,339 L705,339 " fill="none" style="stroke:#F4364C;stroke-width:3.0;"/><text fill="#000000" font-family="sans-serif" font-size="14" lengthAdjust="spacing" textLength="91" x="708" y="364.3379">Scanning data</text><path d="M655,358.6094 L665,358.6094 C680,358.6094 680,358.6094 695,358.6094 L705,358.6094 " fill="none" style="stroke:#F4364C;stroke-width:3.0;"/><text fill="#000000" font-family="sans-serif" font-size="14" lengthAdjust="spacing" textLength="83" x="708" y="383.9473">Classification</text><path d="M655,358.6094 L665,358.6094 C680,358.6094 680,378.2188 695,378.2188 L705,378.2188 " fill="none" style="stroke:#F4364C;stroke-width:3.0;"/><path d="M394,416.5234 L404,416.5234 C419,416.5234 419,358.6094 434,358.6094 L444,358.6094 " fill="none" style="stroke:#F4364C;stroke-width:3.0;"/><rect fill="#F4364C" height="37.6094" rx="12.5" ry="12.5" style="stroke:#F4364C;stroke-width:3.0;" width="219" x="444" y="398.6328"/><text fill="#FFFFFF" font-family="sans-serif" font-size="14" lengthAdjust="spacing" textLength="195" x="454" y="423.166">Browse and search information</text><text fill="#000000" font-family="sans-serif" font-size="14" lengthAdjust="spacing" textLength="182" x="716" y="403.5566">Semantic search and browse</text><path d="M663,417.4375 L673,417.4375 C688,417.4375 688,397.8281 703,397.8281 L713,397.8281 " fill="none" style="stroke:#F4364C;stroke-width:3.0;"/><text fill="#000000" font-family="sans-serif" font-size="14" lengthAdjust="spacing" textLength="206" x="716" y="423.166">Business glossary and workflows</text><path d="M663,417.4375 L673,417.4375 C688,417.4375 688,417.4375 703,417.4375 L713,417.4375 " fill="none" style="stroke:#F4364C;stroke-width:3.0;"/><text fill="#000000" font-family="sans-serif" font-size="14" lengthAdjust="spacing" textLength="407" x="716" y="442.7754">Data lineage with sources, owners, transformations, and lifecycle</text><path d="M663,417.4375 L673,417.4375 C688,417.4375 688,437.0469 703,437.0469 L713,437.0469 " fill="none" style="stroke:#F4364C;stroke-width:3.0;"/><path d="M394,416.5234 L404,416.5234 C419,416.5234 419,417.4375 434,417.4375 L444,417.4375 " fill="none" style="stroke:#F4364C;stroke-width:3.0;"/><rect fill="#F4364C" height="37.6094" rx="12.5" ry="12.5" style="stroke:#F4364C;stroke-width:3.0;" width="109" x="444" y="456.2422"/><text fill="#FFFFFF" font-family="sans-serif" font-size="14" lengthAdjust="spacing" textLength="85" x="454" y="480.7754">Data Lineage</text><path d="M394,416.5234 L404,416.5234 C419,416.5234 419,475.0469 434,475.0469 L444,475.0469 " fill="none" style="stroke:#F4364C;stroke-width:3.0;"/><path d="M140,413.7539 L150,413.7539 C165,413.7539 165,416.5234 180,416.5234 L190,416.5234 " fill="none" style="stroke:#181818;stroke-width:3.0;"/><rect fill="#C5B4E3" height="37.6094" rx="12.5" ry="12.5" style="stroke:#C5B4E3;stroke-width:3.0;" width="218" x="190" y="612.5078"/><text fill="#000000" font-family="sans-serif" font-size="14" lengthAdjust="spacing" textLength="194" x="200" y="637.041">When to use Microsoft Purview</text><rect fill="#C5B4E3" height="37.6094" rx="12.5" ry="12.5" style="stroke:#C5B4E3;stroke-width:3.0;" width="125" x="458" y="534.0703"/><text fill="#000000" font-family="sans-serif" font-size="14" lengthAdjust="spacing" textLength="101" x="468" y="558.6035">Decision criteria</text><text fill="#000000" font-family="sans-serif" font-size="14" lengthAdjust="spacing" textLength="218" x="636" y="519.3848">No central data source registration</text><path d="M583,552.875 L593,552.875 C608,552.875 608,513.6563 623,513.6563 L633,513.6563 " fill="none" style="stroke:#C5B4E3;stroke-width:3.0;"/><text fill="#000000" font-family="sans-serif" font-size="14" lengthAdjust="spacing" textLength="264" x="636" y="538.9941">Catalog makes data sources discoverable</text><path d="M583,552.875 L593,552.875 C608,552.875 608,533.2656 623,533.2656 L633,533.2656 " fill="none" style="stroke:#C5B4E3;stroke-width:3.0;"/><text fill="#000000" font-family="sans-serif" font-size="14" lengthAdjust="spacing" textLength="200" x="636" y="558.6035">Connection string/path required</text><path d="M583,552.875 L593,552.875 C608,552.875 608,552.875 623,552.875 L633,552.875 " fill="none" style="stroke:#C5B4E3;stroke-width:3.0;"/><text fill="#000000" font-family="sans-serif" font-size="14" lengthAdjust="spacing" textLength="249" x="636" y="578.2129">Data use hidden without documentation</text><path d="M583,552.875 L593,552.875 C608,552.875 608,572.4844 623,572.4844 L633,572.4844 " fill="none" style="stroke:#C5B4E3;stroke-width:3.0;"/><text fill="#000000" font-family="sans-serif" font-size="14" lengthAdjust="spacing" textLength="257" x="636" y="597.8223">Consumed through different experiences</text><path d="M583,552.875 L593,552.875 C608,552.875 608,592.0938 623,592.0938 L633,592.0938 " fill="none" style="stroke:#C5B4E3;stroke-width:3.0;"/><path d="M408,631.3125 L418,631.3125 C433,631.3125 433,552.875 448,552.875 L458,552.875 " fill="none" style="stroke:#C5B4E3;stroke-width:3.0;"/><rect fill="#C5B4E3" height="37.6094" rx="12.5" ry="12.5" style="stroke:#C5B4E3;stroke-width:3.0;" width="102" x="458" y="632.1172"/><text fill="#000000" font-family="sans-serif" font-size="14" lengthAdjust="spacing" textLength="78" x="468" y="656.6504">Governance</text><text fill="#000000" font-family="sans-serif" font-size="14" lengthAdjust="spacing" textLength="373" x="613" y="617.4316">Task of discovering, protecting, and governing data difficult</text><path d="M560,650.9219 L570,650.9219 C585,650.9219 585,611.7031 600,611.7031 L610,611.7031 " fill="none" style="stroke:#C5B4E3;stroke-width:3.0;"/><text fill="#000000" font-family="sans-serif" font-size="14" lengthAdjust="spacing" textLength="205" x="613" y="637.041">Data stored in different locations</text><path d="M560,650.9219 L570,650.9219 C585,650.9219 585,631.3125 600,631.3125 L610,631.3125 " fill="none" style="stroke:#C5B4E3;stroke-width:3.0;"/><text fill="#000000" font-family="sans-serif" font-size="14" lengthAdjust="spacing" textLength="544" x="613" y="656.6504">Compliance with security policies, government regulations, and customer needs critical</text><path d="M560,650.9219 L570,650.9219 C585,650.9219 585,650.9219 600,650.9219 L610,650.9219 " fill="none" style="stroke:#C5B4E3;stroke-width:3.0;"/><text fill="#000000" font-family="sans-serif" font-size="14" lengthAdjust="spacing" textLength="178" x="613" y="676.2598">Sensitive information in data</text><path d="M560,650.9219 L570,650.9219 C585,650.9219 585,670.5313 600,670.5313 L610,670.5313 " fill="none" style="stroke:#C5B4E3;stroke-width:3.0;"/><text fill="#000000" font-family="sans-serif" font-size="14" lengthAdjust="spacing" textLength="221" x="613" y="695.8691">Knowing where protections needed</text><path d="M560,650.9219 L570,650.9219 C585,650.9219 585,690.1406 600,690.1406 L610,690.1406 " fill="none" style="stroke:#C5B4E3;stroke-width:3.0;"/><path d="M408,631.3125 L418,631.3125 C433,631.3125 433,650.9219 448,650.9219 L458,650.9219 " fill="none" style="stroke:#C5B4E3;stroke-width:3.0;"/><rect fill="#C5B4E3" height="37.6094" rx="12.5" ry="12.5" style="stroke:#C5B4E3;stroke-width:3.0;" width="128" x="458" y="710.5547"/><text fill="#000000" font-family="sans-serif" font-size="14" lengthAdjust="spacing" textLength="104" x="468" y="735.0879">Roles in Purview</text><text fill="#000000" font-family="sans-serif" font-size="14" lengthAdjust="spacing" textLength="167" x="639" y="715.4785">Purview Data Reader Role</text><path d="M586,729.3594 L596,729.3594 C611,729.3594 611,709.75 626,709.75 L636,709.75 " fill="none" style="stroke:#C5B4E3;stroke-width:3.0;"/><text fill="#000000" font-family="sans-serif" font-size="14" lengthAdjust="spacing" textLength="172" x="639" y="735.0879">Purvider Data Curator Role</text><path d="M586,729.3594 L596,729.3594 C611,729.3594 611,729.3594 626,729.3594 L636,729.3594 " fill="none" style="stroke:#C5B4E3;stroke-width:3.0;"/><text fill="#000000" font-family="sans-serif" font-size="14" lengthAdjust="spacing" textLength="252" x="639" y="754.6973">Purview Data Source Administrator Role</text><path d="M586,729.3594 L596,729.3594 C611,729.3594 611,748.9688 626,748.9688 L636,748.9688 " fill="none" style="stroke:#C5B4E3;stroke-width:3.0;"/><path d="M408,631.3125 L418,631.3125 C433,631.3125 433,729.3594 448,729.3594 L458,729.3594 " fill="none" style="stroke:#C5B4E3;stroke-width:3.0;"/><path d="M140,413.7539 L150,413.7539 C165,413.7539 165,631.3125 180,631.3125 L190,631.3125 " fill="none" style="stroke:#181818;stroke-width:3.0;"/><!--MD5=[505485ddedaf0a35c64c0faf021b1062]
@startmindmap
<style>
title {
        FontSize 30
        FontColor #000000
    }
mindmapDiagram {
    :depth(0) {
        BackgroundColor #091f2c
        FontColor #ffffff
        LineThickness 3.0
    }
    .topic1 {
        BackgroundColor #ffb900
        LineColor #ffb900
        LineThickness 3.0
        FontColor #000000
    }
    .topic2 {
        BackgroundColor #f4364c
        LineColor #f4364c
        LineThickness 3.0
        FontColor #ffffff
    }
    .topic3 {
        BackgroundColor #c5b4e3
        LineColor #c5b4e3
        LineThickness 3.0
        FontColor #000000
    }
    .topic4 {
        BackgroundColor #e1d3c7
        LineColor #e1d3c7
        LineThickness 3.0
        FontColor #000000
    }
    .topic5 {
        BackgroundColor #07641d
        LineColor #07641d
        LineThickness 3.0
        FontColor #ffffff
    }
}
</style>
title [[https://learn.microsoft.com/training/modules/intro-to-microsoft-purview/ Module]]: Introduction to Microsoft Purview
+ Microsoft Purview
++ What is Microsoft Purview? <<topic1>>
+++ Unified data-governance service <<topic1>>
+++ Data Map <<topic1>>
+++ Data Catalog <<topic1>>
+++ Data Estate Insights <<topic1>>
++++_ Asset insights
++++_ Scan insights
++++_ Glossary insights
++++_ Classification insights
++++_ Sensitivity insights
++++_ File extensions insights
++ How Microsoft Purview works <<topic2>>
+++ Loading data in the Data Map <<topic2>>
++++_ Mapping data
++++_ Scanning data
++++_ Classification
+++ Browse and search information <<topic2>>
++++_ Semantic search and browse
++++_ Business glossary and workflows
++++_ Data lineage with sources, owners, transformations, and lifecycle
+++ Data Lineage <<topic2>>
++ When to use Microsoft Purview <<topic3>>
+++ Decision criteria <<topic3>>
++++_ No central data source registration
++++_ Catalog makes data sources discoverable
++++_ Connection string/path required
++++_ Data use hidden without documentation
++++_ Consumed through different experiences
+++ Governance <<topic3>>
++++_ Task of discovering, protecting, and governing data difficult
++++_ Data stored in different locations
++++_ Compliance with security policies, government regulations, and customer needs critical
++++_ Sensitive information in data
++++_ Knowing where protections needed
+++ Roles in Purview <<topic3>>
++++_ Purview Data Reader Role
++++_ Purvider Data Curator Role
++++_ Purview Data Source Administrator Role
@endmindmap

PlantUML version 1.2022.7(Mon Aug 22 19:01:30 CEST 2022)
(GPL source distribution)
Java Runtime: OpenJDK Runtime Environment
JVM: OpenJDK 64-Bit Server VM
Default Encoding: Cp1252
Language: en
Country: US
--></g></svg>