<?xml version="1.0" encoding="UTF-8" standalone="no"?><svg xmlns="http://www.w3.org/2000/svg" xmlns:xlink="http://www.w3.org/1999/xlink" contentStyleType="text/css" height="712px" preserveAspectRatio="none" style="width:1037px;height:712px;background:#FFFFFF;" version="1.1" viewBox="0 0 1037 712" width="1037px" zoomAndPan="magnify"><defs/><g><rect fill="#091F2C" height="37.6094" rx="12.5" ry="12.5" style="stroke:#181818;stroke-width:3.0;" width="130" x="10" y="336.2148"/><text fill="#FFFFFF" font-family="sans-serif" font-size="14" lengthAdjust="spacing" textLength="110" x="20" y="360.748">Microsoft Purview</text><rect fill="#FFB900" height="37.6094" rx="12.5" ry="12.5" style="stroke:#FFB900;stroke-width:3.0;" width="82" x="190" y="121.4258"/><text fill="#000000" font-family="sans-serif" font-size="14" lengthAdjust="spacing" textLength="58" x="200" y="145.959">1) What?</text><rect fill="#FFB900" height="37.6094" rx="12.5" ry="12.5" style="stroke:#FFB900;stroke-width:3.0;" width="228" x="322" y="20"/><text fill="#000000" font-family="sans-serif" font-size="14" lengthAdjust="spacing" textLength="204" x="332" y="44.5332">Unified data-governance service</text><path d="M272,140.2305 L282,140.2305 C297,140.2305 297,38.8047 312,38.8047 L322,38.8047 " fill="none" style="stroke:#FFB900;stroke-width:3.0;"/><rect fill="#FFB900" height="37.6094" rx="12.5" ry="12.5" style="stroke:#FFB900;stroke-width:3.0;" width="85" x="322" y="77.6094"/><text fill="#000000" font-family="sans-serif" font-size="14" lengthAdjust="spacing" textLength="61" x="332" y="102.1426">Data Map</text><path d="M272,140.2305 L282,140.2305 C297,140.2305 297,96.4141 312,96.4141 L322,96.4141 " fill="none" style="stroke:#FFB900;stroke-width:3.0;"/><rect fill="#FFB900" height="37.6094" rx="12.5" ry="12.5" style="stroke:#FFB900;stroke-width:3.0;" width="107" x="322" y="135.2188"/><text fill="#000000" font-family="sans-serif" font-size="14" lengthAdjust="spacing" textLength="83" x="332" y="159.752">Data Catalog</text><path d="M272,140.2305 L282,140.2305 C297,140.2305 297,154.0234 312,154.0234 L322,154.0234 " fill="none" style="stroke:#FFB900;stroke-width:3.0;"/><rect fill="#FFB900" height="37.6094" rx="12.5" ry="12.5" style="stroke:#FFB900;stroke-width:3.0;" width="150" x="322" y="192.8281"/><text fill="#000000" font-family="sans-serif" font-size="14" lengthAdjust="spacing" textLength="126" x="332" y="217.3613">Data Estate Insights</text><text fill="#000000" font-family="sans-serif" font-size="14" lengthAdjust="spacing" textLength="87" x="525" y="168.3379">Asset insights</text><path d="M472,211.6328 L482,211.6328 C497,211.6328 497,162.6094 512,162.6094 L522,162.6094 " fill="none" style="stroke:#FFB900;stroke-width:3.0;"/><text fill="#000000" font-family="sans-serif" font-size="14" lengthAdjust="spacing" textLength="84" x="525" y="187.9473">Scan insights</text><path d="M472,211.6328 L482,211.6328 C497,211.6328 497,182.2188 512,182.2188 L522,182.2188 " fill="none" style="stroke:#FFB900;stroke-width:3.0;"/><text fill="#000000" font-family="sans-serif" font-size="14" lengthAdjust="spacing" textLength="108" x="525" y="207.5566">Glossary insights</text><path d="M472,211.6328 L482,211.6328 C497,211.6328 497,201.8281 512,201.8281 L522,201.8281 " fill="none" style="stroke:#FFB900;stroke-width:3.0;"/><text fill="#000000" font-family="sans-serif" font-size="14" lengthAdjust="spacing" textLength="135" x="525" y="227.166">Classification insights</text><path d="M472,211.6328 L482,211.6328 C497,211.6328 497,221.4375 512,221.4375 L522,221.4375 " fill="none" style="stroke:#FFB900;stroke-width:3.0;"/><text fill="#000000" font-family="sans-serif" font-size="14" lengthAdjust="spacing" textLength="115" x="525" y="246.7754">Sensitivity insights</text><path d="M472,211.6328 L482,211.6328 C497,211.6328 497,241.0469 512,241.0469 L522,241.0469 " fill="none" style="stroke:#FFB900;stroke-width:3.0;"/><text fill="#000000" font-family="sans-serif" font-size="14" lengthAdjust="spacing" textLength="146" x="525" y="266.3848">File extensions insights</text><path d="M472,211.6328 L482,211.6328 C497,211.6328 497,260.6563 512,260.6563 L522,260.6563 " fill="none" style="stroke:#FFB900;stroke-width:3.0;"/><path d="M272,140.2305 L282,140.2305 C297,140.2305 297,211.6328 312,211.6328 L322,211.6328 " fill="none" style="stroke:#FFB900;stroke-width:3.0;"/><path d="M140,355.0195 L150,355.0195 C165,355.0195 165,140.2305 180,140.2305 L190,140.2305 " fill="none" style="stroke:#181818;stroke-width:3.0;"/><rect fill="#F4364C" height="37.6094" rx="12.5" ry="12.5" style="stroke:#F4364C;stroke-width:3.0;" width="75" x="190" y="338.9844"/><text fill="#FFFFFF" font-family="sans-serif" font-size="14" lengthAdjust="spacing" textLength="51" x="200" y="363.5176">2) How?</text><rect fill="#F4364C" height="37.6094" rx="12.5" ry="12.5" style="stroke:#F4364C;stroke-width:3.0;" width="211" x="315" y="281.0703"/><text fill="#FFFFFF" font-family="sans-serif" font-size="14" lengthAdjust="spacing" textLength="187" x="325" y="305.6035">Loading data in the Data Map</text><text fill="#000000" font-family="sans-serif" font-size="14" lengthAdjust="spacing" textLength="86" x="579" y="285.9941">Mapping data</text><path d="M526,299.875 L536,299.875 C551,299.875 551,280.2656 566,280.2656 L576,280.2656 " fill="none" style="stroke:#F4364C;stroke-width:3.0;"/><text fill="#000000" font-family="sans-serif" font-size="14" lengthAdjust="spacing" textLength="91" x="579" y="305.6035">Scanning data</text><path d="M526,299.875 L536,299.875 C551,299.875 551,299.875 566,299.875 L576,299.875 " fill="none" style="stroke:#F4364C;stroke-width:3.0;"/><text fill="#000000" font-family="sans-serif" font-size="14" lengthAdjust="spacing" textLength="83" x="579" y="325.2129">Classification</text><path d="M526,299.875 L536,299.875 C551,299.875 551,319.4844 566,319.4844 L576,319.4844 " fill="none" style="stroke:#F4364C;stroke-width:3.0;"/><path d="M265,357.7891 L275,357.7891 C290,357.7891 290,299.875 305,299.875 L315,299.875 " fill="none" style="stroke:#F4364C;stroke-width:3.0;"/><rect fill="#F4364C" height="37.6094" rx="12.5" ry="12.5" style="stroke:#F4364C;stroke-width:3.0;" width="219" x="315" y="339.8984"/><text fill="#FFFFFF" font-family="sans-serif" font-size="14" lengthAdjust="spacing" textLength="195" x="325" y="364.4316">Browse and search information</text><text fill="#000000" font-family="sans-serif" font-size="14" lengthAdjust="spacing" textLength="182" x="587" y="344.8223">Semantic search and browse</text><path d="M534,358.7031 L544,358.7031 C559,358.7031 559,339.0938 574,339.0938 L584,339.0938 " fill="none" style="stroke:#F4364C;stroke-width:3.0;"/><text fill="#000000" font-family="sans-serif" font-size="14" lengthAdjust="spacing" textLength="206" x="587" y="364.4316">Business glossary and workflows</text><path d="M534,358.7031 L544,358.7031 C559,358.7031 559,358.7031 574,358.7031 L584,358.7031 " fill="none" style="stroke:#F4364C;stroke-width:3.0;"/><text fill="#000000" font-family="sans-serif" font-size="14" lengthAdjust="spacing" textLength="407" x="587" y="384.041">Data lineage with sources, owners, transformations, and lifecycle</text><path d="M534,358.7031 L544,358.7031 C559,358.7031 559,378.3125 574,378.3125 L584,378.3125 " fill="none" style="stroke:#F4364C;stroke-width:3.0;"/><path d="M265,357.7891 L275,357.7891 C290,357.7891 290,358.7031 305,358.7031 L315,358.7031 " fill="none" style="stroke:#F4364C;stroke-width:3.0;"/><rect fill="#F4364C" height="37.6094" rx="12.5" ry="12.5" style="stroke:#F4364C;stroke-width:3.0;" width="109" x="315" y="397.5078"/><text fill="#FFFFFF" font-family="sans-serif" font-size="14" lengthAdjust="spacing" textLength="85" x="325" y="422.041">Data Lineage</text><path d="M265,357.7891 L275,357.7891 C290,357.7891 290,416.3125 305,416.3125 L315,416.3125 " fill="none" style="stroke:#F4364C;stroke-width:3.0;"/><path d="M140,355.0195 L150,355.0195 C165,355.0195 165,357.7891 180,357.7891 L190,357.7891 " fill="none" style="stroke:#181818;stroke-width:3.0;"/><rect fill="#C5B4E3" height="37.6094" rx="12.5" ry="12.5" style="stroke:#C5B4E3;stroke-width:3.0;" width="86" x="190" y="553.7734"/><text fill="#000000" font-family="sans-serif" font-size="14" lengthAdjust="spacing" textLength="62" x="200" y="578.3066">3) When?</text><rect fill="#C5B4E3" height="37.6094" rx="12.5" ry="12.5" style="stroke:#C5B4E3;stroke-width:3.0;" width="125" x="326" y="475.3359"/><text fill="#000000" font-family="sans-serif" font-size="14" lengthAdjust="spacing" textLength="101" x="336" y="499.8691">Decision criteria</text><text fill="#000000" font-family="sans-serif" font-size="14" lengthAdjust="spacing" textLength="218" x="504" y="460.6504">No central data source registration</text><path d="M451,494.1406 L461,494.1406 C476,494.1406 476,454.9219 491,454.9219 L501,454.9219 " fill="none" style="stroke:#C5B4E3;stroke-width:3.0;"/><text fill="#000000" font-family="sans-serif" font-size="14" lengthAdjust="spacing" textLength="264" x="504" y="480.2598">Catalog makes data sources discoverable</text><path d="M451,494.1406 L461,494.1406 C476,494.1406 476,474.5313 491,474.5313 L501,474.5313 " fill="none" style="stroke:#C5B4E3;stroke-width:3.0;"/><text fill="#000000" font-family="sans-serif" font-size="14" lengthAdjust="spacing" textLength="200" x="504" y="499.8691">Connection string/path required</text><path d="M451,494.1406 L461,494.1406 C476,494.1406 476,494.1406 491,494.1406 L501,494.1406 " fill="none" style="stroke:#C5B4E3;stroke-width:3.0;"/><text fill="#000000" font-family="sans-serif" font-size="14" lengthAdjust="spacing" textLength="249" x="504" y="519.4785">Data use hidden without documentation</text><path d="M451,494.1406 L461,494.1406 C476,494.1406 476,513.75 491,513.75 L501,513.75 " fill="none" style="stroke:#C5B4E3;stroke-width:3.0;"/><text fill="#000000" font-family="sans-serif" font-size="14" lengthAdjust="spacing" textLength="257" x="504" y="539.0879">Consumed through different experiences</text><path d="M451,494.1406 L461,494.1406 C476,494.1406 476,533.3594 491,533.3594 L501,533.3594 " fill="none" style="stroke:#C5B4E3;stroke-width:3.0;"/><path d="M276,572.5781 L286,572.5781 C301,572.5781 301,494.1406 316,494.1406 L326,494.1406 " fill="none" style="stroke:#C5B4E3;stroke-width:3.0;"/><rect fill="#C5B4E3" height="37.6094" rx="12.5" ry="12.5" style="stroke:#C5B4E3;stroke-width:3.0;" width="102" x="326" y="573.3828"/><text fill="#000000" font-family="sans-serif" font-size="14" lengthAdjust="spacing" textLength="78" x="336" y="597.916">Governance</text><text fill="#000000" font-family="sans-serif" font-size="14" lengthAdjust="spacing" textLength="373" x="481" y="558.6973">Task of discovering, protecting, and governing data difficult</text><path d="M428,592.1875 L438,592.1875 C453,592.1875 453,552.9688 468,552.9688 L478,552.9688 " fill="none" style="stroke:#C5B4E3;stroke-width:3.0;"/><text fill="#000000" font-family="sans-serif" font-size="14" lengthAdjust="spacing" textLength="205" x="481" y="578.3066">Data stored in different locations</text><path d="M428,592.1875 L438,592.1875 C453,592.1875 453,572.5781 468,572.5781 L478,572.5781 " fill="none" style="stroke:#C5B4E3;stroke-width:3.0;"/><text fill="#000000" font-family="sans-serif" font-size="14" lengthAdjust="spacing" textLength="544" x="481" y="597.916">Compliance with security policies, government regulations, and customer needs critical</text><path d="M428,592.1875 L438,592.1875 C453,592.1875 453,592.1875 468,592.1875 L478,592.1875 " fill="none" style="stroke:#C5B4E3;stroke-width:3.0;"/><text fill="#000000" font-family="sans-serif" font-size="14" lengthAdjust="spacing" textLength="178" x="481" y="617.5254">Sensitive information in data</text><path d="M428,592.1875 L438,592.1875 C453,592.1875 453,611.7969 468,611.7969 L478,611.7969 " fill="none" style="stroke:#C5B4E3;stroke-width:3.0;"/><text fill="#000000" font-family="sans-serif" font-size="14" lengthAdjust="spacing" textLength="221" x="481" y="637.1348">Knowing where protections needed</text><path d="M428,592.1875 L438,592.1875 C453,592.1875 453,631.4063 468,631.4063 L478,631.4063 " fill="none" style="stroke:#C5B4E3;stroke-width:3.0;"/><path d="M276,572.5781 L286,572.5781 C301,572.5781 301,592.1875 316,592.1875 L326,592.1875 " fill="none" style="stroke:#C5B4E3;stroke-width:3.0;"/><rect fill="#C5B4E3" height="37.6094" rx="12.5" ry="12.5" style="stroke:#C5B4E3;stroke-width:3.0;" width="128" x="326" y="651.8203"/><text fill="#000000" font-family="sans-serif" font-size="14" lengthAdjust="spacing" textLength="104" x="336" y="676.3535">Roles in Purview</text><text fill="#000000" font-family="sans-serif" font-size="14" lengthAdjust="spacing" textLength="167" x="507" y="656.7441">Purview Data Reader Role</text><path d="M454,670.625 L464,670.625 C479,670.625 479,651.0156 494,651.0156 L504,651.0156 " fill="none" style="stroke:#C5B4E3;stroke-width:3.0;"/><text fill="#000000" font-family="sans-serif" font-size="14" lengthAdjust="spacing" textLength="172" x="507" y="676.3535">Purvider Data Curator Role</text><path d="M454,670.625 L464,670.625 C479,670.625 479,670.625 494,670.625 L504,670.625 " fill="none" style="stroke:#C5B4E3;stroke-width:3.0;"/><text fill="#000000" font-family="sans-serif" font-size="14" lengthAdjust="spacing" textLength="252" x="507" y="695.9629">Purview Data Source Administrator Role</text><path d="M454,670.625 L464,670.625 C479,670.625 479,690.2344 494,690.2344 L504,690.2344 " fill="none" style="stroke:#C5B4E3;stroke-width:3.0;"/><path d="M276,572.5781 L286,572.5781 C301,572.5781 301,670.625 316,670.625 L326,670.625 " fill="none" style="stroke:#C5B4E3;stroke-width:3.0;"/><path d="M140,355.0195 L150,355.0195 C165,355.0195 165,572.5781 180,572.5781 L190,572.5781 " fill="none" style="stroke:#181818;stroke-width:3.0;"/><!--MD5=[38f967e15f96779325352c448c3f002f]
@startmindmap
<style>
:depth(0) {
    BackgroundColor #091f2c
    FontColor #ffffff
    LineThickness 3.0
}
.topic1 {
    BackgroundColor #ffb900
    LineColor #ffb900
    LineThickness 3.0
    FontColor #000000
}
.topic2 {
    BackgroundColor #f4364c
    LineColor #f4364c
    LineThickness 3.0
    FontColor #ffffff
}
.topic3 {
    BackgroundColor #c5b4e3
    LineColor #c5b4e3
    LineThickness 3.0
    FontColor #000000
}
.topic4 {
    BackgroundColor #e1d3c7
    LineColor #e1d3c7
    LineThickness 3.0
    FontColor #000000
}
.topic5 {
    BackgroundColor #07641d
    LineColor #07641d
    LineThickness 3.0
    FontColor #ffffff
}
</style>
+ Microsoft Purview
++ 1) What? <<topic1>>
+++ Unified data-governance service <<topic1>>
+++ Data Map <<topic1>>
+++ Data Catalog <<topic1>>
+++ Data Estate Insights <<topic1>>
++++_ Asset insights
++++_ Scan insights
++++_ Glossary insights
++++_ Classification insights
++++_ Sensitivity insights
++++_ File extensions insights
++ 2) How? <<topic2>>
+++ Loading data in the Data Map <<topic2>>
++++_ Mapping data
++++_ Scanning data
++++_ Classification
+++ Browse and search information <<topic2>>
++++_ Semantic search and browse
++++_ Business glossary and workflows
++++_ Data lineage with sources, owners, transformations, and lifecycle
+++ Data Lineage <<topic2>>
++ 3) When? <<topic3>>
+++ Decision criteria <<topic3>>
++++_ No central data source registration
++++_ Catalog makes data sources discoverable
++++_ Connection string/path required
++++_ Data use hidden without documentation
++++_ Consumed through different experiences
+++ Governance <<topic3>>
++++_ Task of discovering, protecting, and governing data difficult
++++_ Data stored in different locations
++++_ Compliance with security policies, government regulations, and customer needs critical
++++_ Sensitive information in data
++++_ Knowing where protections needed
+++ Roles in Purview <<topic3>>
++++_ Purview Data Reader Role
++++_ Purvider Data Curator Role
++++_ Purview Data Source Administrator Role
@endmindmap

PlantUML version 1.2022.7(Mon Aug 22 19:01:30 CEST 2022)
(GPL source distribution)
Java Runtime: OpenJDK Runtime Environment
JVM: OpenJDK 64-Bit Server VM
Default Encoding: Cp1252
Language: en
Country: US
--></g></svg>