<?xml version="1.0" encoding="UTF-8" standalone="no"?><svg xmlns="http://www.w3.org/2000/svg" xmlns:xlink="http://www.w3.org/1999/xlink" contentStyleType="text/css" height="369px" preserveAspectRatio="none" style="width:1079px;height:369px;background:#FFFFFF;" version="1.1" viewBox="0 0 1079 369" width="1079px" zoomAndPan="magnify"><defs/><g><rect fill="#091F2C" height="37.6094" rx="12.5" ry="12.5" style="stroke:#181818;stroke-width:3.0;" width="130" x="10" y="164.9375"/><text fill="#FFFFFF" font-family="sans-serif" font-size="14" lengthAdjust="spacing" textLength="110" x="20" y="189.4707">Microsoft Purview</text><rect fill="#FFB900" height="37.6094" rx="12.5" ry="12.5" style="stroke:#FFB900;stroke-width:3.0;" width="294" x="190" y="20.6094"/><text fill="#000000" font-family="sans-serif" font-size="14" lengthAdjust="spacing" textLength="270" x="200" y="45.1426">1) Catalog Synapse data assets in Purview</text><text fill="#000000" font-family="sans-serif" font-size="14" lengthAdjust="spacing" textLength="216" x="537" y="25.5332">Configure data access for Purview</text><path d="M484,39.4141 L494,39.4141 C509,39.4141 509,19.8047 524,19.8047 L534,19.8047 " fill="none" style="stroke:#FFB900;stroke-width:3.0;"/><text fill="#000000" font-family="sans-serif" font-size="14" lengthAdjust="spacing" textLength="201" x="537" y="45.1426">Register and scan data sources</text><path d="M484,39.4141 L494,39.4141 C509,39.4141 509,39.4141 524,39.4141 L534,39.4141 " fill="none" style="stroke:#FFB900;stroke-width:3.0;"/><text fill="#000000" font-family="sans-serif" font-size="14" lengthAdjust="spacing" textLength="255" x="537" y="64.752">View and manage cataloged data assets</text><path d="M484,39.4141 L494,39.4141 C509,39.4141 509,59.0234 524,59.0234 L534,59.0234 " fill="none" style="stroke:#FFB900;stroke-width:3.0;"/><path d="M140,183.7422 L150,183.7422 C165,183.7422 165,39.4141 180,39.4141 L190,39.4141 " fill="none" style="stroke:#181818;stroke-width:3.0;"/><rect fill="#F4364C" height="37.6094" rx="12.5" ry="12.5" style="stroke:#F4364C;stroke-width:3.0;" width="305" x="190" y="107.6328"/><text fill="#FFFFFF" font-family="sans-serif" font-size="14" lengthAdjust="spacing" textLength="281" x="200" y="132.166">2) Connect Purview to a Synapse workspace</text><rect fill="#F4364C" height="37.6094" rx="12.5" ry="12.5" style="stroke:#F4364C;stroke-width:3.0;" width="60" x="545" y="78.8281"/><text fill="#FFFFFF" font-family="sans-serif" font-size="14" lengthAdjust="spacing" textLength="36" x="555" y="103.3613">Why?</text><text fill="#000000" font-family="sans-serif" font-size="14" lengthAdjust="spacing" textLength="409" x="658" y="84.752">Search the Purview catalog in the Synapse Studio user interface.</text><path d="M605,97.6328 L615,97.6328 C630,97.6328 630,79.0234 645,79.0234 L655,79.0234 " fill="none" style="stroke:#F4364C;stroke-width:3.0;"/><text fill="#000000" font-family="sans-serif" font-size="14" lengthAdjust="spacing" textLength="305" x="658" y="104.3613">Push details of data pipeline activities to Purview</text><text fill="#000000" font-family="sans-serif" font-size="14" lengthAdjust="spacing" textLength="260" x="658" y="121.9707">in order to track data lineage information.</text><path d="M605,97.6328 L615,97.6328 C630,97.6328 630,107.4375 645,107.4375 L655,107.4375 " fill="none" style="stroke:#F4364C;stroke-width:3.0;"/><path d="M495,126.4375 L505,126.4375 C520,126.4375 520,97.6328 535,97.6328 L545,97.6328 " fill="none" style="stroke:#F4364C;stroke-width:3.0;"/><rect fill="#F4364C" height="37.6094" rx="12.5" ry="12.5" style="stroke:#F4364C;stroke-width:3.0;" width="171" x="545" y="136.4375"/><text fill="#FFFFFF" font-family="sans-serif" font-size="14" lengthAdjust="spacing" textLength="147" x="555" y="160.9707">Security considerations</text><text fill="#000000" font-family="sans-serif" font-size="14" lengthAdjust="spacing" textLength="254" x="769" y="142.3613">Requires Collection Admin access to the</text><text fill="#000000" font-family="sans-serif" font-size="14" lengthAdjust="spacing" textLength="205" x="769" y="159.9707">Purview account's root collection</text><path d="M716,155.2422 L726,155.2422 C741,155.2422 741,145.4375 756,145.4375 L766,145.4375 " fill="none" style="stroke:#F4364C;stroke-width:3.0;"/><text fill="#000000" font-family="sans-serif" font-size="14" lengthAdjust="spacing" textLength="277" x="769" y="179.5801">Managed identity will become a data curator</text><path d="M716,155.2422 L726,155.2422 C741,155.2422 741,173.8516 756,173.8516 L766,173.8516 " fill="none" style="stroke:#F4364C;stroke-width:3.0;"/><path d="M495,126.4375 L505,126.4375 C520,126.4375 520,155.2422 535,155.2422 L545,155.2422 " fill="none" style="stroke:#F4364C;stroke-width:3.0;"/><path d="M140,183.7422 L150,183.7422 C165,183.7422 165,126.4375 180,126.4375 L190,126.4375 " fill="none" style="stroke:#181818;stroke-width:3.0;"/><rect fill="#C5B4E3" height="37.6094" rx="12.5" ry="12.5" style="stroke:#C5B4E3;stroke-width:3.0;" width="319" x="190" y="194.0469"/><text fill="#000000" font-family="sans-serif" font-size="14" lengthAdjust="spacing" textLength="295" x="200" y="218.5801">3) Search a Purview catalog in Synapse Studio</text><path d="M140,183.7422 L150,183.7422 C165,183.7422 165,212.8516 180,212.8516 L190,212.8516 " fill="none" style="stroke:#181818;stroke-width:3.0;"/><rect fill="#E1D3C7" height="37.6094" rx="12.5" ry="12.5" style="stroke:#E1D3C7;stroke-width:3.0;" width="234" x="190" y="280.7656"/><text fill="#000000" font-family="sans-serif" font-size="14" lengthAdjust="spacing" textLength="210" x="200" y="305.2988">4) Track data lineage in pipelines</text><rect fill="#E1D3C7" height="37.6094" rx="12.5" ry="12.5" style="stroke:#E1D3C7;stroke-width:3.0;" width="57" x="474" y="251.6563"/><text fill="#000000" font-family="sans-serif" font-size="14" lengthAdjust="spacing" textLength="33" x="484" y="276.1895">From</text><text fill="#000000" font-family="sans-serif" font-size="14" lengthAdjust="spacing" textLength="143" x="584" y="266.3848">The Copy Data activity</text><path d="M531,270.4609 L541,270.4609 C556,270.4609 556,260.6563 571,260.6563 L581,260.6563 " fill="none" style="stroke:#E1D3C7;stroke-width:3.0;"/><text fill="#000000" font-family="sans-serif" font-size="14" lengthAdjust="spacing" textLength="139" x="584" y="285.9941">The Data Flow activity</text><path d="M531,270.4609 L541,270.4609 C556,270.4609 556,280.2656 571,280.2656 L581,280.2656 " fill="none" style="stroke:#E1D3C7;stroke-width:3.0;"/><path d="M424,299.5703 L434,299.5703 C449,299.5703 449,270.4609 464,270.4609 L474,270.4609 " fill="none" style="stroke:#E1D3C7;stroke-width:3.0;"/><rect fill="#E1D3C7" height="37.6094" rx="12.5" ry="12.5" style="stroke:#E1D3C7;stroke-width:3.0;" width="204" x="474" y="309.2656"/><text fill="#000000" font-family="sans-serif" font-size="14" lengthAdjust="spacing" textLength="180" x="484" y="333.7988">The assets recorded include</text><text fill="#000000" font-family="sans-serif" font-size="14" lengthAdjust="spacing" textLength="275" x="731" y="314.1895">The source from which the data is extracted</text><path d="M678,328.0703 L688,328.0703 C703,328.0703 703,308.4609 718,308.4609 L728,308.4609 " fill="none" style="stroke:#E1D3C7;stroke-width:3.0;"/><text fill="#000000" font-family="sans-serif" font-size="14" lengthAdjust="spacing" textLength="232" x="731" y="333.7988">The activity used to transfer the data</text><path d="M678,328.0703 L688,328.0703 C703,328.0703 703,328.0703 718,328.0703 L728,328.0703 " fill="none" style="stroke:#E1D3C7;stroke-width:3.0;"/><text fill="#000000" font-family="sans-serif" font-size="14" lengthAdjust="spacing" textLength="254" x="731" y="353.4082">The destination where the data is stored</text><path d="M678,328.0703 L688,328.0703 C703,328.0703 703,347.6797 718,347.6797 L728,347.6797 " fill="none" style="stroke:#E1D3C7;stroke-width:3.0;"/><path d="M424,299.5703 L434,299.5703 C449,299.5703 449,328.0703 464,328.0703 L474,328.0703 " fill="none" style="stroke:#E1D3C7;stroke-width:3.0;"/><path d="M140,183.7422 L150,183.7422 C165,183.7422 165,299.5703 180,299.5703 L190,299.5703 " fill="none" style="stroke:#181818;stroke-width:3.0;"/><!--MD5=[41193bc143df86052322343fd36153f8]
@startmindmap
<style>
:depth(0) {
    BackgroundColor #091f2c
    FontColor #ffffff
    LineThickness 3.0
}
.topic1 {
    BackgroundColor #ffb900
    LineColor #ffb900
    LineThickness 3.0
    FontColor #000000
}
.topic2 {
    BackgroundColor #f4364c
    LineColor #f4364c
    LineThickness 3.0
    FontColor #ffffff
}
.topic3 {
    BackgroundColor #c5b4e3
    LineColor #c5b4e3
    LineThickness 3.0
    FontColor #000000
}
.topic4 {
    BackgroundColor #e1d3c7
    LineColor #e1d3c7
    LineThickness 3.0
    FontColor #000000
}
.topic5 {
    BackgroundColor #07641d
    LineColor #07641d
    LineThickness 3.0
    FontColor #ffffff
}
</style>
+ Microsoft Purview
++ 1) Catalog Synapse data assets in Purview <<topic1>>
+++_ Configure data access for Purview
+++_ Register and scan data sources
+++_ View and manage cataloged data assets
++ 2) Connect Purview to a Synapse workspace <<topic2>>
+++ Why? <<topic2>>
++++_ Search the Purview catalog in the Synapse Studio user interface.
++++_ Push details of data pipeline activities to Purview\nin order to track data lineage information.
+++ Security considerations <<topic2>>
++++_ Requires Collection Admin access to the\nPurview account's root collection
++++_ Managed identity will become a data curator
++ 3) Search a Purview catalog in Synapse Studio <<topic3>>
++ 4) Track data lineage in pipelines <<topic4>>
+++ From <<topic4>>
++++_ The Copy Data activity
++++_ The Data Flow activity
+++ The assets recorded include <<topic4>>
++++_ The source from which the data is extracted
++++_ The activity used to transfer the data
++++_ The destination where the data is stored
@endmindmap

PlantUML version 1.2022.7(Mon Aug 22 19:01:30 CEST 2022)
(GPL source distribution)
Java Runtime: OpenJDK Runtime Environment
JVM: OpenJDK 64-Bit Server VM
Default Encoding: Cp1252
Language: en
Country: US
--></g></svg>