<?xml version="1.0" encoding="UTF-8" standalone="no"?><svg xmlns="http://www.w3.org/2000/svg" xmlns:xlink="http://www.w3.org/1999/xlink" contentStyleType="text/css" height="399px" preserveAspectRatio="none" style="width:1418px;height:399px;background:#FFFFFF;" version="1.1" viewBox="0 0 1418 399" width="1418px" zoomAndPan="magnify"><defs/><g><rect fill="none" height="47.7344" id="_title" style="stroke:none;stroke-width:1.0;" width="950" x="232.5" y="15"/><a href="https://learn.microsoft.com/training/modules/integrate-microsoft-purview-azure-synapse-analytics/" target="_top" title="https://learn.microsoft.com/training/modules/integrate-microsoft-purview-azure-synapse-analytics/" xlink:actuate="onRequest" xlink:href="https://learn.microsoft.com/training/modules/integrate-microsoft-purview-azure-synapse-analytics/" xlink:show="new" xlink:title="https://learn.microsoft.com/training/modules/integrate-microsoft-purview-azure-synapse-analytics/" xlink:type="simple"><text fill="#0000FF" font-family="sans-serif" font-size="30" font-weight="bold" lengthAdjust="spacing" text-decoration="underline" textLength="104" x="237.5" y="51.1426">Module</text></a><text fill="#000000" font-family="sans-serif" font-size="30" font-weight="bold" lengthAdjust="spacing" textLength="836" x="341.5" y="51.1426">: Integrate Microsoft Purview and Azure Synapse Analytics</text><rect fill="#091F2C" height="37.6094" rx="12.5" ry="12.5" style="stroke:#181818;stroke-width:3.0;" width="130" x="10" y="209.2695"/><text fill="#FFFFFF" font-family="sans-serif" font-size="14" lengthAdjust="spacing" textLength="110" x="20" y="233.8027">Microsoft Purview</text><rect fill="#FFB900" height="37.6094" rx="12.5" ry="12.5" style="stroke:#FFB900;stroke-width:3.0;" width="438" x="190" y="79.3438"/><text fill="#000000" font-family="sans-serif" font-size="14" lengthAdjust="spacing" textLength="414" x="200" y="103.877">Catalog Azure Synapse Analytics data assets in Microsoft Purview</text><text fill="#000000" font-family="sans-serif" font-size="14" lengthAdjust="spacing" textLength="277" x="681" y="84.2676">Configure data access for Microsoft Purview</text><path d="M628,98.1484 L638,98.1484 C653,98.1484 653,78.5391 668,78.5391 L678,78.5391 " fill="none" style="stroke:#FFB900;stroke-width:3.0;"/><text fill="#000000" font-family="sans-serif" font-size="14" lengthAdjust="spacing" textLength="201" x="681" y="103.877">Register and scan data sources</text><path d="M628,98.1484 L638,98.1484 C653,98.1484 653,98.1484 668,98.1484 L678,98.1484 " fill="none" style="stroke:#FFB900;stroke-width:3.0;"/><text fill="#000000" font-family="sans-serif" font-size="14" lengthAdjust="spacing" textLength="255" x="681" y="123.4863">View and manage cataloged data assets</text><path d="M628,98.1484 L638,98.1484 C653,98.1484 653,117.7578 668,117.7578 L678,117.7578 " fill="none" style="stroke:#FFB900;stroke-width:3.0;"/><path d="M140,228.0742 L150,228.0742 C165,228.0742 165,98.1484 180,98.1484 L190,98.1484 " fill="none" style="stroke:#181818;stroke-width:3.0;"/><rect fill="#F4364C" height="37.6094" rx="12.5" ry="12.5" style="stroke:#F4364C;stroke-width:3.0;" width="435" x="190" y="166.3672"/><text fill="#FFFFFF" font-family="sans-serif" font-size="14" lengthAdjust="spacing" textLength="411" x="200" y="190.9004">Connect Azure purview to an Azure Synapse Analytics workspace</text><rect fill="#F4364C" height="37.6094" rx="12.5" ry="12.5" style="stroke:#F4364C;stroke-width:3.0;" width="60" x="675" y="137.5625"/><text fill="#FFFFFF" font-family="sans-serif" font-size="14" lengthAdjust="spacing" textLength="36" x="685" y="162.0957">Why?</text><text fill="#000000" font-family="sans-serif" font-size="14" lengthAdjust="spacing" textLength="409" x="788" y="152.291">Search the Purview catalog in the Synapse Studio user interface.</text><path d="M735,156.3672 L745,156.3672 C760,156.3672 760,146.5625 775,146.5625 L785,146.5625 " fill="none" style="stroke:#F4364C;stroke-width:3.0;"/><text fill="#000000" font-family="sans-serif" font-size="14" lengthAdjust="spacing" textLength="569" x="788" y="171.9004">Push details of data pipeline activities to Purview in order to track data lineage information.</text><path d="M735,156.3672 L745,156.3672 C760,156.3672 760,166.1719 775,166.1719 L785,166.1719 " fill="none" style="stroke:#F4364C;stroke-width:3.0;"/><path d="M625,185.1719 L635,185.1719 C650,185.1719 650,156.3672 665,156.3672 L675,156.3672 " fill="none" style="stroke:#F4364C;stroke-width:3.0;"/><rect fill="#F4364C" height="37.6094" rx="12.5" ry="12.5" style="stroke:#F4364C;stroke-width:3.0;" width="171" x="675" y="195.1719"/><text fill="#FFFFFF" font-family="sans-serif" font-size="14" lengthAdjust="spacing" textLength="147" x="685" y="219.7051">Security considerations</text><text fill="#000000" font-family="sans-serif" font-size="14" lengthAdjust="spacing" textLength="507" x="899" y="209.9004">Requires Collection Administrator access to the Purview account's root collection</text><path d="M846,213.9766 L856,213.9766 C871,213.9766 871,204.1719 886,204.1719 L896,204.1719 " fill="none" style="stroke:#F4364C;stroke-width:3.0;"/><text fill="#000000" font-family="sans-serif" font-size="14" lengthAdjust="spacing" textLength="277" x="899" y="229.5098">Managed identity will become a data curator</text><path d="M846,213.9766 L856,213.9766 C871,213.9766 871,223.7813 886,223.7813 L896,223.7813 " fill="none" style="stroke:#F4364C;stroke-width:3.0;"/><path d="M625,185.1719 L635,185.1719 C650,185.1719 650,213.9766 665,213.9766 L675,213.9766 " fill="none" style="stroke:#F4364C;stroke-width:3.0;"/><path d="M140,228.0742 L150,228.0742 C165,228.0742 165,185.1719 180,185.1719 L190,185.1719 " fill="none" style="stroke:#181818;stroke-width:3.0;"/><rect fill="#C5B4E3" height="37.6094" rx="12.5" ry="12.5" style="stroke:#C5B4E3;stroke-width:3.0;" width="302" x="190" y="223.9766"/><text fill="#000000" font-family="sans-serif" font-size="14" lengthAdjust="spacing" textLength="278" x="200" y="248.5098">Search a Purview catalog in Synapse Studio</text><path d="M140,228.0742 L150,228.0742 C165,228.0742 165,242.7813 180,242.7813 L190,242.7813 " fill="none" style="stroke:#181818;stroke-width:3.0;"/><rect fill="#E1D3C7" height="37.6094" rx="12.5" ry="12.5" style="stroke:#E1D3C7;stroke-width:3.0;" width="217" x="190" y="310.6953"/><text fill="#000000" font-family="sans-serif" font-size="14" lengthAdjust="spacing" textLength="193" x="200" y="335.2285">Track data lineage in pipelines</text><rect fill="#E1D3C7" height="37.6094" rx="12.5" ry="12.5" style="stroke:#E1D3C7;stroke-width:3.0;" width="57" x="457" y="281.5859"/><text fill="#000000" font-family="sans-serif" font-size="14" lengthAdjust="spacing" textLength="33" x="467" y="306.1191">From</text><text fill="#000000" font-family="sans-serif" font-size="14" lengthAdjust="spacing" textLength="143" x="567" y="296.3145">The Copy Data activity</text><path d="M514,300.3906 L524,300.3906 C539,300.3906 539,290.5859 554,290.5859 L564,290.5859 " fill="none" style="stroke:#E1D3C7;stroke-width:3.0;"/><text fill="#000000" font-family="sans-serif" font-size="14" lengthAdjust="spacing" textLength="139" x="567" y="315.9238">The Data Flow activity</text><path d="M514,300.3906 L524,300.3906 C539,300.3906 539,310.1953 554,310.1953 L564,310.1953 " fill="none" style="stroke:#E1D3C7;stroke-width:3.0;"/><path d="M407,329.5 L417,329.5 C432,329.5 432,300.3906 447,300.3906 L457,300.3906 " fill="none" style="stroke:#E1D3C7;stroke-width:3.0;"/><rect fill="#E1D3C7" height="37.6094" rx="12.5" ry="12.5" style="stroke:#E1D3C7;stroke-width:3.0;" width="204" x="457" y="339.1953"/><text fill="#000000" font-family="sans-serif" font-size="14" lengthAdjust="spacing" textLength="180" x="467" y="363.7285">The assets recorded include</text><text fill="#000000" font-family="sans-serif" font-size="14" lengthAdjust="spacing" textLength="275" x="714" y="344.1191">The source from which the data is extracted</text><path d="M661,358 L671,358 C686,358 686,338.3906 701,338.3906 L711,338.3906 " fill="none" style="stroke:#E1D3C7;stroke-width:3.0;"/><text fill="#000000" font-family="sans-serif" font-size="14" lengthAdjust="spacing" textLength="232" x="714" y="363.7285">The activity used to transfer the data</text><path d="M661,358 L671,358 C686,358 686,358 701,358 L711,358 " fill="none" style="stroke:#E1D3C7;stroke-width:3.0;"/><text fill="#000000" font-family="sans-serif" font-size="14" lengthAdjust="spacing" textLength="254" x="714" y="383.3379">The destination where the data is stored</text><path d="M661,358 L671,358 C686,358 686,377.6094 701,377.6094 L711,377.6094 " fill="none" style="stroke:#E1D3C7;stroke-width:3.0;"/><path d="M407,329.5 L417,329.5 C432,329.5 432,358 447,358 L457,358 " fill="none" style="stroke:#E1D3C7;stroke-width:3.0;"/><path d="M140,228.0742 L150,228.0742 C165,228.0742 165,329.5 180,329.5 L190,329.5 " fill="none" style="stroke:#181818;stroke-width:3.0;"/><!--MD5=[5d7af26a4ebaee75de2c88975c32b2ea]
@startmindmap
<style>
title {
        FontSize 30
        FontColor #000000
    }
mindmapDiagram {
    :depth(0) {
        BackgroundColor #091f2c
        FontColor #ffffff
        LineThickness 3.0
    }
    .topic1 {
        BackgroundColor #ffb900
        LineColor #ffb900
        LineThickness 3.0
        FontColor #000000
    }
    .topic2 {
        BackgroundColor #f4364c
        LineColor #f4364c
        LineThickness 3.0
        FontColor #ffffff
    }
    .topic3 {
        BackgroundColor #c5b4e3
        LineColor #c5b4e3
        LineThickness 3.0
        FontColor #000000
    }
    .topic4 {
        BackgroundColor #e1d3c7
        LineColor #e1d3c7
        LineThickness 3.0
        FontColor #000000
    }
    .topic5 {
        BackgroundColor #07641d
        LineColor #07641d
        LineThickness 3.0
        FontColor #ffffff
    }
}
</style>
title [[https://learn.microsoft.com/training/modules/integrate-microsoft-purview-azure-synapse-analytics/ Module]]: Integrate Microsoft Purview and Azure Synapse Analytics
+ Microsoft Purview
++ Catalog Azure Synapse Analytics data assets in Microsoft Purview <<topic1>>
+++_ Configure data access for Microsoft Purview
+++_ Register and scan data sources
+++_ View and manage cataloged data assets
++ Connect Azure purview to an Azure Synapse Analytics workspace <<topic2>>
+++ Why? <<topic2>>
++++_ Search the Purview catalog in the Synapse Studio user interface.
++++_ Push details of data pipeline activities to Purview in order to track data lineage information.
+++ Security considerations <<topic2>>
++++_ Requires Collection Administrator access to the Purview account's root collection
++++_ Managed identity will become a data curator
++ Search a Purview catalog in Synapse Studio <<topic3>>
++ Track data lineage in pipelines <<topic4>>
+++ From <<topic4>>
++++_ The Copy Data activity
++++_ The Data Flow activity
+++ The assets recorded include <<topic4>>
++++_ The source from which the data is extracted
++++_ The activity used to transfer the data
++++_ The destination where the data is stored
@endmindmap

PlantUML version 1.2022.7(Mon Aug 22 19:01:30 CEST 2022)
(GPL source distribution)
Java Runtime: OpenJDK Runtime Environment
JVM: OpenJDK 64-Bit Server VM
Default Encoding: Cp1252
Language: en
Country: US
--></g></svg>