<?xml version="1.0" encoding="UTF-8" standalone="no"?><svg xmlns="http://www.w3.org/2000/svg" xmlns:xlink="http://www.w3.org/1999/xlink" contentStyleType="text/css" height="296px" preserveAspectRatio="none" style="width:1059px;height:296px;background:#FFFFFF;" version="1.1" viewBox="0 0 1059 296" width="1059px" zoomAndPan="magnify"><defs/><g><rect fill="#091F2C" height="37.6094" rx="12.5" ry="12.5" style="stroke:#181818;stroke-width:3.0;" width="127" x="10" y="128.4609"/><text fill="#FFFFFF" font-family="sans-serif" font-size="14" lengthAdjust="spacing" textLength="107" x="20" y="152.9941">Azure Databricks</text><rect fill="#FFB900" height="37.6094" rx="12.5" ry="12.5" style="stroke:#FFB900;stroke-width:3.0;" width="251" x="187" y="40.2188"/><text fill="#000000" font-family="sans-serif" font-size="14" lengthAdjust="spacing" textLength="227" x="197" y="64.752">1) Get started with Azure Databricks</text><text fill="#000000" font-family="sans-serif" font-size="14" lengthAdjust="spacing" textLength="245" x="491" y="25.5332">Create an Azure Databricks workspace</text><path d="M438,59.0234 L448,59.0234 C463,59.0234 463,19.8047 478,19.8047 L488,19.8047 " fill="none" style="stroke:#FFB900;stroke-width:3.0;"/><rect fill="#FFB900" height="37.6094" rx="12.5" ry="12.5" style="stroke:#FFB900;stroke-width:3.0;" width="98" x="488" y="40.2188"/><text fill="#000000" font-family="sans-serif" font-size="14" lengthAdjust="spacing" textLength="74" x="498" y="64.752">Pricing tiers</text><text fill="#000000" font-family="sans-serif" font-size="14" lengthAdjust="spacing" textLength="202" x="639" y="45.1426">Standard (Azure AD integration)</text><path d="M586,59.0234 L596,59.0234 C611,59.0234 611,39.4141 626,39.4141 L636,39.4141 " fill="none" style="stroke:#FFB900;stroke-width:3.0;"/><text fill="#000000" font-family="sans-serif" font-size="14" lengthAdjust="spacing" textLength="408" x="639" y="64.752">Premium (Role-based access control + Enterprise-level features)</text><path d="M586,59.0234 L596,59.0234 C611,59.0234 611,59.0234 626,59.0234 L636,59.0234 " fill="none" style="stroke:#FFB900;stroke-width:3.0;"/><text fill="#000000" font-family="sans-serif" font-size="14" lengthAdjust="spacing" textLength="142" x="639" y="84.3613">Trial (14-day free trial)</text><path d="M586,59.0234 L596,59.0234 C611,59.0234 611,78.6328 626,78.6328 L636,78.6328 " fill="none" style="stroke:#FFB900;stroke-width:3.0;"/><path d="M438,59.0234 L448,59.0234 C463,59.0234 463,59.0234 478,59.0234 L488,59.0234 " fill="none" style="stroke:#FFB900;stroke-width:3.0;"/><text fill="#000000" font-family="sans-serif" font-size="14" lengthAdjust="spacing" textLength="199" x="491" y="103.9707">Use the Azure Databricks portal</text><path d="M438,59.0234 L448,59.0234 C463,59.0234 463,98.2422 478,98.2422 L488,98.2422 " fill="none" style="stroke:#FFB900;stroke-width:3.0;"/><path d="M137,147.2656 L147,147.2656 C162,147.2656 162,59.0234 177,59.0234 L187,59.0234 " fill="none" style="stroke:#181818;stroke-width:3.0;"/><rect fill="#F4364C" height="37.6094" rx="12.5" ry="12.5" style="stroke:#F4364C;stroke-width:3.0;" width="264" x="187" y="118.6563"/><text fill="#FFFFFF" font-family="sans-serif" font-size="14" lengthAdjust="spacing" textLength="240" x="197" y="143.1895">2) Identify Azure Databricks workloads</text><text fill="#000000" font-family="sans-serif" font-size="14" lengthAdjust="spacing" textLength="192" x="504" y="123.5801">Data Science and Engineering</text><path d="M451,137.4609 L461,137.4609 C476,137.4609 476,117.8516 491,117.8516 L501,117.8516 " fill="none" style="stroke:#F4364C;stroke-width:3.0;"/><text fill="#000000" font-family="sans-serif" font-size="14" lengthAdjust="spacing" textLength="113" x="504" y="143.1895">Machine Learning</text><path d="M451,137.4609 L461,137.4609 C476,137.4609 476,137.4609 491,137.4609 L501,137.4609 " fill="none" style="stroke:#F4364C;stroke-width:3.0;"/><text fill="#000000" font-family="sans-serif" font-size="14" lengthAdjust="spacing" textLength="174" x="504" y="162.7988">SQL Warehouse (Premium)</text><path d="M451,137.4609 L461,137.4609 C476,137.4609 476,157.0703 491,157.0703 L501,157.0703 " fill="none" style="stroke:#F4364C;stroke-width:3.0;"/><path d="M137,147.2656 L147,147.2656 C162,147.2656 162,137.4609 177,137.4609 L187,137.4609 " fill="none" style="stroke:#181818;stroke-width:3.0;"/><rect fill="#C5B4E3" height="37.6094" rx="12.5" ry="12.5" style="stroke:#C5B4E3;stroke-width:3.0;" width="201" x="187" y="206.8984"/><text fill="#000000" font-family="sans-serif" font-size="14" lengthAdjust="spacing" textLength="177" x="197" y="231.4316">3) Understand key concepts</text><text fill="#000000" font-family="sans-serif" font-size="14" lengthAdjust="spacing" textLength="145" x="441" y="182.4082">Apache Spark Clusters</text><path d="M388,225.7031 L398,225.7031 C413,225.7031 413,176.6797 428,176.6797 L438,176.6797 " fill="none" style="stroke:#C5B4E3;stroke-width:3.0;"/><text fill="#000000" font-family="sans-serif" font-size="14" lengthAdjust="spacing" textLength="290" x="441" y="202.0176">Databricks File System DBFS (mount storage)</text><path d="M388,225.7031 L398,225.7031 C413,225.7031 413,196.2891 428,196.2891 L438,196.2891 " fill="none" style="stroke:#C5B4E3;stroke-width:3.0;"/><text fill="#000000" font-family="sans-serif" font-size="14" lengthAdjust="spacing" textLength="67" x="441" y="221.627">Notebooks</text><path d="M388,225.7031 L398,225.7031 C413,225.7031 413,215.8984 428,215.8984 L438,215.8984 " fill="none" style="stroke:#C5B4E3;stroke-width:3.0;"/><text fill="#000000" font-family="sans-serif" font-size="14" lengthAdjust="spacing" textLength="94" x="441" y="241.2363">Hive metastore</text><path d="M388,225.7031 L398,225.7031 C413,225.7031 413,235.5078 428,235.5078 L438,235.5078 " fill="none" style="stroke:#C5B4E3;stroke-width:3.0;"/><text fill="#000000" font-family="sans-serif" font-size="14" lengthAdjust="spacing" textLength="68" x="441" y="260.8457">Delta Lake</text><path d="M388,225.7031 L398,225.7031 C413,225.7031 413,255.1172 428,255.1172 L438,255.1172 " fill="none" style="stroke:#C5B4E3;stroke-width:3.0;"/><text fill="#000000" font-family="sans-serif" font-size="14" lengthAdjust="spacing" textLength="174" x="441" y="280.4551">SQL Warehouse (Premium)</text><path d="M388,225.7031 L398,225.7031 C413,225.7031 413,274.7266 428,274.7266 L438,274.7266 " fill="none" style="stroke:#C5B4E3;stroke-width:3.0;"/><path d="M137,147.2656 L147,147.2656 C162,147.2656 162,225.7031 177,225.7031 L187,225.7031 " fill="none" style="stroke:#181818;stroke-width:3.0;"/><!--MD5=[31b78a3863ed01ee76265528fc0b6561]
@startmindmap
<style>
:depth(0) {
    BackgroundColor #091f2c
    FontColor #ffffff
    LineThickness 3.0
}
.topic1 {
    BackgroundColor #ffb900
    LineColor #ffb900
    LineThickness 3.0
    FontColor #000000
}
.topic2 {
    BackgroundColor #f4364c
    LineColor #f4364c
    LineThickness 3.0
    FontColor #ffffff
}
.topic3 {
    BackgroundColor #c5b4e3
    LineColor #c5b4e3
    LineThickness 3.0
    FontColor #000000
}
.topic4 {
    BackgroundColor #e1d3c7
    LineColor #e1d3c7
    LineThickness 3.0
    FontColor #000000
}
.topic5 {
    BackgroundColor #07641d
    LineColor #07641d
    LineThickness 3.0
    FontColor #ffffff
}
</style>
+ Azure Databricks
++ 1) Get started with Azure Databricks <<topic1>>
+++_ Create an Azure Databricks workspace
+++ Pricing tiers <<topic1>>
++++_ Standard (Azure AD integration)
++++_ Premium (Role-based access control + Enterprise-level features)
++++_ Trial (14-day free trial)
+++_ Use the Azure Databricks portal
++ 2) Identify Azure Databricks workloads <<topic2>>
+++_ Data Science and Engineering
+++_ Machine Learning
+++_ SQL Warehouse (Premium)
++ 3) Understand key concepts <<topic3>>
+++_ Apache Spark Clusters
+++_ Databricks File System DBFS (mount storage)
+++_ Notebooks
+++_ Hive metastore
+++_ Delta Lake
+++_ SQL Warehouse (Premium)
@endmindmap

PlantUML version 1.2022.7(Mon Aug 22 19:01:30 CEST 2022)
(GPL source distribution)
Java Runtime: OpenJDK Runtime Environment
JVM: OpenJDK 64-Bit Server VM
Default Encoding: Cp1252
Language: en
Country: US
--></g></svg>