<?xml version="1.0" encoding="UTF-8" standalone="no"?><svg xmlns="http://www.w3.org/2000/svg" xmlns:xlink="http://www.w3.org/1999/xlink" contentStyleType="text/css" height="355px" preserveAspectRatio="none" style="width:1042px;height:355px;background:#FFFFFF;" version="1.1" viewBox="0 0 1042 355" width="1042px" zoomAndPan="magnify"><defs/><g><rect fill="none" height="47.7344" id="_title" style="stroke:none;stroke-width:1.0;" width="496" x="271.5" y="15"/><a href="https://learn.microsoft.com/training/modules/explore-azure-databricks/" target="_top" title="https://learn.microsoft.com/training/modules/explore-azure-databricks/" xlink:actuate="onRequest" xlink:href="https://learn.microsoft.com/training/modules/explore-azure-databricks/" xlink:show="new" xlink:title="https://learn.microsoft.com/training/modules/explore-azure-databricks/" xlink:type="simple"><text fill="#0000FF" font-family="sans-serif" font-size="30" font-weight="bold" lengthAdjust="spacing" text-decoration="underline" textLength="104" x="276.5" y="51.1426">Module</text></a><text fill="#000000" font-family="sans-serif" font-size="30" font-weight="bold" lengthAdjust="spacing" textLength="382" x="380.5" y="51.1426">: Explore Azure Databricks</text><rect fill="#091F2C" height="37.6094" rx="12.5" ry="12.5" style="stroke:#181818;stroke-width:3.0;" width="127" x="10" y="187.1953"/><text fill="#FFFFFF" font-family="sans-serif" font-size="14" lengthAdjust="spacing" textLength="107" x="20" y="211.7285">Azure Databricks</text><rect fill="#FFB900" height="37.6094" rx="12.5" ry="12.5" style="stroke:#FFB900;stroke-width:3.0;" width="234" x="187" y="98.9531"/><text fill="#000000" font-family="sans-serif" font-size="14" lengthAdjust="spacing" textLength="210" x="197" y="123.4863">Get started with Azure Databricks</text><text fill="#000000" font-family="sans-serif" font-size="14" lengthAdjust="spacing" textLength="256" x="474" y="84.2676">Creating an Azure Databricks workspace</text><path d="M421,117.7578 L431,117.7578 C446,117.7578 446,78.5391 461,78.5391 L471,78.5391 " fill="none" style="stroke:#FFB900;stroke-width:3.0;"/><rect fill="#FFB900" height="37.6094" rx="12.5" ry="12.5" style="stroke:#FFB900;stroke-width:3.0;" width="98" x="471" y="98.9531"/><text fill="#000000" font-family="sans-serif" font-size="14" lengthAdjust="spacing" textLength="74" x="481" y="123.4863">Pricing tiers</text><text fill="#000000" font-family="sans-serif" font-size="14" lengthAdjust="spacing" textLength="202" x="622" y="103.877">Standard (Azure AD integration)</text><path d="M569,117.7578 L579,117.7578 C594,117.7578 594,98.1484 609,98.1484 L619,98.1484 " fill="none" style="stroke:#FFB900;stroke-width:3.0;"/><text fill="#000000" font-family="sans-serif" font-size="14" lengthAdjust="spacing" textLength="408" x="622" y="123.4863">Premium (Role-based access control + Enterprise-level features)</text><path d="M569,117.7578 L579,117.7578 C594,117.7578 594,117.7578 609,117.7578 L619,117.7578 " fill="none" style="stroke:#FFB900;stroke-width:3.0;"/><text fill="#000000" font-family="sans-serif" font-size="14" lengthAdjust="spacing" textLength="142" x="622" y="143.0957">Trial (14-day free trial)</text><path d="M569,117.7578 L579,117.7578 C594,117.7578 594,137.3672 609,137.3672 L619,137.3672 " fill="none" style="stroke:#FFB900;stroke-width:3.0;"/><path d="M421,117.7578 L431,117.7578 C446,117.7578 446,117.7578 461,117.7578 L471,117.7578 " fill="none" style="stroke:#FFB900;stroke-width:3.0;"/><text fill="#000000" font-family="sans-serif" font-size="14" lengthAdjust="spacing" textLength="210" x="474" y="162.7051">Using the Azure Databricks portal</text><path d="M421,117.7578 L431,117.7578 C446,117.7578 446,156.9766 461,156.9766 L471,156.9766 " fill="none" style="stroke:#FFB900;stroke-width:3.0;"/><path d="M137,206 L147,206 C162,206 162,117.7578 177,117.7578 L187,117.7578 " fill="none" style="stroke:#181818;stroke-width:3.0;"/><rect fill="#F4364C" height="37.6094" rx="12.5" ry="12.5" style="stroke:#F4364C;stroke-width:3.0;" width="247" x="187" y="177.3906"/><text fill="#FFFFFF" font-family="sans-serif" font-size="14" lengthAdjust="spacing" textLength="223" x="197" y="201.9238">Identify Azure Databricks workloads</text><text fill="#000000" font-family="sans-serif" font-size="14" lengthAdjust="spacing" textLength="192" x="487" y="182.3145">Data Science and Engineering</text><path d="M434,196.1953 L444,196.1953 C459,196.1953 459,176.5859 474,176.5859 L484,176.5859 " fill="none" style="stroke:#F4364C;stroke-width:3.0;"/><text fill="#000000" font-family="sans-serif" font-size="14" lengthAdjust="spacing" textLength="113" x="487" y="201.9238">Machine Learning</text><path d="M434,196.1953 L444,196.1953 C459,196.1953 459,196.1953 474,196.1953 L484,196.1953 " fill="none" style="stroke:#F4364C;stroke-width:3.0;"/><text fill="#000000" font-family="sans-serif" font-size="14" lengthAdjust="spacing" textLength="174" x="487" y="221.5332">SQL Warehouse (Premium)</text><path d="M434,196.1953 L444,196.1953 C459,196.1953 459,215.8047 474,215.8047 L484,215.8047 " fill="none" style="stroke:#F4364C;stroke-width:3.0;"/><path d="M137,206 L147,206 C162,206 162,196.1953 177,196.1953 L187,196.1953 " fill="none" style="stroke:#181818;stroke-width:3.0;"/><rect fill="#C5B4E3" height="37.6094" rx="12.5" ry="12.5" style="stroke:#C5B4E3;stroke-width:3.0;" width="184" x="187" y="265.6328"/><text fill="#000000" font-family="sans-serif" font-size="14" lengthAdjust="spacing" textLength="160" x="197" y="290.166">Understand key concepts</text><text fill="#000000" font-family="sans-serif" font-size="14" lengthAdjust="spacing" textLength="145" x="424" y="241.1426">Apache Spark Clusters</text><path d="M371,284.4375 L381,284.4375 C396,284.4375 396,235.4141 411,235.4141 L421,235.4141 " fill="none" style="stroke:#C5B4E3;stroke-width:3.0;"/><text fill="#000000" font-family="sans-serif" font-size="14" lengthAdjust="spacing" textLength="290" x="424" y="260.752">Databricks File System DBFS (mount storage)</text><path d="M371,284.4375 L381,284.4375 C396,284.4375 396,255.0234 411,255.0234 L421,255.0234 " fill="none" style="stroke:#C5B4E3;stroke-width:3.0;"/><text fill="#000000" font-family="sans-serif" font-size="14" lengthAdjust="spacing" textLength="67" x="424" y="280.3613">Notebooks</text><path d="M371,284.4375 L381,284.4375 C396,284.4375 396,274.6328 411,274.6328 L421,274.6328 " fill="none" style="stroke:#C5B4E3;stroke-width:3.0;"/><text fill="#000000" font-family="sans-serif" font-size="14" lengthAdjust="spacing" textLength="94" x="424" y="299.9707">Hive metastore</text><path d="M371,284.4375 L381,284.4375 C396,284.4375 396,294.2422 411,294.2422 L421,294.2422 " fill="none" style="stroke:#C5B4E3;stroke-width:3.0;"/><text fill="#000000" font-family="sans-serif" font-size="14" lengthAdjust="spacing" textLength="68" x="424" y="319.5801">Delta Lake</text><path d="M371,284.4375 L381,284.4375 C396,284.4375 396,313.8516 411,313.8516 L421,313.8516 " fill="none" style="stroke:#C5B4E3;stroke-width:3.0;"/><text fill="#000000" font-family="sans-serif" font-size="14" lengthAdjust="spacing" textLength="174" x="424" y="339.1895">SQL Warehouse (Premium)</text><path d="M371,284.4375 L381,284.4375 C396,284.4375 396,333.4609 411,333.4609 L421,333.4609 " fill="none" style="stroke:#C5B4E3;stroke-width:3.0;"/><path d="M137,206 L147,206 C162,206 162,284.4375 177,284.4375 L187,284.4375 " fill="none" style="stroke:#181818;stroke-width:3.0;"/><!--MD5=[a01ba33a76d09230b5060a7a1f5991ee]
@startmindmap
<style>
title {
        FontSize 30
        FontColor #000000
    }
mindmapDiagram {
    :depth(0) {
        BackgroundColor #091f2c
        FontColor #ffffff
        LineThickness 3.0
    }
    .topic1 {
        BackgroundColor #ffb900
        LineColor #ffb900
        LineThickness 3.0
        FontColor #000000
    }
    .topic2 {
        BackgroundColor #f4364c
        LineColor #f4364c
        LineThickness 3.0
        FontColor #ffffff
    }
    .topic3 {
        BackgroundColor #c5b4e3
        LineColor #c5b4e3
        LineThickness 3.0
        FontColor #000000
    }
    .topic4 {
        BackgroundColor #e1d3c7
        LineColor #e1d3c7
        LineThickness 3.0
        FontColor #000000
    }
    .topic5 {
        BackgroundColor #07641d
        LineColor #07641d
        LineThickness 3.0
        FontColor #ffffff
    }
}
</style>
title [[https://learn.microsoft.com/training/modules/explore-azure-databricks/ Module]]: Explore Azure Databricks
+ Azure Databricks
++ Get started with Azure Databricks <<topic1>>
+++_ Creating an Azure Databricks workspace
+++ Pricing tiers <<topic1>>
++++_ Standard (Azure AD integration)
++++_ Premium (Role-based access control + Enterprise-level features)
++++_ Trial (14-day free trial)
+++_ Using the Azure Databricks portal
++ Identify Azure Databricks workloads <<topic2>>
+++_ Data Science and Engineering
+++_ Machine Learning
+++_ SQL Warehouse (Premium)
++ Understand key concepts <<topic3>>
+++_ Apache Spark Clusters
+++_ Databricks File System DBFS (mount storage)
+++_ Notebooks
+++_ Hive metastore
+++_ Delta Lake
+++_ SQL Warehouse (Premium)
@endmindmap

PlantUML version 1.2022.7(Mon Aug 22 19:01:30 CEST 2022)
(GPL source distribution)
Java Runtime: OpenJDK Runtime Environment
JVM: OpenJDK 64-Bit Server VM
Default Encoding: Cp1252
Language: en
Country: US
--></g></svg>