<?xml version="1.0" encoding="UTF-8" standalone="no"?><svg xmlns="http://www.w3.org/2000/svg" xmlns:xlink="http://www.w3.org/1999/xlink" contentStyleType="text/css" height="601px" preserveAspectRatio="none" style="width:1297px;height:601px;background:#FFFFFF;" version="1.1" viewBox="0 0 1297 601" width="1297px" zoomAndPan="magnify"><defs/><g><rect fill="#091F2C" height="37.6094" rx="12.5" ry="12.5" style="stroke:#181818;stroke-width:3.0;" width="109" x="10" y="280.7656"/><text fill="#FFFFFF" font-family="sans-serif" font-size="14" lengthAdjust="spacing" textLength="89" x="20" y="305.2988">Apache Spark</text><rect fill="#FFB900" height="37.6094" rx="12.5" ry="12.5" style="stroke:#FFB900;stroke-width:3.0;" width="157" x="169" y="77.9141"/><text fill="#000000" font-family="sans-serif" font-size="14" lengthAdjust="spacing" textLength="133" x="179" y="102.4473">1) Get to know Spark</text><rect fill="#FFB900" height="37.6094" rx="12.5" ry="12.5" style="stroke:#FFB900;stroke-width:3.0;" width="145" x="376" y="20.6094"/><text fill="#000000" font-family="sans-serif" font-size="14" lengthAdjust="spacing" textLength="121" x="386" y="45.1426">High-level overview</text><text fill="#000000" font-family="sans-serif" font-size="14" lengthAdjust="spacing" textLength="52" x="574" y="25.5332">Clusters</text><path d="M521,39.4141 L531,39.4141 C546,39.4141 546,19.8047 561,19.8047 L571,19.8047 " fill="none" style="stroke:#FFB900;stroke-width:3.0;"/><text fill="#000000" font-family="sans-serif" font-size="14" lengthAdjust="spacing" textLength="155" x="574" y="45.1426">Driver and worker nodes</text><path d="M521,39.4141 L531,39.4141 C546,39.4141 546,39.4141 561,39.4141 L571,39.4141 " fill="none" style="stroke:#FFB900;stroke-width:3.0;"/><text fill="#000000" font-family="sans-serif" font-size="14" lengthAdjust="spacing" textLength="94" x="574" y="64.752">SparkSessions</text><path d="M521,39.4141 L531,39.4141 C546,39.4141 546,59.0234 561,59.0234 L571,59.0234 " fill="none" style="stroke:#FFB900;stroke-width:3.0;"/><path d="M326,96.7188 L336,96.7188 C351,96.7188 351,39.4141 366,39.4141 L376,39.4141 " fill="none" style="stroke:#FFB900;stroke-width:3.0;"/><rect fill="#FFB900" height="37.6094" rx="12.5" ry="12.5" style="stroke:#FFB900;stroke-width:3.0;" width="144" x="376" y="78.2188"/><text fill="#000000" font-family="sans-serif" font-size="14" lengthAdjust="spacing" textLength="120" x="386" y="102.752">Spark jobs in detail</text><text fill="#000000" font-family="sans-serif" font-size="14" lengthAdjust="spacing" textLength="228" x="573" y="92.9473">JVM Java Virtual Machine (executor)</text><path d="M520,97.0234 L530,97.0234 C545,97.0234 545,87.2188 560,87.2188 L570,87.2188 " fill="none" style="stroke:#FFB900;stroke-width:3.0;"/><text fill="#000000" font-family="sans-serif" font-size="14" lengthAdjust="spacing" textLength="143" x="573" y="112.5566">Slots (tasks in parallel)</text><path d="M520,97.0234 L530,97.0234 C545,97.0234 545,106.8281 560,106.8281 L570,106.8281 " fill="none" style="stroke:#FFB900;stroke-width:3.0;"/><path d="M326,96.7188 L336,96.7188 C351,96.7188 351,97.0234 366,97.0234 L376,97.0234 " fill="none" style="stroke:#FFB900;stroke-width:3.0;"/><rect fill="#FFB900" height="37.6094" rx="12.5" ry="12.5" style="stroke:#FFB900;stroke-width:3.0;" width="131" x="376" y="135.8281"/><text fill="#000000" font-family="sans-serif" font-size="14" lengthAdjust="spacing" textLength="103" x="386" y="160.3613">Jobs and stages</text><path d="M326,96.7188 L336,96.7188 C351,96.7188 351,154.6328 366,154.6328 L376,154.6328 " fill="none" style="stroke:#FFB900;stroke-width:3.0;"/><path d="M119,299.5703 L129,299.5703 C144,299.5703 144,96.7188 159,96.7188 L169,96.7188 " fill="none" style="stroke:#181818;stroke-width:3.0;"/><rect fill="#F4364C" height="37.6094" rx="12.5" ry="12.5" style="stroke:#F4364C;stroke-width:3.0;" width="183" x="169" y="194.0469"/><text fill="#FFFFFF" font-family="sans-serif" font-size="14" lengthAdjust="spacing" textLength="159" x="179" y="218.5801">2) Create a Spark cluster</text><rect fill="#F4364C" height="37.6094" rx="12.5" ry="12.5" style="stroke:#F4364C;stroke-width:3.0;" width="104" x="402" y="194.0469"/><text fill="#FFFFFF" font-family="sans-serif" font-size="14" lengthAdjust="spacing" textLength="84" x="412" y="218.5801">Cluster mode</text><text fill="#000000" font-family="sans-serif" font-size="14" lengthAdjust="spacing" textLength="58" x="559" y="198.9707">Standard</text><path d="M506,212.8516 L516,212.8516 C531,212.8516 531,193.2422 546,193.2422 L556,193.2422 " fill="none" style="stroke:#F4364C;stroke-width:3.0;"/><text fill="#000000" font-family="sans-serif" font-size="14" lengthAdjust="spacing" textLength="415" x="559" y="218.5801">High Concurrency (multiple users will use the cluster concurrently)</text><path d="M506,212.8516 L516,212.8516 C531,212.8516 531,212.8516 546,212.8516 L556,212.8516 " fill="none" style="stroke:#F4364C;stroke-width:3.0;"/><text fill="#000000" font-family="sans-serif" font-size="14" lengthAdjust="spacing" textLength="67" x="559" y="238.1895">Single ode</text><path d="M506,212.8516 L516,212.8516 C531,212.8516 531,232.4609 546,232.4609 L556,232.4609 " fill="none" style="stroke:#F4364C;stroke-width:3.0;"/><path d="M352,212.8516 L362,212.8516 C377,212.8516 377,212.8516 392,212.8516 L402,212.8516 " fill="none" style="stroke:#F4364C;stroke-width:3.0;"/><path d="M119,299.5703 L129,299.5703 C144,299.5703 144,212.8516 159,212.8516 L169,212.8516 " fill="none" style="stroke:#181818;stroke-width:3.0;"/><rect fill="#C5B4E3" height="37.6094" rx="12.5" ry="12.5" style="stroke:#C5B4E3;stroke-width:3.0;" width="191" x="169" y="251.6563"/><text fill="#000000" font-family="sans-serif" font-size="14" lengthAdjust="spacing" textLength="167" x="179" y="276.1895">3) Use Spark in notebooks</text><path d="M119,299.5703 L129,299.5703 C144,299.5703 144,270.4609 159,270.4609 L169,270.4609 " fill="none" style="stroke:#181818;stroke-width:3.0;"/><rect fill="#E1D3C7" height="37.6094" rx="12.5" ry="12.5" style="stroke:#E1D3C7;stroke-width:3.0;" width="244" x="169" y="372.6914"/><text fill="#000000" font-family="sans-serif" font-size="14" lengthAdjust="spacing" textLength="220" x="179" y="397.2246">4) Use Spark to work with data files</text><rect fill="#E1D3C7" height="37.6094" rx="12.5" ry="12.5" style="stroke:#E1D3C7;stroke-width:3.0;" width="217" x="463" y="252.2656"/><text fill="#000000" font-family="sans-serif" font-size="14" lengthAdjust="spacing" textLength="193" x="473" y="276.7988">Exploring data with dataframes</text><text fill="#000000" font-family="sans-serif" font-size="14" lengthAdjust="spacing" textLength="190" x="733" y="266.9941">Loading data into a dataframe</text><path d="M680,271.0703 L690,271.0703 C705,271.0703 705,261.2656 720,261.2656 L730,261.2656 " fill="none" style="stroke:#E1D3C7;stroke-width:3.0;"/><text fill="#000000" font-family="sans-serif" font-size="14" lengthAdjust="spacing" textLength="198" x="733" y="286.6035">Specifying a dataframe schema</text><path d="M680,271.0703 L690,271.0703 C705,271.0703 705,280.875 720,280.875 L730,280.875 " fill="none" style="stroke:#E1D3C7;stroke-width:3.0;"/><path d="M413,391.4961 L423,391.4961 C438,391.4961 438,271.0703 453,271.0703 L463,271.0703 " fill="none" style="stroke:#E1D3C7;stroke-width:3.0;"/><rect fill="#E1D3C7" height="37.6094" rx="12.5" ry="12.5" style="stroke:#E1D3C7;stroke-width:3.0;" width="238" x="463" y="309.875"/><text fill="#000000" font-family="sans-serif" font-size="14" lengthAdjust="spacing" textLength="214" x="473" y="334.4082">Filtering and grouping dataframes</text><path d="M413,391.4961 L423,391.4961 C438,391.4961 438,328.6797 453,328.6797 L463,328.6797 " fill="none" style="stroke:#E1D3C7;stroke-width:3.0;"/><rect fill="#E1D3C7" height="37.6094" rx="12.5" ry="12.5" style="stroke:#E1D3C7;stroke-width:3.0;" width="226" x="463" y="430.3008"/><text fill="#000000" font-family="sans-serif" font-size="14" lengthAdjust="spacing" textLength="202" x="473" y="454.834">Using SQL expressions in Spark</text><rect fill="#E1D3C7" height="37.6094" rx="12.5" ry="12.5" style="stroke:#E1D3C7;stroke-width:3.0;" width="320" x="739" y="377.8984"/><text fill="#000000" font-family="sans-serif" font-size="14" lengthAdjust="spacing" textLength="296" x="749" y="402.4316">Creating database objects in the Spark catalog</text><text fill="#000000" font-family="sans-serif" font-size="14" lengthAdjust="spacing" textLength="173" x="1112" y="373.0176">createOrReplaceTempView</text><path d="M1059,396.7031 L1069,396.7031 C1084,396.7031 1084,367.2891 1099,367.2891 L1109,367.2891 " fill="none" style="stroke:#E1D3C7;stroke-width:3.0;"/><text fill="#000000" font-family="sans-serif" font-size="14" lengthAdjust="spacing" textLength="76" x="1112" y="392.627">createTable</text><path d="M1059,396.7031 L1069,396.7031 C1084,396.7031 1084,386.8984 1099,386.8984 L1109,386.8984 " fill="none" style="stroke:#E1D3C7;stroke-width:3.0;"/><text fill="#000000" font-family="sans-serif" font-size="14" lengthAdjust="spacing" textLength="82" x="1112" y="412.2363">saveAsTable</text><path d="M1059,396.7031 L1069,396.7031 C1084,396.7031 1084,406.5078 1099,406.5078 L1109,406.5078 " fill="none" style="stroke:#E1D3C7;stroke-width:3.0;"/><text fill="#000000" font-family="sans-serif" font-size="14" lengthAdjust="spacing" textLength="127" x="1112" y="431.8457">createExternalTable</text><path d="M1059,396.7031 L1069,396.7031 C1084,396.7031 1084,426.1172 1099,426.1172 L1109,426.1172 " fill="none" style="stroke:#E1D3C7;stroke-width:3.0;"/><path d="M689,449.1055 L699,449.1055 C714,449.1055 714,396.7031 729,396.7031 L739,396.7031 " fill="none" style="stroke:#E1D3C7;stroke-width:3.0;"/><rect fill="#E1D3C7" height="37.6094" rx="12.5" ry="12.5" style="stroke:#E1D3C7;stroke-width:3.0;" width="269" x="739" y="435.5078"/><text fill="#000000" font-family="sans-serif" font-size="14" lengthAdjust="spacing" textLength="245" x="749" y="460.041">Using the Spark SQL API to query data</text><path d="M689,449.1055 L699,449.1055 C714,449.1055 714,454.3125 729,454.3125 L739,454.3125 " fill="none" style="stroke:#E1D3C7;stroke-width:3.0;"/><rect fill="#E1D3C7" height="37.6094" rx="12.5" ry="12.5" style="stroke:#E1D3C7;stroke-width:3.0;" width="126" x="739" y="493.1172"/><text fill="#000000" font-family="sans-serif" font-size="14" lengthAdjust="spacing" textLength="102" x="749" y="517.6504">Using SQL code</text><path d="M689,449.1055 L699,449.1055 C714,449.1055 714,511.9219 729,511.9219 L739,511.9219 " fill="none" style="stroke:#E1D3C7;stroke-width:3.0;"/><path d="M413,391.4961 L423,391.4961 C438,391.4961 438,449.1055 453,449.1055 L463,449.1055 " fill="none" style="stroke:#E1D3C7;stroke-width:3.0;"/><path d="M119,299.5703 L129,299.5703 C144,299.5703 144,391.4961 159,391.4961 L169,391.4961 " fill="none" style="stroke:#181818;stroke-width:3.0;"/><rect fill="#07641D" height="37.6094" rx="12.5" ry="12.5" style="stroke:#07641D;stroke-width:3.0;" width="128" x="169" y="541.5313"/><text fill="#FFFFFF" font-family="sans-serif" font-size="14" lengthAdjust="spacing" textLength="104" x="179" y="566.0645">5) Visualize data</text><text fill="#000000" font-family="sans-serif" font-size="14" lengthAdjust="spacing" textLength="187" x="350" y="556.2598">Using built-in notebook charts</text><path d="M297,560.3359 L307,560.3359 C322,560.3359 322,550.5313 337,550.5313 L347,550.5313 " fill="none" style="stroke:#07641D;stroke-width:3.0;"/><text fill="#000000" font-family="sans-serif" font-size="14" lengthAdjust="spacing" textLength="282" x="350" y="575.8691">Using graphics packages in code (matplotlib)</text><path d="M297,560.3359 L307,560.3359 C322,560.3359 322,570.1406 337,570.1406 L347,570.1406 " fill="none" style="stroke:#07641D;stroke-width:3.0;"/><path d="M119,299.5703 L129,299.5703 C144,299.5703 144,560.3359 159,560.3359 L169,560.3359 " fill="none" style="stroke:#181818;stroke-width:3.0;"/><!--MD5=[71d4b9acd6fa8b3316679dbd7c25ba4a]
@startmindmap
<style>
:depth(0) {
    BackgroundColor #091f2c
    FontColor #ffffff
    LineThickness 3.0
}
.topic1 {
    BackgroundColor #ffb900
    LineColor #ffb900
    LineThickness 3.0
    FontColor #000000
}
.topic2 {
    BackgroundColor #f4364c
    LineColor #f4364c
    LineThickness 3.0
    FontColor #ffffff
}
.topic3 {
    BackgroundColor #c5b4e3
    LineColor #c5b4e3
    LineThickness 3.0
    FontColor #000000
}
.topic4 {
    BackgroundColor #e1d3c7
    LineColor #e1d3c7
    LineThickness 3.0
    FontColor #000000
}
.topic5 {
    BackgroundColor #07641d
    LineColor #07641d
    LineThickness 3.0
    FontColor #ffffff
}
</style>
+ Apache Spark
++ 1) Get to know Spark <<topic1>>
+++ High-level overview <<topic1>>
++++_ Clusters
++++_ Driver and worker nodes
++++_ SparkSessions
+++ Spark jobs in detail <<topic1>>
++++_ JVM Java Virtual Machine (executor)
++++_ Slots (tasks in parallel)
+++ Jobs and stages  <<topic1>>
++ 2) Create a Spark cluster <<topic2>>
+++ Cluster mode<<topic2>>
++++_ Standard
++++_ High Concurrency (multiple users will use the cluster concurrently)
++++_ Single ode
++ 3) Use Spark in notebooks <<topic3>>
++ 4) Use Spark to work with data files <<topic4>>
+++ Exploring data with dataframes <<topic4>>
++++_ Loading data into a dataframe
++++_ Specifying a dataframe schema
+++ Filtering and grouping dataframes <<topic4>>
+++ Using SQL expressions in Spark <<topic4>>
++++ Creating database objects in the Spark catalog <<topic4>>
+++++_ createOrReplaceTempView
+++++_ createTable
+++++_ saveAsTable
+++++_ createExternalTable
++++ Using the Spark SQL API to query data <<topic4>>
++++ Using SQL code <<topic4>>
++ 5) Visualize data <<topic5>>
+++_ Using built-in notebook charts
+++_ Using graphics packages in code (matplotlib)
@endmindmap

PlantUML version 1.2022.7(Mon Aug 22 19:01:30 CEST 2022)
(GPL source distribution)
Java Runtime: OpenJDK Runtime Environment
JVM: OpenJDK 64-Bit Server VM
Default Encoding: Cp1252
Language: en
Country: US
--></g></svg>